<?xml version="1.0" standalone="no"?>
<!DOCTYPE svg PUBLIC "-//W3C//DTD SVG 1.1//EN" "http://www.w3.org/Graphics/SVG/1.1/DTD/svg11.dtd" >
<svg xmlns="http://www.w3.org/2000/svg" xmlns:xlink="http://www.w3.org/1999/xlink" version="1.1">
<metadata>
Created by FontForge 20201107 at Fri Jan 16 05:30:11 2026
 By 
extracted by PdfGrabber (extracted by PdfGrabber)
</metadata>
<defs>
<font id="TrajanPro3Regular" horiz-adv-x="1024" >
  <font-face 
    font-family="Trajan Pro 3"
    font-weight="400"
    font-stretch="normal"
    units-per-em="2048"
    panose-1="0 0 0 0 0 0 0 0 0 0"
    ascent="1638"
    descent="-410"
    x-height="1311"
    cap-height="1542"
    bbox="-348 -842 3949 2144"
    underline-thickness="0"
    underline-position="102"
    unicode-range="U+0020-25CA"
  />
<missing-glyph horiz-adv-x="1050" 
d="M1051 0h-1051v1454h1051v-1454zM526 633l-358 -529h715zM944 1257l-356 -530l356 -530v1060zM463 727l-357 530v-1060zM883 1350h-715l358 -529z" />
    <glyph glyph-name=".notdef" horiz-adv-x="1050" 
d="M1051 0h-1051v1454h1051v-1454zM526 633l-358 -529h715zM944 1257l-356 -530l356 -530v1060zM463 727l-357 530v-1060zM883 1350h-715l358 -529z" />
    <glyph glyph-name=".null" horiz-adv-x="0" 
 />
    <glyph glyph-name="nonmarkingreturn" horiz-adv-x="682" 
 />
    <glyph glyph-name="space" unicode=" " horiz-adv-x="665" 
 />
    <glyph glyph-name="space" unicode="&#xb7;" horiz-adv-x="665" 
 />
    <glyph glyph-name="exclam" unicode="!" horiz-adv-x="737" 
d="M406 377q-26 0 -29 69q-8 131 -19 303.5t-14 219.5q-21 314 -39 385q-8 31 -8 39q0 11 10 28q24 40 90 97q65 53 105 53q12 0 12 -21q0 1 -2 -13.5t-5 -41.5t-7 -60t-7.5 -75t-5.5 -80q-26 -490 -57 -838q-3 -65 -24 -65zM410 -35q-47 0 -75 30.5t-28 74.5
q0 41 28.5 72.5t76.5 31.5q45 0 74.5 -27.5t29.5 -70.5q0 -48 -29.5 -79.5t-76.5 -31.5z" />
    <glyph glyph-name="quotedbl" unicode="&#x22;" horiz-adv-x="751" 
d="M205 1679q88 0 88 -28q0 1 -1.5 -4t-5 -16.5t-7.5 -28t-8.5 -39.5t-9.5 -50t-10 -61.5t-9.5 -71.5t-8 -82.5t-6.5 -91.5q-3 -27 -12 -38t-17.5 0t-11.5 38q-15 265 -61 428l-6 17q0 28 86 28zM545 1679q88 0 88 -28q0 1 -1.5 -4t-5 -16.5t-7.5 -28t-8.5 -40t-9.5 -50.5
t-10 -61t-9.5 -70.5t-8 -81t-6.5 -89.5q-3 -30 -12 -41.5t-17.5 0t-11.5 39.5q-15 264 -61 426l-6 17q0 28 86 28z" />
    <glyph glyph-name="numbersign" unicode="#" horiz-adv-x="1210" 
d="M1124 1057v-115h-252l-47 -336h238v-114h-254l-72 -492h-71l71 492h-334l-73 -492h-72l74 492h-246v114h262l51 336h-247v115h264l73 487h74l-74 -487h330l70 487h72l-70 -487h233zM422 606h332l47 336h-328z" />
    <glyph glyph-name="dollar" unicode="$" horiz-adv-x="1169" 
d="M711 1483l-56 -606q183 -121 269 -220q86 -103 86 -249q0 -83 -27.5 -152t-71.5 -114t-102.5 -77t-116.5 -47t-117 -18l-16 -168q-3 -12 -10 -14l-53 -13q-14 0 -11 19l17 176q-157 6 -269 53q-38 17 -47.5 29.5t-9.5 44.5q0 119 19 242q6 39 22 39q13 0 10 -46
q-3 -119 56 -190q72 -87 225 -96l61 657q-201 136 -274 230q-74 95 -74 223q0 170 114.5 265t309.5 103l14 164q0 16 13 19l47 14q16 3 16 -10l-16 -189q55 -3 225 -30q19 -3 19 -33q0 -169 -9 -240q-3 -20 -16 -20q-16 0 -16 31q0 86 -51.5 148t-159.5 75zM586 924l53 563
q-112 -3 -197 -60q-84 -57 -84 -188q0 -88 48 -158q46 -67 180 -157zM637 686l-55 -612q134 7 206 84.5t72 203.5q0 92 -53 167.5t-170 156.5z" />
    <glyph glyph-name="percent" unicode="%" horiz-adv-x="1781" 
d="M1325 0q-164 0 -252 113q-88 110 -88 247q0 156 90 275q89 117 264 117q163 0 252 -111q88 -113 88 -250q0 -153 -90 -272q-91 -119 -264 -119zM1333 57q107 0 163 83t56 222q0 129 -59 232q-60 100 -164 100q-107 0 -162 -82.5t-55 -222.5q0 -128 59 -231
q58 -101 162 -101zM614 -8l-104 -17q-10 -1 -13.5 3.5t1.5 15.5q3 5 647 1509q-49 -2 -248 -16q-44 -3 -98 -7t-86 -6.5t-51 -3.5v-4q61 -43 97 -121t36 -171q0 -154 -90 -273q-91 -119 -263 -119q-164 0 -252 113q-88 110 -88 248q0 153 97 276q94 117 268 117
q161 0 780 47q13 0 13 -8q0 -1 -2.5 -7t-8.5 -20.5t-12 -31.5l-602 -1500q-9 -20 -21 -24zM451 840q107 0 162 82.5t55 222.5q0 128 -60 233q-58 101 -162 101q-107 0 -162 -84t-55 -224q0 -126 60 -231q57 -100 162 -100z" />
    <glyph glyph-name="ampersand" unicode="&#x26;" horiz-adv-x="1681" 
d="M600 -35q-124 0 -224.5 44.5t-158.5 117.5q-115 142 -115 291q0 312 310 493q-97 139 -97 283q0 137 125 256q124 121 316 121q142 0 229 -41q30 -13 37.5 -24.5t7.5 -37.5q0 -142 -12 -221q-9 -49 -23 -49q-12 0 -12 39q0 111 -63 174q-84 90 -205 90q-111 0 -185.5 -70
t-74.5 -198q0 -110 71 -219q71 -113 252 -305q70 -74 193 -187q114 -109 194 -180q45 63 75 157t30 183q0 61 -39 100q-22 22 -84 31q-41 9 -41 16q0 15 33 15q113 0 245 -15q37 -3 37 -41q0 -115 -61 -249q-66 -142 -141 -234q152 -128 282 -203q134 -79 240 -79
q30 0 33 -14q1 -9 -13 -13q-7 -2 -16 -2h-266q-89 6 -164 43q-82 40 -207 139q-211 -211 -508 -211zM674 78q247 0 383 139q-91 77 -199 182q-120 117 -170 170q-182 196 -246 289q-172 -114 -172 -344q0 -189 115 -313q114 -123 289 -123z" />
    <glyph glyph-name="quotesingle" unicode="'" horiz-adv-x="411" 
d="M205 1679q88 0 88 -28q0 1 -1.5 -4t-5 -16.5t-7.5 -28t-8.5 -39.5t-9.5 -50t-10 -61.5t-9.5 -71.5t-8 -82.5t-6.5 -91.5q-3 -27 -12 -38t-17.5 0t-11.5 38q-15 265 -61 428l-6 17q0 28 86 28z" />
    <glyph glyph-name="parenleft" unicode="(" horiz-adv-x="768" 
d="M279 719q0 -572 323 -907l4 -7q20 -30 0 -30q-7 0 -24 14q-154 116 -285 309q-79 113 -124.5 269t-45.5 329q0 135 33.5 269t85.5 235q50 95 116 182q64 82 115 133t109 95q21 12 26 12q11 -3 -4 -23l-8 -10q-144 -152 -232.5 -376.5t-88.5 -493.5z" />
    <glyph glyph-name="parenright" unicode=")" horiz-adv-x="796" 
d="M520 678q0 572 -323 907q-10 10 -13.5 20t6.5 17q10 0 27 -14q154 -116 287 -308q78 -115 123 -271t45 -329q0 -135 -33 -267.5t-86 -233.5q-54 -103 -117 -183q-109 -142 -223 -229q-21 -12 -27 -12q-10 2 4 22l9 10q144 152 232.5 377t88.5 494z" />
    <glyph glyph-name="plus" unicode="+" horiz-adv-x="1353" 
d="M1161 791v-107h-428v-455h-108v455h-432v107h430v440h108v-440h430z" />
    <glyph glyph-name="comma" unicode="," horiz-adv-x="540" 
d="M188 113q0 36 41 77t80 41q27 0 50.5 -43t23.5 -98q0 -124 -160 -295q-40 -43 -55 -43q-23 0 14 49q80 112 80 185q0 54 -57 102q-17 17 -17 25z" />
    <glyph glyph-name="hyphen" unicode="-" horiz-adv-x="706" 
d="M141 741h443q52 0 51 -16q-1 -18 -68 -31q-339 -61 -405 -80q-16 -4 -35.5 -10.5t-31 -10t-13.5 -3.5q-11 0 -8 28l26 107q3 16 41 16z" />
    <glyph glyph-name="period" unicode="." horiz-adv-x="512" 
d="M256 -16q-40 0 -67 22.5t-33.5 54.5t0 63.5t34 54t68.5 22.5q45 0 74.5 -30t29.5 -77t-30.5 -78.5t-75.5 -31.5z" />
    <glyph glyph-name="slash" unicode="/" horiz-adv-x="980" 
d="M98 8l695 1540q13 29 26 29q7 0 31 -11.5t31 -19.5q10 -10 0 -35l-699 -1552q-9 -18 -18 -18q-5 0 -32 13.5t-34 20.5q-10 10 0 33z" />
    <glyph glyph-name="zero" unicode="0" horiz-adv-x="1275" 
d="M1147 815q0 -366 -139 -608q-140 -242 -387 -242q-156 0 -271 115q-117 117 -168 282q-53 171 -53 359q0 377 139 616q138 234 385 234q131 0 235.5 -76.5t158.5 -202.5q100 -234 100 -477zM973 727q0 439 -164 657q-82 113 -197 113q-142 0 -225 -188q-84 -191 -84 -504
q0 -111 12.5 -217.5t40.5 -206.5t68.5 -175t102 -120t135.5 -45q142 0 227 190q84 194 84 496z" />
    <glyph glyph-name="one" unicode="1" horiz-adv-x="821" 
d="M354 616v674q0 62 -30 65.5t-115 -32.5l-84 -31q-12 0 -16 5t-0.5 12t12.5 14q54 37 170 111q135 87 170 112q39 25 49 25q16 0 16 -43l-2 -29q0 -14 -5 -329.5t-5 -553.5q0 -310 10 -477q5 -53 22.5 -76.5t63.5 -27.5l56 -6q32 -3 32 -21q0 -14 -34 -14q-135 0 -205 4
l-29 2h-37q-147 -6 -215 -6q-35 0 -35 14q0 17 29 17q10 0 78 6q54 4 73.5 30t24.5 91q6 89 6 464z" />
    <glyph glyph-name="two" unicode="2" horiz-adv-x="1169" 
d="M862 -2h-370h-263q-84 2 -143 2q-11 0 -20 8.5t-9 20.5q0 15 37 49q37 32 170 153q64 59 150 144q76 74 135 143q29 34 106 139q54 77 84.5 145.5t51.5 153.5q18 80 18 162q0 84 -21 151.5t-53.5 109t-76.5 69t-87.5 38.5t-87.5 11q-135 0 -219 -78q-74 -71 -74 -198
q0 -31 -16 -31q-13 0 -16 27q-13 120 -13 251q0 16 21 31q159 72 360 72q223 0 342 -119q121 -121 121 -295q0 -111 -47 -235.5t-119 -229.5q-64 -93 -172 -207q-88 -93 -180 -178q-17 -16 -172 -151q-32 -27 -27 -31q2 -2 9 -2h149q248 0 350 10q109 10 165.5 57t76.5 140
q6 30 22 30q13 0 13 -24q0 -65 -62 -275q-12 -40 -37.5 -51.5t-95.5 -11.5z" />
    <glyph glyph-name="three" unicode="3" horiz-adv-x="1161" 
d="M406 -37q-69 0 -140 14q-69 13 -110 35q-33 20 -33 58q0 158 14 256q3 30 17 30q11 0 14 -28q0 -4 2 -23.5t2 -23.5q37 -230 303 -230q168 0 269.5 95t101.5 268q0 94 -38 170.5t-103 122.5q-112 79 -238 104q-35 7 -47.5 17t-1 19.5t42.5 14.5q44 8 94.5 31t105 64
t90 109.5t35.5 152.5q0 30 -7 63t-27.5 72t-52 69.5t-85.5 51t-122 20.5q-117 0 -188 -64t-71 -178q0 -24 -14 -24q-11 0 -14 22q-15 114 -15 205q0 25 27 43q143 70 332 70q114 0 200.5 -32t129.5 -85q75 -93 75 -190q0 -70 -31.5 -136.5t-82.5 -113.5q-100 -93 -160 -119
v-10q120 -26 231 -131q107 -101 107 -263q0 -219 -172 -372q-174 -154 -440 -154z" />
    <glyph glyph-name="four" unicode="4" horiz-adv-x="1239" 
d="M741 461h-624q-43 0 -43 24q0 22 18 43q7 7 350 471q349 472 394 535q27 37 43 37q20 0 20 -35v-123q-2 -80 -2 -184v-658h156q22 0 41.5 5.5t31.5 11.5l11 6q10 0 10 -25q0 -12 -19 -80q-9 -28 -36 -28h-195q0 -254 4 -316q6 -64 38 -90.5t110 -27.5q49 0 49 -19
q0 -14 -33 -14q-28 0 -65 0.5t-70 1.5t-61.5 2t-45.5 1.5t-16 0.5q-140 -6 -238 -6q-32 0 -32 14q0 17 34 17q93 0 129 25.5t37 94.5q4 118 4 316zM217 571h524v725l-123 -170q-45 -61 -130.5 -180t-125.5 -174q-37 -50 -72.5 -100.5t-52 -73t-20.5 -27.5z" />
    <glyph glyph-name="five" unicode="5" horiz-adv-x="1126" 
d="M739 1405h-387l-28 -315q111 -28 185 -54t161 -71q91 -46 151 -103q63 -59 102.5 -146.5t39.5 -187.5q0 -220 -162 -391q-162 -174 -453 -174q-124 0 -188 37q-39 20 -39 57q0 211 8 258q9 37 18 37q17 0 17 -35q0 -145 71 -204.5t209 -59.5q147 0 254 101t107 297
q0 259 -252 399q-131 74 -268 98q-34 6 -44.5 13t-9.5 24l48 522q3 27 38 27h482q75 0 119 8q8 1 18.5 2.5t17 2.5t7.5 1q14 0 14 -20q0 -64 -27 -258q-3 -15 -10 -20.5t-12.5 1t-5.5 23.5q0 71 -37.5 101t-143.5 30z" />
    <glyph glyph-name="six" unicode="6" horiz-adv-x="1236" 
d="M623 -35q-235 0 -365 160q-129 156 -129 420q0 355 231 631q230 271 566 380q44 15 57 15q18 0 18 -12q0 -15 -53 -39q-246 -112 -430 -332q-99 -118 -155 -279t-56 -342q0 -221 92 -372q90 -152 256 -152q125 0 206 99t81 264q0 176 -94 301q-94 122 -225 122
q-99 0 -168 -34q-23 -10 -23 6q0 11 21 26q115 80 258 80q186 0 295 -127q106 -127 106 -295q0 -224 -137 -370q-138 -150 -352 -150z" />
    <glyph glyph-name="seven" unicode="7" horiz-adv-x="1105" 
d="M348 1536h664q37 0 37 -20q0 -16 -13 -39q-126 -186 -319 -656q-194 -464 -215 -659q-2 -15 -2 -28t1 -26t1 -18q0 -30 -82 -76q-82 -49 -119 -49q-18 0 -18 21q0 32 12 69q73 241 233 609q155 356 377 743h-504q-130 0 -190 -51q-69 -54 -78 -158q-3 -29 -18 -29
q-13 0 -13 33q0 20 17 180q14 132 14 146q0 28 21 28q73 -20 194 -20z" />
    <glyph glyph-name="eight" unicode="8" horiz-adv-x="1206" 
d="M725 866q66 -32 114.5 -65.5t110.5 -89.5q129 -116 129 -295q0 -187 -137 -318q-139 -133 -350 -133q-198 0 -330 111q-135 111 -135 291q0 273 360 448q-142 84 -212 175.5t-70 213.5q0 138 114 252q115 115 322 115q158 0 268 -90q107 -91 107 -238q0 -151 -105 -248
q-91 -84 -186 -129zM557 782q-270 -138 -270 -397q0 -139 92 -242q87 -100 229 -100q140 0 228 94q86 92 86 232q0 158 -117 258q-72 58 -109 80q-60 35 -139 75zM655 899q106 64 140 98q77 86 77 222q0 123 -71 202.5t-185 79.5q-125 0 -196 -80q-70 -82 -70 -178
q0 -126 92 -203q44 -40 86.5 -67.5t126.5 -73.5z" />
    <glyph glyph-name="nine" unicode="9" horiz-adv-x="1216" 
d="M618 1571q209 0 340 -158q129 -159 129 -399q0 -169 -50.5 -327t-131.5 -273q-80 -116 -184 -207q-100 -90 -182.5 -144t-184.5 -104q-4 -2 -11 -4.5t-16 -4t-15.5 1.5t-6.5 11q0 17 27 29q202 111 377 350q91 124 144.5 284.5t53.5 327.5q0 254 -96 400
q-99 141 -242 141q-130 0 -204 -92q-76 -91 -76 -221q0 -115 35 -203t92 -129q106 -76 190 -76q96 0 154 37q18 12 31 12q9 -3 7.5 -12t-10.5 -18q-89 -95 -245 -95q-199 0 -307 123q-107 122 -107 273q0 211 139 344t350 133z" />
    <glyph glyph-name="colon" unicode=":" horiz-adv-x="581" 
d="M291 -16q-40 0 -67 22.5t-33.5 54.5t0 63.5t34 54t68.5 22.5q45 0 74.5 -30t29.5 -77t-30.5 -78.5t-75.5 -31.5zM291 772q-40 0 -67 22.5t-33.5 54t0 63.5t34 54.5t68.5 22.5q45 0 74.5 -29.5t29.5 -76.5t-31 -79t-75 -32z" />
    <glyph glyph-name="semicolon" unicode=";" horiz-adv-x="581" 
d="M291 772q-40 0 -67 22.5t-33.5 54t0 63.5t34 54.5t68.5 22.5q45 0 74.5 -29.5t29.5 -76.5t-31 -79t-75 -32zM199 113q0 36 41 77t79 41q27 0 50.5 -43t23.5 -98q0 -124 -160 -295q-40 -43 -55 -43q-22 0 15 49q79 110 79 185q0 54 -57 102q-16 16 -16 25z" />
    <glyph glyph-name="less" unicode="&#x3c;" horiz-adv-x="1249" 
d="M1059 311v-116l-866 471v102l866 467v-117l-754 -401z" />
    <glyph glyph-name="equal" unicode="=" horiz-adv-x="1353" 
d="M1161 563v-110h-968v110h968zM1161 989v-110h-968v110h968z" />
    <glyph glyph-name="greater" unicode="&#x3e;" horiz-adv-x="1249" 
d="M193 1120v117l866 -471v-102l-866 -467v116l751 404z" />
    <glyph glyph-name="question" unicode="?" horiz-adv-x="1101" 
d="M608 1571q186 0 279 -96q92 -95 92 -224q0 -133 -68 -241q-57 -82 -73 -101q-12 -14 -47 -53t-54 -61q-66 -74 -110 -131q-84 -110 -84 -164q0 -58 32 -107q17 -27 17 -35q0 -16 -12 -16q-28 0 -88 72q-60 75 -60 121q0 45 45 102q16 21 75.5 91.5t65.5 78.5
q101 128 141 225t40 205q0 98 -58 180q-60 84 -182 84q-136 0 -201 -80q-62 -74 -71 -190q-3 -35 -17 -35q-13 0 -16 21q-8 36 -8 239q0 17 22 33q137 82 340 82zM561 -35q-40 0 -67 22.5t-33.5 54.5t0 63.5t34 54t68.5 22.5q45 0 75 -29.5t30 -76.5t-31 -79t-76 -32z" />
    <glyph glyph-name="at" unicode="@" horiz-adv-x="794" 
d="M375 1348v-1280q0 -148 14 -203q65 -24 215 -33q41 -5 41 -17q-1 -12 -33 -12h-323q-23 0 -28 5t-5 28v1737q0 17 6 21.5t29 4.5h321q35 0 35 -14q0 -16 -45 -16q-138 -9 -213 -31q-14 -55 -14 -190z" />
    <glyph glyph-name="A" unicode="A" horiz-adv-x="1433" 
d="M899 598h-440q-15 0 -21 -16l-123 -363q-28 -82 -28 -137q0 -28 21 -43.5t52 -15.5h19q27 0 27 -13q0 -16 -37 -16q-47 0 -86 2q-16 1 -32.5 2t-25 1.5t-10.5 0.5h-10q-10 -1 -31.5 -2t-46.5 -2q-57 -2 -143 -2q-39 0 -39 16q0 13 28 13q4 0 50 4q62 7 99.5 52t72.5 140
l464 1272q20 55 33 70.5t25 1.5t33 -66q13 -31 104 -270q140 -368 207 -539q109 -284 166 -426q83 -200 176 -227q37 -12 80 -12q22 0 22 -13q0 -16 -41 -16q-133 0 -321 4q-67 5 -62 19q3 6 15 10q18 6 18 26q0 14 -6 29l-190 504q-6 12 -19 12zM481 672h391q11 0 11 8
q0 4 -2 6l-195 553q-6 25 -14 25t-17 -25l-180 -553q-2 -2 -2 -8t8 -6z" />
    <glyph glyph-name="B" unicode="B" horiz-adv-x="1402" 
d="M365 588v360q0 336 -5 443q-5 57 -22.5 81.5t-65.5 34.5q-24 6 -59 6q-27 0 -27 13q0 16 33 16q22 0 54.5 -0.5t62.5 -1.5t56.5 -2t43 -1.5t15.5 -0.5q5 0 17 0.5t34 1.5t43 2q51 2 129 2q96 0 171 -22.5t118.5 -56t71.5 -77t38 -80t10 -71.5q0 -72 -29.5 -145
t-66.5 -117q-51 -60 -96 -107q139 -45 246 -155q108 -114 108 -277q0 -182 -137 -313q-139 -133 -385 -133q-2 0 -60 3t-88 3q-89 6 -124 6q-18 0 -99 -3t-102 -3q-31 0 -32 14q-2 11 20 14q5 1 10 1q22 0 49 6q42 9 57 114q11 104 11 445zM528 1452v-549q0 -16 15 -22
q50 -9 125 -9q81 0 123 11q33 9 63 43q74 83 74 207q0 141 -68 247q-70 105 -209 105q-53 0 -98 -10q-25 -6 -25 -23zM528 803v-117q0 -422 2 -442q5 -66 8.5 -86t16.5 -39q14 -19 45 -35q67 -31 180 -31q37 0 74 8t76.5 28.5t69.5 52t49.5 84t19.5 118.5q0 119 -49.5 229.5
t-149.5 180.5q-72 47 -170 59q-36 4 -159 4q-13 0 -13 -14z" />
    <glyph glyph-name="C" unicode="C" horiz-adv-x="1648" 
d="M1055 -35q-429 0 -676 221q-248 224 -248 607q0 128 53 282t176 277q219 219 625 219q159 0 297 -25q24 -5 217 -30q19 -3 19 -23q0 -3 -2 -18t-4.5 -42.5t-4.5 -54.5q-1 -11 -1.5 -27.5t-1 -42.5t-1.5 -46q-2 -55 -2 -95q-1 -27 -9.5 -38t-17 0t-8.5 38q0 135 -86 209
q-59 51 -171 84t-238 33q-318 0 -471 -150q-101 -96 -143 -224.5t-42 -309.5q0 -302 211 -526q208 -224 529 -224q253 0 356 103q58 58 76 172q4 20 12.5 27.5t15.5 0t7 -27.5q0 -15 -15 -117q-14 -96 -30 -145q-7 -29 -16 -38.5t-38 -21.5q-118 -47 -368 -47z" />
    <glyph glyph-name="D" unicode="D" horiz-adv-x="1878" 
d="M365 588v360q0 336 -5 443q-5 59 -20 82.5t-61 33.5q-24 6 -70 6q-23 0 -23 13q0 16 33 16q22 0 54.5 -0.5t62.5 -1.5t56.5 -2t43 -1.5t15.5 -0.5q1 0 49 1.5t114 3t113 1.5h39h143q68 -4 154 -14q88 -10 174 -35q81 -26 165 -73.5t146 -110.5q199 -205 199 -521
q0 -342 -221 -577q-224 -236 -621 -236q-94 0 -284 13l-170 12q-53 0 -82 -2q-17 0 -64.5 -2t-54.5 -2q-33 0 -33 16q0 13 21 13q3 0 57 8q44 9 59 112q11 104 11 445zM537 981v-254q0 -342 4 -444q6 -130 22 -156q55 -82 348 -82q297 0 488 191q77 74 120.5 207t43.5 282
q0 310 -197 516q-124 133 -281 182.5t-389 49.5q-106 0 -133 -15q-24 -9 -24 -41q-2 -47 -2 -436z" />
    <glyph glyph-name="E" unicode="E" horiz-adv-x="1249" 
d="M365 588v360q0 336 -5 443q-5 57 -22.5 81.5t-65.5 34.5q-24 6 -59 6q-27 3 -27 13q0 16 33 16q103 0 232 -6q438 0 469 2q76 3 94 12q15 9 22 9q8 0 8 -19q0 -2 -3.5 -17t-7.5 -37.5t-5 -41.5l-8 -123q-3 -35 -16 -35q-17 0 -17 27q0 37 -10 67q-21 64 -148 76
q-52 6 -280 6q-12 0 -12 -20v-565q0 -21 12 -21q263 0 325 4q77 6 103 35q14 20 24 20q11 0 11 -16q0 -1 -3.5 -17t-7.5 -44t-6 -54q-3 -41 -6 -86q-2 -35 -2 -53q-3 -31 -14 -31q-8 0 -11.5 15t-5.5 39.5t-6 36.5q-13 53 -92 65t-307 12q-14 0 -14 -14v-180v-105v-157v-88
q5 -71 18.5 -104t48.5 -46q46 -18 170 -18q122 0 184 18q47 13 70 47.5t35 104.5q4 20 11.5 27.5t13.5 0t6 -27.5q0 -4 -1.5 -15.5t-4.5 -35t-5 -42.5q-9 -72 -16 -106q-10 -37 -28 -45t-83 -8q-59 0 -299 6q-246 6 -256 6q-8 0 -68 -3.5t-83 -2.5q-33 0 -33 16q0 10 23 13
q37 3 47 6q38 8 55 49t18 143q5 265 5 367z" />
    <glyph glyph-name="F" unicode="F" horiz-adv-x="1212" 
d="M365 588v360q0 336 -5 443q-5 57 -22.5 81.5t-65.5 34.5q-16 4 -51 4q-35 3 -35 15q0 16 33 16q68 0 119 -2q102 -4 113 -4q472 0 503 2q86 3 101 12q12 9 18 9q12 0 12 -19q0 -3 -12 -63q-3 -24 -12 -150q0 -41 -19 -41q-11 0 -14 27q-6 76 -39 102q-42 36 -121 39
l-313 6q-18 0 -18 -22v-566q0 -18 14 -18q230 0 285 2q87 2 115 8.5t48 30.5q14 20 23 20q10 0 10 -16q0 -1 -3 -17t-7 -44t-6 -54q-3 -42 -6 -88l-2 -53q-3 -35 -15 -35q-13 0 -16 35q-1 27 -2.5 38.5t-10 28t-26.5 33.5q-28 25 -78 31q-53 6 -309 6q-14 0 -14 -18v-174
q0 -320 6 -414q9 -134 84 -143q6 -2 84 -8q24 -3 24 -15q0 -14 -33 -14q-28 0 -64.5 0.5t-68.5 1.5t-59 2t-43.5 1.5t-15.5 0.5h-19q-123 -6 -182 -6q-33 0 -33 16q0 10 23 13q22 2 53 8q32 7 45 36t18 97q9 117 9 424z" />
    <glyph glyph-name="G" unicode="G" horiz-adv-x="1765" 
d="M1509 397v-229q0 -68 -3.5 -84.5t-22.5 -26.5q-176 -92 -434 -92q-423 0 -674 219q-100 87 -172 246t-72 338q0 224 93.5 400.5t248.5 273.5q205 129 545 129q144 0 313 -35q81 -17 166 -20q25 -3 25 -19q0 -1 -1.5 -15t-4 -38.5t-4.5 -57t-3.5 -81t-1.5 -99.5
q0 -43 -18 -43q-11 0 -14 31q-6 77 -43 135q-45 70 -175.5 118t-306.5 48q-266 0 -438 -135q-94 -75 -148.5 -212t-54.5 -308q0 -189 72 -342q74 -158 145 -226q227 -219 537 -219q160 0 233 43q41 21 41 72v348q0 128 -14 160q-16 36 -78 51q-24 6 -69 6q-17 0 -17 12
q0 17 33 17q22 0 54.5 -0.5t62.5 -1.5t56.5 -2t42.5 -1.5t15 -0.5q-2 0 38.5 1.5t90.5 3t72 1.5q33 0 33 -17q0 -12 -17 -12q-14 0 -51 -6q-40 -7 -55.5 -33t-20.5 -84q-4 -86 -4 -213z" />
    <glyph glyph-name="H" unicode="H" horiz-adv-x="1961" 
d="M549 893h868q13 0 13 12v43q0 336 -5 443q-5 57 -22.5 81.5t-65.5 34.5q-24 6 -69 6q-17 0 -17 13q0 16 33 16q22 0 54.5 -0.5t62.5 -1.5t56.5 -2t43 -1.5t15.5 -0.5q-2 0 38 1.5t90 3t72 1.5q33 0 33 -16q0 -13 -16 -13q-15 0 -52 -6q-40 -7 -55 -32.5t-20 -83.5
q-4 -86 -4 -443v-360q0 -350 10 -445q6 -55 22.5 -80.5t57.5 -31.5q52 -8 92 -8q16 0 16 -13q0 -16 -33 -16q-163 0 -251 6q2 0 -38.5 -1.5t-90.5 -3t-72 -1.5q-33 0 -33 16q0 13 16 13q29 0 62 8q44 9 59 112q11 104 11 445v215q0 12 -13 12h-868q-12 0 -12 -12v-215
q0 -350 10 -445q6 -55 22.5 -80.5t57.5 -31.5q52 -8 92 -8q16 0 16 -13q0 -16 -33 -16q-163 0 -251 6q2 0 -38.5 -1.5t-90.5 -3t-72 -1.5q-33 0 -33 16q0 13 16 13q29 0 62 8q44 9 59 112q11 104 11 445v360q0 336 -5 443q-5 57 -22.5 81.5t-65.5 34.5q-24 6 -69 6
q-17 0 -17 13q0 16 33 16q22 0 54.5 -0.5t62.5 -1.5t56.5 -2t43 -1.5t15.5 -0.5q-2 0 38 1.5t90 3t72 1.5q33 0 33 -16q0 -13 -16 -13q-14 0 -52 -6q-40 -7 -55 -32.5t-20 -83.5q-4 -86 -4 -443v-43q0 -12 12 -12z" />
    <glyph glyph-name="I" unicode="I" horiz-adv-x="901" 
d="M365 588v360q0 336 -5 443q-6 99 -69 114q-27 8 -64 8q-16 0 -16 13q0 16 33 16q25 0 77 -1.5t92 -3t38 -1.5t38 1.5t90 3t72 1.5q33 0 33 -16q0 -13 -16 -13q-14 0 -52 -6q-40 -7 -55 -32.5t-20 -83.5q-4 -86 -4 -443v-360q0 -350 10 -445q6 -55 22.5 -80.5t57.5 -31.5
q52 -8 84 -8q24 0 24 -13q0 -16 -30 -16q-163 0 -254 6q2 0 -38.5 -1.5t-90.5 -3t-72 -1.5q-33 0 -33 16q0 13 23 13q26 0 53 6q46 9 61 114q11 104 11 445z" />
    <glyph glyph-name="J" unicode="J" horiz-adv-x="847" 
d="M537 948v-491q0 -280 -9 -391q-9 -109 -53 -213q-66 -153 -299 -314q-63 -44 -80 -51q-12 -4 -14 -4q-15 0 -14 12q1 13 28 31q38 23 72 57q74 74 113 144q37 69 61 221q23 164 23 407v592q0 336 -5 443q-5 57 -22.5 81.5t-65.5 34.5q-24 6 -63 6q-21 0 -23 12
q-2 10 15 15q7 2 16 2q22 0 54.5 -0.5t63 -1.5t57.5 -2t43.5 -1.5t15.5 -0.5q-2 0 38 1.5t90 3t72 1.5q33 0 33 -16q0 -13 -22 -13q-4 0 -10.5 -0.5t-18.5 -1.5t-21 -2q-37 -4 -51.5 -30t-19.5 -88q-4 -86 -4 -443z" />
    <glyph glyph-name="K" unicode="K" horiz-adv-x="1583" 
d="M528 948v-131q30 27 312 324q152 156 155 159q96 99 109 121q22 31 22 52q0 29 -26 38q-19 9 -19 19q0 12 31 12q18 0 57.5 -3t65.5 -3q7 0 121 4q55 2 96 2q35 0 35 -14q0 -12 -23 -15q-60 -6 -104 -24q-73 -27 -213 -164q-378 -363 -467 -465q117 -127 309 -321
q212 -218 289 -289q124 -115 195 -162q65 -43 143 -59q27 -6 59 -6q28 0 29 -14q-5 -13 -31 -15h-151q-131 0 -187 20q-55 17 -135 78q-98 78 -307 303q-221 232 -365 404v-211q0 -340 11 -445q6 -55 22.5 -80.5t56.5 -31.5q19 -2 40 -4t31 -3t19.5 -3t13 -5t3.5 -8
q0 -14 -31 -14q-163 0 -252 6q2 0 -35.5 -1.5t-85.5 -3t-71 -1.5q-32 0 -33 15q3 12 23 14q26 0 53 6q46 9 61 114q11 104 11 445v360q0 336 -5 443q-6 99 -69 114q-27 8 -74 8q-22 0 -22 13q0 16 32 16q25 0 79 -1.5t96 -3t40 -1.5t38.5 1.5t90.5 3t72 1.5q33 0 33 -14
q0 -12 -23 -15l-45 -4q-37 -4 -54 -32t-22 -86q-4 -86 -4 -443z" />
    <glyph glyph-name="L" unicode="L" horiz-adv-x="1212" 
d="M537 948v-364q0 -238 9.5 -340.5t35.5 -128.5q47 -47 245 -47q111 0 164.5 11t83.5 50q44 53 53 123q3 27 19 27q12 0 12 -31q0 -90 -31 -205q-8 -26 -18 -36.5t-33 -14.5t-78 -4q-85 0 -266 6t-282 6q-17 0 -98 -3t-103 -3q-33 0 -33 16q0 13 16 13q29 0 62 8
q44 9 59 112q11 104 11 445v360q0 336 -5 443q-5 57 -22.5 81.5t-65.5 34.5q-24 6 -69 6q-17 0 -17 13q0 16 33 16q22 0 54.5 -0.5t62.5 -1.5t56.5 -2t43 -1.5t15.5 -0.5q-2 0 43.5 1.5t100.5 3t77 1.5q33 0 33 -16q0 -13 -17 -13q-30 0 -67 -6q-42 -7 -58.5 -33t-21.5 -83
q-4 -86 -4 -443z" />
    <glyph glyph-name="M" unicode="M" horiz-adv-x="2150" 
d="M1751 1516l137 -1258q21 -190 111 -217q59 -18 127 -18q22 0 22 -13q0 -16 -30 -16q-205 0 -355 12q-57 3 -57 21q0 8 14 14q18 7 9 74l-99 1069l-508 -1078q-45 -98 -57 -106q-2 -2 -10 -2q-15 0 -64 94q-10 19 -38.5 75.5t-86.5 172.5t-114 227q-4 10 -20.5 44.5
t-51 108t-68.5 146.5q-115 244 -137 299l-84 -964q-4 -86 -4 -97q0 -64 55 -73q31 -8 74 -8q21 0 21 -11q0 -18 -31 -18q-70 0 -121 2l-76 4h-8q-8 -1 -25.5 -2t-37.5 -2q-45 -2 -101 -2q-35 0 -35 16q0 13 21 13q31 0 61 6q59 9 74 104q1 4 8 66l148 1331q3 41 22 41
q16 0 31 -31l627 -1288l602 1286q14 33 30 33q19 0 25 -55z" />
    <glyph glyph-name="N" unicode="N" horiz-adv-x="1939" 
d="M297 295v303v221.5t0.5 177t1 123.5t0.5 81.5v29.5v237q0 103 23 103q11 0 49 -41q18 -21 22 -25q41 -46 651 -702q32 -34 74 -79.5t105 -114.5t106 -115q185 -204 207 -226l-23 1041q-2 104 -17 143t-62 51q-52 10 -88 10q-27 0 -29 12q-2 8 12 13q11 4 29 4
q82 0 133 -2q22 -1 42 -2t29 -2h9q1 0 8 0.5t23 1.5t34 2q39 2 109 2q37 0 37 -14q0 -12 -23 -15q-5 -1 -23 -3.5t-30 -4.5q-30 -7 -44.5 -23.5t-21 -53t-6.5 -107.5l-4 -1196q0 -51 -0.5 -79.5t-3 -43.5t-5.5 -18.5t-9 -3.5q-19 0 -150 131q-137 137 -307 315
q-113 115 -227 240q-402 438 -535 587l27 -981q1 -123 19 -174t61 -63q46 -12 102 -12q16 0 16 -13q0 -16 -36 -16q-29 0 -61 0.5t-58.5 1.5t-48.5 2t-35 1.5t-14 0.5l-70 -4q-47 -2 -127 -2q-33 0 -33 16q0 13 17 13q46 0 84 12q36 10 48.5 63t12.5 197z" />
    <glyph glyph-name="O" unicode="O" horiz-adv-x="1873" 
d="M926 -35q-136 0 -253 34t-202 93t-151.5 137t-107 168.5t-61 184.5t-20.5 188q0 131 49 266.5t142 257.5q95 125 257.5 201t358.5 76q350 0 580 -207q225 -208 225 -561q0 -352 -227 -594q-229 -244 -590 -244zM981 43q140 0 279 78q81 47 141 119q65 77 105 209.5
t40 295.5q0 352 -182 555q-183 201 -440 201q-267 0 -432 -174q-166 -175 -166 -500q0 -354 186 -567q187 -217 469 -217z" />
    <glyph glyph-name="P" unicode="P" horiz-adv-x="1314" 
d="M365 588v360q0 336 -5 443q-5 57 -22.5 81.5t-65.5 34.5q-24 6 -69 6q-17 0 -17 13q0 16 33 16q22 0 53.5 -0.5t61 -1.5t56 -2t43.5 -1.5t18 -0.5q4 0 17.5 0.5t39.5 1.5t53 2q63 2 148 2q255 0 381 -117q102 -99 102 -268q0 -201 -143 -332t-361 -131q-37 0 -43 2
q-22 0 -22 15q0 18 55 18q150 0 254 96q100 93 100 254q0 182 -114 299q-103 103 -281 103q-59 0 -88 -13q-17 -7 -17 -38v-842q0 -340 11 -445q6 -55 22.5 -80.5t57.5 -31.5q52 -8 92 -8q16 0 16 -13q0 -16 -33 -16q-163 0 -252 6h-36q-147 -6 -160 -6q-33 0 -33 16
q0 13 16 13q29 0 62 8q44 9 59 112q11 104 11 445z" />
    <glyph glyph-name="Q" unicode="Q" horiz-adv-x="1884" 
d="M1597 -156l-344 191q-56 -30 -148 -50t-173 -20q-198 0 -359.5 71.5t-255.5 194.5q-186 242 -186 539q0 131 49 266.5t142 257.5q95 125 257.5 201t358.5 76q351 0 580 -209q225 -208 225 -559q0 -125 -35.5 -242.5t-95.5 -204.5q-110 -162 -232 -241l420 -217
q468 -242 862 -242q206 0 404 80q21 8 29 8q13 0 12 -13t-17 -20q-310 -141 -649 -141q-347 0 -844 274zM981 43q140 0 279 78q81 47 141 119q65 77 105 209.5t40 295.5q0 352 -182 555q-183 201 -440 201q-267 0 -432 -174q-166 -175 -166 -500q0 -354 186 -567
q187 -217 469 -217z" />
    <glyph glyph-name="R" unicode="R" horiz-adv-x="1544" 
d="M365 588v360q0 336 -5 443q-5 57 -22.5 81.5t-65.5 34.5q-24 6 -69 6q-17 0 -17 13q0 16 33 16q22 0 54.5 -0.5t62.5 -1.5t56.5 -2t43 -1.5t15.5 -0.5q1 0 13 0.5t37.5 1.5t55.5 2q66 2 135 2q247 0 375 -90q57 -41 99 -116t42 -162q0 -245 -247 -474q326 -419 425 -524
q120 -126 250 -147q40 -6 80 -6q19 0 19 -13q0 -16 -49 -16h-146q-151 0 -219 39q-33 18 -85 69t-81 88q-48 60 -111 144q-8 11 -51.5 71t-74.5 103q-23 31 -45.5 60.5t-35 46.5t-16.5 22q-12 12 -26 12l-252 4q-15 0 -15 -16v-49q0 -340 11 -445q6 -55 22.5 -80.5
t56.5 -31.5q52 -8 93 -8q16 0 16 -13q0 -16 -33 -16q-163 0 -252 6h-14q-37 -6 -178 -6q-33 0 -33 16q0 13 16 13q29 0 62 8q44 9 59 112q11 104 11 445zM528 1440v-670q0 -16 15 -25q51 -32 215 -32q100 0 153 39q125 85 125 315q0 192 -94.5 301t-259.5 109
q-93 0 -137 -13q-17 -7 -17 -24z" />
    <glyph glyph-name="S" unicode="S" horiz-adv-x="1167" 
d="M508 -35q-162 0 -275 55q-20 11 -25 23t-5 55q0 35 10 217q1 32 17 33q12 -2 14 -22q0 -49 6 -76q23 -102 104.5 -155.5t198.5 -53.5q141 0 217 82t76 190q0 105 -49 181q-49 72 -187 188l-92 76q-149 121 -207.5 222.5t-58.5 221.5q0 167 115 268t309 101q104 0 190 -21
q55 -10 72 -10q20 0 20 -14l-2 -27q-6 -105 -6 -190q0 -47 -14 -47q-13 0 -16 26q-6 62 -27 103q-59 108 -256 108q-110 0 -181 -65t-71 -172q0 -90 51 -158q56 -75 199 -186l57 -46q175 -138 238 -243q61 -107 61 -238q0 -91 -43 -184t-131 -156q-124 -86 -309 -86z" />
    <glyph glyph-name="T" unicode="T" horiz-adv-x="1415" 
d="M801 1454v-866q0 -350 10 -445q6 -55 22.5 -80.5t57.5 -31.5q52 -8 92 -8q16 0 16 -13q0 -16 -32 -16q-163 0 -252 6q2 0 -38.5 -1.5t-90.5 -3t-72 -1.5q-33 0 -33 16q0 13 17 13q28 0 61 8q44 9 59 112q11 105 11 445v866q-84 0 -152 -2t-151 -2q-97 -1 -140.5 -15
t-68.5 -51q-26 -43 -35 -63q-9 -21 -21 -21q-10 0 -10 19q0 37 45 213q12 39 21 39q2 0 15.5 -6t34.5 -12t40 -7q110 -10 162 -10h768q83 0 145 10q11 2 25 4.5t22 4t10 1.5q11 0 11 -24q0 -66 -2 -127q-1 -27 -2 -50.5t-2 -35t-1 -12.5q0 -25 -13 -27q-14 -1 -17 29v6
t-1 11t-1 11q-9 110 -252 113q-72 0 -129 2t-129 2z" />
    <glyph glyph-name="U" unicode="U" horiz-adv-x="1699" 
d="M424 948v-286q0 -196 38.5 -315t115.5 -191q67 -64 137.5 -88.5t171.5 -24.5q92 0 178.5 39.5t142.5 107.5q119 146 119 502v256q0 357 -4 443q-5 57 -22.5 81.5t-65.5 34.5q-24 6 -70 6q-16 0 -16 13q0 16 33 16q22 0 53 -0.5t59 -1.5t52 -2t39 -1.5t14 -0.5h8
q8 1 24.5 2t36.5 2q43 2 103 2q33 0 33 -16q0 -13 -17 -13q-13 0 -51 -6q-40 -7 -55.5 -32.5t-20.5 -83.5q-4 -86 -4 -443v-219q0 -218 -42 -368.5t-146 -243.5q-172 -152 -422 -152q-267 0 -422 146q-178 169 -178 538v299q0 357 -4 443q-5 57 -22.5 81.5t-65.5 34.5
q-24 6 -70 6q-16 0 -16 13q0 16 32 16q87 0 146 -2l90 -4h10q10 1 31 2t45 2q53 2 117 2q32 0 32 -16q0 -13 -16 -13q-13 0 -51 -6t-54.5 -32t-21.5 -84q-4 -86 -4 -443z" />
    <glyph glyph-name="V" unicode="V" horiz-adv-x="1517" 
d="M690 92l-502 1256q-32 80 -60.5 109.5t-86.5 47.5q-27 8 -78 8q-16 0 -18 10q-2 16 42 19h13q86 0 143 -2q25 -1 47 -2t32 -2h11h9q8 1 25.5 2t37.5 2q45 2 115 2q54 0 56 -16q-4 -11 -21 -13q-55 0 -78 -10q-27 -12 -27 -41q0 -25 41 -131l418 -1087q98 225 246 614
q163 427 192 522q19 59 19 78q0 32 -27 47q-21 8 -78 8q-22 0 -22 13q0 16 45 16q74 0 123 -2q22 -1 40.5 -2t27.5 -2h9l62 4q63 3 98 1.5t35 -13.5q0 -15 -25 -15q-58 0 -98 -24q-47 -33 -113 -193q-4 -10 -28.5 -69.5t-83 -201t-117.5 -284.5q-219 -528 -264 -620
q-45 -103 -59 -129.5t-27 -26.5q-17 0 -28.5 21t-45.5 106z" />
    <glyph glyph-name="W" unicode="W" horiz-adv-x="2252" 
d="M565 127l-364 1214q-24 78 -47.5 110t-65.5 50q-34 12 -92 12q-18 0 -19 12q6 15 33 17q95 0 154 -2l88 -4q1 0 35.5 1.5t85 3t90.5 1.5q35 0 37 -15q-5 -11 -21 -14q-56 0 -80 -12q-26 -14 -26 -49q0 -22 39 -188q48 -196 276 -998l436 1174q13 34 20.5 52.5t16.5 30.5
t14.5 12t14 -12t16.5 -31t21 -54l411 -1174q14 47 144 467q136 448 176 590q22 86 22 131q0 61 -116 61q-18 0 -19 12q5 15 35 17q41 0 91.5 -1.5t84.5 -2.5l33 -2l63 4q43 2 103 2q29 0 29 -12q0 -17 -19 -17q-40 0 -70 -10q-39 -13 -67 -62t-66 -159q-43 -121 -190 -580
q-159 -484 -186 -561q-39 -114 -56 -147q-16 -29 -31 -29q-13 0 -25 21.5t-36 85.5l-403 1145q-279 -746 -430 -1143q-41 -109 -68 -109q-17 0 -28.5 27t-43.5 135z" />
    <glyph glyph-name="X" unicode="X" horiz-adv-x="1380" 
d="M233 199l371 585l-328 551q-81 137 -159 164q-43 14 -86 14q-18 0 -19 12q5 15 35 17q67 0 135 -2q30 -1 56 -2t38 -2h11h9q8 1 27.5 2t41.5 2q49 2 114 2q34 0 36 -15q-5 -11 -19 -14q-41 0 -56 -6q-24 -9 -24 -34q0 -32 20 -68q125 -236 277 -490q53 73 168 259
q116 185 133 223q20 41 20 73q0 28 -35 37q-21 6 -61 6q-18 0 -19 12q5 15 35 17q70 0 115 -2q19 -1 35.5 -2t24.5 -2h8h7q8 1 24.5 2t35.5 2q43 2 105 2q32 0 33 -15q-3 -12 -23 -14q-38 0 -68 -10q-47 -12 -100 -84q-3 -4 -57 -82l-330 -495q99 -165 115 -191
q145 -246 202 -338q82 -142 115 -186q56 -71 121 -92q43 -12 72 -12q16 0 16 -13q0 -16 -29 -16q-187 0 -327 4q-68 1 -64 21q3 8 12 12q29 12 11 57q-110 201 -353 610l-319 -542q-27 -46 -27 -90q0 -30 33 -39q32 -4 39 -4q16 0 17 -12q1 -13 -17 -16q-4 -1 -8 -1
q-56 0 -109 2q-24 1 -45.5 2t-31.5 1.5t-11 0.5h-9q-9 -1 -27.5 -2t-39.5 -2q-47 -2 -110 -2q-19 0 -21 14q3 13 17 15q32 0 77 10q81 21 170 166z" />
    <glyph glyph-name="Y" unicode="Y" horiz-adv-x="1339" 
d="M592 348v176q0 109 -47 215q-8 21 -158 269q-155 251 -203 321q-67 102 -139 152q-46 32 -88 32q-18 0 -20 12t14 16q6 1 12 1q54 0 113 -2q26 -1 48 -2t32 -2h10q1 0 12.5 0.5t30 1.5t39.5 2t45.5 1.5t44.5 0.5q27 0 27 -14q0 -4 -31 -19q-27 -15 -27 -36q0 -31 27 -80
q4 -6 30 -52t68 -119t90 -155q184 -313 189 -322q21 49 159 291q112 198 181 312q35 55 35 104t-33 57q-31 9 -31 21t33 12q47 0 82 -2q14 -1 27 -2t19 -1.5t7 -0.5h10q10 1 32 2t48 2q57 2 109 2q26 0 26 -12q0 -17 -26 -17q-47 0 -95 -28q-38 -22 -108 -105
q-45 -53 -205 -321q-163 -273 -186 -330q-31 -76 -31 -205v-176q0 -119 6 -205q6 -103 84 -112q52 -8 92 -8q17 0 17 -13q0 -16 -33 -16q-163 0 -252 6q2 0 -38.5 -1.5t-90.5 -3t-72 -1.5q-33 0 -33 16q0 13 17 13q28 0 61 8q58 12 64 112q6 85 6 205z" />
    <glyph glyph-name="Z" unicode="Z" horiz-adv-x="1417" 
d="M377 82h557q144 0 214.5 23.5t108.5 76.5q33 50 41 111q6 33 19 33q16 0 16 -47q0 -64 -41 -236q-11 -38 -19 -45.5t-42 -7.5q-54 0 -516 4q-347 6 -529 6q-36 0 -36 16q0 13 28 58q709 1073 899 1384h-444q-218 0 -295 -41q-48 -25 -79 -71t-38 -91q-3 -36 -22 -36
q-13 0 -13 26q0 24 41 273q6 38 21 38q3 0 15.5 -3t32 -6.5t38.5 -4.5q144 -6 356 -6h572q41 0 41 -16q0 -13 -9 -25q-366 -577 -917 -1413z" />
    <glyph glyph-name="bracketleft" unicode="[" 
d="M877 1614q0 -10 -9 -25q-13 -18 -34 -34.5t-29 -16.5q-9 0 -12 8q-11 57 -88.5 97t-196.5 40q-191 0 -305 -129q-14 -14 -25 -14q-6 1 -5 7.5t7 19.5q67 94 173.5 146t228.5 52q148 0 237 -65q58 -46 58 -86z" />
    <glyph glyph-name="backslash" unicode="\" horiz-adv-x="980" 
d="M188 1548l695 -1540q10 -23 -2 -35q-5 -5 -32 -18.5t-32 -13.5q-9 0 -18 18l-697 1552q-14 26 -2 35q48 31 62 31q13 0 26 -29z" />
    <glyph glyph-name="bracketright" unicode="]" horiz-adv-x="794" 
d="M416 55v1280q0 145 -15 203q-65 24 -215 33q-43 5 -41 18q2 10 33 10h324q23 0 28 -4.5t5 -27.5v-1737q0 -17 -6 -22t-29 -5h-322q-35 0 -35 15q0 16 45 16q138 9 213 31q15 58 15 190z" />
    <glyph glyph-name="asciicircum" unicode="^" horiz-adv-x="1185" 
d="M135 768l402 768h112l402 -768h-127l-334 655l-330 -655h-125z" />
    <glyph glyph-name="underscore" unicode="_" 
d="M0 -256v102h1024v-102h-1024z" />
    <glyph glyph-name="grave" unicode="`" 
d="M637 1466q0 -4 -10 -4q-26 0 -160 76q-157 89 -219 133q-32 25 -29 31q0 10 21 16q60 26 94 31q17 2 23.5 -1t25.5 -22q24 -24 57 -59q8 -9 95 -96q45 -45 86 -80q16 -16 16 -25z" />
    <glyph glyph-name="a" unicode="a" horiz-adv-x="1261" 
d="M780 494h-372q-14 0 -21 -17l-90 -256q-35 -100 -35 -145q0 -53 68 -53h14q22 0 25 -12q2 -10 -14 -15q-7 -2 -17 -2q-45 0 -88 2l-36 2l-27 1.5t-11 0.5h-8q-9 -1 -27 -2t-39 -2q-47 -2 -122 -2q-32 0 -33 15q3 12 24 14q33 0 41 2q58 6 92 42.5t66 118.5l410 1080
q17 44 25 56.5t18 12.5q14 0 41 -65q7 -20 178 -449q217 -544 237 -590q70 -168 156 -198q30 -10 70 -10q22 0 24 -12q2 -10 -15 -15q-7 -2 -16 -2q-127 0 -311 4q-51 3 -51 14q0 12 14 15q23 10 8 45l-161 411q-7 11 -17 11zM428 565h328q9 0 6 13l-162 452q-9 31 -22 0
l-154 -452q-6 -13 4 -13z" />
    <glyph glyph-name="b" unicode="b" horiz-adv-x="1245" 
d="M317 500v307q0 301 -4 375q-5 46 -21.5 67.5t-58.5 28.5q-46 4 -49 4q-26 0 -26 14q3 14 30 15q38 0 110.5 -2t88.5 -2l14 -2q6 0 17.5 0.5t32.5 1.5t38 2q43 2 109 2q88 0 156 -18.5t107 -46t64 -64t33.5 -67.5t8.5 -62q0 -181 -172 -316q122 -38 217 -133
q96 -96 96 -233q0 -154 -121 -269q-121 -112 -344 -112q-6 0 -55.5 2t-71.5 2q-86 6 -115 6q-20 0 -90 -3t-94 -3q-29 0 -29 12q0 17 29 17q17 0 37 4q41 9 53 98q10 85 10 375zM477 1227v-457q0 -13 10 -20q44 -7 103 -7q79 0 112 9.5t62 40.5q53 65 53 163q0 125 -57 211
q-58 88 -180 88q-45 0 -78 -10q-25 -6 -25 -18zM477 674v-80q0 -361 2 -371q6 -78 12 -92q4 -8 11 -18q12 -20 43 -33q53 -27 151 -27q89 0 166 53q76 52 76 179q0 104 -43.5 200t-132.5 156q-58 35 -139 45q-74 9 -136 0q-10 0 -10 -12z" />
    <glyph glyph-name="c" unicode="c" horiz-adv-x="1452" 
d="M932 -29q-383 0 -600 187q-219 192 -219 522q0 116 52 245.5t154 227.5q188 182 551 182q108 0 271 -22q123 -20 180 -23q18 0 18 -20q0 -3 -2 -18t-4.5 -38.5t-3.5 -44.5v-100q-3 -85 -4 -88q-3 -39 -16 -39q-17 0 -17 39q0 49 -22 99t-58 79q-51 44 -152 74.5
t-210 30.5q-262 0 -393 -119q-91 -84 -127.5 -189t-36.5 -260q0 -259 186 -448q185 -191 451 -191q226 0 313 84q53 53 68 148q6 30 22 30q10 0 10 -28q0 -22 -14 -105q-13 -80 -26 -123q-7 -24 -15 -32t-33 -19q-96 -41 -323 -41z" />
    <glyph glyph-name="d" unicode="d" horiz-adv-x="1658" 
d="M317 504v303q0 305 -4 375q-5 45 -22 67t-58 29q-32 4 -59 4q-20 0 -20 12q0 17 30 17q24 0 90 -2t91 -2l38 -2l15 1q15 0 40 1t54 2t63.5 1.5t63.5 0.5h16h2h2h5h4h2h4h2h65h2h2h3h4h2h2h10q72 0 147 -6q116 -14 160 -29q9 -3 35 -11.5t44 -14.5t41 -15t38 -18
q97 -61 141 -107q174 -174 174 -440q0 -290 -194 -490q-200 -200 -547 -200q-113 0 -256 10q-32 2 -69 4.5t-58.5 4t-20.5 1.5q-42 0 -69 -2q-15 0 -63 -2t-56 -2q-27 0 -29 14q-2 10 14 14q4 1 9 1q23 0 47 6q41 9 53 94q10 72 10 381zM485 840v-207q0 -59 1 -167.5
t1 -141.5v-13v-4v-28v-3v-2v-2v-2v-2v-4v-2v-2v-2q3 -112 21 -137q54 -78 301 -78q266 0 426 160q133 133 133 407q0 271 -176 441q-112 112 -245.5 153t-332.5 41q-84 0 -104 -14q-23 -10 -23 -35q-2 -39 -2 -356z" />
    <glyph glyph-name="e" unicode="e" horiz-adv-x="1110" 
d="M317 500v307q0 299 -4 373q-5 47 -20.5 69t-56.5 29q-32 4 -50 4q-26 0 -26 12q0 17 30 17q11 0 45 -1t83.5 -2.5l82.5 -2.5q389 0 416 2q66 3 80 10q18 6 23 6q8 0 8 -14q0 -2 -4 -17t-8 -36.5t-5 -38.5q-6 -89 -6 -107q0 -30 -14 -31q-12 4 -14 23q-3 38 -15 65
q-11 33 -36 45.5t-97 16.5q-70 4 -233 4q-11 0 -11 -16v-465q0 -21 13 -21q212 0 276 6q72 3 94 31q10 16 23 16q8 0 8 -12q0 -1 -2.5 -17t-6 -42.5t-5.5 -48.5q-8 -63 -8 -125q-1 -23 -14 -23t-13 27q0 25 -6 49q-15 55 -99 61q-94 9 -245 9q-15 0 -15 -15v-149v-88v-121
v-70q5 -64 16.5 -92.5t41.5 -40.5q41 -18 149 -18q110 0 154 11.5t63 43.5q17 30 31 92q6 29 18.5 29t12.5 -31q0 -40 -23 -178q-6 -30 -22 -37.5t-68 -7.5q-58 0 -155 2t-109 2q-214 6 -242 6q-15 0 -66.5 -3t-68.5 -3q-29 0 -29 15q3 12 19 14q20 0 41 6q32 6 48 41.5
t17 119.5q4 184 4 310z" />
    <glyph glyph-name="f" unicode="f" horiz-adv-x="1075" 
d="M317 500v307q0 299 -4 373q-5 50 -20 71t-57 25q-5 1 -25 2t-27 2q-26 3 -26 16q0 15 30 15q21 0 106.5 -3t102.5 -3q418 0 447 2q58 3 92 14q15 6 20 6q13 0 7 -18q-14 -60 -19 -146q-1 -15 -2 -29.5t-1.5 -22t-0.5 -9.5q0 -31 -14 -31t-17 25q0 70 -32 102
q-29 26 -115 29q-234 4 -258 4q-19 0 -19 -21v-462q0 -19 15 -19q205 0 250 2q68 2 93.5 8.5t43.5 30.5q12 17 20 17t8 -19q0 -1 -2.5 -16t-6 -40.5t-5.5 -49.5q-8 -65 -8 -119q0 -31 -14 -31q-12 0 -15 31q-6 98 -106 110q-40 6 -258 6q-15 0 -15 -18v-143q0 -124 4 -342
q1 -73 15 -96t59 -29q5 -1 27 -4t37 -4q24 -3 24 -15q0 -14 -26 -14q-97 0 -191 4l-37 2h-14q-117 -6 -166 -6q-29 0 -29 14q0 12 21 15q27 0 43 4q31 4 41.5 26t15.5 86q8 91 8 361z" />
    <glyph glyph-name="g" unicode="g" horiz-adv-x="1558" 
d="M1335 330v-185q0 -60 -3.5 -72.5t-20.5 -23.5q-156 -78 -377 -78q-379 0 -600 185q-99 82 -160 212t-61 285q0 192 84.5 342.5t224.5 235.5q177 104 457 104q113 0 292 -28q82 -16 156 -19q16 0 16 -16q0 -1 -1.5 -14t-3.5 -36t-4 -53t-3.5 -73.5t-1.5 -89.5
q0 -37 -16 -37q-12 0 -15 24q0 75 -42 131.5t-148 96.5q-113 43 -272 43q-58 0 -85.5 -1t-67.5 -8.5t-87 -23.5q-73 -27 -137 -76q-81 -62 -126.5 -176.5t-45.5 -261.5q0 -164 63 -287q62 -130 123 -188q197 -191 465 -191q127 0 195 35q34 21 34 61v295q0 104 -14 134.5
t-68 37.5q-8 2 -20 2.5t-20.5 1.5t-16.5 2.5t-12 4.5t-4 8q0 14 30 14q21 0 50 -0.5t56.5 -1t51 -1t38 -1t13.5 -0.5q-2 0 35 1t83.5 2t66.5 1q27 0 29 -14q1 -11 -16 -14q-4 -1 -9 -1q-25 0 -35 -2q-34 -4 -47.5 -27t-18.5 -75q-4 -78 -4 -184z" />
    <glyph glyph-name="h" unicode="h" horiz-adv-x="1732" 
d="M498 762h741q12 0 12 10v37q0 299 -4 373q-5 50 -20 69.5t-60 26.5q-36 4 -51 4q-24 0 -25 14q3 14 29 15q21 0 51.5 -0.5t58 -1.5t52 -2t39.5 -1.5t14 -0.5q-2 0 34 1.5t82 3t69 1.5q32 0 33 -15q-3 -12 -23 -14q-9 0 -41 -4q-37 -6 -50 -26t-18 -72q-2 -37 -2 -373
v-307q0 -310 8 -375q9 -90 70 -96q41 -6 72 -6q26 0 26 -14q-3 -14 -30 -15q-25 0 -58.5 0.5t-63 1.5t-55 2t-41 1.5t-14.5 0.5q-137 -6 -182 -6q-31 0 -31 16q0 13 23 13q27 0 47 4q39 6 51 98q10 82 10 369v182q0 12 -12 12h-743q-11 0 -11 -12v-182q0 -283 11 -373
q12 -86 69 -92q41 -6 74 -6q16 0 22 -7.5t-1 -14.5t-23 -7q-26 0 -60 0.5t-64 1.5t-56 2t-41.5 1.5t-14.5 0.5l-183 -6h-1q-32 0 -33 15q3 12 23 14q25 0 49 6q39 9 51 92q10 68 10 379v303q0 305 -4 379q-6 89 -77 98q-50 4 -56 4q-22 0 -22 12q0 15 30 15q78 0 129 -2
q22 -1 42.5 -2t30.5 -1.5t11 -0.5q-2 0 35 1.5t83.5 3t66.5 1.5q30 0 30 -15q0 -12 -20 -12q-13 0 -41 -4q-35 -6 -49 -28t-19 -72q-2 -37 -2 -371v-37q0 -10 13 -10z" />
    <glyph glyph-name="i" unicode="i" horiz-adv-x="802" 
d="M317 500v307q0 301 -4 375q-6 85 -59 94q-6 1 -17.5 2.5t-19 2.5t-10.5 1q-23 3 -23 14q0 15 31 15q19 0 74 -2t80 -2l32 -2q-2 0 35 1.5t83.5 3t66.5 1.5q30 0 30 -15q0 -11 -22 -14q-16 -4 -37 -4q-42 -6 -54.5 -26t-15.5 -72q-2 -18 -2 -373v-307q0 -316 9 -375
q6 -49 19 -68t50 -26q31 -8 78 -8q23 -3 23 -15q0 -14 -29 -14q-26 0 -59.5 0.5t-63.5 1.5t-55.5 2t-41 1.5t-14.5 0.5l-183 -6h-1q-30 0 -32 14q-2 9 13 13q6 2 13 2q25 0 49 6q38 9 47 98q10 82 10 373z" />
    <glyph glyph-name="j" unicode="j" horiz-adv-x="761" 
d="M487 807v-391q0 -207 -2 -252q-3 -71 -12 -146q-11 -70 -41 -143q-52 -126 -278 -276q-7 -3 -36 -21.5t-36 -21.5q-2 -2 -12 -2q-15 0 -15 10q0 8 27 26q32 18 57 43q72 69 105 125q34 58 55 189q23 148 23 360v500q0 281 -5 373q-5 44 -22 66t-57 32q-32 4 -62 4
q-14 0 -14 12q0 17 31 17q26 0 89 -2t87 -2l34 -2q-2 0 35 1.5t84 3t68 1.5q28 0 28 -17q0 -12 -12 -12q-1 0 -6 -0.5t-16 -1.5t-25 -2q-61 -15 -67 -100q-5 -92 -5 -371z" />
    <glyph glyph-name="k" unicode="k" horiz-adv-x="1409" 
d="M485 807v-96q244 216 410 397q79 89 90 104q16 22 16 37q0 25 -32 33q-23 7 -23 16q0 13 21 13l23 -1q24 -2 57.5 -3.5t58.5 -1.5q9 0 115 4q51 2 86 2q32 0 32 -13t-22 -16q-53 -3 -100 -20q-32 -11 -66 -35q-32 -22 -117 -101q-159 -147 -233 -217q-183 -172 -185 -174
q320 -329 529 -520q176 -159 295 -186q9 -3 47 -6q19 -3 26 -10t-1.5 -13t-28.5 -6h-133q-119 0 -166 16q-56 16 -117 60q-78 57 -262 247q-191 194 -320 345v-162q0 -316 9 -375q6 -49 19 -68t50 -26q31 -8 78 -8q23 -3 23 -15q0 -14 -29 -14q-26 0 -59.5 0.5t-63.5 1.5
t-55.5 2t-41 1.5t-14.5 0.5l-183 -6h-1q-30 0 -32 14q-2 9 13 13q6 2 13 2q25 0 49 6q38 9 47 98q10 82 10 373v307q0 301 -4 375q-6 85 -59 94q-6 1 -17.5 2.5t-19 2.5t-10.5 1q-23 3 -23 14q0 15 31 15q19 0 74 -2t80 -2l32 -2q-2 0 35 1.5t83.5 3t66.5 1.5q30 0 30 -15
q0 -11 -22 -14q-16 -4 -37 -4q-42 -6 -54.5 -26t-15.5 -72q-2 -18 -2 -373z" />
    <glyph glyph-name="l" unicode="l" horiz-adv-x="1073" 
d="M485 807v-311q0 -347 43 -387q47 -41 215 -41q67 0 94.5 2.5t63.5 15.5q39 11 60 39q29 44 38 102q5 25 17 24.5t12 -26.5q0 -89 -24 -184q-7 -25 -12.5 -32.5t-26.5 -13t-70 -5.5q-5 0 -223 4q-164 6 -275 6q-21 0 -88 -3t-92 -3q-33 0 -33 16q0 13 23 13q29 0 49 4
q44 9 53 96q8 47 8 377v307q0 297 -4 371q-3 51 -18.5 73.5t-63.5 28.5q-8 2 -51 2q-21 0 -23 12q-2 10 15 15q7 2 16 2q38 0 110.5 -2t88.5 -2l14 -2q2 0 13.5 0.5l34.5 1.5t47 2q55 2 116 2q25 0 27 -14q1 -10 -14 -14q-4 -1 -9 -1q-1 0 -55 -4q-40 -6 -54.5 -27
t-19.5 -73q-2 -18 -2 -371z" />
    <glyph glyph-name="m" unicode="m" horiz-adv-x="1892" 
d="M1540 1284l129 -1065q21 -164 98 -182q52 -12 105 -14q26 0 26 -13q0 -16 -30 -16q-128 0 -324 12q-61 6 -61 19q0 5 6 9.5t12.5 8.5t10.5 18.5t1 38.5l-90 877l-434 -881q-49 -93 -53 -96q-2 -2 -10 -2q-13 0 -62 88q-8 12 -63 123q-35 66 -94 186q-47 90 -52 97
q-228 460 -229 464l-76 -788q-2 -18 -2 -78q0 -52 51 -61q5 0 58 -6q20 -3 20 -13q0 -16 -35 -16q-59 0 -102 2q-19 1 -35.5 2t-24.5 2h-8q-1 0 -9 -0.5l-24 -1.5t-34 -2q-41 -2 -90 -2q-31 0 -31 16q0 13 27 13q25 0 39 2q62 6 77 135l138 1124q6 51 22 51q14 0 31 -32
l549 -1063l522 1060q15 35 31 35q17 0 20 -51z" />
    <glyph glyph-name="n" unicode="n" horiz-adv-x="1718" 
d="M262 250v1001q0 84 23 84q8 0 63 -55q11 -13 590 -604q55 -53 238 -236l180 -180l-23 852q-2 86 -15 119t-54 43q-41 8 -80 8q-25 0 -25 16q0 13 37 13q29 0 123 -4l70 -2l7 1q6 0 20.5 1t31.5 2q39 2 104 2q31 0 30 -14q-1 -11 -19 -15q-4 0 -52 -6q-37 -8 -49 -37.5
t-12 -116.5l-4 -1028q0 -50 -2 -74.5t-5.5 -31t-11.5 -6.5q-21 0 -135 108q-4 1 -278 272q-47 47 -112 110t-81 79q-54 56 -214 221.5t-255 265.5l27 -800q5 -113 18 -156.5t49 -50.5q31 -8 84 -8q22 0 24 -12q2 -10 -14 -15q-8 -2 -18 -2q-28 0 -58.5 0.5t-54 1.5t-42.5 2
t-30.5 1.5t-12.5 0.5t-12.5 -0.5t-30 -1.5t-40.5 -2t-48 -1.5t-48 -0.5q-29 0 -31 14q-1 11 19 14q5 1 10 1q40 0 64 8q32 10 43.5 56.5t11.5 162.5z" />
    <glyph glyph-name="o" unicode="o" horiz-adv-x="1658" 
d="M819 -29q-175 0 -317 61.5t-226 166.5q-163 202 -163 456q0 60 13 124t41 130.5t68.5 128t99.5 116t130.5 94.5t165 63.5t198.5 23.5q311 0 514 -176q201 -177 201 -477q0 -297 -201 -504q-204 -207 -524 -207zM870 41q121 0 230 59q70 38 123 99q57 63 93 176.5
t36 255.5q0 297 -156 469t-379 172q-227 0 -371 -144q-143 -143 -143 -419q0 -303 156 -484q153 -184 411 -184z" />
    <glyph glyph-name="p" unicode="p" horiz-adv-x="1167" 
d="M319 500v307q0 301 -4 375q-6 83 -77 98q-36 4 -64 4q-12 0 -12 10q0 17 28 17q21 0 51 -0.5t57.5 -1.5t52 -2t39 -1.5t13.5 -0.5q4 0 17 0.5t37 1.5t47 2q55 2 131 2q222 0 336 -99q90 -81 90 -229q0 -171 -125 -281q-124 -112 -320 -112q-32 0 -38 2q-19 0 -18 14
q0 10 9 12q9 3 41 3q127 0 212 81t85 209q0 157 -88 248q-90 96 -254 96q-46 0 -69 -10q-13 -3 -13 -33v-708q0 -305 9 -379q9 -90 71 -96q49 -9 82 -9q12 0 12 -10q0 -16 -28 -16q-26 0 -60 0.5t-63.5 1.5t-54.5 2t-40 1.5t-14 0.5h-12q-37 -6 -168 -6q-29 0 -29 16
q0 10 15 10q19 0 53 9q44 6 53 96q10 82 10 375z" />
    <glyph glyph-name="q" unicode="q" horiz-adv-x="1667" 
d="M1405 -133l-301 162q-107 -58 -279 -58q-179 0 -320.5 60.5t-225.5 165.5q-166 209 -166 460q0 110 43 224t125 217q86 108 229.5 172.5t318.5 64.5q314 0 514 -176q201 -180 201 -477q0 -108 -33 -210.5t-88 -176.5q-107 -139 -198 -195l381 -190q395 -199 747 -199
q172 0 346 68q15 6 27 6t12 -8q0 -12 -22 -21q-246 -123 -574 -123q-310 0 -737 234zM870 41q122 0 234 61q72 41 123 101q55 63 90 176.5t35 253.5q0 291 -156 467q-156 172 -381 172t-369 -144q-143 -143 -143 -421q0 -294 162 -480q158 -186 405 -186z" />
    <glyph glyph-name="r" unicode="r" horiz-adv-x="1366" 
d="M319 500v307q0 301 -4 375q-5 46 -22 68.5t-60 29.5q-32 4 -49 4q-22 0 -22 12q0 7 9 10.5t26 4t32.5 0.5t38 -1t33.5 -1q37 -2 88 -2l14 -2l11 1q11 0 34.5 1t49.5 2q59 2 120 2q223 0 336 -78q123 -89 123 -250q0 -212 -217 -387q286 -350 377 -444q111 -111 217 -125
q36 -4 64 -4q22 0 23 -12q-7 -15 -38 -17h-143q-128 0 -186 24q-37 15 -70 48q-37 34 -68 69q-14 15 -73 94q-23 32 -43 56q-13 16 -51 65.5t-64 81.5q-77 97 -82 105q-12 12 -25 12l-211 2q-10 0 -10 -10v-29q0 -305 10 -387q3 -25 5.5 -36.5t10 -27.5t23.5 -23.5t41 -10.5
q54 -4 60 -4q26 0 26 -13q0 -16 -28 -16q-97 0 -195 4l-35 2q-4 0 -14.5 -0.5t-29.5 -1.5t-36 -2q-45 -2 -98 -2q-29 0 -29 16q0 13 25 13t45 4q44 9 53 77q8 52 8 396zM477 1219v-557q0 -18 10 -25q49 -27 183 -27q89 0 137 31q102 65 102 260q0 164 -80 255t-221 91
q-74 0 -119 -10q-12 -3 -12 -18z" />
    <glyph glyph-name="s" unicode="s" horiz-adv-x="1048" 
d="M459 -29q-145 0 -244 45q-18 7 -22.5 19t-4.5 51q0 79 9 193q3 28 16 28q14 0 14 -20q0 -38 6 -62q18 -90 91 -137t176 -47q114 0 183 64.5t69 154.5q0 86 -43 151t-160 158l-82 64q-134 106 -186 194.5t-52 192.5q0 141 104 228t275 87q91 0 166 -16q55 -10 70 -10
q18 0 18 -13l-2 -26q-6 -99 -6 -172q0 -43 -14 -43q-12 0 -15 22q-6 62 -24 97q-53 96 -230 96q-95 0 -155 -53.5t-60 -143.5q0 -72 45 -129q46 -58 174 -156l48 -36q153 -120 211 -211q57 -89 57 -207q0 -80 -38.5 -159t-117.5 -132q-116 -72 -276 -72z" />
    <glyph glyph-name="t" unicode="t" horiz-adv-x="1253" 
d="M717 1231v-731q0 -274 10 -379q3 -25 5 -34.5t8 -23t17.5 -20.5t30.5 -12q31 -8 80 -8q25 0 25 -13q0 -16 -27 -16q-96 0 -194 4l-39 2q2 0 -35 -1.5t-82.5 -3t-64.5 -1.5q-31 0 -32 15q4 12 23 14q35 0 45 2q28 4 38 23.5t16 76.5q8 65 8 375v731q-203 0 -258 -2
q-89 -1 -126 -15t-63 -51q-14 -19 -30 -63q-7 -17 -19 -17q-10 0 -10 19q-3 8 41 203q8 32 18 32q2 0 38.5 -10.5t52.5 -11.5q98 -10 131 -10h671q96 0 148 10q31 8 39 8q12 0 12 -18q0 -64 -2 -121t-2 -88q0 -16 -7 -22t-14.5 0t-7.5 22q0 14 -2 28q-6 63 -47 84
q-43 18 -194 21q-64 0 -107 2h-94z" />
    <glyph glyph-name="u" unicode="u" horiz-adv-x="1488" 
d="M383 807v-244q0 -174 30 -271.5t95 -154.5q107 -94 270 -94q180 0 281 119q100 112 100 428v217q0 297 -4 371q-3 50 -17.5 72t-58.5 28q-36 4 -57 4t-21 12q0 17 29 17h27.5t29 -0.5t30 -1t29.5 -1t26.5 -1t23 -1t18 -1t11.5 -0.5h4q108 6 155 6q29 0 29 -15
q-3 -12 -20 -14q-23 0 -37 -2q-37 -4 -51 -26.5t-19 -75.5q-2 -37 -2 -371v-182q0 -387 -166 -531q-144 -123 -375 -123q-251 0 -383 123q-151 142 -151 459v254q0 317 -6 373q-2 49 -17.5 70.5t-58.5 27.5q-32 4 -53 4q-23 0 -23 12q0 17 31 17q22 0 51.5 -0.5t57 -1.5
t51 -2t38.5 -1l15 -1l9 1q10 0 30.5 1t42.5 2q51 2 110 2q27 0 29 -14q2 -10 -13 -14q-5 -1 -11 -1q-4 0 -9.5 -0.5l-16.5 -1.5t-20 -2q-34 -4 -45 -24.5t-16 -73.5q-2 -37 -2 -373z" />
    <glyph glyph-name="v" unicode="v" horiz-adv-x="1339" 
d="M606 86l-442 1057q-34 79 -55.5 102.5t-73.5 30.5q-44 6 -62 6q-22 0 -24 12t20 16q6 1 13 1q84 0 143 -2q26 -1 48 -2t32 -1l10 -1l9 1q8 0 26 1t39 2q47 2 117 2q32 0 32 -13q0 -16 -30 -16q-34 0 -64 -10q-20 -7 -18.5 -35t32.5 -102l361 -906q66 146 211 512
q142 357 164 433q16 46 16 67q0 27 -18 33q-19 8 -66 8q-27 0 -27 12q0 17 31 17q68 0 117 -2q22 -1 41 -2t28 -1l9 -1q98 6 141 6q31 0 31 -13q0 -16 -23 -16q-52 0 -88 -20q-43 -30 -96 -160q-37 -87 -205 -471q-187 -437 -227 -516q-10 -21 -20.5 -43t-16 -35t-11.5 -26
t-9.5 -19.5t-7.5 -11.5t-8 -7t-9 -2q-18 0 -28.5 18t-41.5 97z" />
    <glyph glyph-name="w" unicode="w" horiz-adv-x="1978" 
d="M487 127l-315 1010q-24 74 -42 99.5t-58 37.5q-27 8 -74 8q-25 0 -25 16q0 13 31 13q42 0 95 -1.5t89 -3t37 -1.5t14 0.5t34 1.5t46 2t54 1.5t53 0.5q29 0 29 -15q0 -16 -29 -16q-47 0 -66 -8q-20 -6 -20 -43q0 -9 35 -158q19 -80 112 -401q98 -340 121 -416l379 963
q14 38 23 56.5t17.5 28t17 -0.5t17.5 -29t23 -58l363 -962q5 16 21 67t48 150.5t64 200.5q110 346 143 473q17 70 17 86q0 28 -20.5 40.5t-78.5 12.5q-26 0 -26 16q0 13 31 13q18 0 42.5 -0.5t46 -1.5t40 -2t30.5 -1.5t13 -0.5l67 2q90 4 101 4q24 0 24 -13q0 -16 -26 -16
q-24 0 -54 -6q-46 -8 -76 -84q-12 -30 -38 -109q-34 -92 -168 -487q-37 -109 -71.5 -209.5t-57 -164t-27.5 -79.5q-64 -172 -84 -172q-21 0 -59 105l-353 934q-133 -323 -374 -934q-41 -105 -64 -105q-14 0 -27 28.5t-45 127.5z" />
    <glyph glyph-name="x" unicode="x" horiz-adv-x="1224" 
d="M201 170l327 494l-290 471q-4 7 -13.5 21.5t-12.5 18.5t-9.5 14.5t-9.5 13.5t-8 10t-9 11l-9 9t-11 10q-18 16 -52 27q-38 12 -71 12q-26 0 -26 14q3 14 30 15q62 0 125 -2q28 -1 51.5 -2t34.5 -1l10 -1l8 1q8 0 25.5 1t38.5 2q45 2 104 2q33 0 33 -13q0 -16 -25 -16
q-31 0 -49 -6q-20 -6 -20 -25t24 -63q98 -181 238 -404q17 24 66.5 98.5t82.5 123.5q100 152 109 178q22 42 22 61q0 30 -36 33q-36 4 -45 4q-25 0 -25 16q0 13 29 13q28 0 69 -1.5t71 -3.5l30 -1l7 1q7 0 22.5 1t33.5 2q39 2 98 2q25 0 25 -13q0 -16 -23 -16t-65 -10
q-37 -6 -76 -62q-30 -38 -39 -51q-17 -23 -18 -26l-289 -416q2 -3 14.5 -23t36.5 -58.5t51 -82.5q48 -81 177 -285q66 -107 102 -157q20 -27 28.5 -35.5t28.5 -22.5q23 -17 45 -22q31 -8 56 -8q16 0 22 -7.5t-1 -14.5t-23 -7q-240 0 -330 4q-22 1 -26.5 4t-4.5 14q0 7 21 13
q25 6 -2 49q-114 203 -301 508l-277 -451q-31 -54 -31 -76q0 -28 37 -34q8 -2 25 -2q16 0 22.5 -7.5t0.5 -14.5t-21 -7q-50 0 -101 2q-22 1 -41.5 2t-28.5 2h-9q-13 0 -31 -2q-17 0 -62 -2t-65 -2q-25 0 -27 14q-1 10 14 14q4 1 9 1q23 0 59 8q70 18 150 139z" />
    <glyph glyph-name="y" unicode="y" horiz-adv-x="1185" 
d="M516 291v149q0 115 -45 189q-35 63 -143 235q-111 176 -170 262q-77 103 -105 125q-42 28 -96 31q-23 0 -23 16q0 13 25 13q4 0 61.5 -2t90.5 -2l41 -2q1 0 11 0.5t26.5 1.5t35.5 2t41.5 1.5t40.5 0.5q27 0 27 -13q0 -9 -23 -16q-32 -6 -32 -33q0 -19 26 -67
q31 -54 86 -144q11 -18 154 -250q83 -135 88 -143q7 14 80 143q74 128 135 226q19 33 37 63.5t27.5 46t11.5 19.5q47 83 47 108q0 31 -47 31q-23 3 -23 16t25 13q20 0 69 -3t56 -3q3 0 13.5 0.5l31.5 1.5t43 2q49 2 92 2q24 0 24 -13q0 -16 -24 -16q-63 -3 -103 -27
q-28 -19 -75 -84q-84 -116 -203 -311q-123 -205 -145 -258q-21 -52 -21 -162v-149q0 -66 4 -164q2 -30 6 -45.5t20 -30t46 -20.5q31 -8 76 -8q22 0 22 -13q0 -16 -24 -16q-44 0 -101 1.5t-95.5 3t-39.5 1.5h-35q-141 -6 -149 -6q-29 0 -29 16q0 13 21 13q27 0 51 6
q44 8 53 98q6 73 6 164z" />
    <glyph glyph-name="z" unicode="z" horiz-adv-x="1253" 
d="M354 76h475q141 0 203 17.5t86 66.5q20 39 31 96q6 29 16 29q15 0 15 -31q0 -86 -37 -213q-10 -35 -19.5 -42t-42.5 -7q-46 0 -448 4t-465 4q-33 0 -33 14q0 10 25 49q614 906 778 1170h-375q-201 0 -272 -23q-63 -20 -90 -153q-9 -33 -21 -33q-10 0 -10 25q0 8 35 239
q6 35 20 35q3 0 15 -2.5t30.5 -5.5t36.5 -4q194 -6 309 -6h500q38 0 41 -12.5t-14 -32.5q-756 -1136 -789 -1184z" />
    <glyph glyph-name="braceleft" unicode="{" 
d="M170 1657q0 11 8 24q13 18 34.5 35t29.5 17q9 0 12 -9q11 -57 88.5 -97t196.5 -40q191 0 305 129q15 15 24 15q6 -1 5 -7.5t-7 -19.5q-68 -94 -174 -146.5t-227 -52.5q-147 0 -238 66q-57 45 -57 86z" />
    <glyph glyph-name="bar" unicode="|" horiz-adv-x="1013" 
d="M551 1536v-2048h-86v2048h86z" />
    <glyph glyph-name="braceright" unicode="}" horiz-adv-x="827" 
d="M578 739q-222 65 -222 285q0 7 4.5 79.5t4.5 129.5q0 197 -70 270q-34 34 -59.5 49t-69.5 29q-23 10 -23 14q0 13 29 13q50 0 113 -25t108 -67q61 -61 86 -137.5t25 -196.5q0 -21 -7.5 -111t-7.5 -139q0 -145 154 -172q31 -6 31 -17t-37 -20q-148 -27 -148 -186
q0 -40 9 -166q6 -129 6 -170q0 -107 -36.5 -193t-94.5 -131q-115 -86 -209 -86q-19 0 -19 10q0 9 19 15q201 59 201 272q0 20 -2 80.5t-3 93.5q-1 32 -2 67.5t-1.5 54t-0.5 26.5q0 114 60.5 205.5t161.5 123.5z" />
    <glyph glyph-name="asciitilde" unicode="~" horiz-adv-x="1353" 
d="M295 569h-102q-6 141 55 219t172 78q65 0 115 -20q45 -18 153 -80q149 -88 223 -88q68 0 96 41t29 145h101q9 -297 -226 -297q-61 0 -114 20.5t-154 80.5q-153 90 -219 90q-67 0 -97.5 -43t-31.5 -146z" />
    <glyph glyph-name="exclamdown" unicode="&#xa1;" horiz-adv-x="737" 
d="M332 1159q25 0 28 -69q8 -131 19 -303.5t14 -219.5q21 -314 39 -385q8 -31 8 -39q0 -11 -10 -28q-27 -45 -88 -95q-64 -55 -106 -55q-13 0 -13 21q0 -1 2 13.5t5 41.5t7 60t7.5 75t5.5 80q26 490 57 838q3 65 25 65zM328 1571q47 0 74.5 -30.5t27.5 -74.5
q0 -41 -28 -72.5t-76 -31.5q-45 0 -75 28t-30 70q0 48 30 79.5t77 31.5z" />
    <glyph glyph-name="cent" unicode="&#xa2;" horiz-adv-x="1169" 
d="M762 1227l-84 -910q41 -6 86 -6q216 0 262 174q9 35 21 35q10 0 10 -22q0 -38 -31 -187q-9 -34 -29 -37q-118 -41 -268 -41q-38 0 -59 3l-25 -273q0 -13 -20 -16l-39 -13q-8 -2 -12 3.5t-3 17.5l27 289q-214 35 -346 170q-135 135 -135 366q0 228 168 371
q161 134 409 143l19 207q0 16 12 19l47 14q16 3 16 -10l-20 -228q142 0 281 -53q14 -8 14 -29q0 -106 -12 -192q-1 -29 -16 -31q-12 6 -15 29q-9 85 -37 121q-62 71 -221 86zM606 334l82 897q-184 -1 -288.5 -115t-104.5 -305q0 -178 82 -304t229 -173z" />
    <glyph glyph-name="sterling" unicode="&#xa3;" horiz-adv-x="1169" 
d="M514 0h-477q-60 0 -60 20q0 26 41 35q149 35 205 164q50 112 72 297l27 215h-154q-8 0 -18 -1t-18 -2l-7 -1q-15 0 -6 18l24 43q7 17 29 17h162l20 143q27 190 74 310t139 198q133 115 310 115q89 0 178 -25q26 -8 55 -10q14 -3 14 -25q0 -165 -10 -233q-3 -25 -16 -25
q-14 0 -17 31q-9 88 -45 135q-59 80 -207 80q-124 0 -198.5 -102.5t-95.5 -276.5l-37 -315h223q14 0 28.5 1t26 2.5t21 3t15.5 2.5l5 1q19 0 10 -20l-22 -50q-10 -16 -33 -16h-287l-10 -86q-9 -63 -17 -104t-30 -107t-57 -135q-56 -115 -131 -178l4 -4l639 6q87 2 132 40
t58 128q1 19 14 20q13 2 16 -20q1 -5 1 -10q0 -70 -35 -248q-6 -27 -25.5 -34t-99.5 -7q-17 0 -225 4q-156 6 -205 6z" />
    <glyph glyph-name="currency" unicode="&#xa4;" horiz-adv-x="1169" 
d="M995 1204l68 -71l-162 -146q78 -101 78 -256q0 -173 -82 -274l156 -150l-68 -71l-145 163q-102 -102 -254 -102q-162 0 -256 98l-135 -157l-64 69l145 144q-81 100 -81 266q0 155 86 270l-154 146l68 75l137 -164q94 101 260 101q163 0 254 -98zM879 725q0 136 -80 236
q-79 98 -213 98q-135 0 -214 -92t-79 -246q0 -163 90 -250q88 -88 203 -88q130 0 211.5 88t81.5 254z" />
    <glyph glyph-name="yen" unicode="&#xa5;" horiz-adv-x="1169" 
d="M217 813h260q-3 5 -137 260q-37 70 -81.5 156t-55.5 106q-49 94 -81.5 129.5t-80.5 42.5q-32 3 -49 6q-19 3 -19 17q0 12 25 12q13 0 92 -3t94 -3h8q9 1 27 2t39 2q47 2 104 2q27 0 27 -12q0 -14 -24 -17q-56 -3 -56 -34q0 -15 39 -86q111 -221 275 -527q24 46 129 262
q99 209 104 218q45 91 45 127q0 37 -80 40q-24 3 -24 17q0 12 28 12q15 0 86.5 -3t79.5 -3q6 0 88 4q39 2 76 2q25 0 25 -12q0 -14 -27 -17q-70 -9 -100 -30t-80 -103q-81 -134 -295 -567h274q13 0 14 -5q0 -2 -1 -7l-11 -45q-4 -11 -18 -11h-272v-147h288q8 0 10 -2t1 -12
l-9 -43q-4 -11 -24 -11h-266v-141q0 -160 6 -246q6 -103 84 -112q52 -8 84 -8q24 0 24 -13q0 -16 -31 -16q-163 0 -253 6q2 0 -38.5 -1.5t-90.5 -3t-72 -1.5q-33 0 -33 16q0 13 23 13q26 0 53 6q59 12 65 114q7 96 7 246v141h-285q-18 0 -12 19l10 41q3 8 14 8h273v147h-285
q-14 0 -16 4t4 23l10 33q3 8 12 8z" />
    <glyph glyph-name="brokenbar" unicode="&#xa6;" horiz-adv-x="1013" 
d="M551 1382v-716h-86v716h86zM551 358v-716h-86v716h86z" />
    <glyph glyph-name="section" unicode="&#xa7;" horiz-adv-x="1896" 
d="M1038 1391v-1237q0 -4 6 -4q251 9 390 182q141 172 141 446q0 273 -138.5 438t-389.5 185q-6 0 -9 -10zM879 156v1243q0 6 -13 6q-285 -15 -417 -168q-130 -151 -130 -385q0 -283 152 -479q150 -197 399 -221q9 -3 9 4zM874 6v68q0 6 -8 6q-189 10 -336 74.5t-233 169.5
q-166 201 -166 479q0 262 164 446q87 97 235 155t340 64q9 0 9 45v17q0 94 -13.5 123.5t-54.5 42.5q-3 3 -55 6q-27 3 -27 16t35 13q57 0 110 -2q76 -3 82 -3q4 0 84 3q51 2 107 2q33 0 33 -13t-29 -16q-1 0 -6.5 -1t-14 -2.5t-14.5 -2.5q-32 -8 -46.5 -20.5t-22 -44.5
t-7.5 -97v-21q0 -45 4 -45q354 -20 537.5 -190.5t183.5 -454.5q0 -331 -190 -524q-190 -196 -526 -217q-9 0 -9 -4v-68q1 -99 17 -135t61 -47q6 0 58 -6q30 -1 31 -14q0 -13 -36 -13q-71 0 -118 2t-95 2q-41 0 -88 -2t-102 -2q-30 0 -33 12q-1 7 12 12q7 2 17 3q46 3 49 6
q35 7 47 44.5t14 133.5z" />
    <glyph glyph-name="dieresis" unicode="&#xa8;" 
d="M739 1536q-37 0 -58.5 23.5t-21.5 56.5q0 31 23 55.5t59 24.5q35 0 56.5 -21.5t21.5 -54.5q0 -37 -22 -60.5t-58 -23.5zM283 1536q-49 0 -69 40t0.5 80t70.5 40q35 0 56 -21.5t21 -54.5q0 -37 -21.5 -60.5t-57.5 -23.5z" />
    <glyph glyph-name="copyright" unicode="&#xa9;" horiz-adv-x="1945" 
d="M1495 0h-471q-6 0 -6 -6q6 -101 28.5 -188.5t45.5 -120.5q6 -9 0 -19q-29 -44 -76 -82q-45 -37 -72 -41q-9 -1 -13.5 8t-6.5 29q-6 120 28 412q0 8 -6 8h-500q-2 0 -11.5 -0.5t-28 -1.5t-37.5 -2q-47 -2 -113 -2q-40 0 -38 14q1 11 26 17q22 2 53 8q33 10 43.5 38.5
t15.5 102.5q9 132 9 410v364q0 336 -5 443q-5 57 -22.5 81.5t-65.5 34.5q-24 6 -69 6q-17 0 -17 13q0 16 33 16q22 0 54.5 -0.5t62.5 -1.5t56.5 -2t43 -1.5t15.5 -0.5q-2 0 38 1.5t90 3t72 1.5q33 0 33 -16q0 -13 -16 -13q-14 0 -52 -6q-40 -7 -55 -32.5t-20 -83.5
q-4 -86 -4 -443v-325q0 -425 8 -504q3 -24 20 -27q54 -4 205 -4h268q308 0 346 6q19 3 19 21q6 62 6 481v352q0 357 -4 443q-5 57 -22.5 81.5t-65.5 34.5q-24 6 -70 6q-16 0 -16 13q0 16 33 16q22 0 54.5 -0.5t62.5 -1.5t56.5 -2t42.5 -1.5t15 -0.5q-2 0 38.5 1.5t90.5 3
t72 1.5q33 0 33 -16q0 -13 -17 -13q-14 0 -51 -6q-40 -7 -55.5 -32.5t-20.5 -83.5q-4 -86 -4 -443v-358q0 -352 10 -447q6 -55 22.5 -80.5t57.5 -31.5q52 -8 84 -8q25 0 25 -13q0 -16 -33 -16q-163 0 -252 6z" />
    <glyph glyph-name="ordfeminine" unicode="&#xaa;" horiz-adv-x="897" 
d="M676 1133l-4 -273q0 -131 69 -131q20 0 41 6q15 6 15 -4q0 -6 -9 -18q-46 -43 -114 -43q-54 0 -87 26t-38 66q-96 -96 -213 -96q-90 0 -142.5 54t-52.5 136q0 188 414 244v55q0 94 -41 153.5t-131 59.5q-159 0 -180 -143q-3 -21 -13 -21t-10 23q0 2 2 59.5t2 59.5
q0 19 15 28q70 31 88 35q73 27 141 27q129 0 191 -83.5t57 -219.5zM549 846l6 201q-162 -19 -225.5 -62t-63.5 -115q0 -59 39.5 -92t97.5 -33q75 0 134 62q12 15 12 39z" />
    <glyph glyph-name="guillemotleft" unicode="&#xab;" horiz-adv-x="1204" 
d="M598 274l-53 -57q-10 -10 -19 -10q-11 0 -53 51q-28 35 -145 168q-123 133 -146 156q-35 35 -35 45q0 11 33 37q73 63 201 186q44 43 88 84.5t69.5 65t34.5 32.5q25 25 37 25q21 -10 -16 -47q-50 -64 -168 -193q-136 -149 -154 -174q23 -31 303 -324l31 -30q0 -7 -8 -15z
M1036 274l-53 -55q-12 -12 -18 -12q-12 0 -54 51q-28 35 -145 168q-136 147 -145 156q-35 35 -35 45q0 12 32 37q73 63 201 186q45 43 89 84t69.5 65t34.5 33q25 25 37 25q18 0 -17 -47q-50 -64 -168 -193q-131 -144 -153 -174q23 -31 303 -324l30 -30q0 -7 -8 -15z" />
    <glyph glyph-name="logicalnot" unicode="&#xac;" horiz-adv-x="1353" 
d="M1161 797v-508h-106v399h-865v109h971z" />
    <glyph glyph-name="uni00AD" unicode="&#xad;" horiz-adv-x="827" 
d="M248 743q221 -59 221 -284q0 -56 -2 -119q-4 -126 -4 -168q0 -200 69 -272q34 -35 61 -51.5t71 -30.5q13 -4 18 -10.5t0 -11.5t-18 -5q-55 0 -121.5 24t-110.5 68q-108 108 -108 340q0 51 8 152q6 114 6 176q0 81 -39 120t-117 52q-30 6 -30 18q0 11 38 19
q148 35 148 186q0 40 -6 129q-8 79 -8 127q0 107 36 192.5t95 129.5q109 84 204 84q23 0 23 -11q0 -8 -18 -14q-201 -62 -201 -274q0 -31 4 -133q2 -53 2 -109q0 -114 -59.5 -203t-161.5 -121z" />
    <glyph glyph-name="registered" unicode="&#xae;" horiz-adv-x="1513" 
d="M383 -285q-33 0 -35 14q-2 11 22 14q4 1 9 1q106 3 158 37q50 33 112 145q18 32 74 156q7 17 -2 43q-28 74 -256 594q-236 531 -285 629q-55 107 -86 131q-32 25 -119 34q-28 3 -28 15q0 14 33 14q55 0 106 -2q102 -4 104 -4q1 0 10.5 0.5t29 1.5t40.5 2q47 2 109 2
q27 0 27 -12q0 -16 -27 -19q-57 -3 -57 -32q0 -15 28 -82q61 -148 473 -1086q228 575 398 1039q34 93 34 127q0 24 -38 32q-27 6 -27 21q0 10 37 10q10 0 56.5 -2t64.5 -2q4 0 98 4q47 2 88 2q33 0 33 -12q0 -14 -29 -17q-49 -6 -80 -16q-42 -13 -65.5 -41t-53.5 -96
q-87 -203 -575 -1432q-46 -124 -51 -143q0 -3 -5 -20t-6 -21q0 -15 -14 -18q-64 -11 -305 -11zM702 1911q29 39 39 39q14 0 29 -6q63 -27 90 -46q15 -10 6 -16q-45 -25 -57 -33q-131 -82 -207 -153q-16 -19 -33 -19q-14 0 -4 17q5 13 64 102q58 93 73 115zM1081 1913
q34 37 39 37q18 0 31 -8q50 -22 88 -48q22 -15 2 -22q-4 -1 -11 -4.5t-21.5 -10.5t-26.5 -12q-151 -87 -221 -151q-20 -17 -31 -17q-13 0 -4 15q6 35 155 221z" />
    <glyph glyph-name="macron" unicode="&#xaf;" 
d="M139 1847q0 11 11 29q13 19 36 39t31 20q9 0 12 -12q13 -65 97 -112.5t213 -47.5q203 0 331 152q15 18 27 18q4 0 5.5 -4t0 -11t-7.5 -15q-72 -106 -189 -167t-247 -61q-153 0 -256 74q-64 52 -64 98z" />
    <glyph glyph-name="degree" unicode="&#xb0;" 
d="M907 1763q0 -11 -10 -28q-13 -19 -36.5 -39.5t-31.5 -20.5q-9 0 -12 13q-13 65 -96.5 112t-212.5 47q-205 0 -332 -151q-16 -19 -26 -19q-4 0 -5.5 4.5t0 11.5t7.5 15q72 106 188.5 166.5t247.5 60.5q155 0 256 -73q63 -51 63 -99z" />
    <glyph glyph-name="plusminus" unicode="&#xb1;" horiz-adv-x="1353" 
d="M1161 215v-106h-966l-2 106h968zM1161 911v-106h-428v-434h-108v434h-432v106h430v420h108v-420h430z" />
    <glyph glyph-name="twosuperior" unicode="&#xb2;" horiz-adv-x="757" 
d="M580 979q-139 0 -254 2h-258q-21 0 -21 10q0 7 31 35q152 122 242 215.5t140 190.5t50 198q0 111 -54.5 165t-146.5 54q-84 0 -137 -41q-41 -24 -41 -104q-3 -25 -14 -25q-7 0 -13 19q0 20 -2 59q-1 14 -2 33t-1.5 29t-0.5 16q0 10 13 20q125 46 233 46q147 0 231 -69
t84 -183q0 -107 -51 -187q-3 -5 -17.5 -27.5t-18 -27.5t-15.5 -22.5t-20.5 -27t-22.5 -24.5t-31 -30q-16 -15 -41.5 -40t-33.5 -32q-32 -28 -91 -76q-43 -34 -88 -72q-4 -1 -3.5 -3.5t5.5 -2.5h84q146 0 248 6q60 4 84.5 24.5t36.5 76.5q3 22 12 22q6 0 6 -18q0 -8 -10 -86
q-11 -65 -22 -98q-5 -14 -23 -19.5t-67 -5.5z" />
    <glyph glyph-name="threesuperior" unicode="&#xb3;" horiz-adv-x="759" 
d="M279 965q-113 0 -175 30q-24 12 -24 35q-3 104 8 158q3 22 14 22q13 0 13 -24q5 -80 51 -124t131 -44q101 0 166 59t65 162q0 100 -61.5 154t-169.5 65q-37 3 -37 17q0 15 35 18q197 24 197 193q0 69 -42.5 116t-127.5 47q-78 0 -119 -42.5t-47 -114.5q-3 -25 -13 -25
q-14 0 -14 21q-8 39 -8 139q0 25 18 31q101 43 217 43q131 0 204 -56.5t73 -132.5q0 -87 -54.5 -138.5t-152.5 -84.5q-6 -3 0 -6q69 -14 117 -36t90 -69q45 -51 45 -123q0 -123 -111 -206q-113 -84 -288 -84z" />
    <glyph glyph-name="acute" unicode="&#xb4;" 
d="M723 1741q47 -38 68 -72q15 -24 -7 -24q-2 0 -14.5 -3t-31 -9t-29.5 -11q-128 -59 -263 -141l-6 -2q-5 -4 -11 -7t-12 -5t-10 -1t-4 7q0 9 15 24q204 210 217 221q41 35 53 35q20 0 35 -12z" />
    <glyph glyph-name="uni00B5" unicode="&#xb5;" horiz-adv-x="1376" 
d="M256 358v70q0 388 -12 551q0 12 12 12q101 0 158 8q10 3 10 -12q-10 -153 -10 -514v-111q0 -128 57 -204t164 -76q112 0 187 68.5t75 181.5v88q0 406 -10 559q0 12 10 12q103 0 160 8q13 3 10 -12q-8 -101 -8 -498v-251q0 -96 28.5 -139.5t86.5 -43.5q28 0 77 19
q19 6 19 -6q0 -11 -8 -19q-68 -74 -181 -74q-173 0 -176 203q-125 -198 -323 -198q-140 0 -213 102q9 -398 65 -477q8 -9 -8 -25q-29 -28 -78.5 -46.5t-77.5 -18.5q-24 0 -24 92q0 137 6 389q4 340 4 362z" />
    <glyph glyph-name="cedilla" unicode="&#xb8;" 
d="M399 -125l150 127h74q-21 -22 -74 -68q-41 -36 -66 -55q215 -35 215 -158q0 -80 -90 -133q-91 -49 -219 -49q-27 0 -27 17q0 7 39 16q158 30 158 135q0 103 -162 127q-23 4 -23 14t25 27z" />
    <glyph glyph-name="onesuperior" unicode="&#xb9;" horiz-adv-x="567" 
d="M250 1348v370q0 47 -21 47q-32 0 -106 -26q-39 -9 -39 4q0 9 18 18q113 51 240 121q40 19 41 19q6 0 6 -25q0 -1 -0.5 -19t-1.5 -48t-2 -67t-1.5 -85t-0.5 -92v-217q0 -211 4 -281q3 -50 47 -59q56 -7 64 -7q21 0 23 -11q-7 -11 -27 -13q-60 0 -103 2q-45 2 -69 2l-76 -2
q-49 -2 -109 -2q-28 0 -28 12q0 15 26 15t62 4q26 4 35 17t14 46q4 74 4 277z" />
    <glyph glyph-name="ordmasculine" unicode="&#xba;" horiz-adv-x="978" 
d="M483 668q-176 0 -278 114q-103 115 -103 269q0 147 103 268q102 117 291 117q167 0 274 -101t107 -268q0 -170 -109 -285q-108 -114 -285 -114zM743 1038q0 151 -76.5 242.5t-191.5 91.5q-109 0 -173 -77t-64 -222q0 -153 75.5 -246.5t190.5 -93.5q91 0 166 72
q73 70 73 233z" />
    <glyph glyph-name="guillemotright" unicode="&#xbb;" horiz-adv-x="1204" 
d="M606 993l53 58q10 10 19 10q11 0 53 -51q38 -47 148 -166q108 -123 143 -158t35 -45q0 -11 -33 -37q-73 -63 -201 -186q-44 -43 -88 -84.5t-69.5 -65t-34.5 -32.5q-25 -25 -37 -25q-21 10 16 47q50 64 168 193q136 149 154 174q-20 26 -303 323l-31 31q0 6 8 14zM168 993
l53 56q12 12 19 12q11 0 53 -51q45 -55 147 -166q101 -115 144 -158q34 -34 34 -45q0 -12 -32 -37q-73 -63 -201 -186q-44 -43 -88 -84.5t-69.5 -65t-34.5 -32.5q-25 -25 -37 -25q-17 0 12 41l4 6q50 64 168 193q136 149 154 174q-16 21 -304 323l-30 31q0 6 8 14z" />
    <glyph glyph-name="onequarter" unicode="&#xbc;" horiz-adv-x="1789" 
d="M1436 1599l43 -34q9 -9 0 -17l-1110 -1579q-7 -10 -15 -2l-41 33q-6 6 0 16l1108 1579q9 9 15 4zM295 1018v371q0 47 -21 47q-30 0 -106 -27q-39 -9 -39 4q0 10 18 19q123 56 240 120q40 19 41 19q6 0 6 -25q0 -1 -0.5 -19t-1.5 -48t-2 -67t-1.5 -85t-0.5 -92v-217
q0 -211 4 -281q3 -50 47 -59q48 -6 64 -6q22 0 23 -12q-2 -12 -27 -13q-60 0 -103 2q-45 2 -69 2l-76 -2q-49 -2 -109 -2q-28 0 -28 12q0 15 26 15t62 4q26 4 35 17t14 46q4 74 4 277zM1477 702v-376h98q48 3 67 22q8 9 15 7.5t4 -15.5q-4 -22 -23 -74q-9 -12 -26 -12
q-14 -2 -135 -2q0 -122 4 -176q3 -35 11 -48.5t38 -19.5q16 -4 41 -4q23 -1 23 -14t-27 -13q-41 0 -99 3q-39 2 -65 2q-3 0 -58 -2.5t-83 -2.5q-29 0 -29 15q0 12 22 12q6 2 39 2q29 1 41 17t17 53q2 31 2 176q-243 0 -391 4q-31 4 -33 12.5t18 34.5q8 9 37.5 44t81 96.5
t107.5 127.5q167 200 258 303q26 27 36.5 26.5t10.5 -32.5v-65q-2 -41 -2 -101zM1040 326h314v387q-301 -366 -314 -387z" />
    <glyph glyph-name="onehalf" unicode="&#xbd;" horiz-adv-x="1843" 
d="M1382 1599l43 -34q9 -9 0 -17l-1110 -1579q-6 -10 -14 -2l-41 33q-6 6 0 16l1108 1579q9 9 14 4zM295 1018v371q0 47 -21 47q-30 0 -106 -27q-39 -9 -39 4q0 10 18 19q123 56 240 120q40 19 41 19q6 0 6 -25q0 -1 -0.5 -19t-1.5 -48t-2 -67t-1.5 -85t-0.5 -92v-217
q0 -211 4 -281q3 -50 47 -59q48 -6 64 -6q22 0 23 -12q-2 -12 -27 -13q-60 0 -103 2q-45 2 -69 2l-76 -2q-49 -2 -109 -2q-28 0 -28 12q0 15 26 15t62 4q26 4 35 17t14 46q4 74 4 277zM1593 -23h-254q-175 3 -258 3q-20 0 -20 10q0 7 31 35q152 122 242 215.5t140 190.5
t50 198q0 111 -54.5 165t-146.5 54q-84 0 -137 -41q-41 -24 -41 -105q-3 -24 -15 -24q-6 0 -12 18q0 21 -2 60q-1 14 -2 33t-1.5 29t-0.5 16q0 11 12 20q122 45 234 45q147 0 231 -69t84 -183q0 -106 -51 -186l-17.5 -28t-17.5 -27t-16.5 -23.5t-20 -26.5t-22.5 -25t-31 -30
q-13 -13 -30 -29t-28 -26.5t-18 -16.5q-29 -25 -90 -75q-43 -34 -88 -72q-6 -2 -3 -5q2 -1 5 -1h84q146 0 248 6q60 5 84.5 25t36.5 75q3 23 12 23q6 0 6 -19q0 -8 -10 -86q-10 -59 -23 -98q-5 -14 -23 -19.5t-67 -5.5z" />
    <glyph glyph-name="threequarters" unicode="&#xbe;" horiz-adv-x="1865" 
d="M1522 1599l43 -34q9 -9 0 -17l-1110 -1579q-7 -10 -15 -2l-41 33q-6 6 0 16l1108 1579q9 9 15 4zM1552 702v-376h99q48 3 67 22q8 9 15 7.5t4 -15.5q-4 -22 -23 -74q-9 -12 -26 -12q-14 -2 -136 -2q0 -122 4 -176q3 -35 11.5 -48.5t38.5 -19.5q16 -4 41 -4q23 -1 22 -14
q0 -13 -27 -13q-40 0 -98 3q-39 2 -65 2q-3 0 -58.5 -2.5t-83.5 -2.5t-28 15q0 12 22 12q6 2 39 2q29 1 40.5 17t16.5 53q3 47 3 176q-244 0 -392 4q-31 4 -32.5 12.5t18.5 34.5q7 8 36.5 44t81 96.5t107.5 127.5q167 200 258 303q26 27 36.5 26.5t10.5 -32.5v-65
q-2 -41 -2 -101zM1116 326h314v387q-301 -366 -314 -387zM326 635q-110 0 -174 31q-25 12 -25 34q-3 104 8 158q3 23 15 23t12 -25q5 -80 51 -124t131 -44q101 0 166 59t65 162q0 100 -61.5 154t-169.5 65q-37 1 -37 16t35 19q197 24 197 193q0 69 -42.5 116.5t-127.5 47.5
q-78 0 -119 -43t-47 -115q-3 -25 -13 -25q-14 0 -14 21q-8 39 -8 139q0 25 18 31q101 43 217 43q131 0 204 -56.5t73 -132.5q0 -87 -54.5 -138.5t-152.5 -84.5q-6 -3 0 -6q70 -14 117.5 -35.5t89.5 -68.5q45 -51 45 -123q0 -124 -111 -207q-113 -84 -288 -84z" />
    <glyph glyph-name="questiondown" unicode="&#xbf;" horiz-adv-x="1101" 
d="M494 -35q-186 0 -279 96q-92 95 -92 224q0 136 70 243q41 63 71 99q13 15 48.5 55t54.5 61q65 73 108 129q84 110 84 164q0 57 -33 107q-16 26 -16 35q0 16 12 16q28 0 88 -72q60 -75 60 -121q0 -45 -45 -102q-16 -21 -75.5 -91t-66.5 -79q-101 -128 -140.5 -225
t-39.5 -205q0 -100 57 -180q60 -84 183 -84q135 0 200 80q63 76 72 190q3 35 16 35q14 0 17 -21q8 -36 8 -239q0 -17 -22 -33q-137 -82 -340 -82zM541 1571q40 0 67 -22.5t33.5 -54.5t0 -63.5t-34 -54t-68.5 -22.5q-45 0 -75 29.5t-30 76.5t31 79t76 32z" />
    <glyph glyph-name="Agrave" unicode="&#xc0;" horiz-adv-x="1433" 
d="M899 598h-440q-15 0 -21 -16l-123 -363q-28 -82 -28 -137q0 -28 21 -43.5t52 -15.5h19q27 0 27 -13q0 -16 -37 -16q-47 0 -86 2q-16 1 -32.5 2t-25 1.5t-10.5 0.5h-10q-10 -1 -31.5 -2t-46.5 -2q-57 -2 -143 -2q-39 0 -39 16q0 13 28 13q4 0 50 4q62 7 99.5 52t72.5 140
l464 1272q20 55 33 70.5t25 1.5t33 -66q13 -31 104 -270q140 -368 207 -539q109 -284 166 -426q83 -200 176 -227q37 -12 80 -12q22 0 22 -13q0 -16 -41 -16q-133 0 -321 4q-67 5 -62 19q3 6 15 10q27 9 12 55l-190 504q-6 12 -19 12zM481 672h391q12 0 9 14l-195 553
q-16 48 -31 0l-180 -553q-6 -14 6 -14zM780 1692q29 -20 17 -29q-3 -2 -9 -2q-23 0 -174 68q-153 69 -245 120q-24 14 -31 21.5t-3 13t21 14.5q56 30 90 39q21 8 33 6.5t29 -22.5q20 -22 117 -106q92 -80 155 -123z" />
    <glyph glyph-name="Aacute" unicode="&#xc1;" horiz-adv-x="1433" 
d="M899 598h-440q-15 0 -21 -16l-123 -363q-28 -82 -28 -137q0 -28 21 -43.5t52 -15.5h19q27 0 27 -13q0 -16 -37 -16q-47 0 -86 2q-16 1 -32.5 2t-25 1.5t-10.5 0.5h-10q-10 -1 -31.5 -2t-46.5 -2q-57 -2 -143 -2q-39 0 -39 16q0 13 28 13q4 0 50 4q62 7 99.5 52t72.5 140
l464 1272q20 55 33 70.5t25 1.5t33 -66q13 -31 104 -270q140 -368 207 -539q109 -284 166 -426q83 -200 176 -227q37 -12 80 -12q22 0 22 -13q0 -16 -41 -16q-133 0 -321 4q-67 5 -62 19q3 6 15 10q27 9 12 55l-190 504q-6 12 -19 12zM481 672h391q12 0 9 14l-195 553
q-16 48 -31 0l-180 -553q-6 -14 6 -14zM948 1923q43 -37 66 -82q14 -26 -8 -26q-35 0 -84 -17q-126 -47 -291 -125q-27 -12 -33 -12q-28 0 2 31l2 2q176 164 252 213q43 32 59 32q19 0 35 -16z" />
    <glyph glyph-name="Acircumflex" unicode="&#xc2;" horiz-adv-x="1433" 
d="M899 598h-440q-15 0 -21 -16l-123 -363q-28 -82 -28 -137q0 -28 21 -43.5t52 -15.5h19q27 0 27 -13q0 -16 -37 -16q-47 0 -86 2q-16 1 -32.5 2t-25 1.5t-10.5 0.5h-10q-10 -1 -31.5 -2t-46.5 -2q-57 -2 -143 -2q-39 0 -39 16q0 13 28 13q4 0 50 4q62 7 99.5 52t72.5 140
l464 1272q20 55 33 70.5t25 1.5t33 -66q13 -31 104 -270q140 -368 207 -539q109 -284 166 -426q83 -200 176 -227q37 -12 80 -12q22 0 22 -13q0 -16 -41 -16q-133 0 -321 4q-67 5 -62 19q3 6 15 10q27 9 12 55l-190 504q-6 12 -19 12zM481 672h391q12 0 9 14l-195 553
q-16 48 -31 0l-180 -553q-6 -14 6 -14zM723 1909q8 0 39 -17q195 -128 264 -178q23 -17 24.5 -24.5t-10.5 -12.5l-69 -39q-13 -9 -25 0q-126 98 -217 146q-17 10 -22 10l-33 -14q-130 -64 -244 -129q-36 -19 -43 -19q-17 0 -8 19l14 14q242 178 293 223q27 21 37 21z" />
    <glyph glyph-name="Atilde" unicode="&#xc3;" horiz-adv-x="1433" 
d="M899 598h-440q-15 0 -21 -16l-123 -363q-28 -82 -28 -137q0 -28 21 -43.5t52 -15.5h19q27 0 27 -13q0 -16 -37 -16q-47 0 -86 2q-16 1 -32.5 2t-25 1.5t-10.5 0.5h-10q-10 -1 -31.5 -2t-46.5 -2q-57 -2 -143 -2q-39 0 -39 16q0 13 28 13q4 0 50 4q62 7 99.5 52t72.5 140
l464 1272q20 55 33 70.5t25 1.5t33 -66q13 -31 104 -270q140 -368 207 -539q109 -284 166 -426q83 -200 176 -227q37 -12 80 -12q22 0 22 -13q0 -16 -41 -16q-133 0 -321 4q-67 5 -62 19q3 6 15 10q27 9 12 55l-190 504q-6 12 -19 12zM481 672h391q12 0 9 14l-195 553
q-16 48 -31 0l-180 -553q-6 -14 6 -14zM860 1681q-38 0 -162 48q-116 45 -168 45q-81 0 -133 -64q-17 -20 -30 -20q-3 0 -5 3t-0.5 10.5t7.5 16.5q91 150 200 150q62 0 187 -51q93 -37 139 -37q50 0 82 15.5t70 57.5q16 19 24 19q21 0 2 -31q-104 -162 -213 -162z" />
    <glyph glyph-name="Adieresis" unicode="&#xc4;" horiz-adv-x="1433" 
d="M899 598h-440q-15 0 -21 -16l-123 -363q-28 -82 -28 -137q0 -28 21 -43.5t52 -15.5h19q27 0 27 -13q0 -16 -37 -16q-47 0 -86 2q-16 1 -32.5 2t-25 1.5t-10.5 0.5h-10q-10 -1 -31.5 -2t-46.5 -2q-57 -2 -143 -2q-39 0 -39 16q0 13 28 13q4 0 50 4q62 7 99.5 52t72.5 140
l464 1272q20 55 33 70.5t25 1.5t33 -66q13 -31 104 -270q140 -368 207 -539q109 -284 166 -426q83 -200 176 -227q37 -12 80 -12q22 0 22 -13q0 -16 -41 -16q-133 0 -321 4q-67 5 -62 19q3 6 15 10q27 9 12 55l-190 504q-6 12 -19 12zM481 672h391q12 0 9 14l-195 553
q-16 48 -31 0l-180 -553q-6 -14 6 -14zM932 1677q-37 0 -58.5 23.5t-21.5 56.5q0 31 23 55.5t59 24.5q35 0 56.5 -21.5t21.5 -54.5q0 -37 -22 -60.5t-58 -23.5zM475 1677q-49 0 -69 40t0.5 80t70.5 40q35 0 56.5 -21.5t21.5 -54.5q0 -37 -22 -60.5t-58 -23.5z" />
    <glyph glyph-name="Aring" unicode="&#xc5;" horiz-adv-x="1433" 
d="M899 598h-440q-15 0 -21 -16l-123 -363q-28 -82 -28 -137q0 -28 21 -43.5t52 -15.5h19q27 0 27 -13q0 -16 -37 -16q-47 0 -86 2q-16 1 -32.5 2t-25 1.5t-10.5 0.5h-10q-10 -1 -31.5 -2t-46.5 -2q-57 -2 -143 -2q-39 0 -39 16q0 13 28 13q4 0 50 4q62 7 99.5 52t72.5 140
l464 1272q20 55 33 70.5t25 1.5t33 -66q13 -31 104 -270q140 -368 207 -539q109 -284 166 -426q83 -200 176 -227q37 -12 80 -12q22 0 22 -13q0 -16 -41 -16q-133 0 -321 4q-67 5 -62 19q3 6 15 10q27 9 12 55l-190 504q-6 12 -19 12zM481 672h391q12 0 9 14l-195 553
q-16 48 -31 0l-180 -553q-6 -14 6 -14zM664 1626q-67 0 -107.5 35t-40.5 90q0 70 64 120t161 50q71 0 111.5 -32t40.5 -87q0 -77 -67.5 -126.5t-161.5 -49.5zM596 1774q0 -43 31 -72t73 -29q50 0 80.5 29t30.5 74q0 42 -28 69t-78 27q-46 0 -77.5 -25.5t-31.5 -72.5z" />
    <glyph glyph-name="AE" unicode="&#xc6;" horiz-adv-x="1867" 
d="M1069 1536q438 0 469 2q76 3 94 12q15 9 23 9t8 -19q0 -2 -3.5 -17t-7.5 -37.5t-5 -41.5l-9 -123q-3 -35 -16 -35q-16 0 -16 27q0 34 -11 67q-21 64 -147 76q-53 6 -281 6q-12 0 -12 -20v-649q0 -21 12 -21q264 0 326 4q76 6 102 35q14 20 25 20q10 0 10 -16q0 -1 -3 -17
t-7 -44t-6 -54q-3 -41 -6 -86q-2 -35 -2 -53q-3 -31 -15 -31q-8 0 -11 15t-5 39.5t-6 36.5q-12 53 -92 65t-308 12q-14 0 -14 -14v-180v-199v-67q5 -71 19 -104t49 -46q47 -18 170 -18t184 18q46 13 69 47.5t35 104.5q4 20 11.5 27.5t13.5 0t6 -27.5q0 -8 -10 -93
q-8 -72 -16 -106q-10 -37 -28 -45t-83 -8q-59 0 -299 6q-10 0 -88 3t-119 3q-35 0 -109 -3t-88 -3q-32 0 -32 16q0 10 22 13q37 3 47 6q38 8 55.5 49t18.5 143q4 212 4 367v94q0 16 -18 16h-361q-29 0 -37 -14q-52 -68 -233 -379q-88 -143 -88 -207q0 -75 131 -75
q23 0 25 -12q2 -10 -14 -14q-8 -3 -21 -3q-28 0 -64 0.5t-68 1.5t-59.5 2t-45.5 1.5t-19 0.5h-17q-16 -1 -42 -2t-55.5 -2t-61.5 -1.5t-56 -0.5q-26 0 -26 16q0 13 22 13q56 0 115.5 36.5t97.5 83.5q11 13 88 119q59 79 752 1165q34 53 45 86q6 29 20 29q3 0 32.5 -3
t39.5 -3zM641 772h328q18 0 18 16v553q0 9 -6 9t-12 -9q-165 -266 -176 -284q-156 -257 -160 -266q-9 -19 8 -19z" />
    <glyph glyph-name="Ccedilla" unicode="&#xc7;" horiz-adv-x="1648" 
d="M815 -125l113 94q-338 27 -549 217q-248 224 -248 607q0 128 53 282t176 277q219 219 625 219q159 0 297 -25q24 -5 217 -30q19 -3 19 -23q0 -3 -2 -18t-4.5 -42.5t-4.5 -54.5q-1 -11 -1.5 -27.5t-1 -42.5t-1.5 -46q-2 -55 -2 -95q-1 -27 -9.5 -38t-17 0t-8.5 38
q0 135 -86 209q-59 51 -171 84t-238 33q-318 0 -471 -150q-101 -96 -143 -224.5t-42 -309.5q0 -302 211 -526q208 -224 529 -224q253 0 356 103q58 58 76 172q4 20 12.5 27.5t15.5 0t7 -27.5q0 -15 -15 -117q-14 -96 -30 -145q-7 -29 -16 -38.5t-38 -21.5q-118 -47 -368 -47
h-58q-31 -27 -98 -86q215 -35 215 -158q0 -80 -90 -133q-91 -49 -219 -49q-27 0 -27 17q0 7 39 16q158 30 158 135q0 103 -162 127q-23 4 -23 14t25 27z" />
    <glyph glyph-name="Egrave" unicode="&#xc8;" horiz-adv-x="1249" 
d="M365 588v360q0 336 -5 443q-5 57 -22.5 81.5t-65.5 34.5q-24 6 -59 6q-27 3 -27 13q0 16 33 16q103 0 232 -6q438 0 469 2q76 3 94 12q15 9 22 9q8 0 8 -19q0 -2 -3.5 -17t-7.5 -37.5t-5 -41.5l-8 -123q-3 -35 -16 -35q-17 0 -17 27q0 37 -10 67q-21 64 -148 76
q-52 6 -280 6q-12 0 -12 -20v-565q0 -21 12 -21q263 0 325 4q77 6 103 35q14 20 24 20q11 0 11 -16q0 -1 -3.5 -17t-7.5 -44t-6 -54q-3 -41 -6 -86q-2 -35 -2 -53q-3 -31 -14 -31q-8 0 -11.5 15t-5.5 39.5t-6 36.5q-13 53 -92 65t-307 12q-14 0 -14 -14v-180v-105v-157v-88
q5 -71 18.5 -104t48.5 -46q46 -18 170 -18q122 0 184 18q47 13 70 47.5t35 104.5q4 20 11.5 27.5t13.5 0t6 -27.5q0 -4 -1.5 -15.5t-4.5 -35t-5 -42.5q-9 -72 -16 -106q-10 -37 -28 -45t-83 -8q-59 0 -299 6q-246 6 -256 6q-8 0 -68 -3.5t-83 -2.5q-33 0 -33 16q0 10 23 13
q37 3 47 6q38 8 55 49t18 143q5 265 5 367zM725 1698q29 -20 17 -29q-3 -2 -9 -2q-23 0 -174 68q-158 71 -246 120q-24 14 -31 22t-2.5 13.5t21.5 14.5q55 30 90 39q21 6 33 6q9 0 29 -23q23 -26 116 -106q89 -77 156 -123z" />
    <glyph glyph-name="Eacute" unicode="&#xc9;" horiz-adv-x="1249" 
d="M365 588v360q0 336 -5 443q-5 57 -22.5 81.5t-65.5 34.5q-24 6 -59 6q-27 3 -27 13q0 16 33 16q103 0 232 -6q438 0 469 2q76 3 94 12q15 9 22 9q8 0 8 -19q0 -2 -3.5 -17t-7.5 -37.5t-5 -41.5l-8 -123q-3 -35 -16 -35q-17 0 -17 27q0 37 -10 67q-21 64 -148 76
q-52 6 -280 6q-12 0 -12 -20v-565q0 -21 12 -21q263 0 325 4q77 6 103 35q14 20 24 20q11 0 11 -16q0 -1 -3.5 -17t-7.5 -44t-6 -54q-3 -41 -6 -86q-2 -35 -2 -53q-3 -31 -14 -31q-8 0 -11.5 15t-5.5 39.5t-6 36.5q-13 53 -92 65t-307 12q-14 0 -14 -14v-180v-105v-157v-88
q5 -71 18.5 -104t48.5 -46q46 -18 170 -18q122 0 184 18q47 13 70 47.5t35 104.5q4 20 11.5 27.5t13.5 0t6 -27.5q0 -4 -1.5 -15.5t-4.5 -35t-5 -42.5q-9 -72 -16 -106q-10 -37 -28 -45t-83 -8q-59 0 -299 6q-246 6 -256 6q-8 0 -68 -3.5t-83 -2.5q-33 0 -33 16q0 10 23 13
q37 3 47 6q38 8 55 49t18 143q5 265 5 367zM918 1913q41 -36 65 -82q12 -27 -8 -27q-38 0 -84 -16q-126 -47 -291 -125q-27 -12 -33 -12q-28 0 4 32q175 163 252 213q44 33 60 33q19 0 35 -16z" />
    <glyph glyph-name="Ecircumflex" unicode="&#xca;" horiz-adv-x="1249" 
d="M365 588v360q0 336 -5 443q-5 57 -22.5 81.5t-65.5 34.5q-24 6 -59 6q-27 3 -27 13q0 16 33 16q103 0 232 -6q438 0 469 2q76 3 94 12q15 9 22 9q8 0 8 -19q0 -2 -3.5 -17t-7.5 -37.5t-5 -41.5l-8 -123q-3 -35 -16 -35q-17 0 -17 27q0 37 -10 67q-21 64 -148 76
q-52 6 -280 6q-12 0 -12 -20v-565q0 -21 12 -21q263 0 325 4q77 6 103 35q14 20 24 20q11 0 11 -16q0 -1 -3.5 -17t-7.5 -44t-6 -54q-3 -41 -6 -86q-2 -35 -2 -53q-3 -31 -14 -31q-8 0 -11.5 15t-5.5 39.5t-6 36.5q-13 53 -92 65t-307 12q-14 0 -14 -14v-180v-105v-157v-88
q5 -71 18.5 -104t48.5 -46q46 -18 170 -18q122 0 184 18q47 13 70 47.5t35 104.5q4 20 11.5 27.5t13.5 0t6 -27.5q0 -4 -1.5 -15.5t-4.5 -35t-5 -42.5q-9 -72 -16 -106q-10 -37 -28 -45t-83 -8q-59 0 -299 6q-246 6 -256 6q-8 0 -68 -3.5t-83 -2.5q-33 0 -33 16q0 10 23 13
q37 3 47 6q38 8 55 49t18 143q5 265 5 367zM664 1950q7 0 38 -17q206 -136 265 -178q23 -17 24.5 -24.5t-10.5 -12.5l-70 -39q-12 -9 -24 0q-126 98 -217 146q-17 10 -23 10l-33 -14q-124 -60 -243 -129q-36 -19 -43 -19q-18 0 -9 19q1 2 3.5 4t6 5t5.5 5q242 178 293 223
q27 21 37 21z" />
    <glyph glyph-name="Edieresis" unicode="&#xcb;" horiz-adv-x="1249" 
d="M365 588v360q0 336 -5 443q-5 57 -22.5 81.5t-65.5 34.5q-24 6 -59 6q-27 3 -27 13q0 16 33 16q103 0 232 -6q438 0 469 2q76 3 94 12q15 9 22 9q8 0 8 -19q0 -2 -3.5 -17t-7.5 -37.5t-5 -41.5l-8 -123q-3 -35 -16 -35q-17 0 -17 27q0 37 -10 67q-21 64 -148 76
q-52 6 -280 6q-12 0 -12 -20v-565q0 -21 12 -21q263 0 325 4q77 6 103 35q14 20 24 20q11 0 11 -16q0 -1 -3.5 -17t-7.5 -44t-6 -54q-3 -41 -6 -86q-2 -35 -2 -53q-3 -31 -14 -31q-8 0 -11.5 15t-5.5 39.5t-6 36.5q-13 53 -92 65t-307 12q-14 0 -14 -14v-180v-105v-157v-88
q5 -71 18.5 -104t48.5 -46q46 -18 170 -18q122 0 184 18q47 13 70 47.5t35 104.5q4 20 11.5 27.5t13.5 0t6 -27.5q0 -4 -1.5 -15.5t-4.5 -35t-5 -42.5q-9 -72 -16 -106q-10 -37 -28 -45t-83 -8q-59 0 -299 6q-246 6 -256 6q-8 0 -68 -3.5t-83 -2.5q-33 0 -33 16q0 10 23 13
q37 3 47 6q38 8 55 49t18 143q5 265 5 367zM881 1720q-37 0 -58.5 23.5t-21.5 56.5q0 31 23 55.5t59 24.5q35 0 56.5 -21.5t21.5 -54.5q0 -37 -22 -60.5t-58 -23.5zM424 1720q-49 0 -69 40t0.5 80t70.5 40q35 0 56.5 -21.5t21.5 -54.5q0 -37 -22 -60.5t-58 -23.5z" />
    <glyph glyph-name="Igrave" unicode="&#xcc;" horiz-adv-x="901" 
d="M365 588v360q0 336 -5 443q-6 99 -69 114q-27 8 -64 8q-16 0 -16 13q0 16 33 16q25 0 77 -1.5t92 -3t38 -1.5t38 1.5t90 3t72 1.5q33 0 33 -16q0 -13 -16 -13q-14 0 -52 -6q-40 -7 -55 -32.5t-20 -83.5q-4 -86 -4 -443v-360q0 -350 10 -445q6 -55 22.5 -80.5t57.5 -31.5
q52 -8 84 -8q24 0 24 -13q0 -16 -30 -16q-163 0 -254 6q2 0 -38.5 -1.5t-90.5 -3t-72 -1.5q-33 0 -33 16q0 13 23 13q26 0 53 6q46 9 61 114q11 104 11 445zM512 1698q29 -20 17 -29q-3 -2 -9 -2q-23 0 -174 68q-158 71 -246 120q-24 14 -31 22t-2.5 13.5t21.5 14.5
q56 30 90 39q22 8 33.5 6t28.5 -23q23 -26 116 -106q88 -77 156 -123z" />
    <glyph glyph-name="Iacute" unicode="&#xcd;" horiz-adv-x="901" 
d="M365 588v360q0 336 -5 443q-6 99 -69 114q-27 8 -64 8q-16 0 -16 13q0 16 33 16q25 0 77 -1.5t92 -3t38 -1.5t38 1.5t90 3t72 1.5q33 0 33 -16q0 -13 -16 -13q-14 0 -52 -6q-40 -7 -55 -32.5t-20 -83.5q-4 -86 -4 -443v-360q0 -350 10 -445q6 -55 22.5 -80.5t57.5 -31.5
q52 -8 84 -8q24 0 24 -13q0 -16 -30 -16q-163 0 -254 6q2 0 -38.5 -1.5t-90.5 -3t-72 -1.5q-33 0 -33 16q0 13 23 13q26 0 53 6q46 9 61 114q11 104 11 445zM723 1946q41 -36 65 -82q15 -27 -8 -27q-38 0 -84 -16q-121 -45 -290 -125q-29 -13 -33 -13q-28 0 2 31l2 2
q175 164 252 213q44 33 59 33q19 0 35 -16z" />
    <glyph glyph-name="Icircumflex" unicode="&#xce;" horiz-adv-x="901" 
d="M365 588v360q0 336 -5 443q-6 99 -69 114q-27 8 -64 8q-16 0 -16 13q0 16 33 16q25 0 77 -1.5t92 -3t38 -1.5t38 1.5t90 3t72 1.5q33 0 33 -16q0 -13 -16 -13q-14 0 -52 -6q-40 -7 -55 -32.5t-20 -83.5q-4 -86 -4 -443v-360q0 -350 10 -445q6 -55 22.5 -80.5t57.5 -31.5
q52 -8 84 -8q24 0 24 -13q0 -16 -30 -16q-163 0 -254 6q2 0 -38.5 -1.5t-90.5 -3t-72 -1.5q-33 0 -33 16q0 13 23 13q26 0 53 6q46 9 61 114q11 104 11 445zM463 1948q8 0 39 -17q195 -128 264 -178q23 -17 24.5 -24.5t-10.5 -12.5l-69 -39q-13 -9 -25 0q-126 98 -217 146
q-17 10 -23 10l-32 -14q-130 -64 -244 -129q-36 -19 -43 -19q-17 0 -8 19l14 14q242 178 293 223q27 21 37 21z" />
    <glyph glyph-name="Idieresis" unicode="&#xcf;" horiz-adv-x="901" 
d="M365 588v360q0 336 -5 443q-6 99 -69 114q-27 8 -64 8q-16 0 -16 13q0 16 33 16q25 0 77 -1.5t92 -3t38 -1.5t38 1.5t90 3t72 1.5q33 0 33 -16q0 -13 -16 -13q-14 0 -52 -6q-40 -7 -55 -32.5t-20 -83.5q-4 -86 -4 -443v-360q0 -350 10 -445q6 -55 22.5 -80.5t57.5 -31.5
q52 -8 84 -8q24 0 24 -13q0 -16 -30 -16q-163 0 -254 6q2 0 -38.5 -1.5t-90.5 -3t-72 -1.5q-33 0 -33 16q0 13 23 13q26 0 53 6q46 9 61 114q11 104 11 445zM678 1718q-37 0 -58.5 23.5t-21.5 56.5q0 31 23 55.5t59 24.5q35 0 56.5 -21.5t21.5 -54.5q0 -37 -22 -60.5
t-58 -23.5zM221 1718q-49 0 -69 40t0.5 80t70.5 40q35 0 56.5 -21.5t21.5 -54.5q0 -37 -22 -60.5t-58 -23.5z" />
    <glyph glyph-name="Eth" unicode="&#xd0;" horiz-adv-x="499" 
d="M152 813q54 0 192 -33q43 -9 43 -24q0 -6 -10 -29q-36 -60 -160 -170q-23 -20 -29 -20q-17 0 2 36q15 49 15 115q0 72 -49 96q-21 9 -21 17q0 12 17 12z" />
    <glyph glyph-name="Ntilde" unicode="&#xd1;" horiz-adv-x="1939" 
d="M297 295v303v221.5t0.5 177t1 123.5t0.5 81.5v29.5v237q0 103 23 103q11 0 49 -41q18 -21 22 -25q41 -46 651 -702q32 -34 74 -79.5t105 -114.5t106 -115q185 -204 207 -226l-23 1041q-2 104 -17 143t-62 51q-52 10 -88 10q-27 0 -29 12q-2 8 12 13q11 4 29 4
q82 0 133 -2q22 -1 42 -2t29 -2h9q1 0 8 0.5t23 1.5t34 2q39 2 109 2q37 0 37 -14q0 -12 -23 -15q-5 -1 -23 -3.5t-30 -4.5q-30 -7 -44.5 -23.5t-21 -53t-6.5 -107.5l-4 -1196q0 -51 -0.5 -79.5t-3 -43.5t-5.5 -18.5t-9 -3.5q-19 0 -150 131q-137 137 -307 315
q-113 115 -227 240q-402 438 -535 587l27 -981q1 -123 19 -174t61 -63q46 -12 102 -12q16 0 16 -13q0 -16 -36 -16q-29 0 -61 0.5t-58.5 1.5t-48.5 2t-35 1.5t-14 0.5l-70 -4q-47 -2 -127 -2q-33 0 -33 16q0 13 17 13q46 0 84 12q36 10 48.5 63t12.5 197zM1112 1700
q-41 0 -162 47q-116 45 -168 45q-82 0 -133 -63q-18 -21 -31 -21q-3 0 -4.5 3.5t0 11t7.5 16.5q91 149 200 149q62 0 187 -51q93 -37 139 -37q49 0 81 15.5t70 58.5q15 18 25 18q20 0 2 -30q-104 -162 -213 -162z" />
    <glyph glyph-name="Ograve" unicode="&#xd2;" horiz-adv-x="1873" 
d="M926 -35q-136 0 -253 34t-202 93t-151.5 137t-107 168.5t-61 184.5t-20.5 188q0 131 49 266.5t142 257.5q95 125 257.5 201t358.5 76q350 0 580 -207q225 -208 225 -561q0 -352 -227 -594q-229 -244 -590 -244zM981 43q140 0 279 78q81 47 141 119q65 77 105 209.5
t40 295.5q0 352 -182 555q-183 201 -440 201q-267 0 -432 -174q-166 -175 -166 -500q0 -354 186 -567q187 -217 469 -217zM1036 1716q30 -20 17 -28q-3 -2 -9 -2q-25 0 -174 67q-143 64 -245 121q-24 14 -31 21.5t-3 13t21 14.5q56 30 90 39q21 8 33 6.5t29 -22.5
q24 -26 117 -107q92 -80 155 -123z" />
    <glyph glyph-name="Oacute" unicode="&#xd3;" horiz-adv-x="1873" 
d="M926 -35q-136 0 -253 34t-202 93t-151.5 137t-107 168.5t-61 184.5t-20.5 188q0 131 49 266.5t142 257.5q95 125 257.5 201t358.5 76q350 0 580 -207q225 -208 225 -561q0 -352 -227 -594q-229 -244 -590 -244zM981 43q140 0 279 78q81 47 141 119q65 77 105 209.5
t40 295.5q0 352 -182 555q-183 201 -440 201q-267 0 -432 -174q-166 -175 -166 -500q0 -354 186 -567q187 -217 469 -217zM1167 1944q43 -37 66 -82q12 -27 -8 -27q-38 0 -84 -16q-126 -47 -291 -125q-29 -13 -33 -13q-28 0 2 31l2 2q175 164 252 213q44 33 60 33
q18 0 34 -16z" />
    <glyph glyph-name="Ocircumflex" unicode="&#xd4;" horiz-adv-x="1873" 
d="M926 -35q-136 0 -253 34t-202 93t-151.5 137t-107 168.5t-61 184.5t-20.5 188q0 131 49 266.5t142 257.5q95 125 257.5 201t358.5 76q350 0 580 -207q225 -208 225 -561q0 -352 -227 -594q-229 -244 -590 -244zM981 43q140 0 279 78q81 47 141 119q65 77 105 209.5
t40 295.5q0 352 -182 555q-183 201 -440 201q-267 0 -432 -174q-166 -175 -166 -500q0 -354 186 -567q187 -217 469 -217zM948 1974q10 0 39 -16q195 -128 264 -178q16 -12 21.5 -19t3.5 -10t-10 -8l-70 -39q-12 -9 -25 0q-122 95 -217 145q-18 11 -22 11l-33 -15
q-130 -64 -244 -129q-35 -18 -43 -18q-17 0 -8 18q1 2 14 15q242 178 293 223q26 20 37 20z" />
    <glyph glyph-name="Otilde" unicode="&#xd5;" horiz-adv-x="1873" 
d="M926 -35q-136 0 -253 34t-202 93t-151.5 137t-107 168.5t-61 184.5t-20.5 188q0 131 49 266.5t142 257.5q95 125 257.5 201t358.5 76q350 0 580 -207q225 -208 225 -561q0 -352 -227 -594q-229 -244 -590 -244zM981 43q140 0 279 78q81 47 141 119q65 77 105 209.5
t40 295.5q0 352 -182 555q-183 201 -440 201q-267 0 -432 -174q-166 -175 -166 -500q0 -354 186 -567q187 -217 469 -217zM1079 1724q-37 0 -161 48q-116 45 -168 45q-82 0 -134 -64q-17 -20 -30 -20q-3 0 -5 3t-0.5 10.5t7.5 16.5q91 150 200 150q62 0 187 -51
q93 -37 139 -37q50 0 82 15.5t70 57.5q16 19 24 19q21 0 2 -31q-104 -162 -213 -162z" />
    <glyph glyph-name="Odieresis" unicode="&#xd6;" horiz-adv-x="1873" 
d="M926 -35q-136 0 -253 34t-202 93t-151.5 137t-107 168.5t-61 184.5t-20.5 188q0 131 49 266.5t142 257.5q95 125 257.5 201t358.5 76q350 0 580 -207q225 -208 225 -561q0 -352 -227 -594q-229 -244 -590 -244zM981 43q140 0 279 78q81 47 141 119q65 77 105 209.5
t40 295.5q0 352 -182 555q-183 201 -440 201q-267 0 -432 -174q-166 -175 -166 -500q0 -354 186 -567q187 -217 469 -217zM1163 1731q-37 0 -58.5 23.5t-21.5 55.5q0 31 23 55.5t59 24.5q35 0 56.5 -21t21.5 -54q0 -37 -22 -60.5t-58 -23.5zM707 1731q-49 0 -69 39.5
t0.5 79.5t70.5 40q35 0 56 -21t21 -54q0 -37 -21.5 -60.5t-57.5 -23.5z" />
    <glyph glyph-name="multiply" unicode="&#xd7;" horiz-adv-x="1353" 
d="M1104 401l-84 -84l-342 340l-344 -344l-86 86l346 344l-346 344l86 87l342 -347l346 347l84 -84l-344 -347z" />
    <glyph glyph-name="Oslash" unicode="&#xd8;" horiz-adv-x="1873" 
d="M1698 1518l-162 -175q207 -213 207 -540q0 -352 -227 -594q-229 -244 -590 -244q-309 0 -512 170l-181 -194q-8 -6 -14 0q-32 25 -49 47q-6 9 0 18l176 191q-104 114 -159.5 264.5t-55.5 308.5q0 131 49 266.5t142 257.5q95 125 257.5 201t358.5 76q319 0 532 -168
l158 170q6 6 19 0q18 -7 49 -39q9 -9 2 -16zM465 324l903 970q-180 207 -444 207q-267 0 -432 -174q-166 -175 -166 -500q0 -296 139 -503zM1421 1221l-901 -971q186 -207 461 -207q140 0 279 78q81 47 141 119q65 77 105 209.5t40 295.5q0 284 -125 476z" />
    <glyph glyph-name="Ugrave" unicode="&#xd9;" horiz-adv-x="1699" 
d="M424 948v-286q0 -196 38.5 -315t115.5 -191q67 -64 137.5 -88.5t171.5 -24.5q92 0 178.5 39.5t142.5 107.5q119 146 119 502v256q0 357 -4 443q-5 57 -22.5 81.5t-65.5 34.5q-24 6 -70 6q-16 0 -16 13q0 16 33 16q22 0 53 -0.5t59 -1.5t52 -2t39 -1.5t14 -0.5h8
q8 1 24.5 2t36.5 2q43 2 103 2q33 0 33 -16q0 -13 -17 -13q-13 0 -51 -6q-40 -7 -55.5 -32.5t-20.5 -83.5q-4 -86 -4 -443v-219q0 -218 -42 -368.5t-146 -243.5q-172 -152 -422 -152q-267 0 -422 146q-178 169 -178 538v299q0 357 -4 443q-5 57 -22.5 81.5t-65.5 34.5
q-24 6 -70 6q-16 0 -16 13q0 16 32 16q87 0 146 -2l90 -4h10q10 1 31 2t45 2q53 2 117 2q32 0 32 -16q0 -13 -16 -13q-13 0 -51 -6t-54.5 -32t-21.5 -84q-4 -86 -4 -443zM932 1698q29 -20 17 -29q-3 -2 -9 -2q-23 0 -174 68q-158 71 -246 120q-24 14 -31 22t-2.5 13.5
t21.5 14.5q56 30 90 39q22 8 33 6t28 -23q20 -22 117 -106q88 -77 156 -123z" />
    <glyph glyph-name="Uacute" unicode="&#xda;" horiz-adv-x="1699" 
d="M424 948v-286q0 -196 38.5 -315t115.5 -191q67 -64 137.5 -88.5t171.5 -24.5q92 0 178.5 39.5t142.5 107.5q119 146 119 502v256q0 357 -4 443q-5 57 -22.5 81.5t-65.5 34.5q-24 6 -70 6q-16 0 -16 13q0 16 33 16q22 0 53 -0.5t59 -1.5t52 -2t39 -1.5t14 -0.5h8
q8 1 24.5 2t36.5 2q43 2 103 2q33 0 33 -16q0 -13 -17 -13q-13 0 -51 -6q-40 -7 -55.5 -32.5t-20.5 -83.5q-4 -86 -4 -443v-219q0 -218 -42 -368.5t-146 -243.5q-172 -152 -422 -152q-267 0 -422 146q-178 169 -178 538v299q0 357 -4 443q-5 57 -22.5 81.5t-65.5 34.5
q-24 6 -70 6q-16 0 -16 13q0 16 32 16q87 0 146 -2l90 -4h10q10 1 31 2t45 2q53 2 117 2q32 0 32 -16q0 -13 -16 -13q-13 0 -51 -6t-54.5 -32t-21.5 -84q-4 -86 -4 -443zM1102 1937q41 -36 65 -82q12 -26 -8 -26q-35 0 -84 -17q-136 -51 -291 -124q-29 -13 -32 -13
q-28 0 2 31l2 2q176 164 252 213q44 33 59 33q18 0 35 -17z" />
    <glyph glyph-name="Ucircumflex" unicode="&#xdb;" horiz-adv-x="1699" 
d="M424 948v-286q0 -196 38.5 -315t115.5 -191q67 -64 137.5 -88.5t171.5 -24.5q92 0 178.5 39.5t142.5 107.5q119 146 119 502v256q0 357 -4 443q-5 57 -22.5 81.5t-65.5 34.5q-24 6 -70 6q-16 0 -16 13q0 16 33 16q22 0 53 -0.5t59 -1.5t52 -2t39 -1.5t14 -0.5h8
q8 1 24.5 2t36.5 2q43 2 103 2q33 0 33 -16q0 -13 -17 -13q-13 0 -51 -6q-40 -7 -55.5 -32.5t-20.5 -83.5q-4 -86 -4 -443v-219q0 -218 -42 -368.5t-146 -243.5q-172 -152 -422 -152q-267 0 -422 146q-178 169 -178 538v299q0 357 -4 443q-5 57 -22.5 81.5t-65.5 34.5
q-24 6 -70 6q-16 0 -16 13q0 16 32 16q87 0 146 -2l90 -4h10q10 1 31 2t45 2q53 2 117 2q32 0 32 -16q0 -13 -16 -13q-13 0 -51 -6t-54.5 -32t-21.5 -84q-4 -86 -4 -443zM862 1966q10 0 39 -16q195 -128 264 -178q16 -12 21.5 -19t3.5 -10t-10 -8l-70 -39q-12 -9 -25 0
q-122 95 -217 145q-17 10 -22 10l-33 -14q-130 -64 -244 -129q-35 -18 -43 -18q-17 0 -8 18l14 14q234 173 293 224q26 20 37 20z" />
    <glyph glyph-name="Udieresis" unicode="&#xdc;" horiz-adv-x="1699" 
d="M424 948v-286q0 -196 38.5 -315t115.5 -191q67 -64 137.5 -88.5t171.5 -24.5q92 0 178.5 39.5t142.5 107.5q119 146 119 502v256q0 357 -4 443q-5 57 -22.5 81.5t-65.5 34.5q-24 6 -70 6q-16 0 -16 13q0 16 33 16q22 0 53 -0.5t59 -1.5t52 -2t39 -1.5t14 -0.5h8
q8 1 24.5 2t36.5 2q43 2 103 2q33 0 33 -16q0 -13 -17 -13q-13 0 -51 -6q-40 -7 -55.5 -32.5t-20.5 -83.5q-4 -86 -4 -443v-219q0 -218 -42 -368.5t-146 -243.5q-172 -152 -422 -152q-267 0 -422 146q-178 169 -178 538v299q0 357 -4 443q-5 57 -22.5 81.5t-65.5 34.5
q-24 6 -70 6q-16 0 -16 13q0 16 32 16q87 0 146 -2l90 -4h10q10 1 31 2t45 2q53 2 117 2q32 0 32 -16q0 -13 -16 -13q-13 0 -51 -6t-54.5 -32t-21.5 -84q-4 -86 -4 -443zM1090 1718q-37 0 -58.5 23.5t-21.5 56.5q0 31 23 55.5t59 24.5q35 0 56 -21.5t21 -54.5
q0 -37 -21.5 -60.5t-57.5 -23.5zM633 1718q-49 0 -69 40t0.5 80t70.5 40q35 0 56.5 -21.5t21.5 -54.5q0 -37 -22 -60.5t-58 -23.5z" />
    <glyph glyph-name="Yacute" unicode="&#xdd;" horiz-adv-x="1339" 
d="M592 348v176q0 109 -47 215q-8 21 -158 269q-155 251 -203 321q-67 102 -139 152q-46 32 -88 32q-18 0 -20 12t14 16q6 1 12 1q54 0 113 -2q26 -1 48 -2t32 -2h10q1 0 12.5 0.5t30 1.5t39.5 2t45.5 1.5t44.5 0.5q27 0 27 -14q0 -4 -31 -19q-27 -15 -27 -36q0 -31 27 -80
q4 -6 30 -52t68 -119t90 -155q184 -313 189 -322q21 49 159 291q112 198 181 312q35 55 35 104t-33 57q-31 9 -31 21t33 12q47 0 82 -2q14 -1 27 -2t19 -1.5t7 -0.5h10q10 1 32 2t48 2q57 2 109 2q26 0 26 -12q0 -17 -26 -17q-47 0 -95 -28q-38 -22 -108 -105
q-45 -53 -205 -321q-163 -273 -186 -330q-31 -76 -31 -205v-176q0 -119 6 -205q6 -103 84 -112q52 -8 92 -8q17 0 17 -13q0 -16 -33 -16q-163 0 -252 6q2 0 -38.5 -1.5t-90.5 -3t-72 -1.5q-33 0 -33 16q0 13 17 13q28 0 61 8q58 12 64 112q6 85 6 205zM944 1935
q43 -37 66 -82q14 -26 -9 -26q-34 0 -83 -17q-136 -51 -291 -124q-29 -13 -33 -13q-28 0 2 31l2 2q176 164 252 213q44 33 59 33q18 0 35 -17z" />
    <glyph glyph-name="Thorn" unicode="&#xde;" horiz-adv-x="1323" 
d="M537 1391q-1 -50 -2 -95t-2 -67t-1 -25q107 8 179 8q105 0 196 -23.5t123 -45.5q8 -6 27 -22t30 -25q105 -88 105 -267q0 -199 -141 -331q-143 -131 -363 -131q-37 0 -43 2q-22 0 -22 14q0 18 55 18q149 0 252 95q102 94 102 239q0 199 -114 316q-102 102 -281 102
q-61 0 -88 -12q-17 -7 -17 -39v-514q0 -340 11 -445q6 -55 22.5 -80.5t57.5 -31.5q52 -8 84 -8q24 0 24 -13q0 -16 -31 -16q-162 0 -249 6q2 0 -38.5 -1.5t-90.5 -3t-72 -1.5q-33 0 -33 16q0 13 23 13q26 0 53 6q46 9 61 114q11 104 11 445v360q0 336 -5 443q-6 99 -69 114
q-27 8 -64 8q-16 0 -16 13q0 16 33 16q25 0 77 -1.5t92 -3t38 -1.5q-3 0 43.5 1.5t103 3t78.5 1.5q33 0 33 -16q0 -13 -17 -13q-30 0 -67 -6q-85 -15 -88 -116z" />
    <glyph glyph-name="germandbls" unicode="&#xdf;" horiz-adv-x="1433" 
d="M307 500v409q0 250 -10 355q0 18 14 18q243 41 373 41q245 0 352 -82q109 -83 109 -190q0 -196 -258 -285q211 -105 305 -205q88 -98 88 -229q0 -184 -162 -285q-109 -74 -268 -74q-137 0 -211 41q-31 19 -31 49q0 68 10 181q1 27 16 29q11 1 14 -17q1 -4 1 -8
q4 -46 10 -70q16 -64 79 -97.5t143 -33.5q109 0 178 64t69 153q0 81 -39.5 144.5t-136.5 134.5q-109 78 -174 110q-14 6 -41 17.5t-47 20t-24 11.5q-25 12 -25 23q0 20 27 23q175 48 245 109t70 155q0 104 -89 167.5t-269 63.5q-70 0 -136 -14q-8 -3 -8 -19q0 -4 -0.5 -19.5
t-1.5 -47t-2 -64.5q-4 -160 -4 -174v-405q0 -397 29 -486q9 -18 -6 -18q-25 0 -58 2q-35 2 -55 2q-1 0 -10.5 -0.5l-28.5 -1.5t-39 -2q-47 -2 -100 -2q-29 0 -29 12q0 14 21 17q20 4 39 4q52 6 61 98q10 137 10 375z" />
    <glyph glyph-name="agrave" unicode="&#xe0;" horiz-adv-x="1261" 
d="M780 494h-372q-14 0 -21 -17l-90 -256q-35 -100 -35 -145q0 -53 68 -53h14q22 0 25 -12q2 -10 -14 -15q-7 -2 -17 -2q-45 0 -88 2l-36 2l-27 1.5t-11 0.5h-8q-9 -1 -27 -2t-39 -2q-47 -2 -122 -2q-32 0 -33 15q3 12 24 14q33 0 41 2q58 6 92 42.5t66 118.5l410 1080
q17 44 25 56.5t18 12.5q14 0 41 -65q7 -20 178 -449q217 -544 237 -590q70 -168 156 -198q30 -10 70 -10q22 0 24 -12q2 -10 -15 -15q-7 -2 -16 -2q-127 0 -311 4q-51 3 -51 14q0 12 14 15q23 10 8 45l-161 411q-7 11 -17 11zM428 565h328q9 0 6 13l-162 452q-9 31 -22 0
l-154 -452q-6 -13 4 -13zM715 1466q0 -4 -10 -4q-26 0 -160 76q-157 89 -219 133q-32 25 -29 31q0 10 20 16q60 26 95 31q17 2 23.5 -1t25.5 -22q24 -24 57 -59q16 -18 94 -96q45 -45 86 -80q17 -17 17 -25z" />
    <glyph glyph-name="aacute" unicode="&#xe1;" horiz-adv-x="1261" 
d="M780 494h-372q-14 0 -21 -17l-90 -256q-35 -100 -35 -145q0 -53 68 -53h14q22 0 25 -12q2 -10 -14 -15q-7 -2 -17 -2q-45 0 -88 2l-36 2l-27 1.5t-11 0.5h-8q-9 -1 -27 -2t-39 -2q-47 -2 -122 -2q-32 0 -33 15q3 12 24 14q33 0 41 2q58 6 92 42.5t66 118.5l410 1080
q17 44 25 56.5t18 12.5q14 0 41 -65q7 -20 178 -449q217 -544 237 -590q70 -168 156 -198q30 -10 70 -10q22 0 24 -12q2 -10 -15 -15q-7 -2 -16 -2q-127 0 -311 4q-51 3 -51 14q0 12 14 15q23 10 8 45l-161 411q-7 11 -17 11zM428 565h328q9 0 6 13l-162 452q-9 31 -22 0
l-154 -452q-6 -13 4 -13zM862 1733q47 -38 68 -72q16 -25 -6 -25q-2 0 -14.5 -3t-31.5 -8.5t-30 -10.5q-124 -57 -262 -141l-6 -3q-5 -4 -11 -7t-12 -5t-10 -1t-4 7q0 11 14 25q204 210 217 221q41 35 53 35q20 0 35 -12z" />
    <glyph glyph-name="acircumflex" unicode="&#xe2;" horiz-adv-x="1261" 
d="M780 494h-372q-14 0 -21 -17l-90 -256q-35 -100 -35 -145q0 -53 68 -53h14q22 0 25 -12q2 -10 -14 -15q-7 -2 -17 -2q-45 0 -88 2l-36 2l-27 1.5t-11 0.5h-8q-9 -1 -27 -2t-39 -2q-47 -2 -122 -2q-32 0 -33 15q3 12 24 14q33 0 41 2q58 6 92 42.5t66 118.5l410 1080
q17 44 25 56.5t18 12.5q14 0 41 -65q7 -20 178 -449q217 -544 237 -590q70 -168 156 -198q30 -10 70 -10q22 0 24 -12q2 -10 -15 -15q-7 -2 -16 -2q-127 0 -311 4q-51 3 -51 14q0 12 14 15q23 10 8 45l-161 411q-7 11 -17 11zM428 565h328q9 0 6 13l-162 452q-9 31 -22 0
l-154 -452q-6 -13 4 -13zM647 1704q10 0 35 -14q14 -7 66 -43q106 -73 110 -76q65 -46 66 -47q22 -16 22 -23q0 -3 -10 -10l-72 -45q-11 -9 -20 0q-95 83 -201 139q-13 8 -25 8q-5 0 -28 -10q-7 -4 -82 -47t-137 -80q-29 -16 -39 -16q-17 0 -6 14l10 10q132 102 276 222
q27 18 35 18z" />
    <glyph glyph-name="atilde" unicode="&#xe3;" horiz-adv-x="1261" 
d="M780 494h-372q-14 0 -21 -17l-90 -256q-35 -100 -35 -145q0 -53 68 -53h14q22 0 25 -12q2 -10 -14 -15q-7 -2 -17 -2q-45 0 -88 2l-36 2l-27 1.5t-11 0.5h-8q-9 -1 -27 -2t-39 -2q-47 -2 -122 -2q-32 0 -33 15q3 12 24 14q33 0 41 2q58 6 92 42.5t66 118.5l410 1080
q17 44 25 56.5t18 12.5q14 0 41 -65q7 -20 178 -449q217 -544 237 -590q70 -168 156 -198q30 -10 70 -10q22 0 24 -12q2 -10 -15 -15q-7 -2 -16 -2q-127 0 -311 4q-51 3 -51 14q0 12 14 15q23 10 8 45l-161 411q-7 11 -17 11zM428 565h328q9 0 6 13l-162 452q-9 31 -22 0
l-154 -452q-6 -13 4 -13zM764 1477q-45 0 -152 45q-110 43 -153 43q-71 0 -125 -60q-15 -18 -27 -18q-3 0 -5 3.5t-0.5 10.5t7.5 15q91 141 185 141q57 0 178 -47q90 -35 125 -35q76 0 143 70q16 16 23 16q6 0 7 -9.5t-5 -17.5q-100 -157 -201 -157z" />
    <glyph glyph-name="adieresis" unicode="&#xe4;" horiz-adv-x="1261" 
d="M780 494h-372q-14 0 -21 -17l-90 -256q-35 -100 -35 -145q0 -53 68 -53h14q22 0 25 -12q2 -10 -14 -15q-7 -2 -17 -2q-45 0 -88 2l-36 2l-27 1.5t-11 0.5h-8q-9 -1 -27 -2t-39 -2q-47 -2 -122 -2q-32 0 -33 15q3 12 24 14q33 0 41 2q58 6 92 42.5t66 118.5l410 1080
q17 44 25 56.5t18 12.5q14 0 41 -65q7 -20 178 -449q217 -544 237 -590q70 -168 156 -198q30 -10 70 -10q22 0 24 -12q2 -10 -15 -15q-7 -2 -16 -2q-127 0 -311 4q-51 3 -51 14q0 12 14 15q23 10 8 45l-161 411q-7 11 -17 11zM428 565h328q9 0 6 13l-162 452q-9 31 -22 0
l-154 -452q-6 -13 4 -13zM852 1495q-37 0 -58.5 23.5t-21.5 56.5q0 31 23 55.5t59 24.5q35 0 56.5 -21.5t21.5 -54.5q0 -37 -22 -60.5t-58 -23.5zM395 1495q-49 0 -69 40t0.5 80t70.5 40q35 0 56.5 -21.5t21.5 -54.5q0 -37 -22 -60.5t-58 -23.5z" />
    <glyph glyph-name="aring" unicode="&#xe5;" horiz-adv-x="1261" 
d="M780 494h-372q-14 0 -21 -17l-90 -256q-35 -100 -35 -145q0 -53 68 -53h14q22 0 25 -12q2 -10 -14 -15q-7 -2 -17 -2q-45 0 -88 2l-36 2l-27 1.5t-11 0.5h-8q-9 -1 -27 -2t-39 -2q-47 -2 -122 -2q-32 0 -33 15q3 12 24 14q33 0 41 2q58 6 92 42.5t66 118.5l410 1080
q17 44 25 56.5t18 12.5q14 0 41 -65q7 -20 178 -449q217 -544 237 -590q70 -168 156 -198q30 -10 70 -10q22 0 24 -12q2 -10 -15 -15q-7 -2 -16 -2q-127 0 -311 4q-51 3 -51 14q0 12 14 15q23 10 8 45l-161 411q-7 11 -17 11zM428 565h328q9 0 6 13l-162 452q-9 31 -22 0
l-154 -452q-6 -13 4 -13zM580 1409q-67 0 -107.5 33.5t-40.5 85.5q0 68 64 116t161 48q71 0 111.5 -31.5t40.5 -83.5q0 -73 -68 -120.5t-161 -47.5zM512 1550q0 -43 31 -71.5t73 -28.5q50 0 80.5 28.5t30.5 73.5q0 43 -28 70t-78 27q-46 0 -77.5 -26t-31.5 -73z" />
    <glyph glyph-name="ae" unicode="&#xe6;" horiz-adv-x="1652" 
d="M938 1305q395 0 422 2q65 3 80 12q13 8 24 8q6 0 6 -14q0 -2 -3.5 -18t-7.5 -38.5t-5 -39.5q0 -10 -6 -103q0 -31 -14 -31q-12 0 -15 23q-5 41 -10 55q-11 34 -39 49t-98 19t-234 4q-10 0 -10 -16v-543q0 -21 12 -21q212 0 277 6q72 3 94 31q10 17 23 17q8 0 8 -13
q0 -1 -3 -17t-6.5 -42.5t-5.5 -48.5q-8 -63 -8 -125q-1 -21 -12 -23q-13 3 -14 27q0 21 -7 49q-15 55 -98 61q-95 9 -246 9q-14 0 -14 -15v-71v-279q5 -65 16 -93t41 -40q41 -18 150 -18q110 0 154 11.5t63 43.5q17 30 31 92q6 29 18 29t12 -31q0 -46 -22 -178
q-6 -30 -22 -37.5t-68 -7.5q-58 0 -155 2t-109 2q-215 6 -242 6q-15 0 -66.5 -3t-68.5 -3q-29 0 -29 15q3 12 19 14q31 3 41 6q32 6 47.5 41t21.5 120q4 184 4 306v73q0 15 -16 15h-309q-28 0 -35 -11q-127 -183 -199 -305q-84 -128 -84 -176q0 -37 27 -52.5t98 -16.5
q15 0 21 -7.5t-0.5 -14.5t-22.5 -7q-26 0 -60 0.5t-65 1.5t-58 2t-44 2h-17h-34q-129 -6 -179 -6q-15 0 -20.5 7t0 14.5t18.5 7.5q73 0 134.5 52.5t142.5 164.5q91 113 653 970q29 49 39 72q10 29 20 29q2 0 28.5 -3t35.5 -3zM565 653h283q16 0 16 15v462q0 15 -10 5l-6 -7
q-48 -68 -150 -235q-112 -183 -135 -221q-13 -19 2 -19z" />
    <glyph glyph-name="ccedilla" unicode="&#xe7;" horiz-adv-x="1452" 
d="M694 -125l119 100q-296 24 -481 183q-219 192 -219 522q0 116 52 245.5t154 227.5q188 182 551 182q108 0 271 -22q123 -20 180 -23q18 0 18 -20q0 -3 -2 -18t-4.5 -38.5t-3.5 -44.5v-100q-3 -85 -4 -88q-3 -39 -16 -39q-17 0 -17 39q0 49 -22 99t-58 79
q-51 44 -152 74.5t-210 30.5q-262 0 -393 -119q-91 -84 -127.5 -189t-36.5 -260q0 -259 186 -448q185 -191 451 -191q226 0 313 84q53 53 68 148q6 30 22 30q10 0 10 -28q0 -22 -14 -105q-13 -80 -26 -123q-7 -24 -15 -32t-33 -19q-96 -41 -323 -41h-49q-87 -81 -105 -92
q215 -35 215 -158q0 -80 -90 -133q-91 -49 -219 -49q-27 0 -27 17q0 7 39 16q158 30 158 135q0 103 -162 127q-23 4 -23 14t25 27z" />
    <glyph glyph-name="egrave" unicode="&#xe8;" horiz-adv-x="1110" 
d="M317 500v307q0 299 -4 373q-5 47 -20.5 69t-56.5 29q-32 4 -50 4q-26 0 -26 12q0 17 30 17q11 0 45 -1t83.5 -2.5l82.5 -2.5q389 0 416 2q66 3 80 10q18 6 23 6q8 0 8 -14q0 -2 -4 -17t-8 -36.5t-5 -38.5q-6 -89 -6 -107q0 -30 -14 -31q-12 4 -14 23q-3 38 -15 65
q-11 33 -36 45.5t-97 16.5q-70 4 -233 4q-11 0 -11 -16v-465q0 -21 13 -21q212 0 276 6q72 3 94 31q10 16 23 16q8 0 8 -12q0 -1 -2.5 -17t-6 -42.5t-5.5 -48.5q-8 -63 -8 -125q-1 -23 -14 -23t-13 27q0 25 -6 49q-15 55 -99 61q-94 9 -245 9q-15 0 -15 -15v-149v-88v-121
v-70q5 -64 16.5 -92.5t41.5 -40.5q41 -18 149 -18q110 0 154 11.5t63 43.5q17 30 31 92q6 29 18.5 29t12.5 -31q0 -40 -23 -178q-6 -30 -22 -37.5t-68 -7.5q-58 0 -155 2t-109 2q-214 6 -242 6q-15 0 -66.5 -3t-68.5 -3q-29 0 -29 15q3 12 19 14q20 0 41 6q32 6 48 41.5
t17 119.5q4 184 4 310zM672 1446q0 -4 -10 -4q-26 0 -160 76q-157 89 -219 133q-31 25 -29 30q0 11 20 17q60 26 95 31q17 2 23.5 -1t25.5 -22q24 -24 57 -59q23 -26 94 -97q46 -45 86 -80q17 -17 17 -24z" />
    <glyph glyph-name="eacute" unicode="&#xe9;" horiz-adv-x="1110" 
d="M317 500v307q0 299 -4 373q-5 47 -20.5 69t-56.5 29q-32 4 -50 4q-26 0 -26 12q0 17 30 17q11 0 45 -1t83.5 -2.5l82.5 -2.5q389 0 416 2q66 3 80 10q18 6 23 6q8 0 8 -14q0 -2 -4 -17t-8 -36.5t-5 -38.5q-6 -89 -6 -107q0 -30 -14 -31q-12 4 -14 23q-3 38 -15 65
q-11 33 -36 45.5t-97 16.5q-70 4 -233 4q-11 0 -11 -16v-465q0 -21 13 -21q212 0 276 6q72 3 94 31q10 16 23 16q8 0 8 -12q0 -1 -2.5 -17t-6 -42.5t-5.5 -48.5q-8 -63 -8 -125q-1 -23 -14 -23t-13 27q0 25 -6 49q-15 55 -99 61q-94 9 -245 9q-15 0 -15 -15v-149v-88v-121
v-70q5 -64 16.5 -92.5t41.5 -40.5q41 -18 149 -18q110 0 154 11.5t63 43.5q17 30 31 92q6 29 18.5 29t12.5 -31q0 -40 -23 -178q-6 -30 -22 -37.5t-68 -7.5q-58 0 -155 2t-109 2q-214 6 -242 6q-15 0 -66.5 -3t-68.5 -3q-29 0 -29 15q3 12 19 14q20 0 41 6q32 6 48 41.5
t17 119.5q4 184 4 310zM827 1710q47 -38 68 -72q15 -24 -6 -24q-2 0 -14.5 -3t-31.5 -9t-30 -11q-111 -51 -262 -141l-6 -4q-3 -1 -8.5 -3.5t-10 -4.5t-9 -3.5t-7 0.5t-2.5 7q0 10 14 24q209 216 217 222q40 34 54 34q19 0 34 -12z" />
    <glyph glyph-name="ecircumflex" unicode="&#xea;" horiz-adv-x="1110" 
d="M317 500v307q0 299 -4 373q-5 47 -20.5 69t-56.5 29q-32 4 -50 4q-26 0 -26 12q0 17 30 17q11 0 45 -1t83.5 -2.5l82.5 -2.5q389 0 416 2q66 3 80 10q18 6 23 6q8 0 8 -14q0 -2 -4 -17t-8 -36.5t-5 -38.5q-6 -89 -6 -107q0 -30 -14 -31q-12 4 -14 23q-3 38 -15 65
q-11 33 -36 45.5t-97 16.5q-70 4 -233 4q-11 0 -11 -16v-465q0 -21 13 -21q212 0 276 6q72 3 94 31q10 16 23 16q8 0 8 -12q0 -1 -2.5 -17t-6 -42.5t-5.5 -48.5q-8 -63 -8 -125q-1 -23 -14 -23t-13 27q0 25 -6 49q-15 55 -99 61q-94 9 -245 9q-15 0 -15 -15v-149v-88v-121
v-70q5 -64 16.5 -92.5t41.5 -40.5q41 -18 149 -18q110 0 154 11.5t63 43.5q17 30 31 92q6 29 18.5 29t12.5 -31q0 -40 -23 -178q-6 -30 -22 -37.5t-68 -7.5q-58 0 -155 2t-109 2q-214 6 -242 6q-15 0 -66.5 -3t-68.5 -3q-29 0 -29 15q3 12 19 14q20 0 41 6q32 6 48 41.5
t17 119.5q4 184 4 310zM573 1726q10 0 35 -14q14 -7 66 -43q106 -73 110 -76q65 -46 66 -47q22 -16 22 -22q0 -4 -10 -11l-71 -45q-12 -9 -21 0q-98 86 -201 140q-13 8 -24 8q-6 0 -29 -10q-7 -4 -82 -47t-137 -80q-31 -17 -39 -17q-18 0 -6 15l10 10q162 125 277 221
q27 18 34 18z" />
    <glyph glyph-name="edieresis" unicode="&#xeb;" horiz-adv-x="1110" 
d="M317 500v307q0 299 -4 373q-5 47 -20.5 69t-56.5 29q-32 4 -50 4q-26 0 -26 12q0 17 30 17q11 0 45 -1t83.5 -2.5l82.5 -2.5q389 0 416 2q66 3 80 10q18 6 23 6q8 0 8 -14q0 -2 -4 -17t-8 -36.5t-5 -38.5q-6 -89 -6 -107q0 -30 -14 -31q-12 4 -14 23q-3 38 -15 65
q-11 33 -36 45.5t-97 16.5q-70 4 -233 4q-11 0 -11 -16v-465q0 -21 13 -21q212 0 276 6q72 3 94 31q10 16 23 16q8 0 8 -12q0 -1 -2.5 -17t-6 -42.5t-5.5 -48.5q-8 -63 -8 -125q-1 -23 -14 -23t-13 27q0 25 -6 49q-15 55 -99 61q-94 9 -245 9q-15 0 -15 -15v-149v-88v-121
v-70q5 -64 16.5 -92.5t41.5 -40.5q41 -18 149 -18q110 0 154 11.5t63 43.5q17 30 31 92q6 29 18.5 29t12.5 -31q0 -40 -23 -178q-6 -30 -22 -37.5t-68 -7.5q-58 0 -155 2t-109 2q-214 6 -242 6q-15 0 -66.5 -3t-68.5 -3q-29 0 -29 15q3 12 19 14q20 0 41 6q32 6 48 41.5
t17 119.5q4 184 4 310zM811 1501q-37 0 -58.5 23.5t-21.5 56.5q0 31 23 55.5t59 24.5q35 0 56.5 -21.5t21.5 -54.5q0 -37 -22 -60.5t-58 -23.5zM354 1501q-49 0 -69 40t0.5 80t70.5 40q35 0 56.5 -21.5t21.5 -54.5q0 -37 -22 -60.5t-58 -23.5z" />
    <glyph glyph-name="igrave" unicode="&#xec;" horiz-adv-x="802" 
d="M317 500v307q0 301 -4 375q-6 85 -59 94q-6 1 -17.5 2.5t-19 2.5t-10.5 1q-23 3 -23 14q0 15 31 15q19 0 74 -2t80 -2l32 -2q-2 0 35 1.5t83.5 3t66.5 1.5q30 0 30 -15q0 -11 -22 -14q-16 -4 -37 -4q-42 -6 -54.5 -26t-15.5 -72q-2 -18 -2 -373v-307q0 -316 9 -375
q6 -49 19 -68t50 -26q31 -8 78 -8q23 -3 23 -15q0 -14 -29 -14q-26 0 -59.5 0.5t-63.5 1.5t-55.5 2t-41 1.5t-14.5 0.5l-183 -6h-1q-30 0 -32 14q-2 9 13 13q6 2 13 2q25 0 49 6q38 9 47 98q10 82 10 373zM485 1466q0 -4 -10 -4q-26 0 -160 76q-157 89 -219 133
q-31 25 -28 31q0 10 20 16q60 26 94 31q17 2 23.5 -1t25.5 -22q41 -41 58 -59q15 -18 94 -96q45 -45 86 -80q16 -16 16 -25z" />
    <glyph glyph-name="iacute" unicode="&#xed;" horiz-adv-x="802" 
d="M317 500v307q0 301 -4 375q-6 85 -59 94q-6 1 -17.5 2.5t-19 2.5t-10.5 1q-23 3 -23 14q0 15 31 15q19 0 74 -2t80 -2l32 -2q-2 0 35 1.5t83.5 3t66.5 1.5q30 0 30 -15q0 -11 -22 -14q-16 -4 -37 -4q-42 -6 -54.5 -26t-15.5 -72q-2 -18 -2 -373v-307q0 -316 9 -375
q6 -49 19 -68t50 -26q31 -8 78 -8q23 -3 23 -15q0 -14 -29 -14q-26 0 -59.5 0.5t-63.5 1.5t-55.5 2t-41 1.5t-14.5 0.5l-183 -6h-1q-30 0 -32 14q-2 9 13 13q6 2 13 2q25 0 49 6q38 9 47 98q10 82 10 373zM653 1720q49 -39 68 -71q16 -25 -6 -25q-2 0 -14.5 -3t-31.5 -8.5
t-30 -10.5q-117 -54 -262 -142l-6 -2q-5 -4 -11 -7t-12 -5t-10 -1t-4 7q0 11 14 25q204 210 217 221q41 35 53 35q19 0 35 -13z" />
    <glyph glyph-name="icircumflex" unicode="&#xee;" horiz-adv-x="802" 
d="M317 500v307q0 301 -4 375q-6 85 -59 94q-6 1 -17.5 2.5t-19 2.5t-10.5 1q-23 3 -23 14q0 15 31 15q19 0 74 -2t80 -2l32 -2q-2 0 35 1.5t83.5 3t66.5 1.5q30 0 30 -15q0 -11 -22 -14q-16 -4 -37 -4q-42 -6 -54.5 -26t-15.5 -72q-2 -18 -2 -373v-307q0 -316 9 -375
q6 -49 19 -68t50 -26q31 -8 78 -8q23 -3 23 -15q0 -14 -29 -14q-26 0 -59.5 0.5t-63.5 1.5t-55.5 2t-41 1.5t-14.5 0.5l-183 -6h-1q-30 0 -32 14q-2 9 13 13q6 2 13 2q25 0 49 6q38 9 47 98q10 82 10 373zM385 1698q28 18 35 18t35 -14q10 -5 65 -43q87 -60 111 -76
q14 -10 29 -21t23.5 -17t12.5 -9q23 -16 23 -23q0 -3 -10 -10l-72 -45q-12 -9 -21 0q-97 84 -200 139q-15 9 -25 9q-3 0 -29 -11q-7 -4 -82 -47t-137 -80q-29 -16 -39 -16q-17 0 -6 14l2 2q2 3 4 5t5 4q149 115 276 221z" />
    <glyph glyph-name="idieresis" unicode="&#xef;" horiz-adv-x="802" 
d="M317 500v307q0 301 -4 375q-6 85 -59 94q-6 1 -17.5 2.5t-19 2.5t-10.5 1q-23 3 -23 14q0 15 31 15q19 0 74 -2t80 -2l32 -2q-2 0 35 1.5t83.5 3t66.5 1.5q30 0 30 -15q0 -11 -22 -14q-16 -4 -37 -4q-42 -6 -54.5 -26t-15.5 -72q-2 -18 -2 -373v-307q0 -316 9 -375
q6 -49 19 -68t50 -26q31 -8 78 -8q23 -3 23 -15q0 -14 -29 -14q-26 0 -59.5 0.5t-63.5 1.5t-55.5 2t-41 1.5t-14.5 0.5l-183 -6h-1q-30 0 -32 14q-2 9 13 13q6 2 13 2q25 0 49 6q38 9 47 98q10 82 10 373zM629 1495q-37 0 -58.5 23.5t-21.5 56.5q0 31 23 55.5t59 24.5
q35 0 56.5 -21.5t21.5 -54.5q0 -37 -22 -60.5t-58 -23.5zM172 1495q-49 0 -69 40t0.5 80t70.5 40q35 0 56.5 -21.5t21.5 -54.5q0 -37 -22 -60.5t-58 -23.5z" />
    <glyph glyph-name="eth" unicode="&#xf0;" 
d="M250 1593h543q25 0 16 -22l-16 -49q-3 -13 -19 -13h-543q-12 0 -17 3.5t-3 11.5l16 57q3 12 23 12z" />
    <glyph glyph-name="ntilde" unicode="&#xf1;" horiz-adv-x="1718" 
d="M262 250v1001q0 84 23 84q8 0 63 -55q11 -13 590 -604q55 -53 238 -236l180 -180l-23 852q-2 86 -15 119t-54 43q-41 8 -80 8q-25 0 -25 16q0 13 37 13q29 0 123 -4l70 -2l7 1q6 0 20.5 1t31.5 2q39 2 104 2q31 0 30 -14q-1 -11 -19 -15q-4 0 -52 -6q-37 -8 -49 -37.5
t-12 -116.5l-4 -1028q0 -50 -2 -74.5t-5.5 -31t-11.5 -6.5q-21 0 -135 108q-4 1 -278 272q-47 47 -112 110t-81 79q-54 56 -214 221.5t-255 265.5l27 -800q5 -113 18 -156.5t49 -50.5q31 -8 84 -8q22 0 24 -12q2 -10 -14 -15q-8 -2 -18 -2q-28 0 -58.5 0.5t-54 1.5t-42.5 2
t-30.5 1.5t-12.5 0.5t-12.5 -0.5t-30 -1.5t-40.5 -2t-48 -1.5t-48 -0.5q-29 0 -31 14q-1 11 19 14q5 1 10 1q40 0 64 8q32 10 43.5 56.5t11.5 162.5zM991 1497q-44 0 -151 45q-110 43 -154 43q-72 0 -125 -59q-16 -19 -26 -19q-3 0 -5 3.5t-0.5 10.5t7.5 15q91 141 184 141
q60 0 178 -47q90 -35 125 -35q76 0 143 70q16 16 23 16q6 0 7 -9.5t-5 -16.5q-100 -158 -201 -158z" />
    <glyph glyph-name="ograve" unicode="&#xf2;" horiz-adv-x="1658" 
d="M819 -29q-175 0 -317 61.5t-226 166.5q-163 202 -163 456q0 60 13 124t41 130.5t68.5 128t99.5 116t130.5 94.5t165 63.5t198.5 23.5q311 0 514 -176q201 -177 201 -477q0 -297 -201 -504q-204 -207 -524 -207zM870 41q121 0 230 59q70 38 123 99q57 63 93 176.5
t36 255.5q0 297 -156 469t-379 172q-227 0 -371 -144q-143 -143 -143 -419q0 -303 156 -484q153 -184 411 -184zM954 1466q0 -4 -10 -4q-26 0 -160 76q-157 89 -219 133q-31 25 -28 31q0 10 20 16q60 26 94 31q17 2 23.5 -1t25.5 -22q41 -41 58 -59q16 -18 94 -96
q45 -45 86 -80q16 -16 16 -25z" />
    <glyph glyph-name="oacute" unicode="&#xf3;" horiz-adv-x="1658" 
d="M819 -29q-175 0 -317 61.5t-226 166.5q-163 202 -163 456q0 60 13 124t41 130.5t68.5 128t99.5 116t130.5 94.5t165 63.5t198.5 23.5q311 0 514 -176q201 -177 201 -477q0 -297 -201 -504q-204 -207 -524 -207zM870 41q121 0 230 59q70 38 123 99q57 63 93 176.5
t36 255.5q0 297 -156 469t-379 172q-227 0 -371 -144q-143 -143 -143 -419q0 -303 156 -484q153 -184 411 -184zM1036 1729q47 -38 68 -72q16 -25 -6 -25q-2 0 -14.5 -3t-31.5 -8.5t-30 -10.5q-117 -54 -262 -142l-6 -2q-5 -4 -11 -7t-12 -5t-10 -1t-4 7q0 11 14 25
q204 210 217 221q41 35 53 35q20 0 35 -12z" />
    <glyph glyph-name="ocircumflex" unicode="&#xf4;" horiz-adv-x="1658" 
d="M819 -29q-175 0 -317 61.5t-226 166.5q-163 202 -163 456q0 60 13 124t41 130.5t68.5 128t99.5 116t130.5 94.5t165 63.5t198.5 23.5q311 0 514 -176q201 -177 201 -477q0 -297 -201 -504q-204 -207 -524 -207zM870 41q121 0 230 59q70 38 123 99q57 63 93 176.5
t36 255.5q0 297 -156 469t-379 172q-227 0 -371 -144q-143 -143 -143 -419q0 -303 156 -484q153 -184 411 -184zM811 1718q28 18 35 18t35 -14q10 -5 65 -43q58 -41 111 -75q15 -10 29.5 -21.5t23 -17.5t12.5 -9q23 -16 23 -22q0 -3 -10 -10l-72 -45q-12 -9 -21 0
q-97 84 -200 139q-13 8 -25 8q-6 0 -29 -10q-7 -4 -82 -47t-137 -80q-29 -16 -39 -16q-17 0 -6 14q8 8 11 10q148 115 276 221z" />
    <glyph glyph-name="otilde" unicode="&#xf5;" horiz-adv-x="1658" 
d="M819 -29q-175 0 -317 61.5t-226 166.5q-163 202 -163 456q0 60 13 124t41 130.5t68.5 128t99.5 116t130.5 94.5t165 63.5t198.5 23.5q311 0 514 -176q201 -177 201 -477q0 -297 -201 -504q-204 -207 -524 -207zM870 41q121 0 230 59q70 38 123 99q57 63 93 176.5
t36 255.5q0 297 -156 469t-379 172q-227 0 -371 -144q-143 -143 -143 -419q0 -303 156 -484q153 -184 411 -184zM963 1499q-45 0 -152 45q-110 43 -154 43q-72 0 -125 -59q-16 -19 -26 -19q-3 0 -5 3.5t-0.5 10.5t7.5 15q92 141 184 141q60 0 178 -47q90 -35 125 -35
q77 0 144 70q16 16 22 16t7 -7.5t-5 -18.5q-100 -158 -200 -158z" />
    <glyph glyph-name="odieresis" unicode="&#xf6;" horiz-adv-x="1658" 
d="M819 -29q-175 0 -317 61.5t-226 166.5q-163 202 -163 456q0 60 13 124t41 130.5t68.5 128t99.5 116t130.5 94.5t165 63.5t198.5 23.5q311 0 514 -176q201 -177 201 -477q0 -297 -201 -504q-204 -207 -524 -207zM870 41q121 0 230 59q70 38 123 99q57 63 93 176.5
t36 255.5q0 297 -156 469t-379 172q-227 0 -371 -144q-143 -143 -143 -419q0 -303 156 -484q153 -184 411 -184zM1057 1536q-37 0 -58.5 23.5t-21.5 56.5q0 31 23 55.5t59 24.5q35 0 56.5 -21.5t21.5 -54.5q0 -37 -22 -60.5t-58 -23.5zM600 1536q-49 0 -69 40t0.5 80
t70.5 40q35 0 56.5 -21.5t21.5 -54.5q0 -37 -22 -60.5t-58 -23.5z" />
    <glyph glyph-name="divide" unicode="&#xf7;" horiz-adv-x="1353" 
d="M676 1012q-36 0 -59 23t-23 59q0 38 22.5 62t57.5 24q37 0 61.5 -23t24.5 -59q2 -37 -22 -61.5t-62 -24.5zM674 457q37 0 61.5 -23t24.5 -59q2 -37 -23 -61.5t-63 -24.5q-35 0 -57.5 24t-22.5 60q0 38 22 61t58 23zM1161 788v-106h-966l-2 106h968z" />
    <glyph glyph-name="oslash" unicode="&#xf8;" horiz-adv-x="1658" 
d="M1507 1288l-143 -147q180 -174 180 -459q0 -297 -201 -504q-204 -207 -524 -207q-269 0 -452 142l-160 -166q-6 -6 -12 0q-26 14 -48 43q-6 6 0 16l158 162q-192 192 -192 487q0 60 13 124t41 130.5t68.5 128t99.5 116t130.5 94.5t165 63.5t198.5 23.5q277 0 471 -141
l140 145q6 3 18 0q35 -22 47 -36q5 -8 2 -15zM416 283l784 811q-150 178 -383 178q-227 0 -371 -144q-143 -143 -143 -419q0 -258 113 -426zM1251 1024l-784 -809q155 -174 403 -174q121 0 230 59q70 38 123 99q57 63 93 176.5t36 255.5q0 225 -101 393z" />
    <glyph glyph-name="ugrave" unicode="&#xf9;" horiz-adv-x="1488" 
d="M383 807v-244q0 -174 30 -271.5t95 -154.5q107 -94 270 -94q180 0 281 119q100 112 100 428v217q0 297 -4 371q-3 50 -17.5 72t-58.5 28q-36 4 -57 4t-21 12q0 17 29 17h27.5t29 -0.5t30 -1t29.5 -1t26.5 -1t23 -1t18 -1t11.5 -0.5h4q108 6 155 6q29 0 29 -15
q-3 -12 -20 -14q-23 0 -37 -2q-37 -4 -51 -26.5t-19 -75.5q-2 -37 -2 -371v-182q0 -387 -166 -531q-144 -123 -375 -123q-251 0 -383 123q-151 142 -151 459v254q0 317 -6 373q-2 49 -17.5 70.5t-58.5 27.5q-32 4 -53 4q-23 0 -23 12q0 17 31 17q22 0 51.5 -0.5t57 -1.5
t51 -2t38.5 -1l15 -1l9 1q10 0 30.5 1t42.5 2q51 2 110 2q27 0 29 -14q2 -10 -13 -14q-5 -1 -11 -1q-4 0 -9.5 -0.5l-16.5 -1.5t-20 -2q-34 -4 -45 -24.5t-16 -73.5q-2 -37 -2 -373zM848 1452q0 -4 -10 -4q-26 0 -160 76q-157 89 -219 133q-32 25 -29 31q0 10 21 16
q60 26 94 31q17 2 23.5 -1t25.5 -22q24 -24 57 -59q23 -26 94 -97q39 -39 86 -79q17 -17 17 -25z" />
    <glyph glyph-name="uacute" unicode="&#xfa;" horiz-adv-x="1488" 
d="M383 807v-244q0 -174 30 -271.5t95 -154.5q107 -94 270 -94q180 0 281 119q100 112 100 428v217q0 297 -4 371q-3 50 -17.5 72t-58.5 28q-36 4 -57 4t-21 12q0 17 29 17h27.5t29 -0.5t30 -1t29.5 -1t26.5 -1t23 -1t18 -1t11.5 -0.5h4q108 6 155 6q29 0 29 -15
q-3 -12 -20 -14q-23 0 -37 -2q-37 -4 -51 -26.5t-19 -75.5q-2 -37 -2 -371v-182q0 -387 -166 -531q-144 -123 -375 -123q-251 0 -383 123q-151 142 -151 459v254q0 317 -6 373q-2 49 -17.5 70.5t-58.5 27.5q-32 4 -53 4q-23 0 -23 12q0 17 31 17q22 0 51.5 -0.5t57 -1.5
t51 -2t38.5 -1l15 -1l9 1q10 0 30.5 1t42.5 2q51 2 110 2q27 0 29 -14q2 -10 -13 -14q-5 -1 -11 -1q-4 0 -9.5 -0.5l-16.5 -1.5t-20 -2q-34 -4 -45 -24.5t-16 -73.5q-2 -37 -2 -373zM975 1718q47 -38 67 -71q16 -25 -6 -25q-2 0 -14.5 -3t-31 -9t-29.5 -11
q-128 -59 -263 -141l-6 -4q-3 -1 -8.5 -3.5t-10 -4.5t-9 -3.5t-7 0.5t-2.5 7q0 10 15 25q204 210 217 221q41 35 53 35q19 0 35 -13z" />
    <glyph glyph-name="ucircumflex" unicode="&#xfb;" horiz-adv-x="1488" 
d="M383 807v-244q0 -174 30 -271.5t95 -154.5q107 -94 270 -94q180 0 281 119q100 112 100 428v217q0 297 -4 371q-3 50 -17.5 72t-58.5 28q-36 4 -57 4t-21 12q0 17 29 17h27.5t29 -0.5t30 -1t29.5 -1t26.5 -1t23 -1t18 -1t11.5 -0.5h4q108 6 155 6q29 0 29 -15
q-3 -12 -20 -14q-23 0 -37 -2q-37 -4 -51 -26.5t-19 -75.5q-2 -37 -2 -371v-182q0 -387 -166 -531q-144 -123 -375 -123q-251 0 -383 123q-151 142 -151 459v254q0 317 -6 373q-2 49 -17.5 70.5t-58.5 27.5q-32 4 -53 4q-23 0 -23 12q0 17 31 17q22 0 51.5 -0.5t57 -1.5
t51 -2t38.5 -1l15 -1l9 1q10 0 30.5 1t42.5 2q51 2 110 2q27 0 29 -14q2 -10 -13 -14q-5 -1 -11 -1q-4 0 -9.5 -0.5l-16.5 -1.5t-20 -2q-34 -4 -45 -24.5t-16 -73.5q-2 -37 -2 -373zM725 1718q28 18 35 18t35 -14q10 -5 65 -43q58 -41 111 -75q15 -10 29.5 -21.5t23 -17.5
t12.5 -9q23 -16 23 -22q0 -3 -10 -10l-72 -45q-12 -9 -21 0q-97 84 -200 139q-13 8 -25 8q-6 0 -29 -10q-7 -4 -82 -47t-137 -80q-29 -16 -39 -16q-17 0 -6 14q8 8 11 10q149 115 276 221z" />
    <glyph glyph-name="udieresis" unicode="&#xfc;" horiz-adv-x="1488" 
d="M383 807v-244q0 -174 30 -271.5t95 -154.5q107 -94 270 -94q180 0 281 119q100 112 100 428v217q0 297 -4 371q-3 50 -17.5 72t-58.5 28q-36 4 -57 4t-21 12q0 17 29 17h27.5t29 -0.5t30 -1t29.5 -1t26.5 -1t23 -1t18 -1t11.5 -0.5h4q108 6 155 6q29 0 29 -15
q-3 -12 -20 -14q-23 0 -37 -2q-37 -4 -51 -26.5t-19 -75.5q-2 -37 -2 -371v-182q0 -387 -166 -531q-144 -123 -375 -123q-251 0 -383 123q-151 142 -151 459v254q0 317 -6 373q-2 49 -17.5 70.5t-58.5 27.5q-32 4 -53 4q-23 0 -23 12q0 17 31 17q22 0 51.5 -0.5t57 -1.5
t51 -2t38.5 -1l15 -1l9 1q10 0 30.5 1t42.5 2q51 2 110 2q27 0 29 -14q2 -10 -13 -14q-5 -1 -11 -1q-4 0 -9.5 -0.5l-16.5 -1.5t-20 -2q-34 -4 -45 -24.5t-16 -73.5q-2 -37 -2 -373zM981 1516q-37 0 -58.5 23.5t-21.5 55.5q0 31 23 55.5t59 24.5q35 0 56.5 -21.5t21.5 -54.5
q0 -37 -22 -60t-58 -23zM524 1516q-49 0 -69 40t0.5 79.5t70.5 39.5q35 0 56.5 -21.5t21.5 -54.5q0 -37 -22 -60t-58 -23z" />
    <glyph glyph-name="yacute" unicode="&#xfd;" horiz-adv-x="1185" 
d="M516 291v149q0 115 -45 189q-35 63 -143 235q-111 176 -170 262q-77 103 -105 125q-42 28 -96 31q-23 0 -23 16q0 13 25 13q4 0 61.5 -2t90.5 -2l41 -2q1 0 11 0.5t26.5 1.5t35.5 2t41.5 1.5t40.5 0.5q27 0 27 -13q0 -9 -23 -16q-32 -6 -32 -33q0 -19 26 -67
q31 -54 86 -144q11 -18 154 -250q83 -135 88 -143q7 14 80 143q74 128 135 226q19 33 37 63.5t27.5 46t11.5 19.5q47 83 47 108q0 31 -47 31q-23 3 -23 16t25 13q20 0 69 -3t56 -3q3 0 13.5 0.5l31.5 1.5t43 2q49 2 92 2q24 0 24 -13q0 -16 -24 -16q-63 -3 -103 -27
q-28 -19 -75 -84q-84 -116 -203 -311q-123 -205 -145 -258q-21 -52 -21 -162v-149q0 -66 4 -164q2 -30 6 -45.5t20 -30t46 -20.5q31 -8 76 -8q22 0 22 -13q0 -16 -24 -16q-44 0 -101 1.5t-95.5 3t-39.5 1.5h-35q-141 -6 -149 -6q-29 0 -29 16q0 13 21 13q27 0 51 6
q44 8 53 98q6 73 6 164zM852 1720q49 -39 68 -71q16 -25 -7 -25q-2 0 -14.5 -3t-31 -8.5t-29.5 -10.5q-121 -56 -263 -142l-6 -2q-5 -4 -11 -7t-12 -5t-10 -1t-4 7q0 10 15 25q204 210 217 221q41 35 53 35q19 0 35 -13z" />
    <glyph glyph-name="thorn" unicode="&#xfe;" horiz-adv-x="1173" 
d="M483 1178q-2 -47 -2 -154q59 6 154 6q92 0 174 -20t106 -37q4 -3 21.5 -16t30.5 -23q92 -77 92 -229q0 -170 -125 -283q-127 -115 -320 -115q-33 0 -39 2q-18 3 -18 15q0 16 49 16q125 0 213 82q86 80 86 207q0 159 -86 248q-53 57 -110.5 76.5t-145.5 19.5
q-44 0 -67 -10q-15 -6 -15 -33v-430q0 -312 8 -377q12 -88 74 -94q35 -6 68 -6q26 0 27 -14q-5 -13 -29 -15l-228 6l-183 -6h-1q-30 0 -32 14q-2 10 13 14q5 1 11 1q25 0 45 4q46 9 55 98q8 65 8 375v307q0 299 -4 373q-6 87 -53 96q-36 8 -55 8q-21 0 -21 10q0 17 31 17
q19 0 74 -2t80 -2l32 -2q-2 0 41 1.5t95.5 3t72.5 1.5q29 0 29 -15q-2 -13 -21 -14q-2 0 -8.5 -0.5t-19 -1.5t-25.5 -2q-47 -6 -64 -26t-18 -74z" />
    <glyph glyph-name="ydieresis" unicode="&#xff;" horiz-adv-x="1185" 
d="M516 291v149q0 115 -45 189q-35 63 -143 235q-111 176 -170 262q-77 103 -105 125q-42 28 -96 31q-23 0 -23 16q0 13 25 13q4 0 61.5 -2t90.5 -2l41 -2q1 0 11 0.5t26.5 1.5t35.5 2t41.5 1.5t40.5 0.5q27 0 27 -13q0 -9 -23 -16q-32 -6 -32 -33q0 -19 26 -67
q31 -54 86 -144q11 -18 154 -250q83 -135 88 -143q7 14 80 143q74 128 135 226q19 33 37 63.5t27.5 46t11.5 19.5q47 83 47 108q0 31 -47 31q-23 3 -23 16t25 13q20 0 69 -3t56 -3q3 0 13.5 0.5l31.5 1.5t43 2q49 2 92 2q24 0 24 -13q0 -16 -24 -16q-63 -3 -103 -27
q-28 -19 -75 -84q-84 -116 -203 -311q-123 -205 -145 -258q-21 -52 -21 -162v-149q0 -66 4 -164q2 -30 6 -45.5t20 -30t46 -20.5q31 -8 76 -8q22 0 22 -13q0 -16 -24 -16q-44 0 -101 1.5t-95.5 3t-39.5 1.5h-35q-141 -6 -149 -6q-29 0 -29 16q0 13 21 13q27 0 51 6
q44 8 53 98q6 73 6 164zM834 1516q-37 0 -58.5 23.5t-21.5 55.5q0 31 23 55.5t59 24.5q35 0 56 -21.5t21 -54.5q0 -37 -21.5 -60t-57.5 -23zM377 1516q-49 0 -69 40t0.5 79.5t70.5 39.5q35 0 56.5 -21.5t21.5 -54.5q0 -37 -22 -60t-58 -23z" />
    <glyph glyph-name="Amacron" unicode="&#x100;" horiz-adv-x="1433" 
d="M899 598h-440q-15 0 -21 -16l-123 -363q-28 -82 -28 -137q0 -28 21 -43.5t52 -15.5h19q27 0 27 -13q0 -16 -37 -16q-47 0 -86 2q-16 1 -32.5 2t-25 1.5t-10.5 0.5h-10q-10 -1 -31.5 -2t-46.5 -2q-57 -2 -143 -2q-39 0 -39 16q0 13 28 13q4 0 50 4q62 7 99.5 52t72.5 140
l464 1272q20 55 33 70.5t25 1.5t33 -66q13 -31 104 -270q140 -368 207 -539q109 -284 166 -426q83 -200 176 -227q37 -12 80 -12q22 0 22 -13q0 -16 -41 -16q-133 0 -321 4q-67 5 -62 19q3 6 15 10q27 9 12 55l-190 504q-6 12 -19 12zM481 672h391q12 0 9 14l-195 553
q-16 48 -31 0l-180 -553q-6 -14 6 -14zM446 1798h543q26 0 17 -20l-17 -56q-3 -12 -18 -12h-543q-12 0 -16.5 3.5t-3.5 10.5l16 62q3 12 22 12z" />
    <glyph glyph-name="amacron" unicode="&#x101;" horiz-adv-x="1261" 
d="M780 494h-372q-14 0 -21 -17l-90 -256q-35 -100 -35 -145q0 -53 68 -53h14q22 0 25 -12q2 -10 -14 -15q-7 -2 -17 -2q-45 0 -88 2l-36 2l-27 1.5t-11 0.5h-8q-9 -1 -27 -2t-39 -2q-47 -2 -122 -2q-32 0 -33 15q3 12 24 14q33 0 41 2q58 6 92 42.5t66 118.5l410 1080
q17 44 25 56.5t18 12.5q14 0 41 -65q7 -20 178 -449q217 -544 237 -590q70 -168 156 -198q30 -10 70 -10q22 0 24 -12q2 -10 -15 -15q-7 -2 -16 -2q-127 0 -311 4q-51 3 -51 14q0 12 14 15q23 10 8 45l-161 411q-7 11 -17 11zM428 565h328q9 0 6 13l-162 452q-9 31 -22 0
l-154 -452q-6 -13 4 -13zM369 1593h542q26 0 17 -22l-17 -49q-3 -13 -18 -13h-543q-12 0 -17 3.5t-3 11.5l16 57q3 12 23 12z" />
    <glyph glyph-name="Abreve" unicode="&#x102;" horiz-adv-x="1433" 
d="M899 598h-440q-15 0 -21 -16l-123 -363q-28 -82 -28 -137q0 -28 21 -43.5t52 -15.5h19q27 0 27 -13q0 -16 -37 -16q-47 0 -86 2q-16 1 -32.5 2t-25 1.5t-10.5 0.5h-10q-10 -1 -31.5 -2t-46.5 -2q-57 -2 -143 -2q-39 0 -39 16q0 13 28 13q4 0 50 4q62 7 99.5 52t72.5 140
l464 1272q20 55 33 70.5t25 1.5t33 -66q13 -31 104 -270q140 -368 207 -539q109 -284 166 -426q83 -200 176 -227q37 -12 80 -12q22 0 22 -13q0 -16 -41 -16q-133 0 -321 4q-67 5 -62 19q3 6 15 10q27 9 12 55l-190 504q-6 12 -19 12zM481 672h391q12 0 9 14l-195 553
q-16 48 -31 0l-180 -553q-6 -14 6 -14zM375 1841q0 12 12 21q45 51 64 51q9 0 12 -10q32 -58 105.5 -98t170.5 -40q180 0 291 123q23 23 31 23q15 -3 -12 -47q-63 -82 -159 -130t-198 -48q-155 0 -256 73q-61 46 -61 82z" />
    <glyph glyph-name="abreve" unicode="&#x103;" horiz-adv-x="1261" 
d="M780 494h-372q-14 0 -21 -17l-90 -256q-35 -100 -35 -145q0 -53 68 -53h14q22 0 25 -12q2 -10 -14 -15q-7 -2 -17 -2q-45 0 -88 2l-36 2l-27 1.5t-11 0.5h-8q-9 -1 -27 -2t-39 -2q-47 -2 -122 -2q-32 0 -33 15q3 12 24 14q33 0 41 2q58 6 92 42.5t66 118.5l410 1080
q17 44 25 56.5t18 12.5q14 0 41 -65q7 -20 178 -449q217 -544 237 -590q70 -168 156 -198q30 -10 70 -10q22 0 24 -12q2 -10 -15 -15q-7 -2 -16 -2q-127 0 -311 4q-51 3 -51 14q0 12 14 15q23 10 8 45l-161 411q-7 11 -17 11zM428 565h328q9 0 6 13l-162 452q-9 31 -22 0
l-154 -452q-6 -13 4 -13zM311 1645q0 7 11 22q39 45 59 45q7 0 10 -10q28 -51 98.5 -87t159.5 -36q170 0 269 111q17 20 28 20q14 0 -6 -33q-4 -8 -6 -10q-132 -170 -330 -170q-141 0 -244 74q-49 37 -49 74z" />
    <glyph glyph-name="Aogonek" unicode="&#x104;" horiz-adv-x="1433" 
d="M195 219l464 1272q20 55 33 70.5t25 1.5t33 -66q13 -31 104 -270q140 -368 207 -539q109 -284 166 -426q83 -200 176 -227q37 -12 80 -12q22 0 22 -13q0 -16 -41 -16h-106q-164 -102 -164 -232q0 -53 30 -80.5t81 -27.5q52 0 94 22q28 16 28 0q0 -12 -14 -26
q-69 -78 -192 -78q-74 0 -119 41.5t-45 105.5q0 70 72.5 146t179.5 129q-70 4 -166 4q-67 5 -62 19q3 6 15 10q27 9 12 55l-190 504q-6 12 -19 12h-440q-15 0 -21 -16l-123 -363q-28 -82 -28 -137q0 -28 21 -43.5t52 -15.5h19q27 0 27 -13q0 -16 -37 -16q-47 0 -86 2
q-16 1 -32.5 2t-25 1.5t-10.5 0.5h-10q-10 -1 -31.5 -2t-46.5 -2q-57 -2 -143 -2q-39 0 -39 16q0 13 28 13q4 0 50 4q62 7 99.5 52t72.5 140zM481 672h391q12 0 9 14l-195 553q-16 48 -31 0l-180 -553q-6 -14 6 -14z" />
    <glyph glyph-name="aogonek" unicode="&#x105;" horiz-adv-x="1261" 
d="M170 186l410 1080q17 44 25 56.5t18 12.5q14 0 41 -65q7 -20 178 -449q217 -544 237 -590q70 -168 156 -198q30 -10 70 -10q22 0 24 -12q2 -10 -15 -15q-7 -2 -16 -2h-110q-158 -103 -158 -232q0 -108 105 -108q52 0 94 22q28 16 28 0q0 -12 -14 -26q-69 -78 -192 -78
q-74 0 -119 41.5t-45 105.5q0 70 73 147t181 128q-66 4 -154 4q-51 3 -51 14q0 12 14 15q23 10 8 45l-161 411q-7 11 -17 11h-372q-14 0 -21 -17l-90 -256q-35 -100 -35 -145q0 -53 68 -53h14q22 0 25 -12q2 -10 -14 -15q-7 -2 -17 -2q-45 0 -88 2l-36 2l-27 1.5t-11 0.5h-8
q-9 -1 -27 -2t-39 -2q-47 -2 -122 -2q-32 0 -33 15q3 12 24 14q33 0 41 2q58 6 92 42.5t66 118.5zM428 565h328q9 0 6 13l-162 452q-9 31 -22 0l-154 -452q-6 -13 4 -13z" />
    <glyph glyph-name="Cacute" unicode="&#x106;" horiz-adv-x="1648" 
d="M1055 -35q-429 0 -676 221q-248 224 -248 607q0 128 53 282t176 277q219 219 625 219q159 0 297 -25q24 -5 217 -30q19 -3 19 -23q0 -3 -2 -18t-4.5 -42.5t-4.5 -54.5q-1 -11 -1.5 -27.5t-1 -42.5t-1.5 -46q-2 -55 -2 -95q-1 -27 -9.5 -38t-17 0t-8.5 38q0 135 -86 209
q-59 51 -171 84t-238 33q-318 0 -471 -150q-101 -96 -143 -224.5t-42 -309.5q0 -302 211 -526q208 -224 529 -224q253 0 356 103q58 58 76 172q4 20 12.5 27.5t15.5 0t7 -27.5q0 -15 -15 -117q-14 -96 -30 -145q-7 -29 -16 -38.5t-38 -21.5q-118 -47 -368 -47zM1178 1964
q41 -36 65 -82q15 -27 -8 -27q-38 0 -84 -16q-126 -47 -291 -125q-27 -12 -33 -12q-28 0 2 31l2 2q175 163 252 213q43 32 60 32q19 0 35 -16z" />
    <glyph glyph-name="cacute" unicode="&#x107;" horiz-adv-x="1452" 
d="M932 -29q-383 0 -600 187q-219 192 -219 522q0 116 52 245.5t154 227.5q188 182 551 182q108 0 271 -22q123 -20 180 -23q18 0 18 -20q0 -3 -2 -18t-4.5 -38.5t-3.5 -44.5v-100q-3 -85 -4 -88q-3 -39 -16 -39q-17 0 -17 39q0 49 -22 99t-58 79q-51 44 -152 74.5
t-210 30.5q-262 0 -393 -119q-91 -84 -127.5 -189t-36.5 -260q0 -259 186 -448q185 -191 451 -191q226 0 313 84q53 53 68 148q6 30 22 30q10 0 10 -28q0 -22 -14 -105q-13 -80 -26 -123q-7 -24 -15 -32t-33 -19q-96 -41 -323 -41zM1018 1741q46 -37 67 -72q15 -24 -6 -24
q-2 0 -14.5 -3t-31 -9t-29.5 -11q-115 -53 -263 -141l-6 -2q-5 -4 -11 -7t-12 -5t-10 -1t-4 7q0 9 15 24q204 210 217 221q41 35 53 35q20 0 35 -12z" />
    <glyph glyph-name="Ccircumflex" unicode="&#x108;" horiz-adv-x="1648" 
d="M1055 -35q-429 0 -676 221q-248 224 -248 607q0 128 53 282t176 277q219 219 625 219q159 0 297 -25q24 -5 217 -30q19 -3 19 -23q0 -3 -2 -18t-4.5 -42.5t-4.5 -54.5q-1 -11 -1.5 -27.5t-1 -42.5t-1.5 -46q-2 -55 -2 -95q-1 -27 -9.5 -38t-17 0t-8.5 38q0 135 -86 209
q-59 51 -171 84t-238 33q-318 0 -471 -150q-101 -96 -143 -224.5t-42 -309.5q0 -302 211 -526q208 -224 529 -224q253 0 356 103q58 58 76 172q4 20 12.5 27.5t15.5 0t7 -27.5q0 -15 -15 -117q-14 -96 -30 -145q-7 -29 -16 -38.5t-38 -21.5q-118 -47 -368 -47zM956 1956
q8 0 39 -17q206 -136 265 -178q23 -17 24.5 -24.5t-10.5 -12.5l-70 -38q-12 -9 -24 0q-122 95 -217 145q-17 10 -23 10l-33 -14q-124 -60 -243 -129q-36 -19 -43 -19q-8 0 -10.5 5t1.5 14q1 2 3.5 4t6 5t5.5 5q242 178 293 223q27 21 36 21z" />
    <glyph glyph-name="ccircumflex" unicode="&#x109;" horiz-adv-x="1452" 
d="M932 -29q-383 0 -600 187q-219 192 -219 522q0 116 52 245.5t154 227.5q188 182 551 182q108 0 271 -22q123 -20 180 -23q18 0 18 -20q0 -3 -2 -18t-4.5 -38.5t-3.5 -44.5v-100q-3 -85 -4 -88q-3 -39 -16 -39q-17 0 -17 39q0 49 -22 99t-58 79q-51 44 -152 74.5
t-210 30.5q-262 0 -393 -119q-91 -84 -127.5 -189t-36.5 -260q0 -259 186 -448q185 -191 451 -191q226 0 313 84q53 53 68 148q6 30 22 30q10 0 10 -28q0 -22 -14 -105q-13 -80 -26 -123q-7 -24 -15 -32t-33 -19q-96 -41 -323 -41zM823 1737q8 0 35 -15q14 -7 66 -43
q77 -53 110 -75q14 -10 29.5 -21.5t24 -17.5t12.5 -9q22 -16 22 -22q0 -3 -10 -10l-72 -45q-11 -9 -20 0q-95 83 -201 139q-13 8 -24 8q-6 0 -29 -10q-7 -4 -82 -47t-137 -80q-29 -16 -39 -16q-17 0 -6 14q1 1 2 2.5t3 3.5t5 4q149 115 276 221q28 19 35 19z" />
    <glyph glyph-name="Cdotaccent" unicode="&#x10a;" horiz-adv-x="1648" 
d="M1055 -35q-429 0 -676 221q-248 224 -248 607q0 128 53 282t176 277q219 219 625 219q159 0 297 -25q24 -5 217 -30q19 -3 19 -23q0 -3 -2 -18t-4.5 -42.5t-4.5 -54.5q-1 -11 -1.5 -27.5t-1 -42.5t-1.5 -46q-2 -55 -2 -95q-1 -27 -9.5 -38t-17 0t-8.5 38q0 135 -86 209
q-59 51 -171 84t-238 33q-318 0 -471 -150q-101 -96 -143 -224.5t-42 -309.5q0 -302 211 -526q208 -224 529 -224q253 0 356 103q58 58 76 172q4 20 12.5 27.5t15.5 0t7 -27.5q0 -15 -15 -117q-14 -96 -30 -145q-7 -29 -16 -38.5t-38 -21.5q-118 -47 -368 -47zM944 1737
q-41 0 -63.5 27t-22 59t23.5 59t62 27q37 0 62.5 -24.5t25.5 -61.5q0 -36 -25 -61t-63 -25z" />
    <glyph glyph-name="cdotaccent" unicode="&#x10b;" horiz-adv-x="1452" 
d="M932 -29q-383 0 -600 187q-219 192 -219 522q0 116 52 245.5t154 227.5q188 182 551 182q108 0 271 -22q123 -20 180 -23q18 0 18 -20q0 -3 -2 -18t-4.5 -38.5t-3.5 -44.5v-100q-3 -85 -4 -88q-3 -39 -16 -39q-17 0 -17 39q0 49 -22 99t-58 79q-51 44 -152 74.5
t-210 30.5q-262 0 -393 -119q-91 -84 -127.5 -189t-36.5 -260q0 -259 186 -448q185 -191 451 -191q226 0 313 84q53 53 68 148q6 30 22 30q10 0 10 -28q0 -22 -14 -105q-13 -80 -26 -123q-7 -24 -15 -32t-33 -19q-96 -41 -323 -41zM805 1532q-41 0 -63.5 27t-22 59t23.5 59
t62 27q37 0 62.5 -24.5t25.5 -61.5q0 -36 -25 -61t-63 -25z" />
    <glyph glyph-name="Ccaron" unicode="&#x10c;" horiz-adv-x="1648" 
d="M1055 -35q-429 0 -676 221q-248 224 -248 607q0 128 53 282t176 277q219 219 625 219q159 0 297 -25q24 -5 217 -30q19 -3 19 -23q0 -3 -2 -18t-4.5 -42.5t-4.5 -54.5q-1 -11 -1.5 -27.5t-1 -42.5t-1.5 -46q-2 -55 -2 -95q-1 -27 -9.5 -38t-17 0t-8.5 38q0 135 -86 209
q-59 51 -171 84t-238 33q-318 0 -471 -150q-101 -96 -143 -224.5t-42 -309.5q0 -302 211 -526q208 -224 529 -224q253 0 356 103q58 58 76 172q4 20 12.5 27.5t15.5 0t7 -27.5q0 -15 -15 -117q-14 -96 -30 -145q-7 -29 -16 -38.5t-38 -21.5q-118 -47 -368 -47zM948 1692
q-10 0 -39 16q-30 20 -71 47q-50 32 -119 78q-69 47 -72 49q-23 17 -24.5 24.5t10.5 12.5l65 43q13 10 23 0q119 -101 223 -156q17 -11 24.5 -10.5t32.5 12.5q106 59 238 140q30 18 43 18q18 0 8 -16l-12 -13q-183 -133 -293 -225q-26 -20 -37 -20z" />
    <glyph glyph-name="ccaron" unicode="&#x10d;" horiz-adv-x="1452" 
d="M932 -29q-383 0 -600 187q-219 192 -219 522q0 116 52 245.5t154 227.5q188 182 551 182q108 0 271 -22q123 -20 180 -23q18 0 18 -20q0 -3 -2 -18t-4.5 -38.5t-3.5 -44.5v-100q-3 -85 -4 -88q-3 -39 -16 -39q-17 0 -17 39q0 49 -22 99t-58 79q-51 44 -152 74.5
t-210 30.5q-262 0 -393 -119q-91 -84 -127.5 -189t-36.5 -260q0 -259 186 -448q185 -191 451 -191q226 0 313 84q53 53 68 148q6 30 22 30q10 0 10 -28q0 -22 -14 -105q-13 -80 -26 -123q-7 -24 -15 -32t-33 -19q-96 -41 -323 -41zM807 1460q-8 0 -35 15q-3 2 -10 6.5
t-23.5 16.5t-31.5 22q-39 27 -109 73q-19 12 -40.5 27t-25.5 18q-22 16 -22 23q0 3 10 10l72 45q11 9 20 0q101 -87 203 -141q13 -8 25 -8q5 0 28 10q7 4 82 47t137 80q22 16 39 16q18 0 7 -14q-8 -8 -11 -10q-123 -88 -280 -217q-29 -19 -35 -19z" />
    <glyph glyph-name="Dcaron" unicode="&#x10e;" horiz-adv-x="1878" 
d="M365 588v360q0 336 -5 443q-5 59 -20 82.5t-61 33.5q-24 6 -70 6q-23 0 -23 13q0 16 33 16q22 0 54.5 -0.5t62.5 -1.5t56.5 -2t43 -1.5t15.5 -0.5q1 0 49 1.5t114 3t113 1.5h39h143q68 -4 154 -14q88 -10 174 -35q81 -26 165 -73.5t146 -110.5q199 -205 199 -521
q0 -342 -221 -577q-224 -236 -621 -236q-94 0 -284 13l-170 12q-53 0 -82 -2q-17 0 -64.5 -2t-54.5 -2q-33 0 -33 16q0 13 21 13q3 0 57 8q44 9 59 112q11 104 11 445zM537 981v-254q0 -342 4 -444q6 -130 22 -156q55 -82 348 -82q297 0 488 191q77 74 120.5 207t43.5 282
q0 310 -197 516q-124 133 -281 182.5t-389 49.5q-106 0 -133 -15q-24 -9 -24 -41q-2 -47 -2 -436zM903 1667q-10 0 -39 16q-1 1 -11 7.5t-26 17.5t-34 23q-71 45 -119 77q-61 41 -72 50q-16 12 -21 19t-3 9.5t10 7.5l65 43q13 10 23 0q116 -98 223 -155q17 -11 24.5 -10.5
t32.5 12.5q123 68 238 139q32 19 43 19q18 0 8 -17l-12 -12q-183 -133 -293 -225q-27 -21 -37 -21z" />
    <glyph glyph-name="dcaron" unicode="&#x10f;" horiz-adv-x="1658" 
d="M317 504v303q0 305 -4 375q-5 45 -22 67t-58 29q-32 4 -59 4q-20 0 -20 12q0 17 30 17q24 0 90 -2t91 -2l38 -2l15 1q15 0 40 1t54 2t63.5 1.5t63.5 0.5h57h70q33 0 70 -2q47 -1 155 -15q25 -4 47 -9t34 -8.5t38.5 -12.5t40.5 -13q39 -13 80 -34q97 -61 141 -107
q174 -174 174 -440q0 -290 -194 -490q-200 -200 -547 -200q-113 0 -256 10q-32 2 -69 4.5t-58.5 4t-20.5 1.5q-42 0 -69 -2q-15 0 -63 -2t-56 -2q-27 0 -29 14q-2 10 14 14q4 1 9 1q23 0 47 6q41 9 53 94q10 72 10 381zM485 840v-207v-100.5t0.5 -100.5t1 -85t0.5 -63.5
v-25.5q3 -112 21 -137q54 -78 301 -78q266 0 426 160q133 133 133 407q0 271 -176 441q-112 112 -245.5 153t-332.5 41q-84 0 -104 -14q-23 -10 -23 -35q-2 -39 -2 -356zM844 1479q-28 -18 -35 -18t-35 14l-65 45q-39 27 -109 73q-19 13 -40 28t-25 17q-23 16 -23 23
q0 3 10 10l72 45q11 9 20 0q101 -87 203 -141q13 -8 25 -8q5 0 28 10q8 5 83 47.5t137 79.5q22 16 38 16q18 0 7 -14q-8 -8 -11 -10q-123 -88 -280 -217z" />
    <glyph glyph-name="Dcroat" unicode="&#x110;" horiz-adv-x="1898" 
d="M209 829h176v119q0 357 -4 443q-5 59 -20.5 82.5t-61.5 33.5q-24 6 -70 6q-22 0 -22 13q0 16 33 16q22 0 54.5 -0.5t62.5 -1.5t56.5 -2t42.5 -1.5t15 -0.5l102 4q68 2 175 2h38h144q66 -4 153 -14q88 -10 174 -35q82 -26 166 -73.5t146 -110.5q198 -204 198 -521
q0 -342 -221 -577q-224 -236 -620 -236q-95 0 -285 13l-170 12q-53 0 -82 -2q-17 0 -64.5 -2t-54.5 -2q-32 0 -32 16q0 13 20 13q3 0 57 8q45 9 60 112q10 95 10 445v166h-205q-12 0 -15 3t-1 13q2 20 10 47q3 12 35 12zM924 754h-367v-27q0 -342 4 -444q6 -129 23 -156
q55 -82 348 -82q296 0 487 191q77 74 120.5 207t43.5 282q0 310 -197 516q-124 133 -280.5 182.5t-388.5 49.5q-106 0 -133 -15q-25 -9 -25 -41q-2 -47 -2 -436v-152h395q12 0 15.5 -3t1.5 -11q-6 -32 -15 -51q-3 -10 -30 -10z" />
    <glyph glyph-name="dcroat" unicode="&#x111;" horiz-adv-x="1658" 
d="M188 709h129v98q0 305 -4 375q-5 45 -22 67t-58 29q-32 4 -59 4q-20 0 -20 12q0 17 30 17q24 0 90 -2t91 -2l38 -2l15 1q15 0 40 1t54 2t63.5 1.5t63.5 0.5h57h70q33 0 70 -2q47 -1 155 -15q25 -4 47 -9t34 -8.5t38.5 -12.5t40.5 -13q39 -13 80 -34q97 -61 141 -107
q174 -174 174 -440q0 -290 -194 -490q-200 -200 -547 -200q-113 0 -256 10q-32 2 -69 4.5t-58.5 4t-20.5 1.5q-42 0 -69 -2q-15 0 -63 -2t-56 -2q-27 0 -29 14q-2 10 14 14q4 1 9 1q23 0 47 6q41 9 53 94q10 72 10 381v137h-157q-11 0 -13.5 2t-1.5 12q2 6 7.5 24t5.5 19
q4 11 30 11zM811 641h-326v-8v-100.5t0.5 -100.5t1 -85t0.5 -63.5v-25.5q3 -112 21 -137q54 -78 301 -78q266 0 426 160q133 133 133 407q0 271 -176 441q-112 112 -245.5 153t-332.5 41q-84 0 -104 -14q-23 -10 -23 -35q-2 -39 -2 -356v-131h353q9 0 12.5 -3.5t1.5 -9.5
q-7 -38 -14 -46.5t-27 -8.5z" />
    <glyph glyph-name="Emacron" unicode="&#x112;" horiz-adv-x="1249" 
d="M365 588v360q0 336 -5 443q-5 57 -22.5 81.5t-65.5 34.5q-24 6 -59 6q-27 3 -27 13q0 16 33 16q103 0 232 -6q438 0 469 2q76 3 94 12q15 9 22 9q8 0 8 -19q0 -2 -3.5 -17t-7.5 -37.5t-5 -41.5l-8 -123q-3 -35 -16 -35q-17 0 -17 27q0 37 -10 67q-21 64 -148 76
q-52 6 -280 6q-12 0 -12 -20v-565q0 -21 12 -21q263 0 325 4q77 6 103 35q14 20 24 20q11 0 11 -16q0 -1 -3.5 -17t-7.5 -44t-6 -54q-3 -41 -6 -86q-2 -35 -2 -53q-3 -31 -14 -31q-8 0 -11.5 15t-5.5 39.5t-6 36.5q-13 53 -92 65t-307 12q-14 0 -14 -14v-180v-105v-157v-88
q5 -71 18.5 -104t48.5 -46q46 -18 170 -18q122 0 184 18q47 13 70 47.5t35 104.5q4 20 11.5 27.5t13.5 0t6 -27.5q0 -4 -1.5 -15.5t-4.5 -35t-5 -42.5q-9 -72 -16 -106q-10 -37 -28 -45t-83 -8q-59 0 -299 6q-246 6 -256 6q-8 0 -68 -3.5t-83 -2.5q-33 0 -33 16q0 10 23 13
q37 3 47 6q38 8 55 49t18 143q5 265 5 367zM397 1825h543q25 0 16 -21l-16 -55q-3 -12 -18 -12h-543q-24 0 -21 14l17 61q3 13 22 13z" />
    <glyph glyph-name="emacron" unicode="&#x113;" horiz-adv-x="1110" 
d="M317 500v307q0 299 -4 373q-5 47 -20.5 69t-56.5 29q-32 4 -50 4q-26 0 -26 12q0 17 30 17q11 0 45 -1t83.5 -2.5l82.5 -2.5q389 0 416 2q66 3 80 10q18 6 23 6q8 0 8 -14q0 -2 -4 -17t-8 -36.5t-5 -38.5q-6 -89 -6 -107q0 -30 -14 -31q-12 4 -14 23q-3 38 -15 65
q-11 33 -36 45.5t-97 16.5q-70 4 -233 4q-11 0 -11 -16v-465q0 -21 13 -21q212 0 276 6q72 3 94 31q10 16 23 16q8 0 8 -12q0 -1 -2.5 -17t-6 -42.5t-5.5 -48.5q-8 -63 -8 -125q-1 -23 -14 -23t-13 27q0 25 -6 49q-15 55 -99 61q-94 9 -245 9q-15 0 -15 -15v-149v-88v-121
v-70q5 -64 16.5 -92.5t41.5 -40.5q41 -18 149 -18q110 0 154 11.5t63 43.5q17 30 31 92q6 29 18.5 29t12.5 -31q0 -40 -23 -178q-6 -30 -22 -37.5t-68 -7.5q-58 0 -155 2t-109 2q-214 6 -242 6q-15 0 -66.5 -3t-68.5 -3q-29 0 -29 15q3 12 19 14q20 0 41 6q32 6 48 41.5
t17 119.5q4 184 4 310zM309 1589h543q25 0 16 -22l-16 -49q-3 -13 -18 -13h-543q-24 0 -21 15l17 57q3 12 22 12z" />
    <glyph glyph-name="Ebreve" unicode="&#x114;" horiz-adv-x="1249" 
d="M365 588v360q0 336 -5 443q-5 57 -22.5 81.5t-65.5 34.5q-24 6 -59 6q-27 3 -27 13q0 16 33 16q103 0 232 -6q438 0 469 2q76 3 94 12q15 9 22 9q8 0 8 -19q0 -2 -3.5 -17t-7.5 -37.5t-5 -41.5l-8 -123q-3 -35 -16 -35q-17 0 -17 27q0 37 -10 67q-21 64 -148 76
q-52 6 -280 6q-12 0 -12 -20v-565q0 -21 12 -21q263 0 325 4q77 6 103 35q14 20 24 20q11 0 11 -16q0 -1 -3.5 -17t-7.5 -44t-6 -54q-3 -41 -6 -86q-2 -35 -2 -53q-3 -31 -14 -31q-8 0 -11.5 15t-5.5 39.5t-6 36.5q-13 53 -92 65t-307 12q-14 0 -14 -14v-180v-105v-157v-88
q5 -71 18.5 -104t48.5 -46q46 -18 170 -18q122 0 184 18q47 13 70 47.5t35 104.5q4 20 11.5 27.5t13.5 0t6 -27.5q0 -4 -1.5 -15.5t-4.5 -35t-5 -42.5q-9 -72 -16 -106q-10 -37 -28 -45t-83 -8q-59 0 -299 6q-246 6 -256 6q-8 0 -68 -3.5t-83 -2.5q-33 0 -33 16q0 10 23 13
q37 3 47 6q38 8 55 49t18 143q5 265 5 367zM332 1855q0 12 12 21q45 51 64 51q5 0 12 -10q31 -58 104.5 -97.5t171.5 -39.5q180 0 291 123q22 22 31 22q15 -3 -12 -47q-63 -82 -159 -130t-198 -48q-153 0 -256 74q-61 46 -61 81z" />
    <glyph glyph-name="ebreve" unicode="&#x115;" horiz-adv-x="1110" 
d="M317 500v307q0 299 -4 373q-5 47 -20.5 69t-56.5 29q-32 4 -50 4q-26 0 -26 12q0 17 30 17q11 0 45 -1t83.5 -2.5l82.5 -2.5q389 0 416 2q66 3 80 10q18 6 23 6q8 0 8 -14q0 -2 -4 -17t-8 -36.5t-5 -38.5q-6 -89 -6 -107q0 -30 -14 -31q-12 4 -14 23q-3 38 -15 65
q-11 33 -36 45.5t-97 16.5q-70 4 -233 4q-11 0 -11 -16v-465q0 -21 13 -21q212 0 276 6q72 3 94 31q10 16 23 16q8 0 8 -12q0 -1 -2.5 -17t-6 -42.5t-5.5 -48.5q-8 -63 -8 -125q-1 -23 -14 -23t-13 27q0 25 -6 49q-15 55 -99 61q-94 9 -245 9q-15 0 -15 -15v-149v-88v-121
v-70q5 -64 16.5 -92.5t41.5 -40.5q41 -18 149 -18q110 0 154 11.5t63 43.5q17 30 31 92q6 29 18.5 29t12.5 -31q0 -40 -23 -178q-6 -30 -22 -37.5t-68 -7.5q-58 0 -155 2t-109 2q-214 6 -242 6q-15 0 -66.5 -3t-68.5 -3q-29 0 -29 15q3 12 19 14q20 0 41 6q32 6 48 41.5
t17 119.5q4 184 4 310zM283 1620q0 9 10 22q40 46 59 46q6 0 10 -11q28 -51 99 -87t160 -36q169 0 268 111q18 21 29 21q13 0 -7 -33q-5 -10 -6 -11q-132 -169 -330 -169q-142 0 -243 73q-49 37 -49 74z" />
    <glyph glyph-name="Edotaccent" unicode="&#x116;" horiz-adv-x="1249" 
d="M365 588v360q0 336 -5 443q-5 57 -22.5 81.5t-65.5 34.5q-24 6 -59 6q-27 3 -27 13q0 16 33 16q103 0 232 -6q438 0 469 2q76 3 94 12q15 9 22 9q8 0 8 -19q0 -2 -3.5 -17t-7.5 -37.5t-5 -41.5l-8 -123q-3 -35 -16 -35q-17 0 -17 27q0 37 -10 67q-21 64 -148 76
q-52 6 -280 6q-12 0 -12 -20v-565q0 -21 12 -21q263 0 325 4q77 6 103 35q14 20 24 20q11 0 11 -16q0 -1 -3.5 -17t-7.5 -44t-6 -54q-3 -41 -6 -86q-2 -35 -2 -53q-3 -31 -14 -31q-8 0 -11.5 15t-5.5 39.5t-6 36.5q-13 53 -92 65t-307 12q-14 0 -14 -14v-180v-105v-157v-88
q5 -71 18.5 -104t48.5 -46q46 -18 170 -18q122 0 184 18q47 13 70 47.5t35 104.5q4 20 11.5 27.5t13.5 0t6 -27.5q0 -4 -1.5 -15.5t-4.5 -35t-5 -42.5q-9 -72 -16 -106q-10 -37 -28 -45t-83 -8q-59 0 -299 6q-246 6 -256 6q-8 0 -68 -3.5t-83 -2.5q-33 0 -33 16q0 10 23 13
q37 3 47 6q38 8 55 49t18 143q5 265 5 367zM668 1716q-41 0 -63.5 27t-22 59t23.5 59t62 27q37 0 62.5 -24.5t25.5 -61.5q0 -36 -25 -61t-63 -25z" />
    <glyph glyph-name="edotaccent" unicode="&#x117;" horiz-adv-x="1110" 
d="M317 500v307q0 299 -4 373q-5 47 -20.5 69t-56.5 29q-32 4 -50 4q-26 0 -26 12q0 17 30 17q11 0 45 -1t83.5 -2.5l82.5 -2.5q389 0 416 2q66 3 80 10q18 6 23 6q8 0 8 -14q0 -2 -4 -17t-8 -36.5t-5 -38.5q-6 -89 -6 -107q0 -30 -14 -31q-12 4 -14 23q-3 38 -15 65
q-11 33 -36 45.5t-97 16.5q-70 4 -233 4q-11 0 -11 -16v-465q0 -21 13 -21q212 0 276 6q72 3 94 31q10 16 23 16q8 0 8 -12q0 -1 -2.5 -17t-6 -42.5t-5.5 -48.5q-8 -63 -8 -125q-1 -23 -14 -23t-13 27q0 25 -6 49q-15 55 -99 61q-94 9 -245 9q-15 0 -15 -15v-149v-88v-121
v-70q5 -64 16.5 -92.5t41.5 -40.5q41 -18 149 -18q110 0 154 11.5t63 43.5q17 30 31 92q6 29 18.5 29t12.5 -31q0 -40 -23 -178q-6 -30 -22 -37.5t-68 -7.5q-58 0 -155 2t-109 2q-214 6 -242 6q-15 0 -66.5 -3t-68.5 -3q-29 0 -29 15q3 12 19 14q20 0 41 6q32 6 48 41.5
t17 119.5q4 184 4 310zM594 1511q-41 0 -63.5 27t-22 59t23.5 59t62 27q37 0 62.5 -24.5t25.5 -61.5q0 -36 -25 -61t-63 -25z" />
    <glyph glyph-name="Eogonek" unicode="&#x118;" horiz-adv-x="1249" 
d="M537 768v-180v-105v-157v-88q5 -71 18.5 -104t48.5 -46q46 -18 170 -18q122 0 184 18q47 13 70 47.5t35 104.5q4 20 11.5 27.5t13.5 0t6 -27.5q0 -4 -1.5 -15.5t-4.5 -35t-5 -42.5q-9 -72 -16 -106q-10 -36 -26 -44.5t-72 -8.5q-154 -103 -154 -226q0 -53 30 -80.5
t81 -27.5q52 0 94 22q29 16 29 0q0 -11 -15 -26q-69 -78 -192 -78q-74 0 -119 41.5t-45 105.5q0 69 68 142.5t172 126.5q-46 0 -261 6q-246 6 -256 6q-8 0 -68 -3.5t-83 -2.5q-33 0 -33 16q0 10 23 13q37 3 47 6q38 8 55 49t18 143q5 265 5 367v360q0 336 -5 443
q-5 57 -22.5 81.5t-65.5 34.5q-24 6 -59 6q-27 3 -27 13q0 16 33 16q103 0 232 -6q438 0 469 2q76 3 94 12q15 9 22 9q8 0 8 -19q0 -2 -3.5 -17t-7.5 -37.5t-5 -41.5l-8 -123q-3 -35 -16 -35q-17 0 -17 27q0 37 -10 67q-21 64 -148 76q-52 6 -280 6q-12 0 -12 -20v-565
q0 -21 12 -21q263 0 325 4q77 6 103 35q14 20 24 20q11 0 11 -16q0 -1 -3.5 -17t-7.5 -44t-6 -54q-3 -41 -6 -86q-2 -35 -2 -53q-3 -31 -14 -31q-8 0 -11.5 15t-5.5 39.5t-6 36.5q-13 53 -92 65t-307 12q-14 0 -14 -14z" />
    <glyph glyph-name="eogonek" unicode="&#x119;" horiz-adv-x="1110" 
d="M485 647v-149v-88v-121v-70q5 -64 16.5 -92.5t41.5 -40.5q41 -18 149 -18q110 0 154 11.5t63 43.5q17 30 31 92q6 29 18.5 29t12.5 -31q0 -40 -23 -178q-6 -29 -21 -37t-63 -8q-151 -100 -151 -228q0 -108 104 -108q52 0 94 22q29 16 29 0q0 -12 -14 -26
q-69 -78 -193 -78q-74 0 -119 41.5t-45 105.5q0 69 69.5 143t174.5 128q-43 0 -125 2t-94 2q-214 6 -242 6q-15 0 -66.5 -3t-68.5 -3q-29 0 -29 15q3 12 19 14q20 0 41 6q32 6 48 41.5t17 119.5q4 184 4 310v307q0 299 -4 373q-5 47 -20.5 69t-56.5 29q-32 4 -50 4
q-26 0 -26 12q0 17 30 17q11 0 45 -1t83.5 -2.5l82.5 -2.5q389 0 416 2q66 3 80 10q18 6 23 6q8 0 8 -14q0 -2 -4 -17t-8 -36.5t-5 -38.5q-6 -89 -6 -107q0 -30 -14 -31q-12 4 -14 23q-3 38 -15 65q-11 33 -36 45.5t-97 16.5q-70 4 -233 4q-11 0 -11 -16v-465q0 -21 13 -21
q212 0 276 6q72 3 94 31q10 16 23 16q8 0 8 -12q0 -1 -2.5 -17t-6 -42.5t-5.5 -48.5q-8 -63 -8 -125q-1 -23 -14 -23t-13 27q0 25 -6 49q-15 55 -99 61q-94 9 -245 9q-15 0 -15 -15z" />
    <glyph glyph-name="Ecaron" unicode="&#x11a;" horiz-adv-x="1249" 
d="M365 588v360q0 336 -5 443q-5 57 -22.5 81.5t-65.5 34.5q-24 6 -59 6q-27 3 -27 13q0 16 33 16q103 0 232 -6q438 0 469 2q76 3 94 12q15 9 22 9q8 0 8 -19q0 -2 -3.5 -17t-7.5 -37.5t-5 -41.5l-8 -123q-3 -35 -16 -35q-17 0 -17 27q0 37 -10 67q-21 64 -148 76
q-52 6 -280 6q-12 0 -12 -20v-565q0 -21 12 -21q263 0 325 4q77 6 103 35q14 20 24 20q11 0 11 -16q0 -1 -3.5 -17t-7.5 -44t-6 -54q-3 -41 -6 -86q-2 -35 -2 -53q-3 -31 -14 -31q-8 0 -11.5 15t-5.5 39.5t-6 36.5q-13 53 -92 65t-307 12q-14 0 -14 -14v-180v-105v-157v-88
q5 -71 18.5 -104t48.5 -46q46 -18 170 -18q122 0 184 18q47 13 70 47.5t35 104.5q4 20 11.5 27.5t13.5 0t6 -27.5q0 -4 -1.5 -15.5t-4.5 -35t-5 -42.5q-9 -72 -16 -106q-10 -37 -28 -45t-83 -8q-59 0 -299 6q-246 6 -256 6q-8 0 -68 -3.5t-83 -2.5q-33 0 -33 16q0 10 23 13
q37 3 47 6q38 8 55 49t18 143q5 265 5 367zM666 1665q-10 0 -39 16l-72 48q-71 45 -119 77q-63 42 -71 49q-16 12 -21.5 19t-3.5 10t10 8l66 43q13 9 22 0q114 -97 224 -155q17 -11 24.5 -10.5t32.5 12.5q113 63 237 139q30 18 43 18q19 0 9 -16q-2 -5 -13 -12
q-183 -133 -293 -225q-27 -21 -36 -21z" />
    <glyph glyph-name="ecaron" unicode="&#x11b;" horiz-adv-x="1110" 
d="M317 500v307q0 299 -4 373q-5 47 -20.5 69t-56.5 29q-32 4 -50 4q-26 0 -26 12q0 17 30 17q11 0 45 -1t83.5 -2.5l82.5 -2.5q389 0 416 2q66 3 80 10q18 6 23 6q8 0 8 -14q0 -2 -4 -17t-8 -36.5t-5 -38.5q-6 -89 -6 -107q0 -30 -14 -31q-12 4 -14 23q-3 38 -15 65
q-11 33 -36 45.5t-97 16.5q-70 4 -233 4q-11 0 -11 -16v-465q0 -21 13 -21q212 0 276 6q72 3 94 31q10 16 23 16q8 0 8 -12q0 -1 -2.5 -17t-6 -42.5t-5.5 -48.5q-8 -63 -8 -125q-1 -23 -14 -23t-13 27q0 25 -6 49q-15 55 -99 61q-94 9 -245 9q-15 0 -15 -15v-149v-88v-121
v-70q5 -64 16.5 -92.5t41.5 -40.5q41 -18 149 -18q110 0 154 11.5t63 43.5q17 30 31 92q6 29 18.5 29t12.5 -31q0 -40 -23 -178q-6 -30 -22 -37.5t-68 -7.5q-58 0 -155 2t-109 2q-214 6 -242 6q-15 0 -66.5 -3t-68.5 -3q-29 0 -29 15q3 12 19 14q20 0 41 6q32 6 48 41.5
t17 119.5q4 184 4 310zM623 1479q-28 -18 -35 -18t-35 14q-27 18 -66 45q-58 40 -108 73q-19 12 -40.5 27t-25.5 18q-22 16 -22 23q0 3 10 10l72 45q11 9 20 0q101 -87 203 -141q13 -8 25 -8q5 0 28 10q7 4 82 47t137 80q22 16 39 16t6 -14q-1 -1 -2 -2.5t-3 -3.5t-5 -4
q-123 -88 -280 -217z" />
    <glyph glyph-name="Gcircumflex" unicode="&#x11c;" horiz-adv-x="1765" 
d="M1509 397v-229q0 -68 -3.5 -84.5t-22.5 -26.5q-176 -92 -434 -92q-423 0 -674 219q-100 87 -172 246t-72 338q0 224 93.5 400.5t248.5 273.5q205 129 545 129q144 0 313 -35q81 -17 166 -20q25 -3 25 -19q0 -1 -1.5 -15t-4 -38.5t-4.5 -57t-3.5 -81t-1.5 -99.5
q0 -43 -18 -43q-11 0 -14 31q-6 77 -43 135q-45 70 -175.5 118t-306.5 48q-266 0 -438 -135q-94 -75 -148.5 -212t-54.5 -308q0 -189 72 -342q74 -158 145 -226q227 -219 537 -219q160 0 233 43q41 21 41 72v348q0 128 -14 160q-16 36 -78 51q-24 6 -69 6q-17 0 -17 12
q0 17 33 17q22 0 54.5 -0.5t62.5 -1.5t56.5 -2t42.5 -1.5t15 -0.5q-2 0 38.5 1.5t90.5 3t72 1.5q33 0 33 -17q0 -12 -17 -12q-14 0 -51 -6q-40 -7 -55.5 -33t-20.5 -84q-4 -86 -4 -213zM936 1974q10 0 39 -16q195 -128 264 -178q23 -17 24.5 -24.5t-10.5 -12.5l-69 -39
q-12 -9 -25 0q-122 95 -217 145q-18 11 -22 11l-33 -15q-130 -64 -244 -129q-34 -18 -43 -18q-17 0 -8 18q1 2 14 15q242 178 293 223q26 20 37 20z" />
    <glyph glyph-name="gcircumflex" unicode="&#x11d;" horiz-adv-x="1558" 
d="M1335 330v-185q0 -60 -3.5 -72.5t-20.5 -23.5q-156 -78 -377 -78q-379 0 -600 185q-99 82 -160 212t-61 285q0 192 84.5 342.5t224.5 235.5q177 104 457 104q113 0 292 -28q82 -16 156 -19q16 0 16 -16q0 -1 -1.5 -14t-3.5 -36t-4 -53t-3.5 -73.5t-1.5 -89.5
q0 -37 -16 -37q-12 0 -15 24q0 75 -42 131.5t-148 96.5q-113 43 -272 43q-58 0 -85.5 -1t-67.5 -8.5t-87 -23.5q-73 -27 -137 -76q-81 -62 -126.5 -176.5t-45.5 -261.5q0 -164 63 -287q62 -130 123 -188q197 -191 465 -191q127 0 195 35q34 21 34 61v295q0 104 -14 134.5
t-68 37.5q-8 2 -20 2.5t-20.5 1.5t-16.5 2.5t-12 4.5t-4 8q0 14 30 14q21 0 50 -0.5t56.5 -1t51 -1t38 -1t13.5 -0.5q-2 0 35 1t83.5 2t66.5 1q27 0 29 -14q1 -11 -16 -14q-4 -1 -9 -1q-25 0 -35 -2q-34 -4 -47.5 -27t-18.5 -75q-4 -78 -4 -184zM815 1737q8 0 35 -15
q10 -5 65 -43q59 -41 111 -75q14 -10 29.5 -21.5t24 -17.5t12.5 -9q22 -16 22 -22q0 -3 -10 -10l-72 -45q-11 -9 -20 0q-95 83 -201 139q-13 8 -25 8q-5 0 -28 -10q-7 -4 -82 -47t-137 -80q-29 -16 -39 -16q-17 0 -6 14l10 10q148 115 276 221q28 19 35 19z" />
    <glyph glyph-name="Gbreve" unicode="&#x11e;" horiz-adv-x="1765" 
d="M1509 397v-229q0 -68 -3.5 -84.5t-22.5 -26.5q-176 -92 -434 -92q-423 0 -674 219q-100 87 -172 246t-72 338q0 224 93.5 400.5t248.5 273.5q205 129 545 129q144 0 313 -35q81 -17 166 -20q25 -3 25 -19q0 -1 -1.5 -15t-4 -38.5t-4.5 -57t-3.5 -81t-1.5 -99.5
q0 -43 -18 -43q-11 0 -14 31q-6 77 -43 135q-45 70 -175.5 118t-306.5 48q-266 0 -438 -135q-94 -75 -148.5 -212t-54.5 -308q0 -189 72 -342q74 -158 145 -226q227 -219 537 -219q160 0 233 43q41 21 41 72v348q0 128 -14 160q-16 36 -78 51q-24 6 -69 6q-17 0 -17 12
q0 17 33 17q22 0 54.5 -0.5t62.5 -1.5t56.5 -2t42.5 -1.5t15 -0.5q-2 0 38.5 1.5t90.5 3t72 1.5q33 0 33 -17q0 -12 -17 -12q-14 0 -51 -6q-40 -7 -55.5 -33t-20.5 -84q-4 -86 -4 -213zM598 1896q0 12 12 21q45 51 64 51q5 0 12 -10q31 -58 105 -97.5t172 -39.5
q179 0 290 123q22 22 31 22q15 -3 -12 -47q-63 -82 -159 -130t-198 -48q-153 0 -256 74q-61 46 -61 81z" />
    <glyph glyph-name="gbreve" unicode="&#x11f;" horiz-adv-x="1558" 
d="M1335 330v-185q0 -60 -3.5 -72.5t-20.5 -23.5q-156 -78 -377 -78q-379 0 -600 185q-99 82 -160 212t-61 285q0 192 84.5 342.5t224.5 235.5q177 104 457 104q113 0 292 -28q82 -16 156 -19q16 0 16 -16q0 -1 -1.5 -14t-3.5 -36t-4 -53t-3.5 -73.5t-1.5 -89.5
q0 -37 -16 -37q-12 0 -15 24q0 75 -42 131.5t-148 96.5q-113 43 -272 43q-58 0 -85.5 -1t-67.5 -8.5t-87 -23.5q-73 -27 -137 -76q-81 -62 -126.5 -176.5t-45.5 -261.5q0 -164 63 -287q62 -130 123 -188q197 -191 465 -191q127 0 195 35q34 21 34 61v295q0 104 -14 134.5
t-68 37.5q-8 2 -20 2.5t-20.5 1.5t-16.5 2.5t-12 4.5t-4 8q0 14 30 14q21 0 50 -0.5t56.5 -1t51 -1t38 -1t13.5 -0.5q-2 0 35 1t83.5 2t66.5 1q27 0 29 -14q1 -11 -16 -14q-4 -1 -9 -1q-25 0 -35 -2q-34 -4 -47.5 -27t-18.5 -75q-4 -78 -4 -184zM479 1645q0 9 10 22
q39 45 60 45q7 0 10 -10q28 -51 98.5 -87t159.5 -36q169 0 268 111q17 20 29 20q14 0 -6 -33q-4 -8 -6 -10q-132 -170 -330 -170q-141 0 -244 74q-49 37 -49 74z" />
    <glyph glyph-name="Gdotaccent" unicode="&#x120;" horiz-adv-x="1765" 
d="M1509 397v-229q0 -68 -3.5 -84.5t-22.5 -26.5q-176 -92 -434 -92q-423 0 -674 219q-100 87 -172 246t-72 338q0 224 93.5 400.5t248.5 273.5q205 129 545 129q144 0 313 -35q81 -17 166 -20q25 -3 25 -19q0 -1 -1.5 -15t-4 -38.5t-4.5 -57t-3.5 -81t-1.5 -99.5
q0 -43 -18 -43q-11 0 -14 31q-6 77 -43 135q-45 70 -175.5 118t-306.5 48q-266 0 -438 -135q-94 -75 -148.5 -212t-54.5 -308q0 -189 72 -342q74 -158 145 -226q227 -219 537 -219q160 0 233 43q41 21 41 72v348q0 128 -14 160q-16 36 -78 51q-24 6 -69 6q-17 0 -17 12
q0 17 33 17q22 0 54.5 -0.5t62.5 -1.5t56.5 -2t42.5 -1.5t15 -0.5q-2 0 38.5 1.5t90.5 3t72 1.5q33 0 33 -17q0 -12 -17 -12q-14 0 -51 -6q-40 -7 -55.5 -33t-20.5 -84q-4 -86 -4 -213zM940 1716q-41 0 -63.5 27t-22 59t23.5 59t62 27q37 0 62.5 -24.5t25.5 -61.5
q0 -36 -25 -61t-63 -25z" />
    <glyph glyph-name="gdotaccent" unicode="&#x121;" horiz-adv-x="1558" 
d="M1335 330v-185q0 -60 -3.5 -72.5t-20.5 -23.5q-156 -78 -377 -78q-379 0 -600 185q-99 82 -160 212t-61 285q0 192 84.5 342.5t224.5 235.5q177 104 457 104q113 0 292 -28q82 -16 156 -19q16 0 16 -16q0 -1 -1.5 -14t-3.5 -36t-4 -53t-3.5 -73.5t-1.5 -89.5
q0 -37 -16 -37q-12 0 -15 24q0 75 -42 131.5t-148 96.5q-113 43 -272 43q-58 0 -85.5 -1t-67.5 -8.5t-87 -23.5q-73 -27 -137 -76q-81 -62 -126.5 -176.5t-45.5 -261.5q0 -164 63 -287q62 -130 123 -188q197 -191 465 -191q127 0 195 35q34 21 34 61v295q0 104 -14 134.5
t-68 37.5q-8 2 -20 2.5t-20.5 1.5t-16.5 2.5t-12 4.5t-4 8q0 14 30 14q21 0 50 -0.5t56.5 -1t51 -1t38 -1t13.5 -0.5q-2 0 35 1t83.5 2t66.5 1q27 0 29 -14q1 -11 -16 -14q-4 -1 -9 -1q-25 0 -35 -2q-34 -4 -47.5 -27t-18.5 -75q-4 -78 -4 -184zM817 1532q-41 0 -63.5 27
t-22 59t23.5 59t62 27q37 0 62.5 -24.5t25.5 -61.5q0 -36 -25 -61t-63 -25z" />
    <glyph glyph-name="uni0122" unicode="&#x122;" horiz-adv-x="1765" 
d="M1509 397v-229q0 -68 -3.5 -84.5t-22.5 -26.5q-176 -92 -434 -92q-423 0 -674 219q-100 87 -172 246t-72 338q0 224 93.5 400.5t248.5 273.5q205 129 545 129q144 0 313 -35q81 -17 166 -20q25 -3 25 -19q0 -1 -1.5 -15t-4 -38.5t-4.5 -57t-3.5 -81t-1.5 -99.5
q0 -43 -18 -43q-11 0 -14 31q-6 77 -43 135q-45 70 -175.5 118t-306.5 48q-266 0 -438 -135q-94 -75 -148.5 -212t-54.5 -308q0 -189 72 -342q74 -158 145 -226q227 -219 537 -219q160 0 233 43q41 21 41 72v348q0 128 -14 160q-16 36 -78 51q-24 6 -69 6q-17 0 -17 12
q0 17 33 17q22 0 54.5 -0.5t62.5 -1.5t56.5 -2t42.5 -1.5t15 -0.5q-2 0 38.5 1.5t90.5 3t72 1.5q33 0 33 -17q0 -12 -17 -12q-14 0 -51 -6q-40 -7 -55.5 -33t-20.5 -84q-4 -86 -4 -213zM854 -229q0 16 47 57t90 41q24 0 45 -37t21 -86q0 -64 -41 -135.5t-119 -130.5
q-55 -43 -55 -15q0 11 14 25q84 84 84 160q0 50 -78 104q-8 5 -8 17z" />
    <glyph glyph-name="uni0123" unicode="&#x123;" horiz-adv-x="1558" 
d="M1335 330v-185q0 -60 -3.5 -72.5t-20.5 -23.5q-156 -78 -377 -78q-379 0 -600 185q-99 82 -160 212t-61 285q0 192 84.5 342.5t224.5 235.5q177 104 457 104q113 0 292 -28q82 -16 156 -19q16 0 16 -16q0 -1 -1.5 -14t-3.5 -36t-4 -53t-3.5 -73.5t-1.5 -89.5
q0 -37 -16 -37q-12 0 -15 24q0 75 -42 131.5t-148 96.5q-113 43 -272 43q-58 0 -85.5 -1t-67.5 -8.5t-87 -23.5q-73 -27 -137 -76q-81 -62 -126.5 -176.5t-45.5 -261.5q0 -164 63 -287q62 -130 123 -188q197 -191 465 -191q127 0 195 35q34 21 34 61v295q0 104 -14 134.5
t-68 37.5q-8 2 -20 2.5t-20.5 1.5t-16.5 2.5t-12 4.5t-4 8q0 14 30 14q21 0 50 -0.5t56.5 -1t51 -1t38 -1t13.5 -0.5q-2 0 35 1t83.5 2t66.5 1q27 0 29 -14q1 -11 -16 -14q-4 -1 -9 -1q-25 0 -35 -2q-34 -4 -47.5 -27t-18.5 -75q-4 -78 -4 -184zM799 -240q0 17 47 58t90 41
q24 0 44.5 -37t20.5 -86q0 -64 -40.5 -135.5t-118.5 -130.5q-56 -44 -56 -15q0 10 15 25q84 84 84 160q0 50 -78 104q-8 5 -8 16z" />
    <glyph glyph-name="Hcircumflex" unicode="&#x124;" horiz-adv-x="1961" 
d="M549 893h868q13 0 13 12v43q0 336 -5 443q-5 57 -22.5 81.5t-65.5 34.5q-24 6 -69 6q-17 0 -17 13q0 16 33 16q22 0 54.5 -0.5t62.5 -1.5t56.5 -2t43 -1.5t15.5 -0.5q-2 0 38 1.5t90 3t72 1.5q33 0 33 -16q0 -13 -16 -13q-15 0 -52 -6q-40 -7 -55 -32.5t-20 -83.5
q-4 -86 -4 -443v-360q0 -350 10 -445q6 -55 22.5 -80.5t57.5 -31.5q52 -8 92 -8q16 0 16 -13q0 -16 -33 -16q-163 0 -251 6q2 0 -38.5 -1.5t-90.5 -3t-72 -1.5q-33 0 -33 16q0 13 16 13q29 0 62 8q44 9 59 112q11 104 11 445v215q0 12 -13 12h-868q-12 0 -12 -12v-215
q0 -350 10 -445q6 -55 22.5 -80.5t57.5 -31.5q52 -8 92 -8q16 0 16 -13q0 -16 -33 -16q-163 0 -251 6q2 0 -38.5 -1.5t-90.5 -3t-72 -1.5q-33 0 -33 16q0 13 16 13q29 0 62 8q44 9 59 112q11 104 11 445v360q0 336 -5 443q-5 57 -22.5 81.5t-65.5 34.5q-24 6 -69 6
q-17 0 -17 13q0 16 33 16q22 0 54.5 -0.5t62.5 -1.5t56.5 -2t43 -1.5t15.5 -0.5q-2 0 38 1.5t90 3t72 1.5q33 0 33 -16q0 -13 -16 -13q-14 0 -52 -6q-40 -7 -55 -32.5t-20 -83.5q-4 -86 -4 -443v-43q0 -12 12 -12zM995 1968q10 0 39 -16q195 -128 264 -178q16 -12 21.5 -19
t3.5 -10t-10 -8l-70 -39q-12 -9 -24 0q-120 93 -218 145q-17 10 -22 10l-33 -14q-130 -64 -244 -129q-34 -18 -43 -18q-17 0 -8 18q1 2 3.5 4t6 5t5.5 5q228 168 292 224q26 20 37 20z" />
    <glyph glyph-name="hcircumflex" unicode="&#x125;" horiz-adv-x="1732" 
d="M498 762h741q12 0 12 10v37q0 299 -4 373q-5 50 -20 69.5t-60 26.5q-36 4 -51 4q-24 0 -25 14q3 14 29 15q21 0 51.5 -0.5t58 -1.5t52 -2t39.5 -1.5t14 -0.5q-2 0 34 1.5t82 3t69 1.5q32 0 33 -15q-3 -12 -23 -14q-9 0 -41 -4q-37 -6 -50 -26t-18 -72q-2 -37 -2 -373
v-307q0 -310 8 -375q9 -90 70 -96q41 -6 72 -6q26 0 26 -14q-3 -14 -30 -15q-25 0 -58.5 0.5t-63 1.5t-55 2t-41 1.5t-14.5 0.5q-137 -6 -182 -6q-31 0 -31 16q0 13 23 13q27 0 47 4q39 6 51 98q10 82 10 369v182q0 12 -12 12h-743q-11 0 -11 -12v-182q0 -283 11 -373
q12 -86 69 -92q41 -6 74 -6q16 0 22 -7.5t-1 -14.5t-23 -7q-26 0 -60 0.5t-64 1.5t-56 2t-41.5 1.5t-14.5 0.5l-183 -6h-1q-32 0 -33 15q3 12 23 14q25 0 49 6q39 9 51 92q10 68 10 379v303q0 305 -4 379q-6 89 -77 98q-50 4 -56 4q-22 0 -22 12q0 15 30 15q78 0 129 -2
q22 -1 42.5 -2t30.5 -1.5t11 -0.5q-2 0 35 1.5t83.5 3t66.5 1.5q30 0 30 -15q0 -12 -20 -12q-13 0 -41 -4q-35 -6 -49 -28t-19 -72q-2 -37 -2 -371v-37q0 -10 13 -10zM887 1737q8 0 35 -15q10 -5 65 -43q59 -41 111 -75q15 -10 29.5 -21.5t23 -17.5t12.5 -9q23 -16 23 -22
q0 -3 -10 -10l-72 -45q-12 -9 -21 0q-97 84 -200 139q-13 8 -25 8q-6 0 -29 -10q-7 -4 -82 -47t-137 -80q-29 -16 -39 -16q-17 0 -6 14q1 1 2 2.5t3 3.5t5 4q162 125 277 221q28 19 35 19z" />
    <glyph glyph-name="Hbar" unicode="&#x126;" horiz-adv-x="1966" 
d="M1602 1112v-164v-360q0 -350 10 -445q6 -55 22.5 -80.5t57.5 -31.5q52 -8 92 -8q16 0 16 -13q0 -16 -33 -16q-163 0 -251 6q2 0 -38.5 -1.5t-90.5 -3t-72 -1.5q-33 0 -33 16q0 13 16 13q29 0 62 8q44 9 59 112q11 104 11 445v174q0 12 -13 12h-868q-12 0 -12 -12v-174
q0 -350 10 -445q6 -55 22.5 -80.5t57.5 -31.5q52 -8 92 -8q16 0 16 -13q0 -16 -33 -16q-163 0 -251 6q2 0 -38.5 -1.5t-90.5 -3t-72 -1.5q-33 0 -33 16q0 13 16 13q29 0 62 8q44 9 59 112q11 104 11 445v360v164h-129q-61 0 -64 8q-2 6 4 28t10 26q6 6 60 6h119q0 64 -5 211
q-5 57 -22.5 81.5t-65.5 34.5q-24 6 -69 6q-17 0 -17 13q0 16 33 16q22 0 54.5 -0.5t62.5 -1.5t56.5 -2t43 -1.5t15.5 -0.5q-2 0 38 1.5t90 3t72 1.5q33 0 33 -16q0 -13 -16 -13q-14 0 -52 -6q-40 -7 -55 -32.5t-20 -83.5q-4 -118 -4 -211h893q0 64 -5 211q-5 57 -22.5 81.5
t-65.5 34.5q-24 6 -69 6q-17 0 -17 13q0 16 33 16q22 0 54.5 -0.5t62.5 -1.5t56.5 -2t43 -1.5t15.5 -0.5q-2 0 38 1.5t90 3t72 1.5q33 0 33 -16q0 -13 -16 -13q-15 0 -52 -6q-40 -7 -55 -32.5t-20 -83.5q-4 -118 -4 -211h139q56 0 59 -6q9 -20 -10 -56q-3 -6 -33 -6h-155z
M1430 864v84v164h-893v-164v-84q0 -12 12 -12h868q13 0 13 12z" />
    <glyph glyph-name="hbar" unicode="&#x127;" horiz-adv-x="1732" 
d="M498 762h741q12 0 12 10v37q0 299 -4 373q-5 50 -20 69.5t-60 26.5q-36 4 -51 4q-24 0 -25 14q3 14 29 15q21 0 51.5 -0.5t58 -1.5t52 -2t39.5 -1.5t14 -0.5q-2 0 34 1.5t82 3t69 1.5q32 0 33 -15q-3 -12 -23 -14q-9 0 -41 -4q-37 -6 -50 -26t-18 -72q-2 -37 -2 -373
v-307q0 -310 8 -375q9 -90 70 -96q41 -6 72 -6q26 0 26 -14q-3 -14 -30 -15q-25 0 -58.5 0.5t-63 1.5t-55 2t-41 1.5t-14.5 0.5q-137 -6 -182 -6q-31 0 -31 16q0 13 23 13q27 0 47 4q39 6 51 98q10 82 10 369v182q0 12 -12 12h-743q-11 0 -11 -12v-182q0 -283 11 -373
q12 -86 69 -92q41 -6 74 -6q16 0 22 -7.5t-1 -14.5t-23 -7q-26 0 -60 0.5t-64 1.5t-56 2t-41.5 1.5t-14.5 0.5l-183 -6h-1q-32 0 -33 15q3 12 23 14q25 0 49 6q39 9 51 92q10 68 10 379v303q0 305 -4 379q-6 89 -77 98q-50 4 -56 4q-22 0 -22 12q0 15 30 15q78 0 129 -2
q22 -1 42.5 -2t30.5 -1.5t11 -0.5q-2 0 35 1.5t83.5 3t66.5 1.5q30 0 30 -15q0 -12 -20 -12q-13 0 -41 -4q-35 -6 -49 -28t-19 -72q-2 -37 -2 -371v-37q0 -10 13 -10zM604 1593h543q25 0 16 -22l-16 -49q-3 -13 -19 -13h-542q-24 0 -21 15l17 57q3 12 22 12z" />
    <glyph glyph-name="Itilde" unicode="&#x128;" horiz-adv-x="901" 
d="M365 588v360q0 336 -5 443q-6 99 -69 114q-27 8 -64 8q-16 0 -16 13q0 16 33 16q25 0 77 -1.5t92 -3t38 -1.5t38 1.5t90 3t72 1.5q33 0 33 -16q0 -13 -16 -13q-14 0 -52 -6q-40 -7 -55 -32.5t-20 -83.5q-4 -86 -4 -443v-360q0 -350 10 -445q6 -55 22.5 -80.5t57.5 -31.5
q52 -8 84 -8q24 0 24 -13q0 -16 -30 -16q-163 0 -254 6q2 0 -38.5 -1.5t-90.5 -3t-72 -1.5q-33 0 -33 16q0 13 23 13q26 0 53 6q46 9 61 114q11 104 11 445zM594 1694q-41 0 -162 47q-116 45 -168 45q-81 0 -133 -64q-17 -20 -31 -20q-3 0 -5 3.5t-0.5 11t7.5 16.5
q91 149 201 149q61 0 186 -51q93 -37 140 -37q49 0 81 15.5t70 58.5q15 18 25 18q21 0 2 -31q-103 -161 -213 -161z" />
    <glyph glyph-name="itilde" unicode="&#x129;" horiz-adv-x="802" 
d="M317 500v307q0 301 -4 375q-6 85 -59 94q-6 1 -17.5 2.5t-19 2.5t-10.5 1q-23 3 -23 14q0 15 31 15q19 0 74 -2t80 -2l32 -2q-2 0 35 1.5t83.5 3t66.5 1.5q30 0 30 -15q0 -11 -22 -14q-16 -4 -37 -4q-42 -6 -54.5 -26t-15.5 -72q-2 -18 -2 -373v-307q0 -316 9 -375
q6 -49 19 -68t50 -26q31 -8 78 -8q23 -3 23 -15q0 -14 -29 -14q-26 0 -59.5 0.5t-63.5 1.5t-55.5 2t-41 1.5t-14.5 0.5l-183 -6h-1q-30 0 -32 14q-2 9 13 13q6 2 13 2q25 0 49 6q38 9 47 98q10 82 10 373zM545 1479q-45 0 -152 45q-110 43 -153 43q-71 0 -125 -60
q-15 -18 -27 -18q-3 0 -5 3.5t-0.5 10.5t7.5 15q92 141 184 141q61 0 179 -47q90 -35 125 -35q76 0 143 70q16 16 22 16t7 -8.5t-5 -18.5q-100 -157 -200 -157z" />
    <glyph glyph-name="Imacron" unicode="&#x12a;" horiz-adv-x="901" 
d="M365 588v360q0 336 -5 443q-6 99 -69 114q-27 8 -64 8q-16 0 -16 13q0 16 33 16q25 0 77 -1.5t92 -3t38 -1.5t38 1.5t90 3t72 1.5q33 0 33 -16q0 -13 -16 -13q-14 0 -52 -6q-40 -7 -55 -32.5t-20 -83.5q-4 -86 -4 -443v-360q0 -350 10 -445q6 -55 22.5 -80.5t57.5 -31.5
q52 -8 84 -8q24 0 24 -13q0 -16 -30 -16q-163 0 -254 6q2 0 -38.5 -1.5t-90.5 -3t-72 -1.5q-33 0 -33 16q0 13 23 13q26 0 53 6q46 9 61 114q11 104 11 445zM193 1815h542q26 0 17 -21l-17 -55q-3 -13 -18 -13h-543q-12 0 -17 3.5t-3 11.5l16 61q3 13 23 13z" />
    <glyph glyph-name="imacron" unicode="&#x12b;" horiz-adv-x="802" 
d="M317 500v307q0 301 -4 375q-6 85 -59 94q-6 1 -17.5 2.5t-19 2.5t-10.5 1q-23 3 -23 14q0 15 31 15q19 0 74 -2t80 -2l32 -2q-2 0 35 1.5t83.5 3t66.5 1.5q30 0 30 -15q0 -11 -22 -14q-16 -4 -37 -4q-42 -6 -54.5 -26t-15.5 -72q-2 -18 -2 -373v-307q0 -316 9 -375
q6 -49 19 -68t50 -26q31 -8 78 -8q23 -3 23 -15q0 -14 -29 -14q-26 0 -59.5 0.5t-63.5 1.5t-55.5 2t-41 1.5t-14.5 0.5l-183 -6h-1q-30 0 -32 14q-2 9 13 13q6 2 13 2q25 0 49 6q38 9 47 98q10 82 10 373zM139 1593h543q25 0 16 -22l-16 -49q-3 -13 -18 -13h-543
q-24 0 -21 15l17 57q3 12 22 12z" />
    <glyph glyph-name="Ibreve" unicode="&#x12c;" horiz-adv-x="630" 
d="M518 1219q-1 -91 -65.5 -153t-153.5 -62q-92 0 -152.5 59.5t-60.5 146.5q0 91 62 153t153 62q97 0 157 -59t60 -147zM422 1219q0 54 -33 91.5t-92 37.5q-53 0 -87 -40t-34 -94t36 -90.5t87 -36.5t87 38.5t36 93.5z" />
    <glyph glyph-name="ibreve" unicode="&#x12d;" 
d="M1034 2071q28 -28 49 -58q16 -22 -8 -22q-12 0 -76 -25q-112 -47 -208 -96q-21 -12 -33 -12q-15 0 -15 6q0 4 19 26q108 108 180 164q43 31 59 33.5t33 -16.5zM524 1898q10 0 37 -18q99 -60 232 -154q22 -16 22 -24q0 -7 -8 -12l-57 -39q-13 -6 -21 2q-23 20 -104 78
q-38 26 -97 59q-17 10 -24 10t-31 -12q-80 -42 -209 -123q-35 -18 -45 -18q-22 0 2 24q1 1 4 3t4 3q17 17 131 101q122 90 132 100q26 20 32 20z" />
    <glyph glyph-name="Iogonek" unicode="&#x12e;" horiz-adv-x="901" 
d="M537 948v-360q0 -350 10 -445q6 -55 22.5 -80.5t57.5 -31.5q52 -8 84 -8q24 0 24 -13q0 -16 -30 -16q-61 0 -197 4q-90 -110 -90 -227q0 -53 30.5 -82t81.5 -29q52 0 105 35q24 15 24 0q0 -10 -14 -27q-26 -38 -83.5 -67t-117.5 -29q-73 0 -116 42t-43 107q0 68 51.5 144
t128.5 135h-14q2 0 -38.5 -1.5t-90.5 -3t-72 -1.5q-33 0 -33 16q0 13 23 13q26 0 53 6q46 9 61 114q11 104 11 445v360q0 336 -5 443q-6 99 -69 114q-27 8 -64 8q-16 0 -16 13q0 16 33 16q25 0 77 -1.5t92 -3t38 -1.5t38 1.5t90 3t72 1.5q33 0 33 -16q0 -13 -16 -13
q-14 0 -52 -6q-40 -7 -55 -32.5t-20 -83.5q-4 -86 -4 -443z" />
    <glyph glyph-name="iogonek" unicode="&#x12f;" horiz-adv-x="802" 
d="M485 807v-307q0 -316 9 -375q6 -49 19 -68t50 -26q31 -8 78 -8q23 -3 23 -15q0 -14 -29 -14h-80q-160 -103 -160 -232q0 -108 105 -108q52 0 94 22q29 16 29 0q0 -11 -15 -26q-69 -78 -192 -78q-74 0 -119 41.5t-45 105.5q0 71 73 147.5t183 129.5l-107 4l-183 -6h-1
q-30 0 -32 14q-2 9 13 13q6 2 13 2q25 0 49 6q38 9 47 98q10 82 10 373v307q0 301 -4 375q-6 85 -59 94q-6 1 -17.5 2.5t-19 2.5t-10.5 1q-23 3 -23 14q0 15 31 15q19 0 74 -2t80 -2l32 -2q-2 0 35 1.5t83.5 3t66.5 1.5q30 0 30 -15q0 -11 -22 -14q-16 -4 -37 -4
q-42 -6 -54.5 -26t-15.5 -72q-2 -18 -2 -373z" />
    <glyph glyph-name="Idotaccent" unicode="&#x130;" horiz-adv-x="901" 
d="M365 588v360q0 336 -5 443q-6 99 -69 114q-27 8 -64 8q-16 0 -16 13q0 16 33 16q25 0 77 -1.5t92 -3t38 -1.5t38 1.5t90 3t72 1.5q33 0 33 -16q0 -13 -16 -13q-14 0 -52 -6q-40 -7 -55 -32.5t-20 -83.5q-4 -86 -4 -443v-360q0 -350 10 -445q6 -55 22.5 -80.5t57.5 -31.5
q52 -8 84 -8q24 0 24 -13q0 -16 -30 -16q-163 0 -254 6q2 0 -38.5 -1.5t-90.5 -3t-72 -1.5q-33 0 -33 16q0 13 23 13q26 0 53 6q46 9 61 114q11 104 11 445zM449 1716q-41 0 -63.5 27t-22 59t23.5 59t62 27q37 0 62.5 -24.5t25.5 -61.5q0 -36 -25 -61t-63 -25z" />
    <glyph glyph-name="dotlessi" unicode="&#x131;" horiz-adv-x="802" 
d="M317 500v307q0 301 -4 375q-6 85 -59 94q-6 1 -17.5 2.5t-19 2.5t-10.5 1q-23 3 -23 14q0 15 31 15q19 0 74 -2t80 -2l32 -2q-2 0 35 1.5t83.5 3t66.5 1.5q30 0 30 -15q0 -11 -22 -14q-16 -4 -37 -4q-42 -6 -54.5 -26t-15.5 -72q-2 -18 -2 -373v-307q0 -316 9 -375
q6 -49 19 -68t50 -26q31 -8 78 -8q23 -3 23 -15q0 -14 -29 -14q-26 0 -59.5 0.5t-63.5 1.5t-55.5 2t-41 1.5t-14.5 0.5l-183 -6h-1q-30 0 -32 14q-2 9 13 13q6 2 13 2q25 0 49 6q38 9 47 98q10 82 10 373z" />
    <glyph glyph-name="IJ" unicode="&#x132;" 
d="M643 1903q-45 0 -149 39q-104 38 -142 38q-75 0 -135 -57q-14 -14 -24 -14q-14 0 4 24q34 45 87.5 84t92.5 39q37 0 170 -47q92 -29 121 -29q48 0 77.5 11t65.5 43q13 10 20 10q12 -3 -4 -23q-87 -118 -184 -118zM199 1794q0 7 8 12q59 35 69 35q9 0 15 -6
q78 -96 239 -96q148 0 258 90q14 14 27 14t-2 -24l-8 -9q-58 -64 -144.5 -99.5t-171.5 -35.5q-142 0 -225 51q-65 41 -65 68z" />
    <glyph glyph-name="ij" unicode="&#x133;" 
d="M543 2114q60 0 97.5 -31t37.5 -82q0 -101 -176 -160q-31 -9 -31 6q0 9 16 19q88 58 88 123q0 63 -79 63q-60 0 -107 -35q-20 -14 -20 0q-4 12 8 21q70 76 166 76zM199 1798q0 9 14 17q45 26 61 26q10 0 15 -8q33 -46 96 -75t139 -29q164 0 264 100q18 18 27 18
q17 0 -2 -28l-6 -11q-119 -149 -332 -149q-121 0 -209 61q-26 17 -46.5 41.5t-20.5 36.5z" />
    <glyph glyph-name="Jcircumflex" unicode="&#x134;" horiz-adv-x="847" 
d="M537 948v-491q0 -280 -9 -391q-9 -109 -53 -213q-66 -153 -299 -314q-63 -44 -80 -51q-12 -4 -14 -4q-15 0 -14 12q1 13 28 31q38 23 72 57q74 74 113 144q37 69 61 221q23 164 23 407v592q0 336 -5 443q-5 57 -22.5 81.5t-65.5 34.5q-24 6 -63 6q-21 0 -23 12
q-2 10 15 15q7 2 16 2q22 0 54.5 -0.5t63 -1.5t57.5 -2t43.5 -1.5t15.5 -0.5q-2 0 38 1.5t90 3t72 1.5q33 0 33 -16q0 -13 -22 -13q-4 0 -10.5 -0.5t-18.5 -1.5t-21 -2q-37 -4 -51.5 -30t-19.5 -88q-4 -86 -4 -443zM455 1935q10 0 39 -16q195 -128 264 -178
q23 -17 24.5 -24.5t-10.5 -12.5l-70 -39q-12 -9 -24 0q-122 95 -217 145q-18 11 -23 11l-32 -15q-130 -64 -244 -129q-35 -18 -43 -18q-17 0 -8 18q1 2 14 15q242 178 293 223q26 20 37 20z" />
    <glyph glyph-name="jcircumflex" unicode="&#x135;" horiz-adv-x="761" 
d="M487 807v-391q0 -207 -2 -252q-3 -71 -12 -146q-11 -70 -41 -143q-52 -126 -278 -276q-7 -3 -36 -21.5t-36 -21.5q-2 -2 -12 -2q-15 0 -15 10q0 8 27 26q32 18 57 43q72 69 105 125q34 58 55 189q23 148 23 360v500q0 281 -5 373q-5 44 -22 66t-57 32q-32 4 -62 4
q-14 0 -14 12q0 17 31 17q26 0 89 -2t87 -2l34 -2q-2 0 35 1.5t84 3t68 1.5q28 0 28 -17q0 -12 -12 -12q-1 0 -6 -0.5t-16 -1.5t-25 -2q-61 -15 -67 -100q-5 -92 -5 -371zM410 1714q9 0 34 -14q14 -7 66 -43q87 -60 111 -76q14 -10 29 -21t23.5 -17t12.5 -9q23 -16 23 -23
q0 -3 -11 -10l-71 -45q-12 -9 -21 0q-97 84 -200 139q-15 9 -25 9q-3 0 -29 -11q-7 -4 -82 -47t-137 -80q-29 -16 -39 -16q-17 0 -6 14q1 1 2 3t3 4t5 4q162 125 277 221q27 18 35 18z" />
    <glyph glyph-name="uni0136" unicode="&#x136;" horiz-adv-x="1583" 
d="M528 948v-131q30 27 312 324q152 156 155 159q96 99 109 121q22 31 22 52q0 29 -26 38q-19 9 -19 19q0 12 31 12q18 0 57.5 -3t65.5 -3q7 0 121 4q55 2 96 2q35 0 35 -14q0 -12 -23 -15q-60 -6 -104 -24q-73 -27 -213 -164q-378 -363 -467 -465q117 -127 309 -321
q212 -218 289 -289q124 -115 195 -162q65 -43 143 -59q27 -6 59 -6q28 0 29 -14q-5 -13 -31 -15h-151q-131 0 -187 20q-55 17 -135 78q-98 78 -307 303q-221 232 -365 404v-211q0 -340 11 -445q6 -55 22.5 -80.5t56.5 -31.5q19 -2 40 -4t31 -3t19.5 -3t13 -5t3.5 -8
q0 -14 -31 -14q-163 0 -252 6q2 0 -35.5 -1.5t-85.5 -3t-71 -1.5q-32 0 -33 15q3 12 23 14q26 0 53 6q46 9 61 114q11 104 11 445v360q0 336 -5 443q-6 99 -69 114q-27 8 -74 8q-22 0 -22 13q0 16 32 16q25 0 79 -1.5t96 -3t40 -1.5t38.5 1.5t90.5 3t72 1.5q33 0 33 -14
q0 -12 -23 -15l-45 -4q-37 -4 -54 -32t-22 -86q-4 -86 -4 -443zM915 -141q24 0 45 -37t21 -86q0 -64 -41 -135.5t-119 -130.5q-55 -43 -55 -15q0 11 14 25q84 84 84 160q0 50 -78 104q-8 5 -8 16q0 17 47 58t90 41z" />
    <glyph glyph-name="uni0137" unicode="&#x137;" horiz-adv-x="1409" 
d="M485 807v-96q244 216 410 397q79 89 90 104q16 22 16 37q0 25 -32 33q-23 7 -23 16q0 13 21 13l23 -1q24 -2 57.5 -3.5t58.5 -1.5q9 0 115 4q51 2 86 2q32 0 32 -13t-22 -16q-53 -3 -100 -20q-32 -11 -66 -35q-32 -22 -117 -101q-159 -147 -233 -217q-183 -172 -185 -174
q320 -329 529 -520q176 -159 295 -186q9 -3 47 -6q19 -3 26 -10t-1.5 -13t-28.5 -6h-133q-119 0 -166 16q-56 16 -117 60q-78 57 -262 247q-191 194 -320 345v-162q0 -316 9 -375q6 -49 19 -68t50 -26q31 -8 78 -8q23 -3 23 -15q0 -14 -29 -14q-26 0 -59.5 0.5t-63.5 1.5
t-55.5 2t-41 1.5t-14.5 0.5l-183 -6h-1q-30 0 -32 14q-2 9 13 13q6 2 13 2q25 0 49 6q38 9 47 98q10 82 10 373v307q0 301 -4 375q-6 85 -59 94q-6 1 -17.5 2.5t-19 2.5t-10.5 1q-23 3 -23 14q0 15 31 15q19 0 74 -2t80 -2l32 -2q-2 0 35 1.5t83.5 3t66.5 1.5q30 0 30 -15
q0 -11 -22 -14q-16 -4 -37 -4q-42 -6 -54.5 -26t-15.5 -72q-2 -18 -2 -373zM881 -141q24 0 44.5 -37t20.5 -86q0 -64 -41 -135.5t-119 -130.5q-55 -43 -55 -15q0 11 14 25q84 84 84 160q0 51 -77 104q-9 6 -9 16q0 16 48 58q47 41 90 41z" />
    <glyph glyph-name="kgreenlandic" unicode="&#x138;" horiz-adv-x="1409" 
d="M485 807v-96q244 216 410 397q79 89 90 104q16 22 16 37q0 25 -32 33q-23 7 -23 16q0 13 21 13l23 -1q24 -2 57.5 -3.5t58.5 -1.5q9 0 115 4q51 2 86 2q32 0 32 -13t-22 -16q-53 -3 -100 -20q-32 -11 -66 -35q-32 -22 -117 -101q-159 -147 -233 -217q-183 -172 -185 -174
q320 -329 529 -520q176 -159 295 -186q9 -3 47 -6q19 -3 26 -10t-1.5 -13t-28.5 -6h-133q-119 0 -166 16q-56 16 -117 60q-78 57 -262 247q-191 194 -320 345v-162q0 -316 9 -375q6 -49 19 -68t50 -26q31 -8 78 -8q23 -3 23 -15q0 -14 -29 -14q-26 0 -59.5 0.5t-63.5 1.5
t-55.5 2t-41 1.5t-14.5 0.5l-183 -6h-1q-30 0 -32 14q-2 9 13 13q6 2 13 2q25 0 49 6q38 9 47 98q10 82 10 373v307q0 301 -4 375q-6 85 -59 94q-6 1 -17.5 2.5t-19 2.5t-10.5 1q-23 3 -23 14q0 15 31 15q19 0 74 -2t80 -2l32 -2q-2 0 35 1.5t83.5 3t66.5 1.5q30 0 30 -15
q0 -11 -22 -14q-16 -4 -37 -4q-42 -6 -54.5 -26t-15.5 -72q-2 -18 -2 -373z" />
    <glyph glyph-name="Lacute" unicode="&#x139;" horiz-adv-x="1212" 
d="M537 948v-364q0 -238 9.5 -340.5t35.5 -128.5q47 -47 245 -47q111 0 164.5 11t83.5 50q44 53 53 123q3 27 19 27q12 0 12 -31q0 -90 -31 -205q-8 -26 -18 -36.5t-33 -14.5t-78 -4q-85 0 -266 6t-282 6q-17 0 -98 -3t-103 -3q-33 0 -33 16q0 13 16 13q29 0 62 8
q44 9 59 112q11 104 11 445v360q0 336 -5 443q-5 57 -22.5 81.5t-65.5 34.5q-24 6 -69 6q-17 0 -17 13q0 16 33 16q22 0 54.5 -0.5t62.5 -1.5t56.5 -2t43 -1.5t15.5 -0.5q-2 0 43.5 1.5t100.5 3t77 1.5q33 0 33 -16q0 -13 -17 -13q-30 0 -67 -6q-42 -7 -58.5 -33t-21.5 -83
q-4 -86 -4 -443zM715 1923q41 -36 65 -82q14 -26 -8 -26q-35 0 -84 -17q-126 -47 -291 -125q-27 -12 -32 -12q-28 0 2 31l2 2q175 164 252 213q43 32 59 32q19 0 35 -16z" />
    <glyph glyph-name="lacute" unicode="&#x13a;" horiz-adv-x="1073" 
d="M485 807v-311q0 -347 43 -387q47 -41 215 -41q67 0 94.5 2.5t63.5 15.5q39 11 60 39q29 44 38 102q5 25 17 24.5t12 -26.5q0 -89 -24 -184q-7 -25 -12.5 -32.5t-26.5 -13t-70 -5.5q-5 0 -223 4q-164 6 -275 6q-21 0 -88 -3t-92 -3q-33 0 -33 16q0 13 23 13q29 0 49 4
q44 9 53 96q8 47 8 377v307q0 297 -4 371q-3 51 -18.5 73.5t-63.5 28.5q-8 2 -51 2q-21 0 -23 12q-2 10 15 15q7 2 16 2q38 0 110.5 -2t88.5 -2l14 -2q2 0 13.5 0.5l34.5 1.5t47 2q55 2 116 2q25 0 27 -14q1 -10 -14 -14q-4 -1 -9 -1q-1 0 -55 -4q-40 -6 -54.5 -27
t-19.5 -73q-2 -18 -2 -371zM686 1720q49 -39 68 -71q16 -25 -6 -25q-2 0 -14.5 -3t-31.5 -8.5t-30 -10.5q-103 -48 -262 -142l-7 -2q-6 -4 -11 -7t-11.5 -5t-10 -1t-3.5 7q0 11 14 25q204 210 217 221q41 35 53 35q19 0 35 -13z" />
    <glyph glyph-name="uni013B" unicode="&#x13b;" horiz-adv-x="1212" 
d="M537 948v-364q0 -238 9.5 -340.5t35.5 -128.5q47 -47 245 -47q111 0 164.5 11t83.5 50q44 53 53 123q3 27 19 27q12 0 12 -31q0 -90 -31 -205q-8 -26 -18 -36.5t-33 -14.5t-78 -4q-85 0 -266 6t-282 6q-17 0 -98 -3t-103 -3q-33 0 -33 16q0 13 16 13q29 0 62 8
q44 9 59 112q11 104 11 445v360q0 336 -5 443q-5 57 -22.5 81.5t-65.5 34.5q-24 6 -69 6q-17 0 -17 13q0 16 33 16q22 0 54.5 -0.5t62.5 -1.5t56.5 -2t43 -1.5t15.5 -0.5q-2 0 43.5 1.5t100.5 3t77 1.5q33 0 33 -16q0 -13 -17 -13q-30 0 -67 -6q-42 -7 -58.5 -33t-21.5 -83
q-4 -86 -4 -443zM627 -240q0 17 47 58t90 41q24 0 44.5 -37t20.5 -86q0 -64 -40.5 -135.5t-118.5 -130.5q-56 -44 -56 -15q0 10 15 25q84 84 84 160q0 50 -78 104q-8 5 -8 16z" />
    <glyph glyph-name="uni013C" unicode="&#x13c;" horiz-adv-x="1073" 
d="M485 807v-311q0 -347 43 -387q47 -41 215 -41q67 0 94.5 2.5t63.5 15.5q39 11 60 39q29 44 38 102q5 25 17 24.5t12 -26.5q0 -89 -24 -184q-7 -25 -12.5 -32.5t-26.5 -13t-70 -5.5q-5 0 -223 4q-164 6 -275 6q-21 0 -88 -3t-92 -3q-33 0 -33 16q0 13 23 13q29 0 49 4
q44 9 53 96q8 47 8 377v307q0 297 -4 371q-3 51 -18.5 73.5t-63.5 28.5q-8 2 -51 2q-21 0 -23 12q-2 10 15 15q7 2 16 2q38 0 110.5 -2t88.5 -2l14 -2q2 0 13.5 0.5l34.5 1.5t47 2q55 2 116 2q25 0 27 -14q1 -10 -14 -14q-4 -1 -9 -1q-1 0 -55 -4q-40 -6 -54.5 -27
t-19.5 -73q-2 -18 -2 -371zM616 -219q0 15 48 57q47 41 90 41q24 0 44.5 -37t20.5 -86q0 -64 -41 -135.5t-119 -130.5q-55 -43 -55 -14q0 10 14 24q84 84 84 160q0 51 -77 104q-9 6 -9 17z" />
    <glyph glyph-name="Lcaron" unicode="&#x13d;" horiz-adv-x="1212" 
d="M537 948v-364q0 -238 9.5 -340.5t35.5 -128.5q47 -47 245 -47q111 0 164.5 11t83.5 50q44 53 53 123q3 27 19 27q12 0 12 -31q0 -90 -31 -205q-8 -26 -18 -36.5t-33 -14.5t-78 -4q-85 0 -266 6t-282 6q-17 0 -98 -3t-103 -3q-33 0 -33 16q0 13 16 13q29 0 62 8
q44 9 59 112q11 104 11 445v360q0 336 -5 443q-5 57 -22.5 81.5t-65.5 34.5q-24 6 -69 6q-17 0 -17 13q0 16 33 16q22 0 54.5 -0.5t62.5 -1.5t56.5 -2t43 -1.5t15.5 -0.5q-2 0 43.5 1.5t100.5 3t77 1.5q33 0 33 -16q0 -13 -17 -13q-30 0 -67 -6q-42 -7 -58.5 -33t-21.5 -83
q-4 -86 -4 -443zM1065 1071q-9 -82 -31 -82q-16 0 -22 66q-29 362 -54 446q-4 12 5 15q20 12 63 25t61 13q19 0 19 -41q0 -143 -41 -442z" />
    <glyph glyph-name="lcaron" unicode="&#x13e;" horiz-adv-x="1073" 
d="M485 807v-311q0 -347 43 -387q47 -41 215 -41q67 0 94.5 2.5t63.5 15.5q39 11 60 39q29 44 38 102q5 25 17 24.5t12 -26.5q0 -89 -24 -184q-7 -25 -12.5 -32.5t-26.5 -13t-70 -5.5q-5 0 -223 4q-164 6 -275 6q-21 0 -88 -3t-92 -3q-33 0 -33 16q0 13 23 13q29 0 49 4
q44 9 53 96q8 47 8 377v307q0 297 -4 371q-3 51 -18.5 73.5t-63.5 28.5q-8 2 -51 2q-21 0 -23 12q-2 10 15 15q7 2 16 2q38 0 110.5 -2t88.5 -2l14 -2q2 0 13.5 0.5l34.5 1.5t47 2q55 2 116 2q25 0 27 -14q1 -10 -14 -14q-4 -1 -9 -1q-1 0 -55 -4q-40 -6 -54.5 -27
t-19.5 -73q-2 -18 -2 -371zM981 846q-9 -82 -31 -82q-16 0 -22 65q-29 363 -54 447q-4 11 5 14q20 12 64 25.5t61 13.5q18 0 18 -41q0 -143 -41 -442z" />
    <glyph glyph-name="Ldot" unicode="&#x13f;" horiz-adv-x="1212" 
d="M537 948v-364q0 -238 9.5 -340.5t35.5 -128.5q47 -47 245 -47q111 0 164.5 11t83.5 50q44 53 53 123q3 27 19 27q12 0 12 -31q0 -90 -31 -205q-8 -26 -18 -36.5t-33 -14.5t-78 -4q-85 0 -266 6t-282 6q-17 0 -98 -3t-103 -3q-33 0 -33 16q0 13 16 13q29 0 62 8
q44 9 59 112q11 104 11 445v360q0 336 -5 443q-5 57 -22.5 81.5t-65.5 34.5q-24 6 -69 6q-17 0 -17 13q0 16 33 16q22 0 54.5 -0.5t62.5 -1.5t56.5 -2t43 -1.5t15.5 -0.5q-2 0 43.5 1.5t100.5 3t77 1.5q33 0 33 -16q0 -13 -17 -13q-30 0 -67 -6q-42 -7 -58.5 -33t-21.5 -83
q-4 -86 -4 -443zM940 1016q55 0 193 -33q43 -9 43 -25q0 -2 -11 -28q-37 -62 -159 -170q-27 -21 -29 -21q-5 0 -7 3.5t0 12t9 21.5q14 46 14 115q0 72 -49 96q-20 9 -20 17q0 12 16 12z" />
    <glyph glyph-name="ldot" unicode="&#x140;" horiz-adv-x="1073" 
d="M485 807v-311q0 -347 43 -387q47 -41 215 -41q67 0 94.5 2.5t63.5 15.5q39 11 60 39q29 44 38 102q5 25 17 24.5t12 -26.5q0 -89 -24 -184q-7 -25 -12.5 -32.5t-26.5 -13t-70 -5.5q-5 0 -223 4q-164 6 -275 6q-21 0 -88 -3t-92 -3q-33 0 -33 16q0 13 23 13q29 0 49 4
q44 9 53 96q8 47 8 377v307q0 297 -4 371q-3 51 -18.5 73.5t-63.5 28.5q-8 2 -51 2q-21 0 -23 12q-2 10 15 15q7 2 16 2q38 0 110.5 -2t88.5 -2l14 -2q2 0 13.5 0.5l34.5 1.5t47 2q55 2 116 2q25 0 27 -14q1 -10 -14 -14q-4 -1 -9 -1q-1 0 -55 -4q-40 -6 -54.5 -27
t-19.5 -73q-2 -18 -2 -371zM807 915q58 0 192 -32q43 -9 43 -25q0 -6 -10 -29q-36 -60 -160 -170q-23 -20 -28 -20t-7 3.5t0 12t9 21.5q14 46 14 115q0 72 -49 96q-20 9 -20 16q0 12 16 12z" />
    <glyph glyph-name="Lslash" unicode="&#x141;" horiz-adv-x="1232" 
d="M911 936l-354 -191v-161q0 -238 9.5 -340.5t35.5 -128.5q47 -47 246 -47q111 0 164.5 11t83.5 50q44 53 53 123q3 27 18 27q13 0 13 -31q0 -90 -31 -205q-8 -26 -18 -36.5t-33 -14.5t-78 -4q-84 0 -266 6t-283 6q-17 0 -98 -3t-103 -3q-32 0 -32 16q0 13 16 13q28 0 61 8
q45 9 60 112q10 95 10 445v65l-180 -96q-9 -6 -15 2q-18 27 -18 62q0 6 4 10l209 112v205q0 357 -4 443q-5 57 -22.5 81.5t-65.5 34.5q-24 6 -70 6q-16 0 -16 13q0 16 33 16q22 0 54.5 -0.5t62.5 -1.5t56.5 -2t42.5 -1.5t15 -0.5q-2 0 43.5 1.5t100.5 3t77 1.5q33 0 33 -16
q0 -13 -16 -13q-31 0 -68 -6q-42 -7 -58.5 -33t-21.5 -83q-4 -86 -4 -443v-110l317 172q7 4 13 -2q18 -29 26 -62q0 -8 -2 -10z" />
    <glyph glyph-name="lslash" unicode="&#x142;" horiz-adv-x="1091" 
d="M815 799l-313 -164v-139q0 -347 43 -387q47 -41 215 -41q67 0 94.5 2.5t63.5 15.5q37 11 59 39q30 47 39 102q4 25 16 24.5t12 -26.5q0 -89 -24 -184q-7 -25 -12.5 -32.5t-26.5 -13t-70 -5.5q-5 0 -223 4q-164 6 -274 6q-21 0 -88.5 -3t-92.5 -3q-32 0 -32 16q0 13 22 13
q29 0 49 4q45 9 54 96q8 47 8 377v49l-156 -82q-9 -3 -12 2q-16 26 -16 59q0 5 4 9l180 94v176q0 297 -4 371q-3 51 -18.5 73.5t-63.5 28.5q-8 2 -51 2q-21 0 -23 12q-2 10 15 15q7 2 16 2q38 0 110 -2t88 -2l15 -2q2 0 13.5 0.5t34 1.5t46.5 2q55 2 117 2q25 0 27 -14
q1 -10 -14 -14q-4 -1 -9 -1q-1 0 -55 -4q-40 -6 -54.5 -27t-19.5 -73q-2 -18 -2 -371v-88l278 147q9 3 11 -2q17 -20 26 -57q2 -4 -2 -8z" />
    <glyph glyph-name="Nacute" unicode="&#x143;" horiz-adv-x="1939" 
d="M297 295v303v221.5t0.5 177t1 123.5t0.5 81.5v29.5v237q0 103 23 103q11 0 49 -41q18 -21 22 -25q41 -46 651 -702q32 -34 74 -79.5t105 -114.5t106 -115q185 -204 207 -226l-23 1041q-2 104 -17 143t-62 51q-52 10 -88 10q-27 0 -29 12q-2 8 12 13q11 4 29 4
q82 0 133 -2q22 -1 42 -2t29 -2h9q1 0 8 0.5t23 1.5t34 2q39 2 109 2q37 0 37 -14q0 -12 -23 -15q-5 -1 -23 -3.5t-30 -4.5q-30 -7 -44.5 -23.5t-21 -53t-6.5 -107.5l-4 -1196q0 -51 -0.5 -79.5t-3 -43.5t-5.5 -18.5t-9 -3.5q-19 0 -150 131q-137 137 -307 315
q-113 115 -227 240q-402 438 -535 587l27 -981q1 -123 19 -174t61 -63q46 -12 102 -12q16 0 16 -13q0 -16 -36 -16q-29 0 -61 0.5t-58.5 1.5t-48.5 2t-35 1.5t-14 0.5l-70 -4q-47 -2 -127 -2q-33 0 -33 16q0 13 17 13q46 0 84 12q36 10 48.5 63t12.5 197zM1200 1923
q43 -37 66 -82q12 -26 -9 -26q-34 0 -83 -17q-126 -47 -291 -125q-27 -12 -33 -12q-28 0 2 31l2 2q176 164 252 213q43 32 59 32q19 0 35 -16z" />
    <glyph glyph-name="nacute" unicode="&#x144;" horiz-adv-x="1718" 
d="M262 250v1001q0 84 23 84q8 0 63 -55q11 -13 590 -604q55 -53 238 -236l180 -180l-23 852q-2 86 -15 119t-54 43q-41 8 -80 8q-25 0 -25 16q0 13 37 13q29 0 123 -4l70 -2l7 1q6 0 20.5 1t31.5 2q39 2 104 2q31 0 30 -14q-1 -11 -19 -15q-4 0 -52 -6q-37 -8 -49 -37.5
t-12 -116.5l-4 -1028q0 -50 -2 -74.5t-5.5 -31t-11.5 -6.5q-21 0 -135 108q-4 1 -278 272q-47 47 -112 110t-81 79q-54 56 -214 221.5t-255 265.5l27 -800q5 -113 18 -156.5t49 -50.5q31 -8 84 -8q22 0 24 -12q2 -10 -14 -15q-8 -2 -18 -2q-28 0 -58.5 0.5t-54 1.5t-42.5 2
t-30.5 1.5t-12.5 0.5t-12.5 -0.5t-30 -1.5t-40.5 -2t-48 -1.5t-48 -0.5q-29 0 -31 14q-1 11 19 14q5 1 10 1q40 0 64 8q32 10 43.5 56.5t11.5 162.5zM1069 1700q47 -38 68 -72q15 -24 -7 -24q-2 0 -14.5 -3t-31 -9t-29.5 -11q-124 -57 -262 -141l-7 -2q-6 -4 -11 -7t-11 -5
t-10 -1t-4 7q0 10 14 24q204 210 217 221q41 35 53 35q20 0 35 -12z" />
    <glyph glyph-name="uni0145" unicode="&#x145;" horiz-adv-x="1939" 
d="M297 295v303v221.5t0.5 177t1 123.5t0.5 81.5v29.5v237q0 103 23 103q11 0 49 -41q18 -21 22 -25q41 -46 651 -702q32 -34 74 -79.5t105 -114.5t106 -115q185 -204 207 -226l-23 1041q-2 104 -17 143t-62 51q-52 10 -88 10q-27 0 -29 12q-2 8 12 13q11 4 29 4
q82 0 133 -2q22 -1 42 -2t29 -2h9q1 0 8 0.5t23 1.5t34 2q39 2 109 2q37 0 37 -14q0 -12 -23 -15q-5 -1 -23 -3.5t-30 -4.5q-30 -7 -44.5 -23.5t-21 -53t-6.5 -107.5l-4 -1196q0 -51 -0.5 -79.5t-3 -43.5t-5.5 -18.5t-9 -3.5q-19 0 -150 131q-137 137 -307 315
q-113 115 -227 240q-402 438 -535 587l27 -981q1 -123 19 -174t61 -63q46 -12 102 -12q16 0 16 -13q0 -16 -36 -16q-29 0 -61 0.5t-58.5 1.5t-48.5 2t-35 1.5t-14 0.5l-70 -4q-47 -2 -127 -2q-33 0 -33 16q0 13 17 13q46 0 84 12q36 10 48.5 63t12.5 197zM872 -233
q0 15 48 57q47 41 90 41q24 0 44.5 -37t20.5 -86q0 -64 -41 -135.5t-119 -130.5q-55 -43 -55 -15q0 11 14 25q84 84 84 160q0 51 -77 104q-9 6 -9 17z" />
    <glyph glyph-name="uni0146" unicode="&#x146;" horiz-adv-x="1718" 
d="M262 250v1001q0 84 23 84q8 0 63 -55q11 -13 590 -604q55 -53 238 -236l180 -180l-23 852q-2 86 -15 119t-54 43q-41 8 -80 8q-25 0 -25 16q0 13 37 13q29 0 123 -4l70 -2l7 1q6 0 20.5 1t31.5 2q39 2 104 2q31 0 30 -14q-1 -11 -19 -15q-4 0 -52 -6q-37 -8 -49 -37.5
t-12 -116.5l-4 -1028q0 -50 -2 -74.5t-5.5 -31t-11.5 -6.5q-21 0 -135 108q-4 1 -278 272q-47 47 -112 110t-81 79q-54 56 -214 221.5t-255 265.5l27 -800q5 -113 18 -156.5t49 -50.5q31 -8 84 -8q22 0 24 -12q2 -10 -14 -15q-8 -2 -18 -2q-28 0 -58.5 0.5t-54 1.5t-42.5 2
t-30.5 1.5t-12.5 0.5t-12.5 -0.5t-30 -1.5t-40.5 -2t-48 -1.5t-48 -0.5q-29 0 -31 14q-1 11 19 14q5 1 10 1q40 0 64 8q32 10 43.5 56.5t11.5 162.5zM831 -219q0 15 48 57q47 41 90 41q24 0 44.5 -37t20.5 -86q0 -64 -41 -135.5t-119 -130.5q-55 -43 -55 -14q0 9 15 24
q84 84 84 160q0 50 -78 104q-9 6 -9 17z" />
    <glyph glyph-name="Ncaron" unicode="&#x147;" horiz-adv-x="1939" 
d="M297 295v303v221.5t0.5 177t1 123.5t0.5 81.5v29.5v237q0 103 23 103q11 0 49 -41q18 -21 22 -25q41 -46 651 -702q32 -34 74 -79.5t105 -114.5t106 -115q185 -204 207 -226l-23 1041q-2 104 -17 143t-62 51q-52 10 -88 10q-27 0 -29 12q-2 8 12 13q11 4 29 4
q82 0 133 -2q22 -1 42 -2t29 -2h9q1 0 8 0.5t23 1.5t34 2q39 2 109 2q37 0 37 -14q0 -12 -23 -15q-5 -1 -23 -3.5t-30 -4.5q-30 -7 -44.5 -23.5t-21 -53t-6.5 -107.5l-4 -1196q0 -51 -0.5 -79.5t-3 -43.5t-5.5 -18.5t-9 -3.5q-19 0 -150 131q-137 137 -307 315
q-113 115 -227 240q-402 438 -535 587l27 -981q1 -123 19 -174t61 -63q46 -12 102 -12q16 0 16 -13q0 -16 -36 -16q-29 0 -61 0.5t-58.5 1.5t-48.5 2t-35 1.5t-14 0.5l-70 -4q-47 -2 -127 -2q-33 0 -33 16q0 13 17 13q46 0 84 12q36 10 48.5 63t12.5 197zM975 1642
q-8 0 -39 17q-2 1 -11.5 7t-26 17l-34.5 23q-50 32 -119 78q-63 42 -71 49q-16 12 -21.5 19t-3.5 10t10 8l66 43q13 10 23 0q119 -101 223 -156q17 -11 24.5 -10.5t32.5 12.5q123 68 238 139q32 19 43 19q18 0 8 -16l-12 -13q-183 -133 -293 -225q-27 -21 -37 -21z" />
    <glyph glyph-name="ncaron" unicode="&#x148;" horiz-adv-x="1718" 
d="M262 250v1001q0 84 23 84q8 0 63 -55q11 -13 590 -604q55 -53 238 -236l180 -180l-23 852q-2 86 -15 119t-54 43q-41 8 -80 8q-25 0 -25 16q0 13 37 13q29 0 123 -4l70 -2l7 1q6 0 20.5 1t31.5 2q39 2 104 2q31 0 30 -14q-1 -11 -19 -15q-4 0 -52 -6q-37 -8 -49 -37.5
t-12 -116.5l-4 -1028q0 -50 -2 -74.5t-5.5 -31t-11.5 -6.5q-21 0 -135 108q-4 1 -278 272q-47 47 -112 110t-81 79q-54 56 -214 221.5t-255 265.5l27 -800q5 -113 18 -156.5t49 -50.5q31 -8 84 -8q22 0 24 -12q2 -10 -14 -15q-8 -2 -18 -2q-28 0 -58.5 0.5t-54 1.5t-42.5 2
t-30.5 1.5t-12.5 0.5t-12.5 -0.5t-30 -1.5t-40.5 -2t-48 -1.5t-48 -0.5q-29 0 -31 14q-1 11 19 14q5 1 10 1q40 0 64 8q32 10 43.5 56.5t11.5 162.5zM893 1448q-28 -18 -35 -18t-35 14q-3 2 -10 6.5t-23.5 16.5t-31.5 22q-67 47 -109 74q-19 13 -40 28t-25 17q-23 16 -23 22
q0 3 10 10l72 46q12 9 21 0q105 -91 202 -142q13 -8 25 -8q6 0 29 10q7 4 82 47t137 80q24 17 39 17q18 0 6 -15l-10 -10q-131 -94 -281 -217z" />
    <glyph glyph-name="napostrophe" unicode="&#x149;" 
d="M455 2056q93 -151 106 -192q8 -19 -5 -19q-12 1 -30 19q-98 91 -159 133q-47 33 -52 33q-14 3 7 18q32 22 71 39q15 6 27 6q11 0 35 -37zM199 1817q0 8 14 16q47 27 61 27q9 0 15 -9q33 -46 96 -75t139 -29q164 0 264 100q19 19 27 19q15 -2 -2 -29l-6 -10
q-120 -150 -332 -150q-120 0 -209 62q-26 17 -46.5 41.5t-20.5 36.5z" />
    <glyph glyph-name="Eng" unicode="&#x14a;" 
d="M199 1817q0 8 14 16q47 27 61 27q9 0 15 -9q33 -46 96 -75t139 -29q164 0 264 100q19 19 27 19q15 -2 -2 -29l-6 -10q-120 -150 -332 -150q-120 0 -209 62q-26 17 -46.5 41.5t-20.5 36.5zM580 2056q24 37 34 37t25 -6q36 -15 74 -39q18 -12 6 -18q-4 0 -51 -33
q-70 -43 -160 -133q-22 -19 -31 -19q-13 0 -4 19q3 14 47 92q25 44 60 100z" />
    <glyph glyph-name="eng" unicode="&#x14b;" horiz-adv-x="0" 
d="M-20 1718q28 18 34.5 18t34.5 -14q14 -7 66 -43q77 -53 110 -75q14 -10 29.5 -21.5t24 -17.5t12.5 -9q22 -16 22 -22q0 -3 -10 -10l-72 -45q-11 -9 -20 0q-95 83 -201 139q-13 8 -24 8q-6 0 -29 -10q-7 -4 -82 -47t-137 -80q-29 -16 -39 -16q-17 0 -6 14q1 1 2 2.5t3 3.5
t5 4q162 125 277 221z" />
    <glyph glyph-name="Omacron" unicode="&#x14c;" horiz-adv-x="1873" 
d="M926 -35q-136 0 -253 34t-202 93t-151.5 137t-107 168.5t-61 184.5t-20.5 188q0 131 49 266.5t142 257.5q95 125 257.5 201t358.5 76q350 0 580 -207q225 -208 225 -561q0 -352 -227 -594q-229 -244 -590 -244zM981 43q140 0 279 78q81 47 141 119q65 77 105 209.5
t40 295.5q0 352 -182 555q-183 201 -440 201q-267 0 -432 -174q-166 -175 -166 -500q0 -354 186 -567q187 -217 469 -217zM666 1845h542q26 0 17 -20l-17 -56q-3 -12 -18 -12h-543q-12 0 -17 3.5t-3 11.5l16 61q3 12 23 12z" />
    <glyph glyph-name="omacron" unicode="&#x14d;" horiz-adv-x="1658" 
d="M819 -29q-175 0 -317 61.5t-226 166.5q-163 202 -163 456q0 60 13 124t41 130.5t68.5 128t99.5 116t130.5 94.5t165 63.5t198.5 23.5q311 0 514 -176q201 -177 201 -477q0 -297 -201 -504q-204 -207 -524 -207zM870 41q121 0 230 59q70 38 123 99q57 63 93 176.5
t36 255.5q0 297 -156 469t-379 172q-227 0 -371 -144q-143 -143 -143 -419q0 -303 156 -484q153 -184 411 -184zM567 1593h543q25 0 16 -22l-16 -49q-3 -13 -18 -13h-543q-24 0 -21 15l17 57q3 12 22 12z" />
    <glyph glyph-name="Obreve" unicode="&#x14e;" 
d="M762 2079q26 13 35 10q9 -2 51 -47q58 -67 145 -195q11 -14 8 -24q-3 -3 -28 8q-57 47 -197 139q-61 35 -69 37q-22 3 -2 23q30 30 57 49zM524 1898q10 0 37 -18q99 -60 232 -154q22 -16 22 -24q0 -7 -8 -12l-57 -39q-13 -6 -21 2q-23 20 -104 78q-38 26 -97 59
q-17 10 -24 10t-31 -12q-80 -42 -209 -123q-35 -18 -45 -18q-22 0 2 24q1 1 4 3t4 3q17 17 131 101q122 90 132 100q26 20 32 20z" />
    <glyph glyph-name="obreve" unicode="&#x14f;" 
d="M850 2130q62 0 100.5 -32t38.5 -85q0 -100 -180 -164q-33 -9 -33 6q0 9 19 19q92 65 92 125q0 67 -80 67q-70 0 -115 -36q-20 -9 -20 2q0 10 8 18q71 80 170 80zM524 1898q10 0 37 -18q99 -60 232 -154q22 -16 22 -24q0 -7 -8 -12l-57 -39q-13 -6 -21 2q-23 20 -104 78
q-38 26 -97 59q-17 10 -24 10t-31 -12q-80 -42 -209 -123q-35 -18 -45 -18q-22 0 2 24q1 1 4 3t4 3q17 17 131 101q122 90 132 100q26 20 32 20z" />
    <glyph glyph-name="Ohungarumlaut" unicode="&#x150;" horiz-adv-x="1873" 
d="M926 -35q-136 0 -253 34t-202 93t-151.5 137t-107 168.5t-61 184.5t-20.5 188q0 131 49 266.5t142 257.5q95 125 257.5 201t358.5 76q350 0 580 -207q225 -208 225 -561q0 -352 -227 -594q-229 -244 -590 -244zM981 43q140 0 279 78q81 47 141 119q65 77 105 209.5
t40 295.5q0 352 -182 555q-183 201 -440 201q-267 0 -432 -174q-166 -175 -166 -500q0 -354 186 -567q187 -217 469 -217zM838 1917q29 39 39 39q13 0 28 -6q67 -28 90 -45q16 -11 6 -17q-45 -25 -57 -33q-131 -82 -207 -153q-16 -19 -32 -19q-15 0 -5 17q5 13 64 102
q42 67 74 115zM1217 1919q34 37 38 37q18 0 31 -8q54 -25 88 -47q23 -16 2 -23q-13 -3 -59 -27q-151 -87 -221 -151q-20 -17 -31 -17q-13 0 -4 15q6 33 156 221z" />
    <glyph glyph-name="ohungarumlaut" unicode="&#x151;" horiz-adv-x="1658" 
d="M819 -29q-175 0 -317 61.5t-226 166.5q-163 202 -163 456q0 60 13 124t41 130.5t68.5 128t99.5 116t130.5 94.5t165 63.5t198.5 23.5q311 0 514 -176q201 -177 201 -477q0 -297 -201 -504q-204 -207 -524 -207zM870 41q121 0 230 59q70 38 123 99q57 63 93 176.5
t36 255.5q0 297 -156 469t-379 172q-227 0 -371 -144q-143 -143 -143 -419q0 -303 156 -484q153 -184 411 -184zM731 1671q29 39 39 39q14 0 29 -6q67 -28 90 -45q16 -11 6 -17q-54 -30 -57 -32q-127 -80 -207 -154q-15 -18 -33 -18q-14 0 -4 16q7 17 63 102q42 67 74 115z
M1110 1673q34 37 39 37q18 0 31 -8q54 -24 88 -47q23 -16 2 -23q-19 -5 -60 -26q-148 -85 -221 -152q-19 -16 -31 -16t-4 14q6 33 156 221z" />
    <glyph glyph-name="OE" unicode="&#x152;" horiz-adv-x="2430" 
d="M326 827q0 -354 186 -567q187 -217 467 -217q139 0 278 78q84 47 144 119q65 77 105 209.5t40 295.5q0 352 -182 555q-186 201 -442 201q-268 0 -430 -174q-166 -175 -166 -500zM1632 1536q438 0 469 2q76 3 94 12q15 9 23 9t8 -19q0 -2 -3.5 -17t-7.5 -37.5t-5 -41.5
q0 -37 -8 -123q-3 -35 -17 -35q-16 0 -16 27q0 37 -10 67q-18 61 -148 76q-53 6 -289 6q-12 0 -12 -20v-565q0 -21 12 -21q272 0 334 4q77 6 103 35q14 20 24 20t10 -16q0 -1 -3 -17t-7 -44t-6 -54q-3 -41 -6 -86q-2 -35 -2 -53q-3 -31 -15 -31q-8 0 -11 15t-5 39.5t-6 36.5
q-13 53 -93 65t-315 12q-14 0 -14 -14v-180v-105v-157v-88q5 -71 19 -104t49 -46q46 -18 178 -18q122 0 184 18q47 13 70 47.5t35 104.5q4 20 11 27.5t13 0t6 -27.5q0 -8 -10 -93q-9 -72 -16 -106q-10 -37 -28 -45t-83 -8q-67 0 -307 6q-15 0 -95 3t-106 3q-7 0 -33 -3
t-34 -3q-21 0 -21 14q10 113 10 248q-90 -100 -143 -139q-202 -152 -483 -152q-196 0 -355 71t-254 193q-186 239 -186 539q0 87 21.5 177t63 181t110.5 170.5t156.5 141t208.5 97.5t259 36q387 0 590 -256q8 -11 8 0l-4 209q0 18 21 18q4 0 31 -3t36 -3z" />
    <glyph glyph-name="oe" unicode="&#x153;" horiz-adv-x="2146" 
d="M303 709q0 -313 162 -490q159 -178 401 -178q97 0 194 39.5t175 130.5q54 63 86.5 173t32.5 243q0 295 -156 471q-155 174 -385 174q-223 0 -367 -144q-143 -143 -143 -419zM1436 0q-44 0 -74 -6q-10 -3 -10 12q8 31 8 180q-5 -6 -88 -73q-20 -18 -74 -47
q-164 -95 -379 -95q-174 0 -315 61t-225 165q-166 206 -166 458q0 241 170 447q88 106 233.5 169.5t323.5 63.5q327 3 508 -196h10q0 13 -0.5 33l-1 40t-1 38t-1.5 30v12q0 17 16 17q4 0 30 -2t34 -2q392 0 419 2q65 3 80 12q13 8 25 8q6 0 6 -14q0 -2 -3.5 -18t-7.5 -38.5
t-5 -39.5q0 -10 -6 -103q0 -31 -15 -31q-11 0 -14 23q-5 41 -10 55q-11 34 -39.5 49t-98.5 19t-233 4q-10 0 -10 -16v-465q0 -21 12 -21q212 0 276 6q73 3 95 31q10 16 22 16q8 0 8 -12q0 -1 -2.5 -17t-6 -42.5t-5.5 -48.5q-8 -63 -8 -125q-1 -23 -14 -23t-13 27q0 25 -6 49
q-15 55 -98 61q-95 9 -246 9q-14 0 -14 -15v-149v-88v-121v-70q3 -113 57 -133q41 -18 150 -18q110 0 154 11.5t63 43.5q15 27 30 92q6 29 18.5 29t12.5 -31q0 -46 -22 -178q-6 -30 -22 -37.5t-69 -7.5q-58 0 -155 2t-109 2q-39 0 -82 2q-90 4 -112 4z" />
    <glyph glyph-name="Racute" unicode="&#x154;" horiz-adv-x="1544" 
d="M365 588v360q0 336 -5 443q-5 57 -22.5 81.5t-65.5 34.5q-24 6 -69 6q-17 0 -17 13q0 16 33 16q22 0 54.5 -0.5t62.5 -1.5t56.5 -2t43 -1.5t15.5 -0.5q1 0 13 0.5t37.5 1.5t55.5 2q66 2 135 2q247 0 375 -90q57 -41 99 -116t42 -162q0 -245 -247 -474q326 -419 425 -524
q120 -126 250 -147q40 -6 80 -6q19 0 19 -13q0 -16 -49 -16h-146q-151 0 -219 39q-33 18 -85 69t-81 88q-48 60 -111 144q-8 11 -51.5 71t-74.5 103q-23 31 -45.5 60.5t-35 46.5t-16.5 22q-12 12 -26 12l-252 4q-15 0 -15 -16v-49q0 -340 11 -445q6 -55 22.5 -80.5
t56.5 -31.5q52 -8 93 -8q16 0 16 -13q0 -16 -33 -16q-163 0 -252 6h-14q-37 -6 -178 -6q-33 0 -33 16q0 13 16 13q29 0 62 8q44 9 59 112q11 104 11 445zM528 1440v-670q0 -16 15 -25q51 -32 215 -32q100 0 153 39q125 85 125 315q0 192 -94.5 301t-259.5 109
q-93 0 -137 -13q-17 -7 -17 -24zM983 1927q43 -37 66 -82q12 -26 -9 -26q-35 0 -84 -17q-121 -45 -290 -125q-27 -12 -33 -12q-28 0 2 31l2 2q175 164 252 213q44 33 59 33q18 0 35 -17z" />
    <glyph glyph-name="racute" unicode="&#x155;" horiz-adv-x="1366" 
d="M319 500v307q0 301 -4 375q-5 46 -22 68.5t-60 29.5q-32 4 -49 4q-22 0 -22 12q0 7 9 10.5t26 4t32.5 0.5t38 -1t33.5 -1q37 -2 88 -2l14 -2l11 1q11 0 34.5 1t49.5 2q59 2 120 2q223 0 336 -78q123 -89 123 -250q0 -212 -217 -387q286 -350 377 -444q111 -111 217 -125
q36 -4 64 -4q22 0 23 -12q-7 -15 -38 -17h-143q-128 0 -186 24q-37 15 -70 48q-37 34 -68 69q-14 15 -73 94q-23 32 -43 56q-13 16 -51 65.5t-64 81.5q-77 97 -82 105q-12 12 -25 12l-211 2q-10 0 -10 -10v-29q0 -305 10 -387q3 -25 5.5 -36.5t10 -27.5t23.5 -23.5t41 -10.5
q54 -4 60 -4q26 0 26 -13q0 -16 -28 -16q-97 0 -195 4l-35 2q-4 0 -14.5 -0.5t-29.5 -1.5t-36 -2q-45 -2 -98 -2q-29 0 -29 16q0 13 25 13t45 4q44 9 53 77q8 52 8 396zM477 1219v-557q0 -18 10 -25q49 -27 183 -27q89 0 137 31q102 65 102 260q0 164 -80 255t-221 91
q-74 0 -119 -10q-12 -3 -12 -18zM883 1720q47 -38 67 -71q16 -25 -6 -25q-2 0 -14.5 -3t-31.5 -8.5t-30 -10.5q-103 -48 -262 -142l-6 -2q-5 -4 -11 -7t-12 -5t-10 -1t-4 7q0 10 15 25q204 210 217 221q41 35 53 35q19 0 35 -13z" />
    <glyph glyph-name="uni0156" unicode="&#x156;" horiz-adv-x="1544" 
d="M365 588v360q0 336 -5 443q-5 57 -22.5 81.5t-65.5 34.5q-24 6 -69 6q-17 0 -17 13q0 16 33 16q22 0 54.5 -0.5t62.5 -1.5t56.5 -2t43 -1.5t15.5 -0.5q1 0 13 0.5t37.5 1.5t55.5 2q66 2 135 2q247 0 375 -90q57 -41 99 -116t42 -162q0 -245 -247 -474q326 -419 425 -524
q120 -126 250 -147q40 -6 80 -6q19 0 19 -13q0 -16 -49 -16h-146q-151 0 -219 39q-33 18 -85 69t-81 88q-48 60 -111 144q-8 11 -51.5 71t-74.5 103q-23 31 -45.5 60.5t-35 46.5t-16.5 22q-12 12 -26 12l-252 4q-15 0 -15 -16v-49q0 -340 11 -445q6 -55 22.5 -80.5
t56.5 -31.5q52 -8 93 -8q16 0 16 -13q0 -16 -33 -16q-163 0 -252 6h-14q-37 -6 -178 -6q-33 0 -33 16q0 13 16 13q29 0 62 8q44 9 59 112q11 104 11 445zM528 1440v-670q0 -16 15 -25q51 -32 215 -32q100 0 153 39q125 85 125 315q0 192 -94.5 301t-259.5 109
q-93 0 -137 -13q-17 -7 -17 -24zM752 -240q0 17 47 58t90 41q24 0 44.5 -37t20.5 -86q0 -64 -40.5 -135.5t-118.5 -130.5q-56 -44 -56 -15q0 10 15 25q84 84 84 160q0 50 -78 104q-8 5 -8 16z" />
    <glyph glyph-name="uni0157" unicode="&#x157;" horiz-adv-x="1366" 
d="M319 500v307q0 301 -4 375q-5 46 -22 68.5t-60 29.5q-32 4 -49 4q-22 0 -22 12q0 7 9 10.5t26 4t32.5 0.5t38 -1t33.5 -1q37 -2 88 -2l14 -2l11 1q11 0 34.5 1t49.5 2q59 2 120 2q223 0 336 -78q123 -89 123 -250q0 -212 -217 -387q286 -350 377 -444q111 -111 217 -125
q36 -4 64 -4q22 0 23 -12q-7 -15 -38 -17h-143q-128 0 -186 24q-37 15 -70 48q-37 34 -68 69q-14 15 -73 94q-23 32 -43 56q-13 16 -51 65.5t-64 81.5q-77 97 -82 105q-12 12 -25 12l-211 2q-10 0 -10 -10v-29q0 -305 10 -387q3 -25 5.5 -36.5t10 -27.5t23.5 -23.5t41 -10.5
q54 -4 60 -4q26 0 26 -13q0 -16 -28 -16q-97 0 -195 4l-35 2q-4 0 -14.5 -0.5t-29.5 -1.5t-36 -2q-45 -2 -98 -2q-29 0 -29 16q0 13 25 13t45 4q44 9 53 77q8 52 8 396zM477 1219v-557q0 -18 10 -25q49 -27 183 -27q89 0 137 31q102 65 102 260q0 164 -80 255t-221 91
q-74 0 -119 -10q-12 -3 -12 -18zM680 -219q0 16 47 57t90 41q24 0 45 -37t21 -86q0 -64 -41 -135.5t-119 -130.5q-55 -43 -55 -14q0 10 14 24q84 84 84 160q0 50 -78 104q-8 5 -8 17z" />
    <glyph glyph-name="Rcaron" unicode="&#x158;" horiz-adv-x="1544" 
d="M365 588v360q0 336 -5 443q-5 57 -22.5 81.5t-65.5 34.5q-24 6 -69 6q-17 0 -17 13q0 16 33 16q22 0 54.5 -0.5t62.5 -1.5t56.5 -2t43 -1.5t15.5 -0.5q1 0 13 0.5t37.5 1.5t55.5 2q66 2 135 2q247 0 375 -90q57 -41 99 -116t42 -162q0 -245 -247 -474q326 -419 425 -524
q120 -126 250 -147q40 -6 80 -6q19 0 19 -13q0 -16 -49 -16h-146q-151 0 -219 39q-33 18 -85 69t-81 88q-48 60 -111 144q-8 11 -51.5 71t-74.5 103q-23 31 -45.5 60.5t-35 46.5t-16.5 22q-12 12 -26 12l-252 4q-15 0 -15 -16v-49q0 -340 11 -445q6 -55 22.5 -80.5
t56.5 -31.5q52 -8 93 -8q16 0 16 -13q0 -16 -33 -16q-163 0 -252 6h-14q-37 -6 -178 -6q-33 0 -33 16q0 13 16 13q29 0 62 8q44 9 59 112q11 104 11 445zM528 1440v-670q0 -16 15 -25q51 -32 215 -32q100 0 153 39q125 85 125 315q0 192 -94.5 301t-259.5 109
q-93 0 -137 -13q-17 -7 -17 -24zM702 1671q-7 0 -38 17q-2 1 -11.5 7t-26 17l-34.5 23q-71 45 -119 77q-61 41 -72 50q-16 12 -21 19t-3 9.5t10 7.5l66 44q13 9 22 0q119 -101 223 -156q17 -11 25 -10.5t33 12.5q113 63 237 139q32 19 43 19q18 0 8 -17q-3 -6 -12 -12
q-183 -133 -293 -225q-27 -21 -37 -21z" />
    <glyph glyph-name="rcaron" unicode="&#x159;" horiz-adv-x="1366" 
d="M319 500v307q0 301 -4 375q-5 46 -22 68.5t-60 29.5q-32 4 -49 4q-22 0 -22 12q0 7 9 10.5t26 4t32.5 0.5t38 -1t33.5 -1q37 -2 88 -2l14 -2l11 1q11 0 34.5 1t49.5 2q59 2 120 2q223 0 336 -78q123 -89 123 -250q0 -212 -217 -387q286 -350 377 -444q111 -111 217 -125
q36 -4 64 -4q22 0 23 -12q-7 -15 -38 -17h-143q-128 0 -186 24q-37 15 -70 48q-37 34 -68 69q-14 15 -73 94q-23 32 -43 56q-13 16 -51 65.5t-64 81.5q-77 97 -82 105q-12 12 -25 12l-211 2q-10 0 -10 -10v-29q0 -305 10 -387q3 -25 5.5 -36.5t10 -27.5t23.5 -23.5t41 -10.5
q54 -4 60 -4q26 0 26 -13q0 -16 -28 -16q-97 0 -195 4l-35 2q-4 0 -14.5 -0.5t-29.5 -1.5t-36 -2q-45 -2 -98 -2q-29 0 -29 16q0 13 25 13t45 4q44 9 53 77q8 52 8 396zM477 1219v-557q0 -18 10 -25q49 -27 183 -27q89 0 137 31q102 65 102 260q0 164 -80 255t-221 91
q-74 0 -119 -10q-12 -3 -12 -18zM678 1479q-28 -18 -35 -18t-35 14q-3 2 -10 6.5t-23.5 16.5t-31.5 22q-39 27 -109 73q-19 13 -40 28t-25 17q-23 16 -23 23q0 3 10 10l72 45q12 9 21 0q102 -88 202 -141q13 -8 25 -8q6 0 29 10q7 4 82 47t137 80q22 16 39 16t6 -14
q-8 -8 -11 -10q-123 -88 -280 -217z" />
    <glyph glyph-name="Sacute" unicode="&#x15a;" horiz-adv-x="1167" 
d="M508 -35q-162 0 -275 55q-20 11 -25 23t-5 55q0 35 10 217q1 32 17 33q12 -2 14 -22q0 -49 6 -76q23 -102 104.5 -155.5t198.5 -53.5q141 0 217 82t76 190q0 105 -49 181q-49 72 -187 188l-92 76q-149 121 -207.5 222.5t-58.5 221.5q0 167 115 268t309 101q104 0 190 -21
q55 -10 72 -10q20 0 20 -14l-2 -27q-6 -105 -6 -190q0 -47 -14 -47q-13 0 -16 26q-6 62 -27 103q-59 108 -256 108q-110 0 -181 -65t-71 -172q0 -90 51 -158q56 -75 199 -186l57 -46q175 -138 238 -243q61 -107 61 -238q0 -91 -43 -184t-131 -156q-124 -86 -309 -86z
M866 1964q43 -37 66 -82q15 -27 -8 -27q-38 0 -84 -16q-126 -47 -291 -125q-27 -12 -33 -12q-28 0 2 31l2 2q176 163 252 213q43 32 59 32q19 0 35 -16z" />
    <glyph glyph-name="sacute" unicode="&#x15b;" horiz-adv-x="1048" 
d="M459 -29q-145 0 -244 45q-18 7 -22.5 19t-4.5 51q0 79 9 193q3 28 16 28q14 0 14 -20q0 -38 6 -62q18 -90 91 -137t176 -47q114 0 183 64.5t69 154.5q0 86 -43 151t-160 158l-82 64q-134 106 -186 194.5t-52 192.5q0 141 104 228t275 87q91 0 166 -16q55 -10 70 -10
q18 0 18 -13l-2 -26q-6 -99 -6 -172q0 -43 -14 -43q-12 0 -15 22q-6 62 -24 97q-53 96 -230 96q-95 0 -155 -53.5t-60 -143.5q0 -72 45 -129q46 -58 174 -156l48 -36q153 -120 211 -211q57 -89 57 -207q0 -80 -38.5 -159t-117.5 -132q-116 -72 -276 -72zM780 1724
q49 -39 68 -71q16 -25 -6 -25q-2 0 -14.5 -3t-31.5 -8.5t-30 -10.5q-103 -48 -262 -142l-6 -2q-5 -4 -11 -7t-12 -5t-10 -1t-4 7q0 11 14 25q204 210 217 221q41 35 53 35q19 0 35 -13z" />
    <glyph glyph-name="Scircumflex" unicode="&#x15c;" horiz-adv-x="1167" 
d="M508 -35q-162 0 -275 55q-20 11 -25 23t-5 55q0 35 10 217q1 32 17 33q12 -2 14 -22q0 -49 6 -76q23 -102 104.5 -155.5t198.5 -53.5q141 0 217 82t76 190q0 105 -49 181q-49 72 -187 188l-92 76q-149 121 -207.5 222.5t-58.5 221.5q0 167 115 268t309 101q104 0 190 -21
q55 -10 72 -10q20 0 20 -14l-2 -27q-6 -105 -6 -190q0 -47 -14 -47q-13 0 -16 26q-6 62 -27 103q-59 108 -256 108q-110 0 -181 -65t-71 -172q0 -90 51 -158q56 -75 199 -186l57 -46q175 -138 238 -243q61 -107 61 -238q0 -91 -43 -184t-131 -156q-124 -86 -309 -86z
M637 1972q10 0 39 -16q195 -128 264 -178q23 -17 24.5 -24.5t-10.5 -12.5l-69 -39q-13 -9 -25 0q-122 95 -217 145q-18 11 -22 11l-33 -15q-130 -64 -244 -129q-34 -18 -43 -18q-17 0 -8 18q1 2 14 15q242 178 293 223q26 20 37 20z" />
    <glyph glyph-name="scircumflex" unicode="&#x15d;" horiz-adv-x="1048" 
d="M459 -29q-145 0 -244 45q-18 7 -22.5 19t-4.5 51q0 79 9 193q3 28 16 28q14 0 14 -20q0 -38 6 -62q18 -90 91 -137t176 -47q114 0 183 64.5t69 154.5q0 86 -43 151t-160 158l-82 64q-134 106 -186 194.5t-52 192.5q0 141 104 228t275 87q91 0 166 -16q55 -10 70 -10
q18 0 18 -13l-2 -26q-6 -99 -6 -172q0 -43 -14 -43q-12 0 -15 22q-6 62 -24 97q-53 96 -230 96q-95 0 -155 -53.5t-60 -143.5q0 -72 45 -129q46 -58 174 -156l48 -36q153 -120 211 -211q57 -89 57 -207q0 -80 -38.5 -159t-117.5 -132q-116 -72 -276 -72zM571 1718
q10 0 35 -14q14 -7 66 -43q106 -73 110 -76q65 -46 66 -47q22 -16 22 -22q0 -4 -10 -11l-72 -45q-11 -9 -20 0q-95 83 -201 139q-15 9 -24 9q-3 0 -29 -11q-7 -4 -82 -47t-137 -80q-29 -16 -39 -16q-17 0 -6 14q1 1 2 3t3 4t5 4q162 125 277 221q27 18 34 18z" />
    <glyph glyph-name="Scedilla" unicode="&#x15e;" horiz-adv-x="1167" 
d="M635 918l57 -46q175 -138 238 -243q61 -107 61 -238q0 -91 -43 -184t-131 -156q-81 -57 -180 -74q-6 -6 -15 -14.5t-23 -20.5t-24 -22q-45 -38 -49 -41q215 -35 215 -158q0 -80 -90 -133q-91 -49 -219 -49q-26 0 -26 17q0 8 38 16q158 30 158 135q0 103 -162 127
q-23 4 -23 14t25 27l109 92q-10 -2 -43 -2q-162 0 -275 55q-20 11 -25 23t-5 55q0 35 10 217q1 32 17 33q12 -2 14 -22q0 -49 6 -76q23 -102 104.5 -155.5t198.5 -53.5q141 0 217 82t76 190q0 105 -49 181q-49 72 -187 188l-92 76q-149 121 -207.5 222.5t-58.5 221.5
q0 167 115 268t309 101q104 0 190 -21q55 -10 72 -10q20 0 20 -14l-2 -27q-6 -105 -6 -190q0 -47 -14 -47q-13 0 -16 26q-6 62 -27 103q-59 108 -256 108q-110 0 -181 -65t-71 -172q0 -90 51 -158q56 -75 199 -186z" />
    <glyph glyph-name="scedilla" unicode="&#x15f;" horiz-adv-x="1048" 
d="M575 788l48 -36q153 -120 211 -211q57 -89 57 -207q0 -80 -38.5 -159t-117.5 -132q-58 -36 -147 -59q-21 -18 -64 -58q-51 -44 -55 -47q215 -35 215 -158q0 -80 -90 -133q-91 -49 -219 -49q-27 0 -27 17q0 7 39 16q158 30 158 135q0 103 -162 127q-23 4 -23 14t25 27
l115 98q-10 -2 -41 -2q-145 0 -244 45q-18 7 -22.5 19t-4.5 51q0 79 9 193q3 28 16 28q14 0 14 -20q0 -38 6 -62q18 -90 91 -137t176 -47q114 0 183 64.5t69 154.5q0 86 -43 151t-160 158l-82 64q-134 106 -186 194.5t-52 192.5q0 141 104 228t275 87q91 0 166 -16
q55 -10 70 -10q18 0 18 -13l-2 -26q-6 -99 -6 -172q0 -43 -14 -43q-12 0 -15 22q-6 62 -24 97q-53 96 -230 96q-95 0 -155 -53.5t-60 -143.5q0 -72 45 -129q46 -58 174 -156z" />
    <glyph glyph-name="Scaron" unicode="&#x160;" horiz-adv-x="1167" 
d="M508 -35q-162 0 -275 55q-20 11 -25 23t-5 55q0 35 10 217q1 32 17 33q12 -2 14 -22q0 -49 6 -76q23 -102 104.5 -155.5t198.5 -53.5q141 0 217 82t76 190q0 105 -49 181q-49 72 -187 188l-92 76q-149 121 -207.5 222.5t-58.5 221.5q0 167 115 268t309 101q104 0 190 -21
q55 -10 72 -10q20 0 20 -14l-2 -27q-6 -105 -6 -190q0 -47 -14 -47q-13 0 -16 26q-6 62 -27 103q-59 108 -256 108q-110 0 -181 -65t-71 -172q0 -90 51 -158q56 -75 199 -186l57 -46q175 -138 238 -243q61 -107 61 -238q0 -91 -43 -184t-131 -156q-124 -86 -309 -86z
M635 1692q-10 0 -39 16q-2 1 -11.5 7t-26 17l-34.5 23q-36 23 -118 78q-69 47 -72 49q-16 12 -21.5 19t-3.5 10t10 8l66 43q13 10 23 0q119 -101 223 -156q17 -11 24.5 -10.5t32.5 12.5q106 59 238 140q30 18 43 18q18 0 8 -16q-4 -8 -12 -13q-183 -133 -293 -225
q-26 -20 -37 -20z" />
    <glyph glyph-name="scaron" unicode="&#x161;" horiz-adv-x="1048" 
d="M459 -29q-145 0 -244 45q-18 7 -22.5 19t-4.5 51q0 79 9 193q3 28 16 28q14 0 14 -20q0 -38 6 -62q18 -90 91 -137t176 -47q114 0 183 64.5t69 154.5q0 86 -43 151t-160 158l-82 64q-134 106 -186 194.5t-52 192.5q0 141 104 228t275 87q91 0 166 -16q55 -10 70 -10
q18 0 18 -13l-2 -26q-6 -99 -6 -172q0 -43 -14 -43q-12 0 -15 22q-6 62 -24 97q-53 96 -230 96q-95 0 -155 -53.5t-60 -143.5q0 -72 45 -129q46 -58 174 -156l48 -36q153 -120 211 -211q57 -89 57 -207q0 -80 -38.5 -159t-117.5 -132q-116 -72 -276 -72zM561 1460
q-8 0 -35 15q-3 2 -10 6.5t-23.5 16.5t-31.5 22q-39 27 -109 73q-19 13 -40 28t-25 17q-23 16 -23 23q0 3 10 10l72 45q12 9 21 0q102 -88 202 -141q13 -8 25 -8q6 0 29 10q7 4 82 47t137 80q22 16 39 16t6 -14l-10 -10q-131 -94 -281 -217q-29 -19 -35 -19z" />
    <glyph glyph-name="uni0162" unicode="&#x162;" horiz-adv-x="1415" 
d="M369 1536h768q83 0 145 10q11 2 25 4.5t22 4t10 1.5q11 0 11 -24q0 -66 -2 -127q-1 -27 -2 -50.5t-2 -35t-1 -12.5q0 -25 -13 -27q-14 -1 -17 29v6t-1 11t-1 11q-9 110 -252 113q-72 0 -129 2t-129 2v-866q0 -350 10 -445q6 -55 22.5 -80.5t57.5 -31.5q52 -8 92 -8
q16 0 16 -13q0 -16 -32 -16q-15 0 -80 1t-76 1q-30 -25 -57.5 -49t-48 -43t-27.5 -25q215 -35 215 -158q0 -80 -90 -133q-91 -49 -219 -49q-27 0 -27 17q0 7 39 16q158 30 158 135q0 103 -162 127q-23 4 -23 14t25 27l145 125h-24q2 0 -38.5 -1.5t-90.5 -3t-72 -1.5
q-33 0 -33 16q0 13 17 13q28 0 61 8q44 9 59 112q11 105 11 445v866q-84 0 -152 -2t-151 -2q-97 -1 -140.5 -15t-68.5 -51q-26 -43 -35 -63q-9 -21 -21 -21q-10 0 -10 19q0 37 45 213q12 39 21 39q2 0 15.5 -6t34.5 -12t40 -7q110 -10 162 -10z" />
    <glyph glyph-name="uni0163" unicode="&#x163;" horiz-adv-x="1253" 
d="M324 1305h671q96 0 148 10q31 8 39 8q12 0 12 -18q0 -64 -2 -121t-2 -88q0 -16 -7 -22t-14.5 0t-7.5 22q0 14 -2 28q-6 63 -47 84q-43 18 -194 21q-64 0 -107 2h-94v-731q0 -274 10 -379q3 -25 5 -34.5t8 -23t17.5 -20.5t30.5 -12q31 -8 80 -8q25 0 25 -13q0 -16 -27 -16
q-16 0 -69 1t-66 1q-10 -9 -69 -64l-64 -53q215 -35 215 -158q0 -80 -90 -133q-91 -49 -219 -49q-27 0 -27 17q0 7 39 16q158 30 158 135q0 103 -162 127q-23 4 -23 14t25 27l145 123q-10 2 -26 2q2 0 -35 -1.5t-82.5 -3t-64.5 -1.5q-31 0 -32 15q4 12 23 14q35 0 45 2
q28 4 38 23.5t16 76.5q8 65 8 375v731q-203 0 -258 -2q-89 -1 -126 -15t-63 -51q-14 -19 -30 -63q-7 -17 -19 -17q-10 0 -10 19q-3 8 41 203q8 32 18 32q2 0 38.5 -10.5t52.5 -11.5q98 -10 131 -10z" />
    <glyph glyph-name="Tcaron" unicode="&#x164;" horiz-adv-x="1415" 
d="M801 1454v-866q0 -350 10 -445q6 -55 22.5 -80.5t57.5 -31.5q52 -8 92 -8q16 0 16 -13q0 -16 -32 -16q-163 0 -252 6q2 0 -38.5 -1.5t-90.5 -3t-72 -1.5q-33 0 -33 16q0 13 17 13q28 0 61 8q44 9 59 112q11 105 11 445v866q-84 0 -152 -2t-151 -2q-97 -1 -140.5 -15
t-68.5 -51q-26 -43 -35 -63q-9 -21 -21 -21q-10 0 -10 19q0 37 45 213q12 39 21 39q2 0 15.5 -6t34.5 -12t40 -7q110 -10 162 -10h768q83 0 145 10q11 2 25 4.5t22 4t10 1.5q11 0 11 -24q0 -66 -2 -127q-1 -27 -2 -50.5t-2 -35t-1 -12.5q0 -25 -13 -27q-14 -1 -17 29v6
t-1 11t-1 11q-9 110 -252 113q-72 0 -129 2t-129 2zM700 1663q-9 0 -38 16q-2 1 -11.5 7t-26 17l-34.5 23q-50 32 -119 78q-69 47 -72 49q-23 17 -24.5 24.5t10.5 12.5l66 43q13 9 22 0q116 -98 223 -155q17 -11 25 -10.5t33 12.5q113 63 237 139q30 18 43 18q18 0 8 -16
q-3 -6 -12 -12q-174 -126 -293 -226q-26 -20 -37 -20z" />
    <glyph glyph-name="tcaron" unicode="&#x165;" horiz-adv-x="1253" 
d="M717 1231v-731q0 -274 10 -379q3 -25 5 -34.5t8 -23t17.5 -20.5t30.5 -12q31 -8 80 -8q25 0 25 -13q0 -16 -27 -16q-96 0 -194 4l-39 2q2 0 -35 -1.5t-82.5 -3t-64.5 -1.5q-31 0 -32 15q4 12 23 14q35 0 45 2q28 4 38 23.5t16 76.5q8 65 8 375v731q-203 0 -258 -2
q-89 -1 -126 -15t-63 -51q-14 -19 -30 -63q-7 -17 -19 -17q-10 0 -10 19q-3 8 41 203q8 32 18 32q2 0 38.5 -10.5t52.5 -11.5q98 -10 131 -10h671q96 0 148 10q31 8 39 8q12 0 12 -18q0 -64 -2 -121t-2 -88q0 -16 -7 -22t-14.5 0t-7.5 22q0 14 -2 28q-6 63 -47 84
q-43 18 -194 21q-64 0 -107 2h-94zM651 1460q-28 -18 -34.5 -18t-34.5 14q-27 18 -66 45q-86 60 -108 74q-19 12 -40.5 27t-25.5 18q-23 16 -23 22q0 4 11 11l71 45q12 9 21 0q104 -89 203 -142q13 -8 24 -8q3 0 29 11q7 4 82 47t137 80q22 16 39 16t6 -14q-1 -1 -2 -3
t-3 -4t-5 -4q-131 -94 -281 -217z" />
    <glyph glyph-name="Tbar" unicode="&#x166;" 
d="M643 1933q-38 0 -145 37q-110 35 -146 35q-75 0 -133 -55q-20 -17 -24 -17q-3 0 -5 3.5t-0.5 9.5t7.5 12q111 123 182 123q35 0 172 -41q92 -29 119 -29q44 0 71 11t64 44q21 17 25.5 14.5t2 -10.5t-7.5 -16q-32 -46 -87 -83.5t-95 -37.5zM520 1858q9 0 35 -13
q150 -76 244 -123q16 -8 21 -13.5t3 -8t-8 -6.5l-59 -41q-10 -11 -21 0q-109 69 -221 110q-15 6 -27 6q-11 0 -30 -8q-47 -18 -209 -96q-37 -16 -49 -16q-18 0 -2 16l16 14q73 47 270 162q27 17 37 17z" />
    <glyph glyph-name="tbar" unicode="&#x167;" 
d="M510 -344q-40 0 -63 24.5t-23 61.5q0 34 24.5 60t61.5 26t62.5 -24t25.5 -60t-25 -62t-63 -26z" />
    </font>
</defs>
</svg>
