<svg width="20" height="15" viewBox="0 0 20 15" fill="none" xmlns="http://www.w3.org/2000/svg">
<g clip-path="url(#clip0_1418_4773)">
<rect width="20" height="14.1667" fill="#EEEEEE"/>
<path d="M9.99989 10.4386C11.8705 10.4386 13.387 8.93635 13.387 7.08329C13.387 5.23023 11.8705 3.72803 9.99989 3.72803C8.12925 3.72803 6.61279 5.23023 6.61279 7.08329C6.61279 8.93635 8.12925 10.4386 9.99989 10.4386Z" fill="#D22F27"/>
<path d="M7.03648 5.47205C6.83107 5.86042 6.78762 6.3131 6.91544 6.73287C7.04327 7.15263 7.33219 7.50599 7.72013 7.71706C8.10808 7.92812 8.56411 7.98006 8.99029 7.8617C9.41646 7.74335 9.77879 7.46415 9.99944 7.08407C10.0081 7.06915 10.0122 7.05312 10.0201 7.03821L10.0292 7.04343C10.2619 6.66902 10.6339 6.40027 11.0649 6.29517C11.4959 6.19007 11.9513 6.25706 12.3329 6.48168C12.7144 6.7063 12.9915 7.07053 13.1044 7.49577C13.2172 7.92101 13.1568 8.37315 12.936 8.75461L12.9372 8.75536C12.7195 9.13919 12.4277 9.4768 12.0784 9.74891C11.729 10.021 11.329 10.2223 10.9011 10.3413C10.037 10.5815 9.11194 10.4719 8.32941 10.0365C7.54688 9.60112 6.971 8.87562 6.72846 8.01961C6.48591 7.16361 6.59658 6.24722 7.0361 5.47205M7.11325 5.32703L7.12078 5.33113C7.10949 5.34828 7.09556 5.36282 7.08503 5.38071C7.09519 5.36319 7.10271 5.34418 7.11325 5.32703Z" fill="#1E50A0"/>
<path d="M5.57172 9.28231L6.70075 11.2194M4.26807 10.0279L5.3971 11.965M4.91989 9.65512L5.29624 10.3008M5.67258 10.9465L6.04893 11.5922M13.5758 11.5922L13.9522 10.9465M14.3285 10.3008L14.7048 9.65512M14.2276 11.965L14.604 11.3193M14.9803 10.6736L15.3567 10.0279M12.924 11.2194L13.3003 10.5737M13.6767 9.92801L14.053 9.28231M4.26807 4.13608L5.3971 2.19897M4.91989 4.50889L6.04893 2.57178M5.57172 4.88169L6.70075 2.94459M13.3003 2.94459L13.6767 3.59029M14.053 4.23599L14.4294 4.88169M14.604 2.19897L14.9803 2.84468M15.3567 3.49038L15.733 4.13608M13.9522 2.57178L15.0812 4.50889" stroke="black" stroke-width="0.208333" stroke-linecap="round" stroke-linejoin="round"/>
</g>
<defs>
<clipPath id="clip0_1418_4773">
<rect width="20" height="14.1667" rx="4" fill="white"/>
</clipPath>
</defs>
</svg>
