<svg width="20" height="15" viewBox="0 0 20 15" fill="none" xmlns="http://www.w3.org/2000/svg">
<g clip-path="url(#clip0_1418_4765)">
<path fill-rule="evenodd" clip-rule="evenodd" d="M0 0V14.1667H20V0H0Z" fill="#2E42A5"/>
<mask id="mask0_1418_4765" style="mask-type:luminance" maskUnits="userSpaceOnUse" x="0" y="0" width="20" height="15">
<path fill-rule="evenodd" clip-rule="evenodd" d="M0 0V14.1667H20V0H0Z" fill="white"/>
</mask>
<g mask="url(#mask0_1418_4765)">
<path d="M-2.22705 13.155L2.17401 14.9128L20.0998 1.91161L22.4212 -0.700656L17.7149 -1.28819L10.4034 4.31441L4.51844 8.08926L-2.22705 13.155Z" fill="white"/>
<path d="M-1.62451 14.3871L0.617623 15.4072L21.5876 -0.942841H18.4394L-1.62451 14.3871Z" fill="#F50100"/>
<path d="M22.2271 13.155L17.826 14.9128L-0.0997791 1.91161L-2.42123 -0.700656L2.28506 -1.28819L9.59656 4.31441L15.4816 8.08926L22.2271 13.155Z" fill="white"/>
<path d="M22.0771 14.0383L19.835 15.0585L10.9058 8.05816L8.25843 7.27603L-2.64434 -0.692246H0.503872L11.4005 7.0869L14.2949 8.02475L22.0771 14.0383Z" fill="#F50100"/>
<mask id="path-8-inside-1_1418_4765" fill="white">
<path d="M12.3608 4.7218H21.2671V9.44446H12.3608V15.3478H7.63916V9.44446H-1.23291V4.7218H7.63916V-1.18054H12.3608V4.7218Z"/>
</mask>
<path d="M12.3608 4.7218H21.2671V9.44446H12.3608V15.3478H7.63916V9.44446H-1.23291V4.7218H7.63916V-1.18054H12.3608V4.7218Z" fill="#F50100"/>
<path d="M12.3608 4.7218H11.6664V5.41625H12.3608V4.7218ZM21.2671 4.7218H21.9615V4.02736H21.2671V4.7218ZM21.2671 9.44446V10.1389H21.9615V9.44446H21.2671ZM12.3608 9.44446V8.75001H11.6664V9.44446H12.3608ZM12.3608 15.3478V16.0422H13.0553V15.3478H12.3608ZM7.63916 15.3478H6.94472V16.0422H7.63916V15.3478ZM7.63916 9.44446H8.3336V8.75001H7.63916V9.44446ZM-1.23291 9.44446H-1.92735V10.1389H-1.23291V9.44446ZM-1.23291 4.7218V4.02736H-1.92735V4.7218H-1.23291ZM7.63916 4.7218V5.41625H8.3336V4.7218H7.63916ZM7.63916 -1.18054V-1.87499H6.94472V-1.18054H7.63916ZM12.3608 -1.18054H13.0553V-1.87499H12.3608V-1.18054ZM12.3608 4.7218V5.41625H21.2671V4.7218V4.02736H12.3608V4.7218ZM21.2671 4.7218H20.5726V9.44446H21.2671H21.9615V4.7218H21.2671ZM21.2671 9.44446V8.75001H12.3608V9.44446V10.1389H21.2671V9.44446ZM12.3608 9.44446H11.6664V15.3478H12.3608H13.0553V9.44446H12.3608ZM12.3608 15.3478V14.6533H7.63916V15.3478V16.0422H12.3608V15.3478ZM7.63916 15.3478H8.3336V9.44446H7.63916H6.94472V15.3478H7.63916ZM7.63916 9.44446V8.75001H-1.23291V9.44446V10.1389H7.63916V9.44446ZM-1.23291 9.44446H-0.538466V4.7218H-1.23291H-1.92735V9.44446H-1.23291ZM-1.23291 4.7218V5.41625H7.63916V4.7218V4.02736H-1.23291V4.7218ZM7.63916 4.7218H8.3336V-1.18054H7.63916H6.94472V4.7218H7.63916ZM7.63916 -1.18054V-0.486098H12.3608V-1.18054V-1.87499H7.63916V-1.18054ZM12.3608 -1.18054H11.6664V4.7218H12.3608H13.0553V-1.18054H12.3608Z" fill="white" mask="url(#path-8-inside-1_1418_4765)"/>
</g>
</g>
<defs>
<clipPath id="clip0_1418_4765">
<rect width="20" height="14.1667" rx="4" fill="white"/>
</clipPath>
</defs>
</svg>
