<svg width="114" height="86" viewBox="0 0 114 86" fill="none" xmlns="http://www.w3.org/2000/svg">
<path d="M28.9955 40.1343C29.2822 40.392 29.7185 40.3061 30.0676 40.2325H34.2935V65.528H22.7626V40.2447H13.6999V30.1191H70.6189C66.4553 32.5861 63.3763 35.8386 61.5313 40.2325H54.7998V65.528H43.3188V31.7392C39.8657 36.4522 34.7423 39.4592 28.9831 40.1343H28.9955Z" fill="white"/>
<path d="M86.0641 42.4539C82.8728 39.4837 78.1109 39.545 75.1191 42.5029C72.1273 45.4486 72.1398 50.2352 75.1191 53.1931C78.0984 56.151 82.9227 56.2615 86.0641 53.2299L93.3441 60.3976C86.9118 66.8044 76.6025 67.3076 69.5344 61.8704C62.4164 56.3965 60.4593 46.59 65.0716 38.8823C69.6466 31.2359 79.2453 28.0326 87.722 31.555C87.7844 35.188 87.4229 38.7841 86.0766 42.4784L86.0641 42.4539Z" fill="white"/>
<path d="M98.7543 42.7975C97.9191 43.7916 97.059 44.7735 95.9744 45.5099C96.9717 34.7952 94.6281 24.6696 89.1307 15.5995C89.1556 16.2132 89.5919 16.6182 89.8662 17.1337C94.6904 26.0442 96.5354 36.1944 95.1143 46.2095C93.3815 47.3264 91.4618 47.9769 89.3177 47.9155C95.588 34.2797 92.9951 18.2261 82.6983 7.26588C80.0057 4.39389 76.964 2.11103 73.4736 0C80.978 2.09876 87.6348 6.02626 93.3067 11.0952C98.1435 15.4032 101.995 20.5826 104.937 26.3511C107.642 24.5346 111.12 24.2523 114.012 26.1547C111.195 27.7748 108.852 29.7017 106.77 32.095C104.825 34.2797 103.279 36.6485 101.497 39.0664C99.7516 30.389 96.2736 22.2886 90.6141 15.6486C96.0118 22.8531 99.6892 30.9659 100.911 39.9132C100.238 40.9565 99.5397 41.8402 98.7792 42.7852L98.7543 42.7975Z" fill="white"/>
<path d="M15.2457 84.7971C13.2886 83.4716 12.3412 81.4955 12.4409 79.2495C12.5905 75.6534 15.495 72.9287 19.16 72.941C21.8027 72.941 24.1588 74.4015 25.2433 76.6353C26.4151 79.0409 26.0162 81.9251 24.1712 83.8643C21.8277 86.319 18.063 86.6995 15.2457 84.7848V84.7971ZM20.793 82.7597C22.6878 81.6428 23.0992 79.2863 22.1019 77.5067C21.5036 76.4266 20.4564 75.8375 19.347 75.8007C18.1502 75.7516 17.1156 76.1811 16.405 77.1998C15.2083 78.8813 15.5075 81.3114 17.2527 82.5756C18.2126 83.2752 19.7085 83.3979 20.793 82.772V82.7597Z" fill="white"/>
<path d="M10.7331 85.7177L7.4421 85.7545L7.42963 80.7224L3.27851 80.747L3.26605 85.73H0V73.2111L3.25358 73.1865L3.27851 77.9118L7.41717 77.9241L7.4421 73.1865L10.7331 73.2111V85.7177Z" fill="white"/>
<path d="M70.2075 83.9626H65.7448L65.0966 85.7545L61.5937 85.7177L66.6922 73.1865L69.2851 73.2111L74.2963 85.6932L70.7934 85.7423L70.1951 83.9626H70.2075ZM69.3349 81.3729L67.9886 77.1631L66.6797 81.3729H69.3349Z" fill="white"/>
<path d="M43.0071 81.7657L40.6511 81.8148V85.7423L37.5221 85.6932V73.2111C39.4793 73.162 41.237 73.1375 43.0694 73.2234C44.7149 73.297 46.1485 74.1071 46.7718 75.6412C47.3951 77.1754 47.1707 79.0287 46.0986 80.3665C45.3756 81.2625 44.2038 81.7289 43.0196 81.7534L43.0071 81.7657ZM43.9794 77.4454C43.9545 75.6781 41.935 76.0585 40.6635 75.9972V78.9919C41.4364 79.0164 42.0846 79.0287 42.7453 78.9551C43.5681 78.8569 43.9919 78.2064 43.9919 77.4454H43.9794Z" fill="white"/>
<path d="M33.5705 85.6441C32.1868 86.1227 30.7657 86.0982 29.4568 85.6441C27.724 85.0427 26.6644 83.4717 26.9885 81.6061H30.1174C30.2421 82.2443 30.3792 82.8335 30.7283 83.0544C31.2144 83.3735 31.8502 83.3612 32.3239 83.0544C32.6729 82.8212 32.7976 82.2321 32.6729 81.7902C32.2366 80.2192 27.1755 80.391 27.1007 76.6967C27.0758 75.6044 27.5245 74.6839 28.4595 73.9598C30.1424 72.6588 32.6106 72.5606 34.3808 73.8002C35.403 74.5121 35.9016 75.6289 35.7894 76.8563H32.6979C32.5233 76.4758 32.3364 76.0094 32.1244 75.8253C31.8502 75.5799 31.2643 75.5921 30.8405 75.7271C30.5163 75.8253 30.3169 76.3408 30.3418 76.6845C30.3668 77.0281 30.6909 77.4454 31.0648 77.6295L34.094 79.1023C35.4279 79.7528 36.0761 81.0415 35.9639 82.4653C35.8642 83.9012 35.0414 85.1286 33.5705 85.6441Z" fill="white"/>
<path d="M107.991 73.2232L104.239 81.2132L104.264 85.7421H100.998V81.2378L97.1836 73.2232L100.699 73.2109L102.606 78.1326L104.501 73.2109L107.991 73.2232Z" fill="white"/>
<path d="M58.7514 85.6932L55.5353 85.73L55.5103 75.9971L53.0296 75.9849L53.0421 73.1988L61.2571 73.1865L61.3069 75.9971L58.7764 76.0217L58.7514 85.6932Z" fill="white"/>
<path d="M94.3913 85.7177L91.1252 85.7668L91.1127 76.034L88.6071 76.0094L88.6196 73.1865H96.8969L96.8844 75.9849L94.3913 76.0462V85.7177Z" fill="white"/>
<path d="M82.7606 82.9194V85.7423L75.705 85.7545V73.1865L78.971 73.1988V82.8825L82.7606 82.9194Z" fill="white"/>
<path d="M87.2982 85.7054H84.0197L84.0322 73.211L87.2857 73.1987L87.2982 85.7054Z" fill="white"/>
<path d="M51.7207 85.6563C50.6611 85.7791 49.614 85.7545 48.4671 85.7177V73.2111L51.7207 73.1865V85.6563Z" fill="white"/>
</svg>
