<svg width="100" height="138" viewBox="0 0 100 138" fill="none" xmlns="http://www.w3.org/2000/svg">
<path d="M13.1128 107.433H16.691L23.1887 118.992V107.433H26.3766V124.009H22.961L16.2925 112.247V124.009H13.1128V107.433Z" fill="white"/>
<path d="M41.6903 110.371H33.0294V113.894H40.9746V116.768H33.0294V121.03H42.0888V124.009H29.687V107.433H41.6903V110.371Z" fill="white"/>
<path d="M47.2199 118.894C47.3256 119.649 47.537 120.217 47.8461 120.591C48.4153 121.273 49.3831 121.614 50.7574 121.614C51.5788 121.614 52.2456 121.524 52.7661 121.338C53.742 120.997 54.2299 120.355 54.2299 119.414C54.2299 118.87 53.9941 118.448 53.5143 118.147C53.0345 117.855 52.2782 117.595 51.2372 117.368L49.4644 116.978C47.7241 116.589 46.5286 116.167 45.878 115.704C44.772 114.941 44.2191 113.739 44.2191 112.116C44.2191 110.63 44.7558 109.396 45.8374 108.414C46.919 107.432 48.5048 106.937 50.5948 106.937C52.3432 106.937 53.8314 107.399 55.0594 108.325C56.2955 109.25 56.938 110.598 57.003 112.351H53.7176C53.6525 111.353 53.2134 110.646 52.4001 110.224C51.8553 109.948 51.1722 109.81 50.3589 109.81C49.4562 109.81 48.7325 109.997 48.1957 110.354C47.659 110.711 47.3906 111.215 47.3906 111.864C47.3906 112.457 47.659 112.895 48.1876 113.187C48.5292 113.382 49.2529 113.609 50.3589 113.877L53.2296 114.567C54.4901 114.868 55.4335 115.265 56.0597 115.769C57.0355 116.548 57.5235 117.676 57.5235 119.154C57.5235 120.631 56.9461 121.93 55.7913 122.929C54.6365 123.927 53.0019 124.431 50.8875 124.431C48.7731 124.431 47.041 123.935 45.8048 122.953C44.5687 121.971 43.9507 120.607 43.9507 118.886H47.2199V118.894Z" fill="white"/>
<path d="M72.2263 107.433V110.371H67.3307V124.009H63.8907V110.371H58.9707V107.433H72.2263Z" fill="white"/>
<path d="M77.2358 107.433H81.1068L86.9051 124.009H83.1886L82.107 120.6H76.081L74.9669 124.009H71.3887L77.2358 107.433ZM77.0081 117.75H81.2043L79.1387 111.224L77.0162 117.75H77.0081Z" fill="white"/>
<mask id="mask0_1125_4447" style="mask-type:luminance" maskUnits="userSpaceOnUse" x="0" y="0" width="100" height="101">
<path d="M0.483314 43.2845C-3.3226 70.7392 15.7639 96.0994 43.1128 99.9148C70.4617 103.738 95.7125 84.572 99.5184 57.1174C103.316 29.6627 84.2378 4.30247 56.8889 0.487071C54.555 0.162356 52.2291 0 49.944 0C25.3925 0 3.97207 18.1759 0.491448 43.2845" fill="white"/>
</mask>
<g mask="url(#mask0_1125_4447)">
<path d="M25.5247 -47.2848L-49.4854 75.6729L74.4687 151.023L149.479 28.0651L25.5247 -47.2848Z" fill="url(#paint0_linear_1125_4447)"/>
</g>
<path d="M39.1271 9.23012C39.2653 9.23824 39.3873 9.21388 39.5012 9.14894C39.5662 9.11646 39.6557 9.14082 39.7045 9.19765L42.9818 13.013C43.055 13.1023 43.1851 13.0942 43.2583 12.9968C44.0959 11.8603 45.5841 11.2109 46.0639 11.016C46.1534 10.9836 46.1941 10.8862 46.1615 10.7969L44.5839 6.42134C44.5595 6.34016 44.5839 6.25898 44.6571 6.21839C44.8604 6.12098 45.0067 5.91802 45.023 5.67449C45.0555 5.30107 44.7709 4.96823 44.3968 4.94388C44.0227 4.91952 43.6974 5.19554 43.6649 5.56896C43.6324 5.94238 43.917 6.27521 44.2911 6.29957C44.3155 6.29957 44.348 6.29145 44.3724 6.29145L44.6164 9.47365C44.6245 9.63601 44.4293 9.72531 44.3155 9.61165L41.9897 7.225C41.9246 7.16006 41.9246 7.06265 41.9815 6.98959C42.071 6.88405 42.1279 6.75417 42.136 6.61616C42.1686 6.24274 41.8839 5.91803 41.5098 5.88555C41.1358 5.85308 40.8023 6.13721 40.7779 6.51063C40.7454 6.88405 41.03 7.20877 41.4041 7.24124C41.5099 7.24124 41.6156 7.225 41.705 7.19253L42.8273 10.7238C42.8761 10.8862 42.6972 11.016 42.5589 10.9186L39.7045 8.96223C39.7858 8.8567 39.8427 8.74305 39.8509 8.61316C39.8834 8.23974 39.5988 7.9069 39.2247 7.88255C38.8506 7.85008 38.5172 8.13421 38.4928 8.50763C38.4602 8.88105 38.7449 9.20576 39.119 9.23823" fill="white"/>
<path d="M43.2763 18.5109C43.4714 19.8991 38.1936 25.8982 39.2264 26.093C39.6818 26.1823 44.61 22.2533 45.7892 22.1153C47.4807 21.9204 49.3348 20.9706 50.3026 19.2496C51.0345 17.9508 50.8637 18.2106 51.3516 17.4231C52.5227 15.5398 54.4663 14.9309 56.7108 15.1176C60.4842 15.4342 64.8757 18.8113 63.8591 27.473C62.9564 35.1201 50.9288 43.8874 48.0662 45.8681C47.9686 45.9412 47.9605 46.0873 48.0662 46.1604C50.2294 47.646 53.0513 48.9692 55.8081 49.8297C55.8651 49.8459 55.9139 49.8297 55.9627 49.8053C59.2481 47.2888 70.7716 37.7097 68.7304 24.786C66.559 11.0181 53.466 9.75985 48.0825 11.7081C42.6989 13.6564 43.138 17.5287 43.2763 18.5109Z" fill="white"/>
<path d="M38.3466 77.1297C38.3547 65.3669 47.1945 56.9973 53.6516 51.81C53.7573 51.7288 53.7329 51.5665 53.6109 51.5178C48.5364 49.3584 41.8597 45.4294 37.3788 39.4465C37.2731 39.3085 37.0536 39.3816 37.0617 39.5601C37.2894 42.166 38.2409 44.6338 39.0297 47.1179C39.0785 47.264 38.9158 47.402 38.7776 47.3289C34.2154 44.9829 30.5884 41.825 27.9291 36.9056C26.4246 34.1293 25.5382 30.8091 25.1479 27.6837C24.7169 24.2417 24.6193 21.1732 25.4569 17.8042C26.0262 15.515 27.0752 12.7955 28.4171 10.6199C28.5309 10.4413 28.2788 10.2546 28.1324 10.4089C26.6686 12.0649 24.6111 15.1172 23.1717 19.8256C20.6426 28.1221 22.5943 38.1152 24.1069 42.5881C24.8388 44.7556 26.3433 48.3356 28.0186 51.0713C28.1243 51.2418 27.9129 51.4285 27.7583 51.2986C23.3669 47.5887 19.9839 40.2908 18.9023 35.2414C18.1704 31.7995 17.7231 29.2586 17.9345 25.224C18.1866 20.402 18.9917 17.65 19.4553 16.1238C19.5122 15.929 19.252 15.8072 19.1381 15.9777C16.2918 20.5156 7.83421 38.7971 24.6274 61.4865C24.7494 61.6489 24.5379 61.8599 24.3834 61.73C22.6431 60.3338 18.9429 56.697 14.9174 47.8891C12.6729 42.9697 10.3878 34.4378 11.1034 27.8623C11.1278 27.6593 10.835 27.5863 10.77 27.7811C9.37934 31.6209 7.16736 40.2989 11.1034 52.8735C13.6569 61.0319 19.7074 67.8103 22.1877 70.3512C26.4816 74.743 30.2062 77.1946 32.0034 78.258C32.1904 78.3636 32.0522 78.6477 31.8489 78.5746C29.4011 77.6411 24.2614 74.8242 20.1221 71.4959C15.8689 68.0701 12.2175 63.3374 9.42001 58.6453C8.01312 56.2911 7.05351 54.4159 5.76048 51.0794C5.68728 50.8846 5.39452 50.9576 5.41892 51.1606C6.12643 57.5818 8.17577 66.0082 12.9169 73.0058C18.7396 81.6107 26.4328 85.97 30.6209 87.756C30.8161 87.8371 30.7185 88.1375 30.5071 88.0888C25.2536 86.9036 19.9513 83.9649 17.0562 82.0004C16.8855 81.8867 16.6903 82.114 16.8285 82.2602C20.4067 86.1161 31.6618 95.6222 49.0243 96.4745C49.1951 96.4827 49.2764 96.2635 49.1381 96.158C44.2832 92.651 38.3385 86.1405 38.3466 77.1215" fill="white"/>
<path d="M77.9188 72.3889C77.7806 72.4213 77.6992 72.2346 77.8212 72.1535C78.8296 71.4634 79.838 70.7815 80.757 69.9779C83.465 67.6156 87.0189 64.2629 89.1658 60.6261C91.8169 56.145 93.1343 52.2322 93.4922 45.9652C93.6467 43.3107 93.0449 38.4968 91.9796 35.4201C91.6543 34.4865 91.1094 33.1065 90.5401 32.108C90.467 31.9862 90.2799 32.0512 90.3043 32.1973C91.3452 39.2111 89.8733 49.4478 83.0991 56.4291C82.9934 56.5347 82.8226 56.4129 82.8958 56.283C92.866 37.8067 83.2048 21.019 80.6757 17.3416C80.5944 17.2198 80.3992 17.3172 80.4561 17.4552C82.5542 23.4706 83.1642 38.0503 78.8947 44.5121C78.8134 44.6339 78.6182 44.5446 78.667 44.3985C79.6591 41.265 80.8383 35.1116 78.9435 26.4985C78.0733 22.5533 76.0565 17.8936 73.0232 14.4029C69.1603 9.95431 63.8093 7.73814 61.5078 6.93447C61.3696 6.88576 61.272 7.08059 61.394 7.16177C64.6713 9.28865 71.8603 15.4014 73.2184 24.9967C74.4463 33.7072 72.0392 40.2259 70.0142 43.5948C69.941 43.7165 69.754 43.6435 69.7784 43.5055C70.0712 41.6384 70.1443 39.4465 69.8028 37.2304C69.7865 37.0924 69.5913 37.0842 69.5507 37.2141C68.3471 41.1188 65.5903 45.4375 59.7757 50.0647C59.6374 50.1703 58.5721 51.0308 57.8646 51.5746C51.8873 56.1856 40.7624 64.7743 40.7461 77.1378C40.7461 87.894 50.1714 94.3152 53.831 96.1824C53.8554 96.1905 53.8716 96.1986 53.896 96.1986C54.6849 96.1255 68.7293 95.1839 80.6675 84.8336C80.7814 84.7362 80.6675 84.5576 80.5374 84.6144C77.3008 86.0431 74.3081 86.652 71.4618 86.9036C71.3073 86.9199 71.2666 86.7007 71.413 86.652C75.2677 85.4181 78.8947 83.4941 82.1151 81.0506C84.2376 79.492 86.2056 77.6898 87.8321 75.6036C90.1742 72.6324 91.8576 69.1742 92.9473 65.5536C93.7768 62.8423 94.2891 60.0416 94.5819 57.2247C94.5982 57.0705 94.3867 57.0217 94.3298 57.1679C92.6952 61.9899 87.3604 69.9941 77.9188 72.3889Z" fill="white"/>
<path d="M21.0258 132.386H13.0317V133.198H21.0258V132.386Z" fill="white"/>
<path d="M86.9779 132.386H78.9839V133.198H86.9779V132.386Z" fill="white"/>
<path d="M28.8894 135.407H27.7997V132.436H24.7501V135.407H23.6685V128.823H24.7501V131.518H27.7997V128.823H28.8894V135.407Z" fill="white"/>
<path d="M34.915 132.906C34.915 133.718 34.7035 134.351 34.2888 134.814C33.8659 135.269 33.2885 135.496 32.5403 135.496C32.0687 135.496 31.662 135.39 31.2961 135.179C30.9383 134.968 30.6618 134.668 30.4666 134.278C30.2714 133.889 30.1738 133.426 30.1738 132.906C30.1738 132.103 30.3853 131.47 30.8 131.015C31.2148 130.56 31.8003 130.333 32.5647 130.333C33.3292 130.333 33.8659 130.568 34.2888 131.031C34.7117 131.494 34.9231 132.119 34.9231 132.906M31.2717 132.906C31.2717 134.059 31.6946 134.627 32.5566 134.627C33.4186 134.627 33.8252 134.051 33.8252 132.906C33.8252 131.762 33.4024 131.202 32.5485 131.202C32.1012 131.202 31.7759 131.348 31.5807 131.64C31.3774 131.932 31.2798 132.354 31.2798 132.906" fill="white"/>
<path d="M37.9571 134.637C38.2173 134.637 38.4776 134.596 38.7378 134.515V135.311C38.6239 135.359 38.4694 135.408 38.2824 135.441C38.0953 135.473 37.9083 135.489 37.705 135.489C36.6966 135.489 36.1924 134.962 36.1924 133.906V131.227H35.5093V130.757L36.2412 130.367L36.6071 129.312H37.2659V130.416H38.689V131.219H37.2659V133.882C37.2659 134.134 37.3309 134.328 37.461 134.45C37.5911 134.572 37.7538 134.629 37.9652 134.629" fill="white"/>
<path d="M41.8772 135.496C41.0965 135.496 40.4865 135.268 40.0474 134.822C39.6082 134.367 39.3887 133.75 39.3887 132.955C39.3887 132.159 39.592 131.502 39.9986 131.039C40.4052 130.576 40.9663 130.341 41.682 130.341C42.3407 130.341 42.8612 130.544 43.2515 130.942C43.6337 131.339 43.8289 131.891 43.8289 132.589V133.158H40.4947C40.5109 133.645 40.641 134.01 40.885 134.27C41.129 134.53 41.4787 134.66 41.9341 134.66C42.2268 134.66 42.5033 134.635 42.7636 134.578C43.0157 134.522 43.2922 134.432 43.5849 134.302V135.163C43.3247 135.285 43.0645 135.374 42.7961 135.423C42.5277 135.471 42.2268 135.496 41.8853 135.496M41.682 131.136C41.3404 131.136 41.0721 131.242 40.8687 131.453C40.6654 131.664 40.5435 131.973 40.5028 132.387H42.7798C42.7798 131.973 42.6741 131.664 42.4789 131.453C42.2838 131.242 42.0235 131.136 41.682 131.136Z" fill="white"/>
<path d="M46.0565 128.402H44.9912V135.408H46.0565V128.402Z" fill="white"/>
<path d="M52.7171 131.834H55.1568V135.138C54.7583 135.268 54.3761 135.357 54.0101 135.414C53.6442 135.471 53.2457 135.495 52.8228 135.495C51.8226 135.495 51.05 135.203 50.5051 134.61C49.9603 134.018 49.6919 133.19 49.6919 132.118C49.6919 131.047 50.0009 130.227 50.6108 129.634C51.2208 129.033 52.0665 128.733 53.14 128.733C53.8312 128.733 54.49 128.863 55.108 129.131L54.7258 130.024C54.1891 129.78 53.6523 129.65 53.1156 129.65C52.4081 129.65 51.847 129.869 51.4403 130.316C51.0256 130.754 50.8223 131.363 50.8223 132.126C50.8223 132.93 51.0093 133.539 51.3753 133.961C51.7412 134.375 52.278 134.586 52.9692 134.586C53.3189 134.586 53.693 134.545 54.0915 134.456V132.759H52.7171V131.834Z" fill="white"/>
<path d="M59.1255 130.333C59.3369 130.333 59.5158 130.349 59.6541 130.382L59.5484 131.364C59.3939 131.331 59.2393 131.307 59.0767 131.307C58.6538 131.307 58.3041 131.445 58.0439 131.721C57.7755 131.997 57.6454 132.354 57.6454 132.793V135.39H56.5801V130.414H57.4096L57.5478 131.291H57.6047C57.7674 130.99 57.987 130.755 58.2553 130.584C58.5237 130.414 58.8083 130.325 59.1174 130.325" fill="white"/>
<path d="M64.9799 132.906C64.9799 133.718 64.7685 134.351 64.3537 134.814C63.9308 135.269 63.3534 135.496 62.6053 135.496C62.1336 135.496 61.727 135.39 61.361 135.179C61.0032 134.968 60.7267 134.668 60.5315 134.278C60.3364 133.889 60.2388 133.426 60.2388 132.906C60.2388 132.103 60.4502 131.47 60.865 131.015C61.2797 130.56 61.8652 130.333 62.6297 130.333C63.3941 130.333 63.9308 130.568 64.3537 131.031C64.7766 131.494 64.988 132.119 64.988 132.906M61.3285 132.906C61.3285 134.059 61.7514 134.627 62.6134 134.627C63.4754 134.627 63.882 134.051 63.882 132.906C63.882 131.762 63.4592 131.202 62.6053 131.202C62.158 131.202 61.8327 131.348 61.6375 131.64C61.4342 131.932 61.3366 132.354 61.3366 132.906" fill="white"/>
<path d="M69.6886 135.407L69.5422 134.757H69.4852C69.3389 134.985 69.1274 135.172 68.8509 135.301C68.5744 135.431 68.2654 135.496 67.9157 135.496C67.3058 135.496 66.8585 135.35 66.5576 135.05C66.2567 134.749 66.1104 134.295 66.1104 133.686V130.431H67.1838V133.499C67.1838 133.881 67.2651 134.165 67.4197 134.36C67.5742 134.546 67.8181 134.644 68.1597 134.644C68.607 134.644 68.9323 134.514 69.1437 134.246C69.3551 133.978 69.4609 133.532 69.4609 132.915V130.439H70.5262V135.415H69.6886V135.407Z" fill="white"/>
<path d="M74.5356 135.496C73.9013 135.496 73.4053 135.269 73.0556 134.814H72.9905C73.0312 135.236 73.0556 135.488 73.0556 135.577V137.615H71.9902V130.422H72.8523C72.8767 130.512 72.9255 130.739 72.9986 131.088H73.0556C73.389 130.585 73.8851 130.333 74.5519 130.333C75.1781 130.333 75.666 130.56 76.0157 131.007C76.3654 131.453 76.5362 132.086 76.5362 132.898C76.5362 133.71 76.3573 134.343 76.0076 134.806C75.6498 135.261 75.1618 135.488 74.5356 135.488M74.2835 131.202C73.8607 131.202 73.5516 131.323 73.3565 131.575C73.1613 131.819 73.0637 132.216 73.0637 132.752V132.906C73.0637 133.515 73.1613 133.954 73.3565 134.221C73.5516 134.489 73.8688 134.627 74.2998 134.627C74.6658 134.627 74.9504 134.481 75.1537 134.181C75.357 133.881 75.4546 133.45 75.4546 132.898C75.4546 132.346 75.357 131.916 75.1618 131.632C74.9667 131.348 74.6739 131.202 74.2917 131.202" fill="white"/>
<defs>
<linearGradient id="paint0_linear_1125_4447" x1="89.75" y1="-10.0369" x2="24.7216" y2="96.9377" gradientUnits="userSpaceOnUse">
<stop stop-color="#FCF175"/>
<stop offset="0.04" stop-color="#F6E76E"/>
<stop offset="0.2" stop-color="#E1C154"/>
<stop offset="0.29" stop-color="#DAB34A"/>
<stop offset="0.45" stop-color="#CA983C"/>
<stop offset="0.64" stop-color="#BD8332"/>
<stop offset="0.81" stop-color="#B5762C"/>
<stop offset="0.98" stop-color="#B3722A"/>
<stop offset="1" stop-color="#B3722A"/>
</linearGradient>
</defs>
</svg>
