<svg width="18" height="18" viewBox="0 0 18 18" fill="none" xmlns="http://www.w3.org/2000/svg">
<g clip-path="url(#clip0_901_5603)">
<path d="M5.45872 17.0847C4.39083 17.0847 3.31903 17.1199 2.25114 17.0807C0.98767 17.0298 0.0214844 15.9684 0.0214844 14.7033C0.0214844 10.6183 0.0293077 6.53326 0.0214844 2.4443C0.0214844 1.04606 1.11284 0.0708191 2.36849 0.0355694C3.68282 0.000319788 5.00105 0.0277362 6.31929 0.0277362C6.34276 0.0277362 6.37405 0.0159863 6.38579 0.0551526C6.37797 0.125652 6.30756 0.133485 6.26453 0.160902C5.49001 0.61523 4.782 1.15964 4.18742 1.8333C3.20559 2.94562 2.52496 4.22245 2.29417 5.70685C1.88736 8.32707 2.7049 10.5517 4.55512 12.4082C4.8837 12.7411 4.92673 12.9996 4.66465 13.4461C4.3478 13.9827 3.86667 14.3469 3.35424 14.6798C3.29947 14.7112 3.24471 14.7503 3.18995 14.7856C3.1078 14.8561 3.15865 14.8913 3.22906 14.9227C3.24471 14.9579 3.26427 14.9893 3.28774 15.0206C3.73758 15.4201 4.16395 15.847 4.60597 16.2543C4.81329 16.4462 5.02061 16.646 5.22011 16.8457C5.30225 16.9202 5.43916 16.9437 5.45872 17.0847Z" fill="white"/>
<path d="M5.45817 17.0841C5.43862 16.947 5.30171 16.9235 5.21956 16.8413C5.02007 16.6376 4.81275 16.4418 4.60543 16.2499C4.16341 15.8425 3.73703 15.4156 3.28719 15.0161C3.26372 14.9848 3.24416 14.9535 3.22852 14.9182C4.22599 15.114 5.2 14.9809 6.15836 14.6871C6.48303 14.5892 6.8077 14.4913 7.13629 14.409C7.35925 14.3503 7.59395 14.362 7.80909 14.4404C10.2891 15.2942 12.7378 15.2159 15.1474 14.1584C16.1292 13.7236 17.025 13.1126 17.7839 12.3489C17.823 12.3097 17.8504 12.251 17.9208 12.2471C17.956 12.3019 17.9364 12.3607 17.9364 12.4194V14.7106C17.9443 16.0188 16.8959 17.0841 15.5894 17.0959H15.5699C14.1617 17.1037 12.7535 17.0959 11.3453 17.0959H5.69287C5.61464 17.088 5.53641 17.0841 5.45817 17.0841Z" fill="white"/>
<path d="M6.06775 8.31854C6.65841 8.31854 7.21387 8.31463 7.76541 8.31854C8.07444 8.32246 8.24264 8.45171 8.27393 8.69846C8.30914 9.00787 8.1292 9.21545 7.7928 9.21937C7.1591 9.2272 6.52932 9.22329 5.89563 9.22329C5.71178 9.22329 5.53184 9.23112 5.348 9.21937C5.12112 9.20762 4.89815 9.16062 4.78863 8.92562C4.6791 8.69062 4.75733 8.47913 4.90598 8.28721C5.50837 7.51955 6.11469 6.74798 6.721 5.98032C6.7562 5.93332 6.79141 5.88632 6.82661 5.84324C6.78749 5.77665 6.73273 5.80799 6.68579 5.80407C6.26333 5.80015 5.83696 5.80407 5.41449 5.80015C5.3167 5.80015 5.21891 5.7884 5.12503 5.76882C4.90206 5.7179 4.76516 5.49466 4.81601 5.27532C4.85121 5.12649 4.96856 5.00508 5.11721 4.96983C5.21109 4.94633 5.30888 4.93458 5.40667 4.93458C6.10295 4.93066 6.80314 4.93066 7.49942 4.93458C7.62459 4.93066 7.74586 4.94633 7.86712 4.97766C8.13311 5.06774 8.24655 5.31449 8.14094 5.57299C8.04706 5.79624 7.89841 5.98815 7.74977 6.18007C7.23734 6.83414 6.72491 7.4843 6.21248 8.13055C6.16945 8.18146 6.13033 8.23238 6.06775 8.31854Z" fill="white"/>
<path d="M12.9719 6.93205C12.9719 7.53912 12.9758 8.1462 12.9719 8.75328C12.9758 9.03136 12.7567 9.26244 12.479 9.27027C12.432 9.27027 12.3812 9.26636 12.3342 9.25461C12.1387 9.20369 11.99 8.99611 11.99 8.74936V5.63564C11.99 5.45156 11.9861 5.27139 11.99 5.08731C11.9939 4.78573 12.1856 4.5899 12.4751 4.5899C12.7724 4.58598 12.9719 4.78182 12.9719 5.09515C12.9758 5.70614 12.9719 6.32105 12.9719 6.93205Z" fill="white"/>
<path d="M15.334 5.92578C16.3314 5.89445 17.0595 6.56383 17.0908 7.54297C17.1221 8.53376 16.5158 9.23497 15.5811 9.3291C14.5603 9.43092 13.7503 8.69083 13.7656 7.71191C13.7343 6.70545 14.3953 5.95335 15.334 5.92578ZM15.4668 6.83105C15.0445 6.80777 14.7471 7.13265 14.7471 7.61816C14.7432 7.81393 14.7987 8.00547 14.916 8.16602C14.9473 8.2091 14.9824 8.24894 15.0254 8.28027C15.3031 8.49937 15.7097 8.45182 15.9287 8.17383C16.1554 7.88004 16.1555 7.37473 15.9326 7.07715C15.8231 6.92851 15.6505 6.83497 15.4668 6.83105Z" fill="white"/>
<path d="M9.0459 6.12109C9.57781 5.80399 10.1176 5.83096 10.6064 6.25781C10.7002 6.13651 10.7978 6.02257 10.958 5.99121C11.267 5.92854 11.5566 6.12905 11.5605 6.44238C11.5723 7.22559 11.5684 8.00879 11.5605 8.79199C11.5605 8.99553 11.4278 9.17551 11.2363 9.23438C11.0408 9.30876 10.8176 9.25031 10.6885 9.08203C10.622 8.99981 10.5948 8.98428 10.501 9.05859C10.145 9.34842 9.74181 9.39881 9.30762 9.25781C8.61134 9.03065 8.3253 8.48613 8.24707 7.82422C8.16507 7.10766 8.40451 6.49702 9.0459 6.12109ZM9.94531 6.82617C9.51894 6.80267 9.21777 7.13623 9.22168 7.68848C9.22955 7.86069 9.28412 8.02511 9.38184 8.16211C9.42086 8.2129 9.46393 8.25581 9.51074 8.29102C9.79629 8.50251 10.1999 8.44411 10.4111 8.16211C10.63 7.86448 10.63 7.37084 10.4111 7.07715C10.3016 6.92443 10.1291 6.83403 9.94531 6.82617Z" fill="white"/>
</g>
<defs>
<clipPath id="clip0_901_5603">
<rect width="18" height="17.1" fill="white"/>
</clipPath>
</defs>
</svg>
