<svg width="19" height="19" viewBox="0 0 19 19" fill="none" xmlns="http://www.w3.org/2000/svg">
<path d="M14.4502 4.4502H16.4502C16.9806 4.4502 17.4893 4.66091 17.8644 5.03598C18.2395 5.41105 18.4502 5.91976 18.4502 6.4502V12.4502C18.4502 12.9806 18.2395 13.4893 17.8644 13.8644C17.4893 14.2395 16.9806 14.4502 16.4502 14.4502H14.4502V18.4502L10.4502 14.4502H6.4502C6.18752 14.4505 5.92739 14.3988 5.68473 14.2983C5.44207 14.1977 5.22167 14.0502 5.0362 13.8642M5.0362 13.8642L8.4502 10.4502H12.4502C12.9806 10.4502 13.4893 10.2395 13.8644 9.86441C14.2395 9.48934 14.4502 8.98063 14.4502 8.4502V2.4502C14.4502 1.91976 14.2395 1.41105 13.8644 1.03598C13.4893 0.660909 12.9806 0.450195 12.4502 0.450195H2.4502C1.91976 0.450195 1.41105 0.660909 1.03598 1.03598C0.660909 1.41105 0.450195 1.91976 0.450195 2.4502V8.4502C0.450195 8.98063 0.660909 9.48934 1.03598 9.86441C1.41105 10.2395 1.91976 10.4502 2.4502 10.4502H4.4502V14.4502L5.0362 13.8642Z" stroke="white" stroke-width="0.9" stroke-linecap="round" stroke-linejoin="round"/>
</svg>
