<svg width="16" height="16" viewBox="0 0 16 16" fill="none" xmlns="http://www.w3.org/2000/svg">
<path d="M15 9.08347V12.146C15 12.6983 14.5523 13.146 14 13.146H13.4688C13.1063 13.146 12.8125 12.8522 12.8125 12.4897C12.8125 12.1273 12.5187 11.8335 12.1563 11.8335H3.84375C3.48131 11.8335 3.1875 12.1273 3.1875 12.4897C3.1875 12.8522 2.89369 13.146 2.53125 13.146H2C1.44772 13.146 1 12.6983 1 12.146V9.08347M15 9.08347H1M15 9.08347V7.89597C15 7.41272 14.6082 7.02097 14.125 7.02097M1 9.08347V7.89597C1 7.41272 1.39175 7.02097 1.875 7.02097M14.125 7.02097V4.59124C14.125 3.44786 13.1981 2.52097 12.0547 2.52097C11.6913 2.52097 11.3343 2.42531 11.0196 2.24361L10 1.65494C8.7624 0.940414 7.2376 0.940414 6 1.65494L4.98041 2.24361C4.66569 2.42531 4.30868 2.52097 3.94527 2.52097C2.80189 2.52097 1.875 3.44786 1.875 4.59124V7.02097M14.125 7.02097H1.875" stroke="#181819"/>
<path d="M8 7.5V5.5C8 4.94772 7.55228 4.5 7 4.5H5C4.44772 4.5 4 4.94772 4 5.5V7.5" stroke="#181819"/>
<path d="M12 7.5V5.5C12 4.94772 11.5523 4.5 11 4.5H9C8.44772 4.5 8 4.94772 8 5.5V7.5" stroke="#181819"/>
</svg>
