<svg width="16" height="16" viewBox="0 0 16 16" fill="none" xmlns="http://www.w3.org/2000/svg">
<path d="M2.66699 10.6667L5.72433 7.60941C5.97436 7.35945 6.31344 7.21903 6.66699 7.21903C7.02054 7.21903 7.35962 7.35945 7.60966 7.60941L10.667 10.6667M9.33366 9.33341L10.391 8.27608C10.641 8.02612 10.9801 7.8857 11.3337 7.8857C11.6872 7.8857 12.0263 8.02612 12.2763 8.27608L13.3337 9.33341M9.33366 5.33341H9.34033M4.00033 13.3334H12.0003C12.3539 13.3334 12.6931 13.1929 12.9431 12.9429C13.1932 12.6928 13.3337 12.3537 13.3337 12.0001V4.00008C13.3337 3.64646 13.1932 3.30732 12.9431 3.05727C12.6931 2.80722 12.3539 2.66675 12.0003 2.66675H4.00033C3.6467 2.66675 3.30756 2.80722 3.05752 3.05727C2.80747 3.30732 2.66699 3.64646 2.66699 4.00008V12.0001C2.66699 12.3537 2.80747 12.6928 3.05752 12.9429C3.30756 13.1929 3.6467 13.3334 4.00033 13.3334Z" stroke="#023668" stroke-linecap="round" stroke-linejoin="round"/>
</svg>
