<svg width="18" height="18" viewBox="0 0 18 18" fill="none" xmlns="http://www.w3.org/2000/svg">
<path d="M5.88889 5.11111V2M12.1111 5.11111V2M5.11111 8.22222H12.8889M3.55556 16H14.4444C14.857 16 15.2527 15.8361 15.5444 15.5444C15.8361 15.2527 16 14.857 16 14.4444V5.11111C16 4.69855 15.8361 4.30289 15.5444 4.01117C15.2527 3.71944 14.857 3.55556 14.4444 3.55556H3.55556C3.143 3.55556 2.74733 3.71944 2.45561 4.01117C2.16389 4.30289 2 4.69855 2 5.11111V14.4444C2 14.857 2.16389 15.2527 2.45561 15.5444C2.74733 15.8361 3.143 16 3.55556 16Z" stroke="#181819" stroke-linecap="round" stroke-linejoin="round"/>
</svg>
