<svg width="19" height="19" viewBox="0 0 19 19" fill="none" xmlns="http://www.w3.org/2000/svg">
<path d="M6.33414 5.9239C5.93891 6.57473 4.85625 7.553 4.85625 8.34047C4.85625 9.21619 5.78944 10.9797 7.00137 12.1766C8.2133 13.3736 9.23862 14.0485 10.1253 14.0485C10.7289 14.0485 11.0323 12.5926 12.6447 12.5926C13.8539 12.5926 15.3943 13.9098 15.8334 15.3657C16.1139 16.2957 14.8583 17.1249 13.6125 17.6491C12.983 17.9139 12.2974 18.0171 11.6157 17.978C9.8617 17.8775 7.21438 17.3224 3.97809 14.2565C0.551882 10.5359 0.378901 8.09843 0.465394 5.71816C0.551888 3.33788 2.66083 2.19336 3.37354 2.19336C4.04921 2.19336 6.19858 4.06267 6.42013 5.48814C6.44363 5.63932 6.41355 5.79314 6.33414 5.9239Z" stroke="white" stroke-width="0.9" stroke-linecap="round" stroke-linejoin="round"/>
<path d="M10.1243 4.83179C10.1243 4.83179 11.6761 4.61848 13.0147 5.95701C14.3532 7.29553 14.1399 8.84736 14.1399 8.84736" stroke="white" stroke-width="0.9" stroke-linecap="round"/>
<path d="M10.1249 1.31944C10.1249 1.31944 12.6158 1.1714 14.9548 3.51044C17.2939 5.84947 17.1421 8.33655 17.1421 8.33655" stroke="white" stroke-width="0.9" stroke-linecap="round"/>
</svg>
