<svg width="16" height="16" viewBox="0 0 16 16" fill="none" xmlns="http://www.w3.org/2000/svg">
<path d="M2 5.42857L6.82167 8.81C7.02251 8.95096 7.25855 9.02619 7.5 9.02619C7.74145 9.02619 7.97749 8.95096 8.17833 8.81L13 5.42857M3.22222 12.5H11.7778C12.1019 12.5 12.4128 12.3645 12.642 12.1234C12.8712 11.8823 13 11.5553 13 11.2143V4.78571C13 4.44472 12.8712 4.1177 12.642 3.87658C12.4128 3.63546 12.1019 3.5 11.7778 3.5H3.22222C2.89807 3.5 2.58719 3.63546 2.35798 3.87658C2.12877 4.1177 2 4.44472 2 4.78571V11.2143C2 11.5553 2.12877 11.8823 2.35798 12.1234C2.58719 12.3645 2.89807 12.5 3.22222 12.5Z" stroke="white" stroke-linecap="round" stroke-linejoin="round"/>
</svg>
