<svg width="16" height="16" viewBox="0 0 16 16" fill="none" xmlns="http://www.w3.org/2000/svg">
<path d="M11.3879 10.3878L9.09261 12.683C8.99223 12.7835 8.87303 12.8632 8.74183 12.9176C8.61063 12.972 8.46999 13 8.32796 13C8.18594 13 8.0453 12.972 7.9141 12.9176C7.78289 12.8632 7.66369 12.7835 7.56331 12.683L5.26747 10.3878C4.66226 9.7825 4.25011 9.01138 4.08314 8.1719C3.91617 7.33242 4.00189 6.46227 4.32945 5.6715C4.65701 4.88073 5.2117 4.20485 5.92338 3.72933C6.63506 3.25381 7.47177 3 8.32769 3C9.18362 3 10.0203 3.25381 10.732 3.72933C11.4437 4.20485 11.9984 4.88073 12.3259 5.6715C12.6535 6.46227 12.7392 7.33242 12.5722 8.1719C12.4053 9.01138 11.9931 9.7825 11.3879 10.3878V10.3878Z" stroke="white" stroke-linecap="round" stroke-linejoin="round"/>
<path d="M9.47551 8.47503C9.77986 8.17068 9.95085 7.75789 9.95085 7.32747C9.95085 6.89706 9.77986 6.48427 9.47551 6.17992C9.17116 5.87557 8.75838 5.70459 8.32796 5.70459C7.89755 5.70459 7.48476 5.87557 7.18041 6.17992C6.87606 6.48427 6.70508 6.89706 6.70508 7.32747C6.70508 7.75789 6.87606 8.17068 7.18041 8.47503C7.48476 8.77938 7.89755 8.95036 8.32796 8.95036C8.75838 8.95036 9.17116 8.77938 9.47551 8.47503Z" stroke="white" stroke-linecap="round" stroke-linejoin="round"/>
</svg>
