<svg width="18" height="18" viewBox="0 0 18 18" fill="none" xmlns="http://www.w3.org/2000/svg">
<path d="M11.7223 7.311C12.3117 6.72755 12.6429 5.93623 12.6429 5.11111C12.6429 4.28599 12.3117 3.49467 11.7223 2.91122C11.1329 2.32778 10.3335 2 9.5 2C8.66646 2 7.86706 2.32778 7.27766 2.91122C6.68826 3.49467 6.35714 4.28599 6.35714 5.11111C6.35714 5.93623 6.68826 6.72755 7.27766 7.311C7.86706 7.89445 8.66646 8.22222 9.5 8.22222C10.3335 8.22222 11.1329 7.89445 11.7223 7.311Z" stroke="#023668" stroke-linecap="round" stroke-linejoin="round"/>
<path d="M5.61091 12.1502C6.64236 11.1292 8.04131 10.5556 9.5 10.5556C10.9587 10.5556 12.3576 11.1292 13.3891 12.1502C14.4205 13.1712 15 14.556 15 16H4C4 14.556 4.57946 13.1712 5.61091 12.1502Z" stroke="#023668" stroke-linecap="round" stroke-linejoin="round"/>
</svg>
