<svg width="18" height="18" viewBox="0 0 18 18" fill="none" xmlns="http://www.w3.org/2000/svg">
<path d="M11.3333 3V4.57143M11.3333 7.71429V9.28571M11.3333 12.4286V14M3.55556 3C3.143 3 2.74733 3.16556 2.45561 3.46026C2.16389 3.75496 2 4.15466 2 4.57143V6.92857C2.41256 6.92857 2.80822 7.09413 3.09994 7.38883C3.39167 7.68353 3.55556 8.08323 3.55556 8.5C3.55556 8.91677 3.39167 9.31647 3.09994 9.61117C2.80822 9.90587 2.41256 10.0714 2 10.0714V12.4286C2 12.8453 2.16389 13.245 2.45561 13.5397C2.74733 13.8344 3.143 14 3.55556 14H14.4444C14.857 14 15.2527 13.8344 15.5444 13.5397C15.8361 13.245 16 12.8453 16 12.4286V10.0714C15.5874 10.0714 15.1918 9.90587 14.9001 9.61117C14.6083 9.31647 14.4444 8.91677 14.4444 8.5C14.4444 8.08323 14.6083 7.68353 14.9001 7.38883C15.1918 7.09413 15.5874 6.92857 16 6.92857V4.57143C16 4.15466 15.8361 3.75496 15.5444 3.46026C15.2527 3.16556 14.857 3 14.4444 3H3.55556Z" stroke="#181819" stroke-linecap="round" stroke-linejoin="round"/>
</svg>
