<svg width="16" height="16" viewBox="0 0 16 16" fill="none" xmlns="http://www.w3.org/2000/svg">
<path d="M6.75031 5.95616C6.45738 6.36405 5.85683 6.9281 5.85683 7.38889C5.85683 7.94291 6.46189 9.05854 7.24769 9.81579C8.0335 10.573 8.6983 11 9.2732 11C9.6646 11 9.86129 10.0789 10.9067 10.0789C11.6908 10.0789 12.6896 10.9123 12.9743 11.8333C13.1249 12.3207 12.5921 12.7643 11.9456 13.0907C11.2838 13.4249 10.5269 13.5358 9.79097 13.4466C8.6715 13.3111 7.12606 12.8311 5.28744 11.1316C3.06593 8.77778 2.95377 7.23576 3.00985 5.72992C3.06594 4.22407 4.43335 3.5 4.89546 3.5C5.31527 3.5 6.61248 4.58592 6.84646 5.47009C6.89094 5.63817 6.85173 5.81495 6.75031 5.95616Z" stroke="#023668" stroke-linecap="round" stroke-linejoin="round"/>
</svg>
