
<svg width="18" height="18" viewBox="0 0 18 18" fill="none" xmlns="http://www.w3.org/2000/svg">
<path d="M6.66667 15L2.43011 12.957C2.30094 12.8948 2.19228 12.7991 2.11632 12.6806C2.04035 12.5622 2.00008 12.4257 2 12.2865V4.2135C2.00007 4.08571 2.034 3.96005 2.09858 3.84845C2.16315 3.73686 2.25623 3.64302 2.36897 3.57585C2.48172 3.50869 2.61039 3.47041 2.74278 3.46466C2.87517 3.45891 3.0069 3.48588 3.12544 3.543L6.66667 5.25M6.66667 15V5.25M6.66667 15L11.3333 12.75M6.66667 5.25L11.3333 3M11.3333 12.75L14.8746 14.457C14.9931 14.5141 15.1248 14.5411 15.2572 14.5353C15.3896 14.5296 15.5183 14.4913 15.631 14.4241C15.7438 14.357 15.8368 14.2631 15.9014 14.1515C15.966 14.04 15.9999 13.9143 16 13.7865V5.7135C15.9999 5.57425 15.9596 5.43778 15.8837 5.31936C15.8077 5.20093 15.6991 5.10524 15.5699 5.043L11.3333 3M11.3333 12.75V3" stroke="#181819" stroke-linecap="round" stroke-linejoin="round"/>
</svg>
