<svg width="130" height="40" viewBox="0 0 130 40" fill="none" xmlns="http://www.w3.org/2000/svg">
<mask id="mask0_664_5323" style="mask-type:luminance" maskUnits="userSpaceOnUse" x="0" y="0" width="39" height="39">
<path d="M0.185744 16.7752C-1.27692 27.4154 6.05828 37.244 16.5688 38.7227C27.0794 40.2045 36.7836 32.7765 38.2463 22.1362C39.7058 11.496 32.3738 1.66745 21.8632 0.188768C20.9662 0.0629223 20.0724 0 19.1941 0C9.7587 0 1.52652 7.0442 0.18887 16.7752" fill="white"/>
</mask>
<g mask="url(#mask0_664_5323)">
<path d="M9.80983 -18.3253L-19.0176 29.3278L28.6197 58.5302L57.4471 10.8771L9.80983 -18.3253Z" fill="url(#paint0_linear_664_5323)"/>
</g>
<path d="M15.0377 3.57715C15.0909 3.58029 15.1377 3.57085 15.1815 3.54568C15.2065 3.5331 15.2409 3.54254 15.2596 3.56456L16.5191 5.04325C16.5473 5.07785 16.5973 5.07471 16.6254 5.03696C16.9473 4.5965 17.5192 4.3448 17.7036 4.2693C17.738 4.25671 17.7537 4.21896 17.7412 4.18435L17.1348 2.48858C17.1255 2.45712 17.1348 2.42566 17.163 2.40993C17.2411 2.37218 17.2973 2.29352 17.3036 2.19914C17.3161 2.05442 17.2067 1.92542 17.0629 1.91598C16.9192 1.90655 16.7942 2.01352 16.7817 2.15824C16.7692 2.30296 16.8786 2.43195 17.0223 2.44139C17.0317 2.44139 17.0442 2.43824 17.0536 2.43824L17.1473 3.67153C17.1505 3.73445 17.0754 3.76906 17.0317 3.72501L16.1378 2.80005C16.1128 2.77488 16.1128 2.73713 16.1347 2.70881C16.1691 2.66791 16.191 2.61758 16.1941 2.56409C16.2066 2.41937 16.0972 2.29352 15.9534 2.28094C15.8097 2.26835 15.6815 2.37847 15.6722 2.52319C15.6597 2.66791 15.7691 2.79376 15.9128 2.80634C15.9534 2.80634 15.9941 2.80005 16.0285 2.78747L16.4598 4.15604C16.4785 4.21896 16.4098 4.2693 16.3566 4.23154L15.2596 3.47332C15.2909 3.43242 15.3128 3.38838 15.3159 3.33804C15.3284 3.19332 15.219 3.06433 15.0752 3.05489C14.9315 3.0423 14.8033 3.15242 14.7939 3.29714C14.7814 3.44186 14.8908 3.56771 15.0346 3.58029" fill="white"/>
<path d="M16.6314 7.17323C16.7064 7.71122 14.6781 10.0362 15.075 10.1117C15.25 10.1463 17.144 8.6236 17.5971 8.57012C18.2472 8.49461 18.9598 8.12651 19.3317 7.45953C19.613 6.95615 19.5474 7.05682 19.7349 6.75165C20.1849 6.02174 20.9319 5.78579 21.7945 5.85815C23.2446 5.98085 24.9323 7.28964 24.5417 10.6466C24.1948 13.6102 19.5724 17.0081 18.4722 17.7757C18.4347 17.804 18.4316 17.8607 18.4722 17.889C19.3036 18.4647 20.3881 18.9775 21.4476 19.311C21.4694 19.3173 21.4882 19.311 21.507 19.3016C22.7696 18.3263 27.1982 14.6138 26.4138 9.6052C25.5793 4.26935 20.5475 3.78169 18.4785 4.53677C16.4095 5.29184 16.5783 6.79255 16.6314 7.17323Z" fill="white"/>
<path d="M14.7371 29.8914C14.7403 25.3327 18.1375 22.089 20.6191 20.0786C20.6597 20.0472 20.6503 19.9842 20.6034 19.9654C18.6532 19.1285 16.0873 17.6058 14.3652 15.2871C14.3246 15.2336 14.2402 15.2619 14.2433 15.3311C14.3308 16.341 14.6965 17.2974 14.9997 18.2602C15.0184 18.3168 14.9559 18.3703 14.9028 18.342C13.1495 17.4327 11.7556 16.2089 10.7336 14.3023C10.1554 13.2263 9.81471 11.9396 9.66469 10.7283C9.49905 9.39433 9.46154 8.20509 9.78346 6.89945C10.0022 6.01224 10.4054 4.95828 10.9211 4.11511C10.9648 4.0459 10.868 3.97354 10.8117 4.03331C10.2491 4.67513 9.45842 5.85807 8.90523 7.68283C7.93324 10.8982 8.68333 14.7711 9.26465 16.5046C9.54593 17.3446 10.1241 18.7321 10.7679 19.7923C10.8086 19.8584 10.7273 19.9308 10.6679 19.8804C8.98024 18.4426 7.68009 15.6143 7.26442 13.6574C6.98314 12.3234 6.81124 11.3386 6.8925 9.77502C6.98939 7.90621 7.2988 6.83967 7.47694 6.2482C7.49882 6.17269 7.39881 6.1255 7.35505 6.19157C6.26118 7.95026 3.01081 15.0354 9.46467 23.8288C9.51155 23.8917 9.43029 23.9735 9.37091 23.9232C8.70208 23.3821 7.28005 21.9726 5.733 18.559C4.8704 16.6525 3.99217 13.3459 4.26721 10.7975C4.27658 10.7189 4.16407 10.6905 4.13907 10.7661C3.60463 12.2542 2.75453 15.6174 4.26721 20.4908C5.24857 23.6526 7.57383 26.2797 8.52706 27.2644C10.1772 28.9665 11.6087 29.9166 12.2994 30.3287C12.3712 30.3696 12.3181 30.4798 12.24 30.4514C11.2993 30.0896 9.32403 28.9979 7.73322 27.708C6.09866 26.3803 4.69538 24.5461 3.62026 22.7277C3.07957 21.8153 2.71078 21.0885 2.21385 19.7955C2.18572 19.72 2.07321 19.7483 2.08258 19.8269C2.35449 22.3155 3.14208 25.5812 4.96416 28.2932C7.20191 31.6281 10.1585 33.3176 11.7681 34.0097C11.8431 34.0412 11.8056 34.1576 11.7243 34.1387C9.70532 33.6794 7.66759 32.5405 6.55496 31.7791C6.48933 31.7351 6.41432 31.8232 6.46745 31.8798C7.84261 33.3742 12.1681 37.0583 18.8407 37.3887C18.9064 37.3918 18.9376 37.3069 18.8845 37.266C17.0186 35.9068 14.734 33.3836 14.7371 29.8883" fill="white"/>
<path d="M29.9452 28.0541C29.892 28.0667 29.8608 27.9944 29.9077 27.9629C30.2952 27.6955 30.6828 27.4312 31.0359 27.1197C32.0767 26.2042 33.4424 24.9049 34.2675 23.4954C35.2864 21.7587 35.7927 20.2423 35.9302 17.8135C35.9896 16.7847 35.7583 14.919 35.3489 13.7266C35.2239 13.3648 35.0145 12.83 34.7957 12.443C34.7676 12.3958 34.6957 12.421 34.7051 12.4776C35.1051 15.1959 34.5394 19.1632 31.936 21.8688C31.8954 21.9097 31.8298 21.8625 31.8579 21.8122C35.6896 14.6516 31.9767 8.14538 31.0047 6.72017C30.9734 6.67298 30.8984 6.71074 30.9203 6.76422C31.7266 9.09551 31.961 14.746 30.3202 17.2503C30.289 17.2975 30.214 17.2629 30.2327 17.2063C30.614 15.9918 31.0672 13.6071 30.339 10.269C30.0046 8.74 29.2295 6.93411 28.0637 5.58127C26.5792 3.85719 24.5227 2.99829 23.6382 2.68683C23.5851 2.66795 23.5476 2.74346 23.5945 2.77492C24.854 3.59921 27.6168 5.96825 28.1387 9.68698C28.6106 13.0628 27.6855 15.5891 26.9073 16.8948C26.8792 16.942 26.8073 16.9137 26.8167 16.8602C26.9292 16.1366 26.9573 15.2871 26.8261 14.4282C26.8198 14.3747 26.7448 14.3716 26.7292 14.4219C26.2666 15.9352 25.2071 17.609 22.9725 19.4023C22.9194 19.4432 22.51 19.7766 22.238 19.9874C19.9409 21.7744 15.6654 25.1031 15.6592 29.8946C15.6592 34.0633 19.2815 36.5519 20.6879 37.2755C20.6973 37.2786 20.7035 37.2818 20.7129 37.2818C21.016 37.2534 26.4135 36.8885 31.0015 32.8772C31.0453 32.8394 31.0015 32.7702 30.9515 32.7922C29.7076 33.3459 28.5575 33.5819 27.4636 33.6794C27.4043 33.6857 27.3886 33.6008 27.4449 33.5819C28.9263 33.1037 30.3202 32.3581 31.5579 31.4111C32.3736 30.807 33.1299 30.1086 33.755 29.3C34.6551 28.1485 35.302 26.8083 35.7208 25.4051C36.0396 24.3543 36.2365 23.2689 36.349 22.1772C36.3553 22.1174 36.274 22.0985 36.2521 22.1551C35.6239 24.0239 33.5737 27.126 29.9452 28.0541Z" fill="white"/>
<path d="M47.8428 3.51575H51.836L59.0874 16.1841V3.51575H62.645V21.6821H58.8332L51.3913 8.79128V21.6821H47.8428V3.51575Z" fill="#181819"/>
<path d="M79.6842 6.73623H69.8168V10.5972H78.8688V13.7465H69.8168V18.4171H80.1381V21.6821H66.0088V3.51575H79.6842V6.73623Z" fill="#181819"/>
<path d="M85.7225 16.1799C85.8378 17.0219 86.0684 17.6557 86.4054 18.0722C87.0262 18.8328 88.0816 19.213 89.5805 19.213C90.4762 19.213 91.2035 19.1134 91.7711 18.9052C92.8354 18.5249 93.3675 17.8096 93.3675 16.7593C93.3675 16.1527 93.1103 15.6819 92.587 15.3468C92.0638 15.0209 91.239 14.7312 90.1038 14.4776L88.1703 14.043C86.2724 13.6084 84.9687 13.1376 84.2592 12.6215C83.053 11.7704 82.4499 10.4304 82.4499 8.61953C82.4499 6.9626 83.0352 5.58635 84.2148 4.49078C85.3944 3.39521 87.1238 2.8429 89.4031 2.8429C91.3099 2.8429 92.9329 3.359 94.2721 4.39118C95.6202 5.42337 96.3208 6.92637 96.3918 8.8821H92.8088C92.7378 7.76842 92.2589 6.9807 91.372 6.50988C90.7778 6.20203 90.0328 6.04812 89.1459 6.04812C88.1615 6.04812 87.3721 6.25636 86.7868 6.65475C86.2014 7.05314 85.9088 7.61451 85.9088 8.33885C85.9088 8.99981 86.2014 9.48873 86.7779 9.81468C87.1504 10.032 87.9397 10.2855 89.1459 10.5843L92.2766 11.3539C93.6513 11.6889 94.6801 12.1326 95.363 12.694C96.4273 13.5632 96.9594 14.8217 96.9594 16.4696C96.9594 18.1175 96.3297 19.5661 95.0703 20.6798C93.8109 21.7935 92.0283 22.3549 89.7224 22.3549C87.4165 22.3549 85.5274 21.8026 84.1793 20.707C82.8313 19.6114 82.1572 18.0903 82.1572 16.1708H85.7225V16.1799Z" fill="#181819"/>
<path d="M113.107 3.51575V6.73623H107.64V21.6821H103.799V6.73623H98.3047V3.51575H113.107Z" fill="#181819"/>
<path d="M118.354 3.51575H122.718L129.255 21.6821H125.065L123.846 17.9456H117.052L115.796 21.6821H111.762L118.354 3.51575ZM118.097 14.823H122.828L120.499 7.67033L118.106 14.823H118.097Z" fill="#181819"/>
<path d="M56.5895 31.1016H47.8428V32.4472H56.5895V31.1016Z" fill="#181819"/>
<path d="M129.255 31.1016H120.508V32.4472H129.255V31.1016Z" fill="#181819"/>
<path d="M65.3367 34.4658H64.0728V31.1257H60.5357V34.4658H59.2812V27.0647H60.5357V30.0945H64.0728V27.0647H65.3367V34.4658Z" fill="#181819"/>
<path d="M72.056 31.766C72.056 32.6123 71.8164 33.2724 71.3463 33.7548C70.867 34.2288 70.2127 34.4657 69.3647 34.4657C68.8301 34.4657 68.3693 34.3557 67.9545 34.1357C67.549 33.9156 67.2356 33.6025 67.0144 33.1963C66.7932 32.79 66.6826 32.3076 66.6826 31.766C66.6826 30.9281 66.9223 30.268 67.3923 29.794C67.8624 29.3201 68.526 29.0831 69.3924 29.0831C70.2587 29.0831 70.867 29.3286 71.3463 29.811C71.8256 30.2934 72.0652 30.945 72.0652 31.766M67.9269 31.766C67.9269 32.9677 68.4062 33.5602 69.3831 33.5602C70.3601 33.5602 70.821 32.9593 70.821 31.766C70.821 30.5727 70.3417 29.9887 69.3739 29.9887C68.867 29.9887 68.4983 30.141 68.2771 30.4457C68.0467 30.7504 67.9361 31.1905 67.9361 31.766" fill="#181819"/>
<path d="M75.2879 33.5374C75.5591 33.5374 75.8303 33.4931 76.1014 33.4047V34.2712C75.9828 34.3242 75.8218 34.3773 75.6269 34.4126C75.432 34.448 75.2371 34.4657 75.0253 34.4657C73.9745 34.4657 73.4491 33.891 73.4491 32.7416V29.824H72.7373V29.3112L73.5 28.8868L73.8813 27.7374H74.5677V28.9399H76.0506V29.8151H74.5677V32.7151C74.5677 32.9892 74.6355 33.2014 74.771 33.334C74.9066 33.4666 75.0761 33.5285 75.2964 33.5285" fill="#181819"/>
<path d="M79.414 34.4657C78.5859 34.4657 77.9389 34.2284 77.4731 33.7622C77.0073 33.2875 76.7744 32.6433 76.7744 31.8126C76.7744 30.9819 76.9901 30.2953 77.4214 29.8121C77.8527 29.329 78.4479 29.0831 79.2069 29.0831C79.9056 29.0831 80.4577 29.295 80.8718 29.7104C81.2772 30.1257 81.4842 30.7022 81.4842 31.4311V32.0245H77.9475C77.9648 32.5331 78.1028 32.9145 78.3616 33.1858C78.6204 33.457 78.9913 33.5927 79.4744 33.5927C79.7849 33.5927 80.0782 33.5672 80.3542 33.5079C80.6216 33.4486 80.9149 33.3553 81.2254 33.2197V34.1182C80.9494 34.2453 80.6734 34.3386 80.3887 34.3895C80.104 34.4403 79.7849 34.4657 79.4226 34.4657M79.2069 29.9138C78.8446 29.9138 78.56 30.024 78.3443 30.2444C78.1287 30.4648 77.9993 30.7869 77.9562 31.2192H80.3714C80.3714 30.7869 80.2593 30.4648 80.0523 30.2444C79.8453 30.024 79.5692 29.9138 79.2069 29.9138Z" fill="#181819"/>
<path d="M84.1757 27.0647H82.8301V34.4658H84.1757V27.0647Z" fill="#181819"/>
<path d="M91.565 30.4587H94.2683V34.0749C93.8268 34.217 93.4033 34.3147 92.9978 34.3769C92.5923 34.4391 92.1507 34.4658 91.6822 34.4658C90.5738 34.4658 89.7177 34.1459 89.114 33.4973C88.5103 32.8487 88.2129 31.9425 88.2129 30.7697C88.2129 29.5969 88.5553 28.6995 89.2311 28.0509C89.907 27.3934 90.8441 27.0647 92.0336 27.0647C92.7995 27.0647 93.5294 27.2069 94.2143 27.5001L93.7907 28.4774C93.196 28.2108 92.6013 28.0687 92.0066 28.0687C91.2226 28.0687 90.6008 28.3086 90.1503 28.7972C89.6907 29.277 89.4654 29.9434 89.4654 30.7786C89.4654 31.6582 89.6727 32.3245 90.0782 32.7866C90.4837 33.2397 91.0784 33.4707 91.8444 33.4707C92.2318 33.4707 92.6463 33.4263 93.0879 33.3285V31.4716H91.565V30.4587Z" fill="#181819"/>
<path d="M98.3989 29.0918C98.6303 29.0918 98.8261 29.109 98.9774 29.1435L98.8617 30.1873C98.6926 30.1528 98.5235 30.1269 98.3455 30.1269C97.8827 30.1269 97.5 30.2735 97.2153 30.5668C96.9216 30.8601 96.7792 31.2396 96.7792 31.7054V34.4657H95.6133V29.178H96.5211L96.6724 30.1096H96.7347C96.9127 29.7905 97.1529 29.5403 97.4466 29.3592C97.7403 29.178 98.0518 29.0831 98.39 29.0831" fill="#181819"/>
<path d="M105.024 31.766C105.024 32.6123 104.784 33.2724 104.314 33.7548C103.835 34.2288 103.18 34.4657 102.332 34.4657C101.798 34.4657 101.337 34.3557 100.922 34.1357C100.517 33.9156 100.203 33.6025 99.9822 33.1963C99.761 32.79 99.6504 32.3076 99.6504 31.766C99.6504 30.9281 99.89 30.268 100.36 29.794C100.83 29.3201 101.494 29.0831 102.36 29.0831C103.227 29.0831 103.835 29.3286 104.314 29.811C104.793 30.2934 105.033 30.945 105.033 31.766M100.885 31.766C100.885 32.9677 101.365 33.5602 102.342 33.5602C103.319 33.5602 103.78 32.9593 103.78 31.766C103.78 30.5727 103.3 29.9887 102.332 29.9887C101.826 29.9887 101.457 30.141 101.236 30.4457C101.005 30.7504 100.895 31.1905 100.895 31.766" fill="#181819"/>
<path d="M110.195 34.3709L110.039 33.6808H109.978C109.822 33.9223 109.597 34.1207 109.302 34.2587C109.007 34.3967 108.677 34.4657 108.304 34.4657C107.654 34.4657 107.177 34.3105 106.856 33.9913C106.535 33.6721 106.379 33.1891 106.379 32.5421V29.0831H107.524V32.3437C107.524 32.7492 107.611 33.0511 107.775 33.2581C107.94 33.4565 108.2 33.56 108.565 33.56C109.042 33.56 109.389 33.422 109.614 33.1373C109.84 32.8527 109.952 32.3782 109.952 31.7227V29.0918H111.089V34.3795H110.195V34.3709Z" fill="#181819"/>
<path d="M115.448 34.8078C114.697 34.8078 114.11 34.5558 113.696 34.0517H113.619C113.667 34.5198 113.696 34.7988 113.696 34.8978V37.157H112.435V29.1821H113.455C113.484 29.2812 113.542 29.5332 113.629 29.9202H113.696C114.091 29.3622 114.678 29.0831 115.468 29.0831C116.209 29.0831 116.787 29.3352 117.201 29.8302C117.615 30.3253 117.817 31.0274 117.817 31.9275C117.817 32.8276 117.605 33.5296 117.191 34.0427C116.768 34.5467 116.19 34.7988 115.448 34.7988M115.15 30.0462C114.649 30.0462 114.283 30.1813 114.052 30.4603C113.821 30.7303 113.706 31.1714 113.706 31.7654V31.9365C113.706 32.6115 113.821 33.0976 114.052 33.3946C114.283 33.6916 114.659 33.8447 115.169 33.8447C115.603 33.8447 115.94 33.6826 116.18 33.3496C116.421 33.0166 116.537 32.5395 116.537 31.9275C116.537 31.3154 116.421 30.8383 116.19 30.5233C115.959 30.2082 115.612 30.0462 115.16 30.0462" fill="#181819"/>
<defs>
<linearGradient id="paint0_linear_664_5323" x1="34.4925" y1="-3.88964" x2="9.19329" y2="37.3804" gradientUnits="userSpaceOnUse">
<stop stop-color="#FCF175"/>
<stop offset="0.04" stop-color="#F6E76E"/>
<stop offset="0.2" stop-color="#E1C154"/>
<stop offset="0.29" stop-color="#DAB34A"/>
<stop offset="0.45" stop-color="#CA983C"/>
<stop offset="0.64" stop-color="#BD8332"/>
<stop offset="0.81" stop-color="#B5762C"/>
<stop offset="0.98" stop-color="#B3722A"/>
<stop offset="1" stop-color="#B3722A"/>
</linearGradient>
</defs>
</svg>
