<svg width="60" height="62" viewBox="0 0 60 62" fill="none" xmlns="http://www.w3.org/2000/svg">
<mask id="mask0_2142_1720" style="mask-type:luminance" maskUnits="userSpaceOnUse" x="0" y="0" width="60" height="61">
<path d="M0.287461 25.9616C-1.97619 42.4287 9.37592 57.6395 25.6423 59.928C41.9086 62.2213 56.9271 50.7255 59.1907 34.2585C61.4495 17.7914 50.1023 2.58058 33.8359 0.292141C32.4477 0.0973798 31.0644 0 29.7052 0C15.1028 0 2.36247 10.9017 0.292299 25.9616" fill="white"/>
</mask>
<g mask="url(#mask0_2142_1720)">
<path d="M15.1822 -28.3607L-29.4316 45.3882L44.2927 90.5824L88.9066 16.8335L15.1822 -28.3607Z" fill="url(#paint0_linear_2142_1720)"/>
</g>
<path d="M23.2733 5.5361C23.3555 5.54097 23.4281 5.52636 23.4958 5.48741C23.5345 5.46793 23.5877 5.48254 23.6167 5.51662L25.566 7.80506C25.6095 7.85862 25.6869 7.85376 25.7304 7.79533C26.2286 7.11366 27.1138 6.72414 27.3992 6.60728C27.4524 6.58781 27.4765 6.52938 27.4572 6.47582L26.5188 3.85142C26.5043 3.80273 26.5188 3.75404 26.5624 3.72969C26.6833 3.67126 26.7704 3.54954 26.78 3.40347C26.7994 3.17949 26.6301 2.97986 26.4076 2.96525C26.1851 2.95064 25.9916 3.11619 25.9723 3.34017C25.9529 3.56414 26.1222 3.76377 26.3447 3.77838C26.3592 3.77838 26.3786 3.77351 26.3931 3.77351L26.5382 5.68217C26.543 5.77955 26.4269 5.83311 26.3592 5.76494L24.9759 4.33345C24.9372 4.2945 24.9372 4.23607 24.9711 4.19225C25.0243 4.12895 25.0581 4.05105 25.063 3.96827C25.0823 3.7443 24.913 3.54954 24.6905 3.53006C24.468 3.51058 24.2697 3.681 24.2552 3.90497C24.2358 4.12895 24.4051 4.32371 24.6276 4.34319C24.6905 4.34319 24.7534 4.33345 24.8066 4.31397L25.4741 6.432C25.5031 6.52938 25.3967 6.60728 25.3145 6.54886L23.6167 5.37542C23.6651 5.31212 23.699 5.24396 23.7038 5.16605C23.7231 4.94208 23.5539 4.74245 23.3314 4.72784C23.1089 4.70836 22.9105 4.87878 22.896 5.10276C22.8767 5.32673 23.046 5.52149 23.2685 5.54097" fill="white"/>
<path d="M25.7405 11.1014C25.8566 11.934 22.7174 15.5322 23.3317 15.649C23.6026 15.7026 26.5337 13.346 27.2351 13.2632C28.2411 13.1464 29.3439 12.5767 29.9195 11.5444C30.3548 10.7654 30.2533 10.9212 30.5435 10.4489C31.24 9.3193 32.396 8.95412 33.731 9.06611C35.9753 9.256 38.5872 11.2815 37.9826 16.4768C37.4457 21.0634 30.292 26.3219 28.5894 27.51C28.5313 27.5538 28.5265 27.6414 28.5894 27.6853C29.876 28.5763 31.5544 29.3699 33.1941 29.8861C33.2279 29.8958 33.2569 29.8861 33.286 29.8715C35.2401 28.3621 42.0939 22.6166 40.8798 14.8651C39.5884 6.60725 31.8011 5.85255 28.5991 7.02112C25.3971 8.18968 25.6582 10.5122 25.7405 11.1014Z" fill="white"/>
<path d="M22.808 46.2609C22.8128 39.2057 28.0705 34.1857 31.9109 31.0744C31.9738 31.0257 31.9593 30.9283 31.8867 30.8991C28.8685 29.604 24.8975 27.2474 22.2324 23.6589C22.1695 23.5761 22.0389 23.6199 22.0437 23.727C22.1792 25.29 22.7451 26.7702 23.2142 28.2601C23.2433 28.3478 23.1465 28.4305 23.0643 28.3867C20.3508 26.9796 18.1936 25.0855 16.6119 22.1349C15.7171 20.4697 15.1899 18.4782 14.9577 16.6037C14.7014 14.5392 14.6433 12.6987 15.1415 10.6781C15.4801 9.30499 16.1041 7.67387 16.9021 6.36897C16.9699 6.26185 16.8199 6.14986 16.7329 6.24237C15.8622 7.23566 14.6385 9.06641 13.7824 11.8904C12.2781 16.8666 13.439 22.8604 14.3386 25.5432C14.7739 26.8432 15.6687 28.9905 16.6651 30.6313C16.728 30.7336 16.6023 30.8456 16.5104 30.7677C13.8985 28.5425 11.8863 24.1653 11.243 21.1367C10.8077 19.0723 10.5417 17.5483 10.6674 15.1283C10.8174 12.2361 11.2962 10.5855 11.5719 9.67017C11.6058 9.55331 11.451 9.48028 11.3833 9.58253C9.69039 12.3043 4.66006 23.2694 14.6482 36.8783C14.7207 36.9757 14.595 37.1023 14.5031 37.0244C13.468 36.1869 11.2672 34.0056 8.87296 28.7227C7.53799 25.772 6.17883 20.6547 6.60448 16.7108C6.61899 16.5891 6.44486 16.5452 6.40616 16.6621C5.57906 18.9651 4.26344 24.1701 6.60448 31.7122C8.12325 36.6056 11.7219 40.6713 13.1971 42.1953C15.751 44.8294 17.9663 46.2998 19.0352 46.9377C19.1464 47.001 19.0642 47.1714 18.9433 47.1276C17.4874 46.5676 14.4305 44.8781 11.9685 42.8818C9.43887 40.8271 7.26713 37.9884 5.60325 35.1741C4.76647 33.7621 4.19572 32.6374 3.42666 30.6362C3.38313 30.5193 3.209 30.5632 3.22351 30.6849C3.64432 34.5363 4.86321 39.5903 7.6831 43.7874C11.1463 48.9486 15.722 51.5633 18.2129 52.6345C18.329 52.6831 18.271 52.8633 18.1452 52.8341C15.0206 52.1232 11.867 50.3606 10.1451 49.1823C10.0435 49.1141 9.9274 49.2505 10.0096 49.3381C12.1378 51.6509 18.8321 57.3525 29.1587 57.8638C29.2603 57.8687 29.3087 57.7372 29.2265 57.6739C26.3389 55.5705 22.8031 51.6655 22.808 46.256" fill="white"/>
<path d="M46.3456 43.4169C46.2634 43.4364 46.215 43.3244 46.2876 43.2757C46.8873 42.8618 47.4871 42.4528 48.0337 41.9708C49.6443 40.5539 51.7581 38.543 53.035 36.3617C54.6118 33.674 55.3954 31.3271 55.6082 27.5682C55.7001 25.976 55.3422 23.0887 54.7085 21.2434C54.5151 20.6834 54.191 19.8557 53.8524 19.2568C53.8089 19.1838 53.6976 19.2227 53.7121 19.3104C54.3313 23.5172 53.4558 29.657 49.4267 33.8444C49.3638 33.9077 49.2622 33.8347 49.3058 33.7568C55.2358 22.6748 49.4896 12.6057 47.9853 10.4C47.9369 10.327 47.8209 10.3854 47.8547 10.4682C49.1026 14.0761 49.4654 22.8209 46.926 26.6967C46.8777 26.7697 46.7616 26.7161 46.7906 26.6285C47.3807 24.7491 48.082 21.0583 46.9551 15.8923C46.4375 13.5259 45.238 10.7311 43.4338 8.63745C41.1363 5.96922 37.9537 4.63998 36.5848 4.15794C36.5026 4.12873 36.4446 4.24559 36.5171 4.29428C38.4664 5.56996 42.7422 9.23634 43.5499 14.9915C44.2803 20.216 42.8486 24.1258 41.6442 26.1465C41.6007 26.2195 41.4894 26.1757 41.5039 26.0929C41.678 24.973 41.7216 23.6584 41.5184 22.3291C41.5087 22.2464 41.3927 22.2415 41.3685 22.3194C40.6526 24.6614 39.0129 27.2517 35.5546 30.0271C35.4724 30.0904 34.8387 30.6065 34.4179 30.9327C30.8628 33.6983 24.246 38.8498 24.2363 46.2653C24.2363 52.7167 29.8422 56.5681 32.0188 57.688C32.0333 57.6929 32.043 57.6977 32.0575 57.6977C32.5267 57.6539 40.88 57.0891 47.9805 50.8811C48.0482 50.8227 47.9805 50.7156 47.9031 50.7496C45.978 51.6066 44.198 51.9718 42.5051 52.1227C42.4132 52.1325 42.3891 52.001 42.4761 51.9718C44.7688 51.2317 46.926 50.0777 48.8414 48.6121C50.1039 47.6773 51.2744 46.5964 52.2417 45.345C53.6348 43.563 54.636 41.4888 55.2841 39.3172C55.7775 37.6909 56.0822 36.0111 56.2563 34.3216C56.266 34.229 56.1402 34.1998 56.1064 34.2875C55.1342 37.1797 51.9612 41.9805 46.3456 43.4169Z" fill="white"/>
<defs>
<linearGradient id="paint0_linear_2142_1720" x1="53.3816" y1="-6.01973" x2="14.2281" y2="57.8506" gradientUnits="userSpaceOnUse">
<stop stop-color="#FCF175"/>
<stop offset="0.04" stop-color="#F6E76E"/>
<stop offset="0.2" stop-color="#E1C154"/>
<stop offset="0.29" stop-color="#DAB34A"/>
<stop offset="0.45" stop-color="#CA983C"/>
<stop offset="0.64" stop-color="#BD8332"/>
<stop offset="0.81" stop-color="#B5762C"/>
<stop offset="0.98" stop-color="#B3722A"/>
<stop offset="1" stop-color="#B3722A"/>
</linearGradient>
</defs>
</svg>
