<svg width="130" height="40" viewBox="0 0 130 40" fill="none" xmlns="http://www.w3.org/2000/svg">
<mask id="mask0_1483_3668" style="mask-type:luminance" maskUnits="userSpaceOnUse" x="0" y="0" width="39" height="39">
<path d="M0.185744 16.7752C-1.27692 27.4154 6.05828 37.244 16.5688 38.7227C27.0794 40.2045 36.7836 32.7765 38.2463 22.1362C39.7058 11.496 32.3738 1.66745 21.8632 0.188768C20.9662 0.0629223 20.0724 0 19.1941 0C9.7587 0 1.52652 7.0442 0.18887 16.7752" fill="white"/>
</mask>
<g mask="url(#mask0_1483_3668)">
<path d="M9.80934 -18.3253L-19.0181 29.3278L28.6192 58.5302L57.4466 10.8771L9.80934 -18.3253Z" fill="url(#paint0_linear_1483_3668)"/>
</g>
<path d="M15.0377 3.57715C15.0909 3.58029 15.1377 3.57085 15.1815 3.54568C15.2065 3.5331 15.2409 3.54254 15.2596 3.56456L16.5191 5.04325C16.5473 5.07785 16.5973 5.07471 16.6254 5.03696C16.9473 4.5965 17.5192 4.3448 17.7036 4.2693C17.738 4.25671 17.7537 4.21896 17.7412 4.18435L17.1348 2.48858C17.1255 2.45712 17.1348 2.42566 17.163 2.40993C17.2411 2.37218 17.2973 2.29352 17.3036 2.19914C17.3161 2.05442 17.2067 1.92542 17.0629 1.91598C16.9192 1.90655 16.7942 2.01352 16.7817 2.15824C16.7692 2.30296 16.8786 2.43195 17.0223 2.44139C17.0317 2.44139 17.0442 2.43824 17.0536 2.43824L17.1473 3.67153C17.1505 3.73445 17.0754 3.76906 17.0317 3.72501L16.1378 2.80005C16.1128 2.77488 16.1128 2.73713 16.1347 2.70881C16.1691 2.66791 16.191 2.61758 16.1941 2.56409C16.2066 2.41937 16.0972 2.29352 15.9534 2.28094C15.8097 2.26835 15.6815 2.37847 15.6722 2.52319C15.6597 2.66791 15.7691 2.79376 15.9128 2.80634C15.9534 2.80634 15.9941 2.80005 16.0285 2.78747L16.4598 4.15604C16.4785 4.21896 16.4098 4.2693 16.3566 4.23154L15.2596 3.47332C15.2909 3.43242 15.3128 3.38838 15.3159 3.33804C15.3284 3.19332 15.219 3.06433 15.0752 3.05489C14.9315 3.0423 14.8033 3.15242 14.7939 3.29714C14.7814 3.44186 14.8908 3.56771 15.0346 3.58029" fill="white"/>
<path d="M16.6314 7.17323C16.7064 7.71122 14.6781 10.0362 15.075 10.1117C15.25 10.1463 17.144 8.6236 17.5971 8.57012C18.2472 8.49461 18.9598 8.12651 19.3317 7.45953C19.613 6.95615 19.5474 7.05682 19.7349 6.75165C20.1849 6.02174 20.9319 5.78579 21.7945 5.85815C23.2446 5.98085 24.9323 7.28964 24.5417 10.6466C24.1948 13.6102 19.5724 17.0081 18.4722 17.7757C18.4347 17.804 18.4316 17.8607 18.4722 17.889C19.3036 18.4647 20.3881 18.9775 21.4476 19.311C21.4694 19.3173 21.4882 19.311 21.507 19.3016C22.7696 18.3263 27.1982 14.6138 26.4138 9.6052C25.5793 4.26935 20.5475 3.78169 18.4785 4.53677C16.4095 5.29184 16.5783 6.79255 16.6314 7.17323Z" fill="white"/>
<path d="M14.7376 29.8914C14.7408 25.3327 18.138 22.089 20.6195 20.0786C20.6602 20.0472 20.6508 19.9842 20.6039 19.9654C18.6537 19.1285 16.0878 17.6058 14.3657 15.2871C14.3251 15.2336 14.2407 15.2619 14.2438 15.3311C14.3313 16.341 14.697 17.2974 15.0002 18.2602C15.0189 18.3168 14.9564 18.3703 14.9033 18.342C13.1499 17.4327 11.756 16.2089 10.7341 14.3023C10.1559 13.2263 9.8152 11.9396 9.66518 10.7283C9.49953 9.39433 9.46203 8.20509 9.78394 6.89945C10.0027 6.01224 10.4059 4.95828 10.9216 4.11511C10.9653 4.0459 10.8684 3.97354 10.8122 4.03331C10.2496 4.67513 9.45891 5.85807 8.90572 7.68283C7.93373 10.8982 8.68382 14.7711 9.26513 16.5046C9.54642 17.3446 10.1246 18.7321 10.7684 19.7923C10.8091 19.8584 10.7278 19.9308 10.6684 19.8804C8.98073 18.4426 7.68058 15.6143 7.26491 13.6574C6.98362 12.3234 6.81173 11.3386 6.89299 9.77502C6.98988 7.90621 7.29929 6.83967 7.47743 6.2482C7.49931 6.17269 7.3993 6.1255 7.35554 6.19157C6.26167 7.95026 3.0113 15.0354 9.46516 23.8288C9.51204 23.8917 9.43078 23.9735 9.3714 23.9232C8.70257 23.3821 7.28054 21.9726 5.73349 18.559C4.87089 16.6525 3.99266 13.3459 4.26769 10.7975C4.27707 10.7189 4.16456 10.6905 4.13955 10.7661C3.60512 12.2542 2.75502 15.6174 4.26769 20.4908C5.24906 23.6526 7.57432 26.2797 8.52755 27.2644C10.1777 28.9665 11.6091 29.9166 12.2999 30.3287C12.3717 30.3696 12.3186 30.4798 12.2405 30.4514C11.2997 30.0896 9.32451 28.9979 7.73371 27.708C6.09915 26.3803 4.69587 24.5461 3.62075 22.7277C3.08006 21.8153 2.71127 21.0885 2.21434 19.7955C2.18621 19.72 2.0737 19.7483 2.08307 19.8269C2.35498 22.3155 3.14257 25.5812 4.96465 28.2932C7.2024 31.6281 10.159 33.3176 11.7685 34.0097C11.8436 34.0412 11.806 34.1576 11.7248 34.1387C9.70581 33.6794 7.66808 32.5405 6.55545 31.7791C6.48982 31.7351 6.41481 31.8232 6.46794 31.8798C7.8431 33.3742 12.1686 37.0583 18.8412 37.3887C18.9068 37.3918 18.9381 37.3069 18.885 37.266C17.0191 35.9068 14.7345 33.3836 14.7376 29.8883" fill="white"/>
<path d="M29.9457 28.0541C29.8925 28.0667 29.8613 27.9944 29.9082 27.9629C30.2957 27.6955 30.6832 27.4312 31.0364 27.1197C32.0771 26.2042 33.4429 24.9049 34.268 23.4954C35.2869 21.7587 35.7932 20.2423 35.9307 17.8135C35.9901 16.7847 35.7588 14.919 35.3494 13.7266C35.2244 13.3648 35.015 12.83 34.7962 12.443C34.7681 12.3958 34.6962 12.421 34.7056 12.4776C35.1056 15.1959 34.5399 19.1632 31.9365 21.8688C31.8959 21.9097 31.8302 21.8625 31.8584 21.8122C35.6901 14.6516 31.9771 8.14538 31.0052 6.72017C30.9739 6.67298 30.8989 6.71074 30.9208 6.76422C31.7271 9.09551 31.9615 14.746 30.3207 17.2503C30.2894 17.2975 30.2144 17.2629 30.2332 17.2063C30.6145 15.9918 31.0677 13.6071 30.3395 10.269C30.005 8.74 29.23 6.93411 28.0642 5.58127C26.5797 3.85719 24.5232 2.99829 23.6387 2.68683C23.5856 2.66795 23.5481 2.74346 23.5949 2.77492C24.8545 3.59921 27.6173 5.96825 28.1392 9.68698C28.6111 13.0628 27.686 15.5891 26.9078 16.8948C26.8797 16.942 26.8078 16.9137 26.8172 16.8602C26.9297 16.1366 26.9578 15.2871 26.8266 14.4282C26.8203 14.3747 26.7453 14.3716 26.7297 14.4219C26.2671 15.9352 25.2076 17.609 22.973 19.4023C22.9199 19.4432 22.5104 19.7766 22.2385 19.9874C19.9414 21.7744 15.6659 25.1031 15.6597 29.8946C15.6597 34.0633 19.282 36.5519 20.6884 37.2755C20.6977 37.2786 20.704 37.2818 20.7134 37.2818C21.0165 37.2534 26.414 36.8885 31.002 32.8772C31.0458 32.8394 31.002 32.7702 30.952 32.7922C29.7081 33.3459 28.558 33.5819 27.4641 33.6794C27.4047 33.6857 27.3891 33.6008 27.4454 33.5819C28.9268 33.1037 30.3207 32.3581 31.5583 31.4111C32.3741 30.807 33.1304 30.1086 33.7555 29.3C34.6556 28.1485 35.3025 26.8083 35.7213 25.4051C36.0401 24.3543 36.237 23.2689 36.3495 22.1772C36.3558 22.1174 36.2745 22.0985 36.2526 22.1551C35.6244 24.0239 33.5742 27.126 29.9457 28.0541Z" fill="white"/>
<path d="M47.8433 3.51575H51.8365L59.0878 16.1841V3.51575H62.6454V21.6821H58.8337L51.3918 8.79128V21.6821H47.8433V3.51575Z" fill="white"/>
<path d="M79.6851 6.73623H69.8177V10.5972H78.8698V13.7465H69.8177V18.4171H80.1391V21.6821H66.0098V3.51575H79.6851V6.73623Z" fill="white"/>
<path d="M85.723 16.1799C85.8383 17.0219 86.0689 17.6557 86.4059 18.0722C87.0267 18.8328 88.0821 19.213 89.581 19.213C90.4767 19.213 91.204 19.1134 91.7716 18.9052C92.8359 18.5249 93.368 17.8096 93.368 16.7593C93.368 16.1527 93.1108 15.6819 92.5875 15.3468C92.0643 15.0209 91.2395 14.7312 90.1042 14.4776L88.1708 14.043C86.2729 13.6084 84.9692 13.1376 84.2596 12.6215C83.0535 11.7704 82.4504 10.4304 82.4504 8.61953C82.4504 6.9626 83.0357 5.58635 84.2153 4.49078C85.3949 3.39521 87.1243 2.8429 89.4036 2.8429C91.3104 2.8429 92.9334 3.359 94.2726 4.39118C95.6207 5.42337 96.3213 6.92637 96.3923 8.8821H92.8093C92.7383 7.76842 92.2594 6.9807 91.3725 6.50988C90.7783 6.20203 90.0333 6.04812 89.1464 6.04812C88.162 6.04812 87.3726 6.25636 86.7873 6.65475C86.2019 7.05314 85.9093 7.61451 85.9093 8.33885C85.9093 8.99981 86.2019 9.48873 86.7784 9.81468C87.1509 10.032 87.9402 10.2855 89.1464 10.5843L92.2771 11.3539C93.6518 11.6889 94.6806 12.1326 95.3635 12.694C96.4278 13.5632 96.9599 14.8217 96.9599 16.4696C96.9599 18.1175 96.3302 19.5661 95.0708 20.6798C93.8114 21.7935 92.0288 22.3549 89.7229 22.3549C87.417 22.3549 85.5279 21.8026 84.1798 20.707C82.8317 19.6114 82.1577 18.0903 82.1577 16.1708H85.723V16.1799Z" fill="white"/>
<path d="M113.108 3.51575V6.73623H107.641V21.6821H103.8V6.73623H98.3057V3.51575H113.108Z" fill="white"/>
<path d="M118.354 3.51575H122.719L129.256 21.6821H125.066L123.846 17.9456H117.052L115.796 21.6821H111.762L118.354 3.51575ZM118.098 14.823H122.829L120.5 7.67033L118.107 14.823H118.098Z" fill="white"/>
<path d="M56.59 31.1016H47.8433V32.4472H56.59V31.1016Z" fill="white"/>
<path d="M129.256 31.1016H120.509V32.4472H129.256V31.1016Z" fill="white"/>
<path d="M65.3372 34.4658H64.0733V31.1257H60.5362V34.4658H59.2817V27.0647H60.5362V30.0945H64.0733V27.0647H65.3372V34.4658Z" fill="white"/>
<path d="M72.056 31.766C72.056 32.6123 71.8164 33.2724 71.3463 33.7548C70.867 34.2288 70.2127 34.4657 69.3647 34.4657C68.8301 34.4657 68.3693 34.3557 67.9545 34.1357C67.549 33.9156 67.2356 33.6025 67.0144 33.1963C66.7932 32.79 66.6826 32.3076 66.6826 31.766C66.6826 30.9281 66.9223 30.268 67.3923 29.794C67.8624 29.3201 68.526 29.0831 69.3924 29.0831C70.2587 29.0831 70.867 29.3286 71.3463 29.811C71.8256 30.2934 72.0652 30.945 72.0652 31.766M67.9269 31.766C67.9269 32.9677 68.4062 33.5602 69.3831 33.5602C70.3601 33.5602 70.821 32.9593 70.821 31.766C70.821 30.5727 70.3417 29.9887 69.3739 29.9887C68.867 29.9887 68.4983 30.141 68.2771 30.4457C68.0467 30.7504 67.9361 31.1905 67.9361 31.766" fill="white"/>
<path d="M75.2889 33.5374C75.5601 33.5374 75.8312 33.4931 76.1024 33.4047V34.2712C75.9838 34.3242 75.8228 34.3773 75.6279 34.4126C75.433 34.448 75.2381 34.4657 75.0262 34.4657C73.9755 34.4657 73.4501 33.891 73.4501 32.7416V29.824H72.7383V29.3112L73.5009 28.8868L73.8823 27.7374H74.5686V28.9399H76.0516V29.8151H74.5686V32.7151C74.5686 32.9892 74.6364 33.2014 74.772 33.334C74.9076 33.4666 75.0771 33.5285 75.2974 33.5285" fill="white"/>
<path d="M79.4145 34.4657C78.5864 34.4657 77.9394 34.2284 77.4736 33.7622C77.0078 33.2875 76.7749 32.6433 76.7749 31.8126C76.7749 30.9819 76.9906 30.2953 77.4219 29.8121C77.8532 29.329 78.4483 29.0831 79.2074 29.0831C79.9061 29.0831 80.4582 29.295 80.8722 29.7104C81.2777 30.1257 81.4847 30.7022 81.4847 31.4311V32.0245H77.948C77.9653 32.5331 78.1033 32.9145 78.3621 33.1858C78.6209 33.457 78.9918 33.5927 79.4748 33.5927C79.7854 33.5927 80.0787 33.5672 80.3547 33.5079C80.6221 33.4486 80.9154 33.3553 81.2259 33.2197V34.1182C80.9499 34.2453 80.6738 34.3386 80.3892 34.3895C80.1045 34.4403 79.7854 34.4657 79.4231 34.4657M79.2074 29.9138C78.8451 29.9138 78.5605 30.024 78.3448 30.2444C78.1292 30.4648 77.9998 30.7869 77.9567 31.2192H80.3719C80.3719 30.7869 80.2598 30.4648 80.0528 30.2444C79.8458 30.024 79.5697 29.9138 79.2074 29.9138Z" fill="white"/>
<path d="M84.1762 27.0647H82.8306V34.4658H84.1762V27.0647Z" fill="white"/>
<path d="M91.565 30.4587H94.2683V34.0749C93.8268 34.217 93.4033 34.3147 92.9978 34.3769C92.5923 34.4391 92.1507 34.4658 91.6822 34.4658C90.5738 34.4658 89.7177 34.1459 89.114 33.4973C88.5103 32.8487 88.2129 31.9425 88.2129 30.7697C88.2129 29.5969 88.5553 28.6995 89.2311 28.0509C89.907 27.3934 90.8441 27.0647 92.0336 27.0647C92.7995 27.0647 93.5294 27.2069 94.2143 27.5001L93.7907 28.4774C93.196 28.2108 92.6013 28.0687 92.0066 28.0687C91.2226 28.0687 90.6008 28.3086 90.1503 28.7972C89.6907 29.277 89.4654 29.9434 89.4654 30.7786C89.4654 31.6582 89.6727 32.3245 90.0782 32.7866C90.4837 33.2397 91.0784 33.4707 91.8444 33.4707C92.2318 33.4707 92.6463 33.4263 93.0879 33.3285V31.4716H91.565V30.4587Z" fill="white"/>
<path d="M98.3999 29.0918C98.6313 29.0918 98.8271 29.109 98.9784 29.1435L98.8627 30.1873C98.6936 30.1528 98.5245 30.1269 98.3465 30.1269C97.8837 30.1269 97.501 30.2735 97.2162 30.5668C96.9225 30.8601 96.7801 31.2396 96.7801 31.7054V34.4657H95.6143V29.178H96.522L96.6733 30.1096H96.7356C96.9136 29.7905 97.1539 29.5403 97.4476 29.3592C97.7413 29.178 98.0528 29.0831 98.391 29.0831" fill="white"/>
<path d="M105.025 31.766C105.025 32.6123 104.785 33.2724 104.315 33.7548C103.836 34.2288 103.181 34.4657 102.333 34.4657C101.799 34.4657 101.338 34.3557 100.923 34.1357C100.518 33.9156 100.204 33.6025 99.9832 33.1963C99.762 32.79 99.6514 32.3076 99.6514 31.766C99.6514 30.9281 99.891 30.268 100.361 29.794C100.831 29.3201 101.495 29.0831 102.361 29.0831C103.227 29.0831 103.836 29.3286 104.315 29.811C104.794 30.2934 105.034 30.945 105.034 31.766M100.886 31.766C100.886 32.9677 101.366 33.5602 102.343 33.5602C103.32 33.5602 103.78 32.9593 103.78 31.766C103.78 30.5727 103.301 29.9887 102.333 29.9887C101.827 29.9887 101.458 30.141 101.237 30.4457C101.006 30.7504 100.896 31.1905 100.896 31.766" fill="white"/>
<path d="M110.196 34.3709L110.04 33.6808H109.979C109.823 33.9223 109.597 34.1207 109.302 34.2587C109.007 34.3967 108.678 34.4657 108.305 34.4657C107.654 34.4657 107.177 34.3105 106.856 33.9913C106.536 33.6721 106.379 33.1891 106.379 32.5421V29.0831H107.524V32.3437C107.524 32.7492 107.611 33.0511 107.776 33.2581C107.941 33.4565 108.201 33.56 108.565 33.56C109.042 33.56 109.389 33.422 109.615 33.1373C109.84 32.8527 109.953 32.3782 109.953 31.7227V29.0918H111.089V34.3795H110.196V34.3709Z" fill="white"/>
<path d="M115.448 34.8078C114.697 34.8078 114.11 34.5558 113.696 34.0517H113.619C113.667 34.5198 113.696 34.7988 113.696 34.8978V37.157H112.435V29.1821H113.455C113.484 29.2812 113.542 29.5332 113.629 29.9202H113.696C114.091 29.3622 114.678 29.0831 115.468 29.0831C116.209 29.0831 116.787 29.3352 117.201 29.8302C117.615 30.3253 117.817 31.0274 117.817 31.9275C117.817 32.8276 117.605 33.5296 117.191 34.0427C116.768 34.5467 116.19 34.7988 115.448 34.7988M115.15 30.0462C114.649 30.0462 114.283 30.1813 114.052 30.4603C113.821 30.7303 113.706 31.1714 113.706 31.7654V31.9365C113.706 32.6115 113.821 33.0976 114.052 33.3946C114.283 33.6916 114.659 33.8447 115.169 33.8447C115.603 33.8447 115.94 33.6826 116.18 33.3496C116.421 33.0166 116.537 32.5395 116.537 31.9275C116.537 31.3154 116.421 30.8383 116.19 30.5233C115.959 30.2082 115.612 30.0462 115.16 30.0462" fill="white"/>
<defs>
<linearGradient id="paint0_linear_1483_3668" x1="34.492" y1="-3.88964" x2="9.1928" y2="37.3804" gradientUnits="userSpaceOnUse">
<stop stop-color="#FCF175"/>
<stop offset="0.04" stop-color="#F6E76E"/>
<stop offset="0.2" stop-color="#E1C154"/>
<stop offset="0.29" stop-color="#DAB34A"/>
<stop offset="0.45" stop-color="#CA983C"/>
<stop offset="0.64" stop-color="#BD8332"/>
<stop offset="0.81" stop-color="#B5762C"/>
<stop offset="0.98" stop-color="#B3722A"/>
<stop offset="1" stop-color="#B3722A"/>
</linearGradient>
</defs>
</svg>
