
<svg width="61" height="46" viewBox="0 0 61 46" fill="none" xmlns="http://www.w3.org/2000/svg">
<path d="M15.5152 21.4671C15.6686 21.605 15.902 21.559 16.0888 21.5196H18.35V35.0498H12.18V21.5262H7.33069V16.1102H37.7873C35.5595 17.4297 33.9119 19.1694 32.9247 21.5196H29.3227V35.0498H23.1794V16.9767C21.3317 19.4976 18.5902 21.106 15.5085 21.4671H15.5152Z" fill="#023668"/>
<path d="M46.0518 22.7079C44.3442 21.1192 41.7962 21.152 40.1953 22.7341C38.5944 24.3097 38.6011 26.87 40.1953 28.4521C41.7895 30.0343 44.3709 30.0933 46.0518 28.4718L49.9473 32.3057C46.5054 35.7326 40.9891 36.0017 37.207 33.0935C33.3983 30.1656 32.351 24.9202 34.819 20.7975C37.267 16.7076 42.4032 14.9942 46.939 16.8783C46.9723 18.8215 46.7789 20.745 46.0585 22.721L46.0518 22.7079Z" fill="#023668"/>
<path d="M52.8422 22.8917C52.3953 23.4234 51.9351 23.9486 51.3547 24.3425C51.8884 18.6114 50.6343 13.1954 47.6927 8.34394C47.7061 8.67218 47.9395 8.88883 48.0863 9.16455C50.6677 13.9306 51.6549 19.3598 50.8945 24.7167C49.9673 25.3141 48.9401 25.6621 47.7928 25.6292C51.148 18.3357 49.7605 9.74882 44.2508 3.8864C42.8101 2.35022 41.1825 1.12916 39.3148 0C43.3303 1.12259 46.8923 3.22335 49.9273 5.93464C52.5154 8.2389 54.5765 11.0093 56.1507 14.0948C57.5981 13.1232 59.4592 12.9722 61.0067 13.9897C59.4992 14.8563 58.2452 15.887 57.1312 17.1671C56.0907 18.3357 55.2635 19.6027 54.3097 20.896C53.3758 16.2546 51.5148 11.9218 48.4865 8.3702C51.3747 12.2238 53.3425 16.5632 53.9962 21.3489C53.636 21.907 53.2624 22.3796 52.8556 22.8851L52.8422 22.8917Z" fill="#84267E"/>
<path d="M8.15777 45.3566C7.11053 44.6476 6.60359 43.5907 6.65695 42.3893C6.73699 40.4658 8.29118 39.0084 10.2522 39.015C11.6664 39.015 12.927 39.7962 13.5074 40.991C14.1344 42.2777 13.9209 43.8205 12.9337 44.8577C11.6797 46.1707 9.66526 46.3742 8.15777 45.3501V45.3566ZM11.1261 44.2669C12.1399 43.6695 12.3601 42.409 11.8264 41.4571C11.5063 40.8794 10.946 40.5643 10.3523 40.5446C9.71195 40.5183 9.15832 40.7481 8.77811 41.293C8.13776 42.1924 8.29785 43.4922 9.23169 44.1684C9.74531 44.5426 10.5457 44.6082 11.1261 44.2734V44.2669Z" fill="#862677"/>
<path d="M5.74314 45.849L3.98218 45.8687L3.97551 43.1771L1.75429 43.1902L1.74762 45.8556H0V39.1594L1.74095 39.1463L1.75429 41.6738L3.96884 41.6803L3.98218 39.1463L5.74314 39.1594V45.849Z" fill="#862677"/>
<path d="M37.5672 44.9102H35.1792L34.8324 45.8687L32.958 45.849L35.6862 39.1463L37.0736 39.1594L39.7551 45.8359L37.8807 45.8621L37.5605 44.9102H37.5672ZM37.1003 43.5251L36.3799 41.2733L35.6795 43.5251H37.1003Z" fill="#862677"/>
<path d="M23.0126 43.7351L21.7519 43.7614V45.8621L20.0776 45.8359V39.1594C21.1249 39.1332 22.0654 39.12 23.0459 39.166C23.9264 39.2054 24.6935 39.6386 25.027 40.4593C25.3605 41.2799 25.2405 42.2712 24.6668 42.9867C24.2799 43.466 23.6529 43.7154 23.0192 43.7286L23.0126 43.7351ZM23.5329 41.4243C23.5195 40.4789 22.4389 40.6825 21.7586 40.6496V42.2515C22.1721 42.2646 22.519 42.2712 22.8725 42.2318C23.3127 42.1793 23.5395 41.8313 23.5395 41.4243H23.5329Z" fill="#862677"/>
<path d="M17.9631 45.8096C17.2227 46.0656 16.4623 46.0525 15.7619 45.8096C14.8348 45.4879 14.2678 44.6476 14.4412 43.6498H16.1155C16.1822 43.9911 16.2555 44.3063 16.4423 44.4244C16.7024 44.5951 17.0426 44.5885 17.2961 44.4244C17.4829 44.2997 17.5496 43.9846 17.4829 43.7482C17.2494 42.9079 14.5413 42.9999 14.5012 41.0238C14.4879 40.4396 14.728 39.9472 15.2283 39.5599C16.1288 38.864 17.4495 38.8115 18.3967 39.4745C18.9437 39.8553 19.2105 40.4527 19.1504 41.1092H17.4962C17.4028 40.9057 17.3028 40.6562 17.1894 40.5577C17.0426 40.4264 16.7291 40.433 16.5023 40.5052C16.3289 40.5577 16.2222 40.8334 16.2355 41.0173C16.2489 41.2011 16.4223 41.4243 16.6224 41.5228L18.2433 42.3105C18.957 42.6585 19.3039 43.3478 19.2438 44.1093C19.1905 44.8774 18.7502 45.5339 17.9631 45.8096Z" fill="#862677"/>
<path d="M57.7849 39.166L55.7772 43.4397L55.7905 45.8621H54.0429V43.4528L52.0018 39.166L53.8828 39.1594L54.9034 41.7919L55.9172 39.1594L57.7849 39.166Z" fill="#862677"/>
<path d="M31.4372 45.8359L29.7162 45.8556L29.7029 40.6496L28.3755 40.6431L28.3822 39.1528L32.7779 39.1463L32.8046 40.6496L31.4505 40.6628L31.4372 45.8359Z" fill="#862677"/>
<path d="M50.5076 45.849L48.76 45.8753L48.7533 40.6693L47.4126 40.6562L47.4193 39.1463H51.8484L51.8417 40.6431L50.5076 40.6759V45.849Z" fill="#862677"/>
<path d="M44.2842 44.3522V45.8621L40.5088 45.8687V39.1463L42.2564 39.1528V44.3325L44.2842 44.3522Z" fill="#862677"/>
<path d="M46.7122 45.8424H44.9579L44.9646 39.1594L46.7055 39.1528L46.7122 45.8424Z" fill="#862677"/>
<path d="M27.6752 45.8162C27.1082 45.8818 26.5479 45.8687 25.9342 45.849V39.1594L27.6752 39.1463V45.8162Z" fill="#862677"/>
</svg>
