<svg width="16" height="16" viewBox="0 0 16 16" fill="none" xmlns="http://www.w3.org/2000/svg">
<path d="M1.61872 6.61872C1.27701 6.27701 1.27701 5.72299 1.61872 5.38128L2.02512 4.97488C3.60977 3.39023 5.75899 2.5 8 2.5C10.2411 2.5 12.3902 3.39024 13.9748 4.97488L14.3813 5.38129C14.723 5.72299 14.723 6.27701 14.3813 6.61872C14.0396 6.96043 13.4856 6.96043 13.1439 6.61873L12.7374 6.21231C11.481 4.95586 9.77686 4.25 8 4.25C6.22312 4.25 4.51901 4.95586 3.26257 6.21231L2.85615 6.61872C2.51444 6.96043 1.96043 6.96043 1.61872 6.61872Z" fill="#023668"/>
<path d="M5.33075 9.0936C4.98904 9.43529 4.43505 9.43529 4.09334 9.09359C3.75163 8.75189 3.75162 8.19786 4.09333 7.85615L4.49973 7.44974C5.42799 6.52149 6.68698 6 7.99973 6C9.31249 6 10.5714 6.52149 11.4997 7.44975L11.9061 7.85615C12.2479 8.19786 12.2479 8.75189 11.9061 9.0936C11.5644 9.43529 11.0105 9.4353 10.6687 9.09362L10.2623 8.68721C9.66222 8.08711 8.84836 7.75 7.99973 7.75C7.15111 7.75 6.33723 8.08711 5.73717 8.68721L5.33075 9.0936Z" fill="#023668"/>
<path d="M7.99948 13L6.65633 11.6569C6.2658 11.2664 6.2658 10.6332 6.65632 10.2427L6.97434 9.92464C7.24622 9.65278 7.61497 9.5 7.99948 9.5C8.38397 9.5 8.75272 9.65278 9.0246 9.92464L9.34262 10.2427C9.73313 10.6332 9.73312 11.2664 9.3426 11.6569L7.99948 13Z" fill="#023668"/>
</svg>
