<svg width="16" height="16" viewBox="0 0 16 16" fill="none" xmlns="http://www.w3.org/2000/svg">
<path d="M13.4441 6.4445V3.33339C13.4441 2.92083 13.2802 2.52517 12.9885 2.23344C12.6968 1.94172 12.3011 1.77783 11.8886 1.77783C11.476 1.77783 11.0803 1.94172 10.7886 2.23344C10.4969 2.52517 10.333 2.92083 10.333 3.33339" stroke="#023668" stroke-linecap="round" stroke-linejoin="round"/>
<path d="M3.7219 12.6667L3.33301 14.2223M12.2775 12.6667L12.6663 14.2223" stroke="#023668" stroke-linecap="round" stroke-linejoin="round"/>
<path d="M15 6.44446H1M4.88889 12.6667H11.1111C11.9362 12.6667 12.7276 12.3389 13.311 11.7555C13.8944 11.172 14.2222 10.3807 14.2222 9.55557V6.44446H1.77778V9.55557C1.77778 10.3807 2.10555 11.172 2.689 11.7555C3.27245 12.3389 4.06377 12.6667 4.88889 12.6667Z" stroke="#023668" stroke-linecap="round" stroke-linejoin="round"/>
</svg>
