<svg width="16" height="16" viewBox="0 0 16 16" fill="none" xmlns="http://www.w3.org/2000/svg">
<path d="M12.8272 5.82752C12.9624 5.82752 13.0686 5.72132 13.0686 5.58614C13.0686 5.45097 12.9624 5.34477 12.8272 5.34477H12.1031V4.18614C12.1031 3.51994 11.5624 2.97925 10.8962 2.97925H4.13756C3.47135 2.97925 2.93066 3.51994 2.93066 4.18614V11.8137C2.93066 12.4799 3.47135 13.0206 4.13756 13.0206H10.8962C11.5624 13.0206 12.1031 12.4799 12.1031 11.8137V10.6551H12.8272C12.9624 10.6551 13.0686 10.5489 13.0686 10.4137C13.0686 10.2786 12.9624 10.1724 12.8272 10.1724H12.1031V8.24132H12.8272C12.9624 8.24132 13.0686 8.13511 13.0686 7.99994C13.0686 7.86476 12.9624 7.75856 12.8272 7.75856H12.1031V5.82752H12.8272ZM11.6203 7.75856H10.8962C10.761 7.75856 10.6548 7.86476 10.6548 7.99994C10.6548 8.13511 10.761 8.24132 10.8962 8.24132H11.6203V10.1724H10.8962C10.761 10.1724 10.6548 10.2786 10.6548 10.4137C10.6548 10.5489 10.761 10.6551 10.8962 10.6551H11.6203V11.8137C11.6203 12.2144 11.2969 12.5379 10.8962 12.5379H4.13756C3.73687 12.5379 3.41342 12.2144 3.41342 11.8137V4.18614C3.41342 3.78545 3.73687 3.46201 4.13756 3.46201H10.8962C11.2969 3.46201 11.6203 3.78545 11.6203 4.18614V5.34477H10.8962C10.761 5.34477 10.6548 5.45097 10.6548 5.58614C10.6548 5.72132 10.761 5.82752 10.8962 5.82752H11.6203V7.75856Z" fill="#023668" stroke="#023668" stroke-width="0.5"/>
<path d="M6.48262 6.5C5.5509 6.5 4.79297 7.25793 4.79297 8.18965C4.79297 9.12138 5.5509 9.87931 6.48262 9.87931C7.41435 9.87931 8.17228 9.12138 8.17228 8.18965C8.17228 7.25793 7.41435 6.5 6.48262 6.5ZM6.48262 9.39655C5.81642 9.39655 5.27573 8.85586 5.27573 8.18965C5.27573 7.52345 5.81642 6.98276 6.48262 6.98276C7.14883 6.98276 7.68952 7.52345 7.68952 8.18965C7.68952 8.85586 7.14883 9.39655 6.48262 9.39655Z" fill="#023668" stroke="#023668" stroke-width="0.5"/>
<rect x="1.29297" y="1" width="13" height="14" rx="0.5" stroke="#023668"/>
</svg>
