<svg width="16" height="16" viewBox="0 0 16 16" fill="none" xmlns="http://www.w3.org/2000/svg">
<g clip-path="url(#clip0_3430_4218)">
<path d="M10.954 13.8233C12.056 13.3589 12.6629 12.7157 12.6629 12.0124C12.6629 11.309 12.056 10.6658 10.954 10.2014C10.4946 10.0079 9.96905 9.85298 9.39943 9.7404C9.62391 9.68332 9.83576 9.61756 10.0318 9.5435C10.8953 9.21728 11.371 8.75463 11.371 8.24073C11.371 7.72682 10.8954 7.26418 10.0318 6.93796C9.80664 6.8529 9.56016 6.77914 9.29808 6.71658C9.46229 6.66364 9.61719 6.60247 9.76044 6.53339C10.3824 6.23332 10.725 5.81374 10.725 5.35183C10.725 4.88993 10.3824 4.47035 9.76044 4.17028C9.48037 4.03518 9.15585 3.93021 8.8037 3.85856C9.31364 3.60488 9.59448 3.25292 9.59448 2.86416C9.59448 2.46708 9.30209 2.10808 8.7712 1.85334C8.29637 1.62548 7.67108 1.5 7.01058 1.5C6.35006 1.5 5.72479 1.62548 5.24991 1.85339C4.71899 2.10813 4.42663 2.4671 4.42663 2.86421C4.42663 3.26132 4.71899 3.62029 5.24991 3.87504C5.41117 3.95243 5.59009 4.01768 5.78156 4.07055C5.70246 4.10175 5.62597 4.13494 5.55266 4.17031C4.93067 4.47037 4.58816 4.88995 4.58816 5.35186C4.58816 5.81377 4.93069 6.23335 5.55266 6.53341C5.58176 6.54748 5.61168 6.56096 5.64175 6.57437C5.08989 6.65244 4.58225 6.77505 4.15083 6.93801C3.28732 7.2642 2.81169 7.72685 2.81169 8.24073C2.81169 8.75461 3.28729 9.21728 4.15083 9.5435C4.34692 9.61756 4.55875 9.68332 4.78322 9.7404C4.21363 9.85298 3.68806 10.0078 3.22868 10.2014C2.12664 10.6658 1.51972 11.309 1.51972 12.0124C1.51972 12.7157 2.12661 13.3589 3.22868 13.8233C3.39539 13.8935 3.57091 13.9586 3.75402 14.0185H0.792969V14.5H13.793V14.0185H10.4287C10.6117 13.9586 10.7873 13.8935 10.954 13.8233ZM5.46056 3.44142C5.11138 3.27389 4.91112 3.06348 4.91112 2.86419C4.91112 2.6649 5.11138 2.45448 5.46056 2.28696C5.87108 2.08998 6.42152 1.98148 7.01058 1.98148C7.59964 1.98148 8.15008 2.08998 8.5606 2.28696C8.90978 2.45448 9.11004 2.6649 9.11004 2.86419C9.11004 3.06348 8.90978 3.27389 8.5606 3.44142C8.15008 3.6384 7.59964 3.74689 7.01058 3.74689C6.42152 3.74689 5.87108 3.63842 5.46056 3.44142ZM5.07262 5.35186C5.07262 5.08825 5.32471 4.81548 5.76424 4.60347C6.26562 4.36157 6.93764 4.2284 7.65657 4.2284C8.3755 4.2284 9.04749 4.36157 9.5489 4.60347C9.98842 4.81548 10.2405 5.08825 10.2405 5.35186C10.2405 5.61546 9.98842 5.88824 9.5489 6.10025C9.04752 6.34214 8.3755 6.47532 7.65657 6.47532C6.93764 6.47532 6.26564 6.34214 5.76424 6.10025C5.32471 5.88821 5.07262 5.61544 5.07262 5.35186ZM4.32295 9.09342C3.68001 8.85056 3.29616 8.53178 3.29616 8.24075C3.29616 7.9497 3.68001 7.63095 4.32295 7.38809C5.05916 7.10996 6.04232 6.9568 7.09132 6.9568C8.14032 6.9568 9.12348 7.10993 9.85968 7.38809C10.5026 7.63095 10.8865 7.94973 10.8865 8.24075C10.8865 8.53178 10.5026 8.85056 9.85968 9.09342C9.12348 9.37155 8.14032 9.52471 7.09132 9.52471C6.04232 9.52471 5.05913 9.37155 4.32295 9.09342ZM3.4178 13.38C2.51943 13.0014 2.00418 12.5029 2.00418 12.0123C2.00418 11.5217 2.51941 11.0232 3.4178 10.6447C4.39493 10.2329 5.69952 10.0061 7.09132 10.0061C8.48311 10.0061 9.78773 10.2329 10.7648 10.6447C11.6632 11.0232 12.1785 11.5217 12.1785 12.0123C12.1785 12.5029 11.6632 13.0014 10.7648 13.38C9.78771 13.7918 8.48311 14.0185 7.09132 14.0185C5.69952 14.0185 4.3949 13.7918 3.4178 13.38Z" fill="#023668" stroke="#023668" stroke-width="0.5"/>
<path d="M3.46403 12.2396C3.41617 12.3745 3.536 12.4938 3.67918 12.4938C3.82237 12.4938 3.95075 12.3706 4.04724 12.2648C4.27446 12.0157 4.84715 11.767 5.66664 11.7229C5.80962 11.7152 5.92609 11.6 5.92609 11.4568C5.92609 11.3136 5.8099 11.1968 5.66689 11.2037C4.53272 11.2587 3.66492 11.673 3.46403 12.2396Z" fill="#023668"/>
</g>
<defs>
<clipPath id="clip0_3430_4218">
<rect width="14" height="14" fill="white" transform="translate(1 1)"/>
</clipPath>
</defs>
</svg>
