<svg width="16" height="16" viewBox="0 0 16 16" fill="none" xmlns="http://www.w3.org/2000/svg">
<g clip-path="url(#clip0_3430_4197)">
<path d="M10 13.6C11.3011 13.6 12.4862 13.0533 13.3757 12.1574C14.374 11.1518 15 9.70631 15 8.09998C15 5.06241 12.7614 2.59998 10 2.59998" stroke="#023668" stroke-linecap="round"/>
<path d="M10.5 11.95L9 13.6L11 15.25" stroke="#023668" stroke-linecap="round" stroke-linejoin="round"/>
<path d="M7 3.15002C5.69888 3.15002 4.51383 3.69671 3.62434 4.59265C2.62602 5.5982 2 7.04369 2 8.65002C2 11.6876 4.23858 14.15 7 14.15" stroke="#023668" stroke-linecap="round"/>
<path d="M6.5 4.80005L8 3.15005L6 1.50005" stroke="#023668" stroke-linecap="round" stroke-linejoin="round"/>
<path d="M7.22676 10H4.84733C4.66589 10 4.62441 9.98445 4.62441 9.93779C4.62441 9.89114 4.71773 9.80301 4.85251 9.69933C4.99248 9.58528 5.11171 9.4816 5.2102 9.39348C5.3087 9.30535 5.43311 9.17575 5.58345 9.00986C5.73378 8.84398 5.85301 8.68328 5.94632 8.53294C6.13295 8.22709 6.30402 7.79163 6.30402 7.3821C6.30402 7.01404 6.21071 6.76003 6.06555 6.65116C5.9204 6.54749 5.80636 6.51638 5.66639 6.51638C5.45385 6.51638 5.28278 6.59414 5.15318 6.74448C5.04432 6.87407 4.98729 7.02959 4.98211 7.2214C4.97692 7.30953 4.95619 7.351 4.9199 7.351C4.87843 7.351 4.85769 7.30434 4.85251 7.21103C4.85251 7.20066 4.84733 7.08143 4.83696 6.85334C4.82659 6.63043 4.82141 6.49565 4.82141 6.44899C4.82141 6.36086 4.84733 6.30384 4.89398 6.27792C5.13763 6.13795 5.61973 6.02391 6.16405 6.02391C7.26823 6.02391 7.75552 6.49565 7.75552 7.23695C7.75552 7.52207 7.66221 7.79682 7.46522 8.0301C7.36673 8.14933 7.27342 8.24782 7.19047 8.33595C7.10235 8.42408 6.9883 8.5122 6.84315 8.6107C6.698 8.70919 6.59432 8.78177 6.53211 8.81806C6.4699 8.85953 6.37659 8.91655 6.25218 8.98913C6.23663 8.99431 6.23144 8.9995 6.23144 9.00468C6.23144 9.00986 6.24181 9.01505 6.26255 9.01505H6.4699C6.80686 9.01505 7.09198 9.00468 7.33044 8.98913C7.71924 8.96321 7.82292 8.84398 7.86957 8.57441C7.89031 8.42926 7.99917 8.41889 7.99917 8.60033C7.99917 8.69364 7.97843 8.89582 7.94215 9.21204C7.90068 9.52826 7.86957 9.73562 7.84365 9.82375C7.82292 9.9015 7.78144 9.95334 7.71405 9.9689C7.64666 9.98963 7.48596 10 7.22676 10ZM11.3667 8.53294H11.5585C11.8385 8.53294 12.0043 8.5122 12.0562 8.46555C12.0769 8.44481 12.0925 8.44481 12.108 8.44481C12.1236 8.44481 12.1443 8.45 12.1443 8.49147C12.1443 8.53812 12.1236 8.64699 12.0769 8.81806C12.0303 8.98913 11.9836 9.10318 11.9473 9.1602C11.8851 9.24314 11.8592 9.26388 11.6985 9.26906H11.6467H11.6415H11.6363H11.6311H11.6259H11.6207H11.6155H11.6104H11.5948H11.5274H11.5222H11.5171H11.5119H11.5067H11.5015H11.4963H11.4911H11.4756H11.4082H11.403H11.3978H11.3926H11.3875H11.3823H11.3719H11.3667C11.3667 9.36756 11.3667 9.44013 11.3719 9.49197C11.3875 9.80301 11.4341 9.89114 11.7296 9.89632C11.8074 9.89632 11.8488 9.91706 11.8488 9.95853C11.8488 9.99482 11.8074 10.0156 11.7192 10.0156C11.6 10.0156 11.4186 10.0156 11.1697 10.0104C10.9157 10.0052 10.7757 10 10.7446 10C10.6617 10 10.5062 10.0052 10.2833 10.0104C10.0552 10.0156 9.88929 10.0156 9.78043 10.0156C9.69748 10.0156 9.65601 9.99482 9.65601 9.95853C9.65601 9.92224 9.69748 9.9015 9.78561 9.89632C9.9515 9.89114 10.0604 9.86522 10.107 9.82375C10.1537 9.78746 10.1796 9.68378 10.19 9.52308C10.1951 9.40385 10.2003 9.3209 10.2003 9.26906C9.77006 9.26906 9.25166 9.25869 8.64514 9.24314C8.51036 9.23796 8.44297 9.20167 8.44297 9.13946C8.44297 9.09281 8.50517 9.00468 8.6244 8.86471C8.68143 8.80251 8.83695 8.62107 9.09096 8.3204C9.34497 8.01973 9.60936 7.70869 9.88411 7.38729C10.1589 7.06588 10.4129 6.78076 10.641 6.52675C11.0298 6.09648 11.2008 5.92541 11.289 5.92541C11.3667 5.92541 11.3719 5.99799 11.3719 6.20534C11.3719 6.23126 11.3667 6.31421 11.3667 6.51638V6.71337V6.72374V6.73929V6.74966V6.76003V6.77558V6.78595V6.79631V6.83779V6.84815V8.53294ZM10.2003 8.53294V7.71906C10.1537 7.77608 10.0811 7.85903 9.9826 7.97307C9.88411 8.08712 9.79598 8.1908 9.71822 8.27893C9.64046 8.36705 9.57825 8.45 9.52123 8.52776C9.60936 8.53294 9.83227 8.53294 10.2003 8.53294Z" fill="#023668"/>
</g>
<defs>
<clipPath id="clip0_3430_4197">
<rect width="16" height="16" fill="white"/>
</clipPath>
</defs>
</svg>
