<svg width="16" height="16" viewBox="0 0 16 16" fill="none" xmlns="http://www.w3.org/2000/svg">
<path d="M6.59635 10C7.12846 11.1852 7.55415 13.6444 5 14" stroke="#023668" stroke-linecap="round"/>
<path d="M9.40365 10C8.87154 11.1852 8.44585 13.6444 11 14" stroke="#023668" stroke-linecap="round"/>
<path d="M8 3.5C9.60734 3.5 11.0395 3.77199 12.0508 4.19336C12.5573 4.40445 12.9347 4.64339 13.1777 4.88281C13.4191 5.12056 13.5 5.329 13.5 5.5C13.5 5.671 13.4191 5.87944 13.1777 6.11719C12.9347 6.35661 12.5573 6.59555 12.0508 6.80664C11.0395 7.22801 9.60734 7.5 8 7.5C6.39266 7.5 4.96049 7.22801 3.94922 6.80664C3.44265 6.59555 3.06534 6.35661 2.82227 6.11719C2.58092 5.87944 2.5 5.671 2.5 5.5C2.5 5.329 2.58092 5.12056 2.82227 4.88281C3.06534 4.64339 3.44265 4.40445 3.94922 4.19336C4.96049 3.77199 6.39266 3.5 8 3.5Z" stroke="#023668"/>
<path d="M3 6.5V8C3 9.10457 5.23858 10 8 10C10.7614 10 13 9.10457 13 8V6.5" stroke="#023668"/>
</svg>
