<svg width="16" height="16" viewBox="0 0 16 16" fill="none" xmlns="http://www.w3.org/2000/svg">
<g clip-path="url(#clip0_3430_4228)">
<path fill-rule="evenodd" clip-rule="evenodd" d="M15 8.375C15 11.7577 11.8661 14.5 8 14.5C8 11.6003 9 7.9375 14 7.5H14.929C14.9764 7.7898 15.0001 8.08222 15 8.375Z" stroke="#023668" stroke-linecap="round" stroke-linejoin="round"/>
<path fill-rule="evenodd" clip-rule="evenodd" d="M1 8.375C1 11.7577 4.13395 14.5 8 14.5C8 11.6003 7 7.9375 2 7.5H1.07098C1.02359 7.7898 0.999898 8.08222 1 8.375Z" stroke="#023668" stroke-linecap="round" stroke-linejoin="round"/>
<path d="M15 7.5C15 3.63401 11.866 0.5 8 0.5C4.13401 0.5 1 3.63401 1 7.5" stroke="#023668"/>
<path d="M15 7.5L1 7.5" stroke="#023668" stroke-linecap="round" stroke-linejoin="round"/>
</g>
<defs>
<clipPath id="clip0_3430_4228">
<rect width="16" height="16" fill="white"/>
</clipPath>
</defs>
</svg>
